# This file uses centimeters as units for non-parametric coordinates.

v -0.000001 -0.500000 2.000000
v 0.765366 -0.500000 1.847759
v 1.414213 -0.500000 1.414214
v 1.847759 -0.500000 0.765367
v 2.000000 -0.500000 0.000000
v 1.847759 -0.500000 -0.765367
v 1.414214 -0.500000 -1.414213
v 0.765367 -0.500000 -1.847759
v 0.000000 -0.500000 -2.000000
v -0.000001 0.500000 2.000000
v 0.765366 0.500000 1.847759
v 1.414213 0.500000 1.414214
v 1.847759 0.500000 0.765367
v 2.000000 0.500000 0.000000
v 1.847759 0.500000 -0.765367
v 1.414214 0.500000 -1.414213
v 0.765367 0.500000 -1.847759
v 0.000000 0.500000 -2.000000
v 0.000000 0.500000 0.000000
vt 0.484375 0.312500
vt 0.500000 0.312500
vt 0.515625 0.312500
vt 0.531250 0.312500
vt 0.546875 0.312500
vt 0.562500 0.312500
vt 0.578125 0.312500
vt 0.593750 0.312500
vt 0.609375 0.312500
vt 0.484375 0.688440
vt 0.500000 0.688440
vt 0.515625 0.688440
vt 0.531250 0.688440
vt 0.546875 0.688440
vt 0.562500 0.688440
vt 0.578125 0.688440
vt 0.593750 0.688440
vt 0.609375 0.688440
vt 0.644356 0.783956
vt 0.610485 0.733265
vt 0.559794 0.699394
vt 0.500000 0.687500
vt 0.440206 0.699394
vt 0.389515 0.733265
vt 0.355644 0.783956
vt 0.343750 0.843750
vt 0.656250 0.843750
vt 0.500000 0.837500
vn 0.195090 0.000000 0.980785
vn 0.382683 0.000000 0.923880
vn 0.382683 0.000000 0.923880
vn 0.195090 0.000000 0.980785
vn 0.707107 0.000000 0.707107
vn 0.707107 0.000000 0.707107
vn 0.923879 0.000000 0.382684
vn 0.923879 0.000000 0.382684
vn 1.000000 0.000000 0.000000
vn 1.000000 0.000000 0.000000
vn 0.923880 0.000000 -0.382683
vn 0.923880 0.000000 -0.382683
vn 0.707107 0.000000 -0.707107
vn 0.707107 0.000000 -0.707107
vn 0.382684 0.000000 -0.923880
vn 0.382684 0.000000 -0.923880
vn 0.195090 0.000000 -0.980785
vn 0.195090 0.000000 -0.980785
vn 0.000000 1.000000 0.000000
vn 0.000000 1.000000 0.000000
vn 0.000000 1.000000 0.000000
vn 0.000000 1.000000 0.000000
vn 0.000000 1.000000 0.000000
vn 0.000000 1.000000 0.000000
vn 0.000000 1.000000 0.000000
vn 0.000000 1.000000 0.000000
vn 0.000000 1.000000 0.000000
vn 0.000000 1.000000 0.000000
g pCylinder1
f 1/1/1 2/2/2 11/11/3 10/10/4
f 2/2/2 3/3/5 12/12/6 11/11/3
f 3/3/5 4/4/7 13/13/8 12/12/6
f 4/4/7 5/5/9 14/14/10 13/13/8
f 5/5/9 6/6/11 15/15/12 14/14/10
f 6/6/11 7/7/13 16/16/14 15/15/12
f 7/7/13 8/8/15 17/17/16 16/16/14
f 8/8/15 9/9/17 18/18/18 17/17/16
f 10/26/19 11/25/20 19/28/21
f 11/25/20 12/24/22 19/28/21
f 12/24/22 13/23/23 19/28/21
f 13/23/23 14/22/24 19/28/21
f 14/22/24 15/21/25 19/28/21
f 15/21/25 16/20/26 19/28/21
f 16/20/26 17/19/27 19/28/21
f 17/19/27 18/27/28 19/28/21
