# This file uses centimeters as units for non-parametric coordinates.

mtllib noparking.mtl
v -0.141664 2.116372 0.016370
v -0.141664 1.805389 0.016370
v 0.124430 2.116372 0.016370
v 0.124430 1.805389 0.016370
v 0.009957 0.000327 -0.010080
v 0.009957 0.000327 0.009605
v -0.009730 0.000327 0.009605
v -0.009730 0.000327 -0.010080
v 0.009957 2.085989 -0.010080
v -0.009730 2.085989 -0.010080
v -0.009730 2.085989 0.009605
v 0.009957 2.085989 0.009605
v 0.124598 2.116372 0.009867
v 0.124598 1.805390 0.009868
v -0.141496 2.116372 0.009867
v -0.141496 1.805390 0.009868
vt 0.138682 0.677556
vt 0.138682 0.468416
vt 0.261657 0.677556
vt 0.261657 0.468416
vt 0.261657 0.677556
vt 0.138682 0.468416
vt 0.079254 0.024983
vt 0.079254 0.658204
vt 0.076015 0.658204
vt 0.076015 0.658204
vt 0.076015 0.024983
vt 0.079254 0.024983
vt 0.076015 0.024983
vt 0.079254 0.024983
vt 0.079254 0.658204
vt 0.079254 0.658204
vt 0.076015 0.658204
vt 0.076015 0.024983
vt 0.076015 0.024983
vt 0.079254 0.024983
vt 0.079254 0.658204
vt 0.079254 0.658204
vt 0.076015 0.658204
vt 0.076015 0.024983
vt 0.076015 0.024983
vt 0.079254 0.024983
vt 0.079254 0.658204
vt 0.079254 0.658204
vt 0.076015 0.658204
vt 0.076015 0.024983
vt 0.076015 0.024983
vt 0.079254 0.024983
vt 0.079254 0.658204
vt 0.079254 0.658204
vt 0.076015 0.658204
vt 0.076015 0.024983
vt 0.076015 0.024983
vt 0.079254 0.024983
vt 0.079254 0.658204
vt 0.079254 0.658204
vt 0.076015 0.658204
vt 0.076015 0.024983
vt 0.010129 0.984354
vt 0.010129 0.719419
vt 0.141547 0.984354
vt 0.141547 0.719419
vt 0.141547 0.984354
vt 0.010129 0.719419
vn -0.000000 -0.000000 1.000000
vn -0.000000 -0.000000 1.000000
vn -0.000000 -0.000000 1.000000
vn -0.000000 -0.000000 1.000000
vn -0.000000 -0.000000 1.000000
vn -0.000000 -0.000000 1.000000
vn 0.000000 -1.000000 -0.000000
vn 0.000000 -1.000000 -0.000000
vn 0.000000 -1.000000 -0.000000
vn 0.000000 -1.000000 -0.000000
vn 0.000000 -1.000000 -0.000000
vn 0.000000 -1.000000 -0.000000
vn 0.000000 1.000000 0.000000
vn 0.000000 1.000000 0.000000
vn 0.000000 1.000000 0.000000
vn 0.000000 1.000000 0.000000
vn 0.000000 1.000000 0.000000
vn 0.000000 1.000000 0.000000
vn 0.000000 0.000000 -1.000000
vn 0.000000 0.000000 -1.000000
vn 0.000000 0.000000 -1.000000
vn 0.000000 0.000000 -1.000000
vn 0.000000 0.000000 -1.000000
vn 0.000000 0.000000 -1.000000
vn -1.000000 0.000000 -0.000000
vn -1.000000 0.000000 -0.000000
vn -1.000000 0.000000 -0.000000
vn -1.000000 0.000000 -0.000000
vn -1.000000 0.000000 -0.000000
vn -1.000000 0.000000 -0.000000
vn -0.000000 0.000000 1.000000
vn -0.000000 0.000000 1.000000
vn -0.000000 0.000000 1.000000
vn -0.000000 0.000000 1.000000
vn -0.000000 0.000000 1.000000
vn -0.000000 0.000000 1.000000
vn 1.000000 0.000000 0.000000
vn 1.000000 0.000000 0.000000
vn 1.000000 0.000000 0.000000
vn 1.000000 0.000000 0.000000
vn 1.000000 0.000000 0.000000
vn 1.000000 0.000000 0.000000
vn 0.000000 -0.000000 -1.000000
vn 0.000000 -0.000000 -1.000000
vn 0.000000 -0.000000 -1.000000
vn 0.000000 -0.000000 -1.000000
vn 0.000000 -0.000000 -1.000000
vn 0.000000 -0.000000 -1.000000
g handicawparking01
usemtl signs
f 1/1/1 2/2/2 3/3/3
f 4/4/4 3/5/5 2/6/6
f 5/7/7 6/8/8 7/9/9
f 7/10/10 8/11/11 5/12/12
f 9/13/13 10/14/14 11/15/15
f 11/16/16 12/17/17 9/18/18
f 5/19/19 8/20/20 10/21/21
f 10/22/22 9/23/23 5/24/24
f 8/25/25 7/26/26 11/27/27
f 11/28/28 10/29/29 8/30/30
f 7/31/31 6/32/32 12/33/33
f 12/34/34 11/35/35 7/36/36
f 6/37/37 5/38/38 9/39/39
f 9/40/40 12/41/41 6/42/42
f 13/43/43 14/44/44 15/45/45
f 16/46/46 15/47/47 14/48/48
