# This file uses centimeters as units for non-parametric coordinates.

mtllib speedlimit35.mtl
v -0.164985 2.174492 0.016072
v -0.164985 1.694668 0.016072
v 0.163602 2.174492 0.016072
v 0.163602 1.694668 0.016072
v 0.009957 0.000327 -0.010080
v 0.009957 0.000327 0.009605
v -0.009730 0.000327 0.009605
v -0.009730 0.000327 -0.010080
v 0.009957 2.137930 -0.010080
v -0.009730 2.137930 -0.010080
v -0.009730 2.137930 0.009605
v 0.009957 2.137930 0.009605
v 0.163809 2.174492 0.010165
v 0.163809 1.694668 0.010165
v -0.164777 2.174492 0.010165
v -0.164777 1.694668 0.010165
vt 0.562286 0.413113
vt 0.690548 0.413113
vt 0.690268 0.160889
vt 0.562733 0.160889
vt 0.079254 0.024983
vt 0.079254 0.658204
vt 0.076015 0.658204
vt 0.076015 0.658204
vt 0.076015 0.024983
vt 0.079254 0.024983
vt 0.076015 0.024983
vt 0.079254 0.024983
vt 0.079254 0.658204
vt 0.079254 0.658204
vt 0.076015 0.658204
vt 0.076015 0.024983
vt 0.076015 0.024983
vt 0.079254 0.024983
vt 0.079254 0.658204
vt 0.079254 0.658204
vt 0.076015 0.658204
vt 0.076015 0.024983
vt 0.076015 0.024983
vt 0.079254 0.024983
vt 0.079254 0.658204
vt 0.079254 0.658204
vt 0.076015 0.658204
vt 0.076015 0.024983
vt 0.076015 0.024983
vt 0.079254 0.024983
vt 0.079254 0.658204
vt 0.079254 0.658204
vt 0.076015 0.658204
vt 0.076015 0.024983
vt 0.076015 0.024983
vt 0.079254 0.024983
vt 0.079254 0.658204
vt 0.079254 0.658204
vt 0.076015 0.658204
vt 0.076015 0.024983
vt 0.010129 0.984354
vt 0.141547 0.984354
vt 0.141547 0.719419
vt 0.010129 0.719419
vn -0.000000 -0.000000 1.000000
vn -0.000000 -0.000000 1.000000
vn -0.000000 -0.000000 1.000000
vn -0.000000 -0.000000 1.000000
vn 0.000000 -1.000000 -0.000000
vn 0.000000 -1.000000 -0.000000
vn 0.000000 -1.000000 -0.000000
vn 0.000000 -1.000000 -0.000000
vn 0.000000 -1.000000 -0.000000
vn 0.000000 -1.000000 -0.000000
vn 0.000000 1.000000 0.000000
vn 0.000000 1.000000 0.000000
vn 0.000000 1.000000 0.000000
vn 0.000000 1.000000 0.000000
vn 0.000000 1.000000 0.000000
vn 0.000000 1.000000 0.000000
vn 0.000000 0.000000 -1.000000
vn 0.000000 0.000000 -1.000000
vn 0.000000 0.000000 -1.000000
vn 0.000000 0.000000 -1.000000
vn 0.000000 0.000000 -1.000000
vn 0.000000 0.000000 -1.000000
vn -1.000000 0.000000 -0.000000
vn -1.000000 0.000000 -0.000000
vn -1.000000 0.000000 -0.000000
vn -1.000000 0.000000 -0.000000
vn -1.000000 0.000000 -0.000000
vn -1.000000 0.000000 -0.000000
vn -0.000000 0.000000 1.000000
vn -0.000000 0.000000 1.000000
vn -0.000000 0.000000 1.000000
vn -0.000000 0.000000 1.000000
vn -0.000000 0.000000 1.000000
vn -0.000000 0.000000 1.000000
vn 1.000000 0.000000 0.000000
vn 1.000000 0.000000 0.000000
vn 1.000000 0.000000 0.000000
vn 1.000000 0.000000 0.000000
vn 1.000000 0.000000 0.000000
vn 1.000000 0.000000 0.000000
vn 0.000000 -0.000000 -1.000000
vn 0.000000 -0.000000 -1.000000
vn 0.000000 -0.000000 -1.000000
vn 0.000000 -0.000000 -1.000000
g handicawparking01
usemtl signs
f 3/2/1 1/1/2 2/4/3 4/3/4
f 5/5/5 6/6/6 7/7/7
f 7/8/8 8/9/9 5/10/10
f 9/11/11 10/12/12 11/13/13
f 11/14/14 12/15/15 9/16/16
f 5/17/17 8/18/18 10/19/19
f 10/20/20 9/21/21 5/22/22
f 8/23/23 7/24/24 11/25/25
f 11/26/26 10/27/27 8/28/28
f 7/29/29 6/30/30 12/31/31
f 12/32/32 11/33/33 7/34/34
f 6/35/35 5/36/36 9/37/37
f 9/38/38 12/39/39 6/40/40
f 15/42/41 13/41/42 14/44/43 16/43/44
