# Alias OBJ Model File
# Exported from SketchUp, (c) 2000-2012 Trimble Navigation Limited
# File units = inches

mtllib ExtensionTransition.mtl

g Mesh1 Model

usemtl Curbs_2m_2
v 36.3784 0 42.7962
vt -1.10985 -32.6995
vn 0 -1 -0
v 35.6032 0 42.1495
vt -1.08181 -32.6986
v 37.2047 0 40.2298
vt -1.08258 -32.4869
v 37.9157 0 40.823
vt -1.1083 -32.4878
v 40.3589 0 42.5983
vt -1.19206 -32.4735
v 42.9956 0 44.2711
vt -1.27819 -32.4422
v 45.8137 0 45.8316
vt -1.36625 -32.3937
v 47.775 0 46.777
vt -1.42506 -32.3508
v 47.775 0 49.5523
vt -1.47379 -32.5329
v 44.6644 0 48.0529
vt -1.38051 -32.601
v 41.7193 0 46.422
vt -1.28847 -32.6516
v 38.9531 0 44.6671
vt -1.19812 -32.6845
f 1/1/1 2/2/1 3/3/1 4/4/1 5/5/1 6/6/1 7/7/1 8/8/1 9/9/1 10/10/1 11/11/1 12/12/1 

v 34.0072 0 40.818
vt 1.4517 0
vn -0.667502 0 0.744608
vt 1.50944 0
vn -0.640608 0 0.767868
vt 1.53748 0
vn -0.614569 0 0.788863
v 36.3784 1.6875 42.7962
vt 1.53748 1.125
v 35.5644 1.6875 42.1171
vt 1.50804 1.125
v 34.0072 1.6875 40.818
vt 1.4517 1.125
f 13/13/2 2/14/3 1/15/4 14/16/4 15/17/3 16/18/2 

usemtl Curbs_2m_2_2_
v 35.677 0 38.9553
vt 0.128783 0.236027
vt 4.44089e-016 0.141849
vt 0.135005 0
vt 0.269545 0.0983872
v 31.8502 0 38.7414
vt 0.451375 0.251831
v 29.9174 0 36.576
vt 0.614309 0.411837
v 28.2176 0 34.3318
vt 0.757601 0.577671
v 26.7585 0 32.0189
vt 0.880593 0.748574
v 25.547 0 29.6481
vt 0.982722 0.923761
v 25.3421 0 29.131
vt 1 0.961967
v 27.8273 0 28.6163
vt 0.7905 1
v 28.9333 0 30.7807
vt 0.697266 0.840071
v 30.275 0 32.9075
vt 0.584164 0.682912
v 31.8495 0 34.9864
vt 0.451435 0.529302
v 33.6523 0 37.006
vt 0.299464 0.380063
f 17/19/1 3/20/1 2/21/1 13/22/1 18/23/1 19/24/1 20/25/1 21/26/1 22/27/1 23/28/1 24/29/1 25/30/1 26/31/1 27/32/1 28/33/1 

usemtl Pavement
v 47.775 0 -0
vt 2.22045e-016 1
vt 2.22045e-016 0
vt 0.0464638 0.0202112
vt 0.113225 0.0535722
vt 0.175689 0.0893319
vt 0.233568 0.127285
vt 0.250413 0.139966
vt 0.286604 0.167213
vt 0.334571 0.208884
vt 0.377279 0.252061
vt 0.414579 0.296502
vt 0.446364 0.34197
vt 0.472566 0.388239
v 26.9583 0 26.4242
vt 0.493152 0.435103
v 26.2913 0 24.0894
vt 0.508953 0.485015
v 25.5562 0 21.5162
vt 0.526367 0.540026
v 24.5083 0 18.8724
vt 0.551194 0.596544
v 23.1912 0 16.2951
vt 0.582395 0.651642
v 22.403 0 15.0457
vt 0.601067 0.678353
v 21.6149 0 13.7963
vt 0.619739 0.705063
v 19.7897 0 11.3866
vt 0.662977 0.756577
v 17.7269 0 9.0755
vt 0.711847 0.805984
v 15.4376 0 6.8716
vt 0.766079 0.853099
v 12.9338 0 4.78278
vt 0.825394 0.897754
v 10.2277 0 2.81639
vt 0.889503 0.939791
v 7.33199 0 0.979324
vt 0.958103 0.979064
v 5.56347 0 -0
vt 1 1
f 29/34/1 8/35/1 7/36/1 6/37/1 5/38/1 4/39/1 3/40/1 17/41/1 28/42/1 27/43/1 26/44/1 25/45/1 24/46/1 30/47/1 31/48/1 32/49/1 33/50/1 34/51/1 35/52/1 36/53/1 37/54/1 38/55/1 39/56/1 40/57/1 41/58/1 42/59/1 43/60/1 

usemtl FrontColor
vt 0 0
vn -1 0 -0
vt 46.777 0
v 47.775 1.6875 46.777
vt 46.777 1.6875
v 47.775 1.6875 -0
vt 0 1.6875
f 29/61/5 8/62/5 44/63/5 45/64/5 

usemtl Curbs_2m_2
vt -1.37645 0
vn 1 0 -0
vt -1.29936 0
vt -1.29936 1.125
v 47.775 1.6875 49.5523
vt -1.37645 1.125
f 9/65/6 8/66/6 44/67/6 46/68/6 

usemtl Curbs_num2
v 37.9157 1.6875 40.823
vt 9.85244 -2.74416
vn 0 1 -0
v 37.1659 1.6875 40.1975
vt 9.91325 -2.72623
vt 9.71646 -2.68991
vt 9.65044 -2.70938
v 38.9531 1.6875 44.6671
vt 9.46946 -2.77079
v 41.7193 1.6875 46.422
vt 9.30061 -2.83662
v 44.6644 1.6875 48.0529
vt 9.14468 -2.90657
vt 9.00237 -2.9803
vt 9.28082 -2.97861
v 45.8137 1.6875 45.8316
vt 9.37055 -2.93212
v 42.9956 1.6875 44.2711
vt 9.51976 -2.86519
v 40.3589 1.6875 42.5983
vt 9.6807 -2.80244
f 47/69/7 48/70/7 15/71/7 14/72/7 49/73/7 50/74/7 51/75/7 46/76/7 44/77/7 52/78/7 53/79/7 54/80/7 

usemtl FrontColor
vt -47.775 0
vt -47.775 -46.777
vt -45.8137 -45.8316
vt -42.9956 -44.2711
vt -40.3589 -42.5983
vt -37.9157 -40.823
vt -37.1659 -40.1975
v 35.677 1.6875 38.9553
vt -35.677 -38.9553
v 33.6523 1.6875 37.006
vt -33.6523 -37.006
v 31.8495 1.6875 34.9864
vt -31.8495 -34.9864
v 30.275 1.6875 32.9075
vt -30.275 -32.9075
v 28.9333 1.6875 30.7807
vt -28.9333 -30.7807
v 27.8273 1.6875 28.6163
vt -27.8273 -28.6163
v 27.5999 1.6875 28.0427
vt -27.5999 -28.0427
v 26.9583 1.6875 26.4242
vt -26.9583 -26.4242
v 26.2913 1.6875 24.0894
vt -26.2913 -24.0894
v 25.5562 1.6875 21.5162
vt -25.5562 -21.5162
v 24.5083 1.6875 18.8724
vt -24.5083 -18.8724
v 23.1912 1.6875 16.2951
vt -23.1912 -16.2951
v 21.6149 1.6875 13.7963
vt -21.6149 -13.7963
v 19.7897 1.6875 11.3866
vt -19.7897 -11.3866
v 17.7269 1.6875 9.0755
vt -17.7269 -9.0755
v 17.5452 1.6875 8.90062
vt -17.5452 -8.90062
v 15.4376 1.6875 6.8716
vt -15.4376 -6.8716
v 12.9338 1.6875 4.78278
vt -12.9338 -4.78278
v 10.2277 1.6875 2.81639
vt -10.2277 -2.81639
v 7.33199 1.6875 0.979324
vt -7.33199 -0.979324
v 5.56347 1.6875 -0
vt -5.56347 0
f 45/81/1 44/82/1 52/83/1 53/84/1 54/85/1 47/86/1 48/87/1 55/88/1 56/89/1 57/90/1 58/91/1 59/92/1 60/93/1 61/94/1 62/95/1 63/96/1 64/97/1 65/98/1 66/99/1 67/100/1 68/101/1 69/102/1 70/103/1 71/104/1 72/105/1 73/106/1 74/107/1 75/108/1 

usemtl Curbs_num2
vt 6.18994 -2.45663
vt 6.1817 -2.51472
vt 6.48864 -2.51709
vt 6.49652 -2.46154
vt 6.53243 -2.38142
vt 6.59193 -2.30507
vt 6.6744 -2.23284
vt 6.77911 -2.16503
vt 6.90525 -2.10188
vt 6.94365 -2.08663
v 25.3636 1.6875 29.1855
vt 6.66402 -2.05622
v 25.547 1.6875 29.6481
vt 6.63306 -2.06852
v 26.7585 1.6875 32.0189
vt 6.49488 -2.13769
v 28.2176 1.6875 34.3318
vt 6.38102 -2.21143
v 29.9174 1.6875 36.576
vt 6.29198 -2.28941
v 31.8502 1.6875 38.7414
vt 6.22819 -2.37127
f 16/109/7 15/110/7 48/111/7 55/112/7 56/113/7 57/114/7 58/115/7 59/116/7 60/117/7 61/118/7 76/119/7 77/120/7 78/121/7 79/122/7 80/123/7 81/124/7 

v 24.5885 1.6875 27.2301
vt 4.10091 -1.46723
vt 4.0766 -1.516
vt 4.32777 -1.51721
vt 4.34789 -1.47685
vt 4.39969 -1.42147
vt 4.45678 -1.36044
vt 4.48965 -1.29451
vt 4.49566 -1.22696
vt 4.4751 -1.15817
vt 4.4284 -1.08845
vt 4.35608 -1.01814
vt 4.34835 -1.01254
v 15.3488 1.6875 10.2564
vt 4.09061 -1.01614
v 15.9248 1.6875 10.8109
vt 4.1151 -1.03391
v 17.8576 1.6875 12.9763
vt 4.18286 -1.09979
v 19.5574 1.6875 15.2205
vt 4.22636 -1.16471
v 21.0165 1.6875 17.5334
vt 4.24538 -1.22839
v 22.228 1.6875 19.9042
vt 4.23986 -1.29052
v 23.1865 1.6875 22.3222
vt 4.2098 -1.35083
v 23.8875 1.6875 24.7761
vt 4.15535 -1.40903
f 82/125/7 76/126/7 61/127/7 62/128/7 63/129/7 64/130/7 65/131/7 66/132/7 67/133/7 68/134/7 69/135/7 70/136/7 83/137/7 84/138/7 85/139/7 86/140/7 87/141/7 88/142/7 89/143/7 90/144/7 

usemtl Curbs_2m_2
v 24.5885 0 27.2301
vt 0.954856 0
vn -0.946743 0 0.321989
vt 1.01166 0
vn -0.929626 0 0.368504
vt 1.02711 0
vn -0.911077 0 0.412237
vt 1.02711 1.125
vt 1.01328 1.125
vt 0.954856 1.125
f 91/145/8 23/146/9 22/147/10 77/148/10 76/149/9 82/150/8 

usemtl Curbs_2m_2_1_
vt 0.0697617 0.134968
vt 0 0.0256639
vt 0.199516 0
vt 0.260008 0.0947817
v 23.8875 0 24.7761
vt 0.316288 0.217141
v 23.1865 0 22.3222
vt 0.372568 0.339501
v 22.228 0 19.9042
vt 0.449515 0.460064
v 21.0165 0 17.5334
vt 0.546777 0.578277
v 19.5574 0 15.2205
vt 0.663908 0.6936
v 17.8576 0 12.9763
vt 0.80037 0.805502
v 15.9248 0 10.8109
vt 0.95554 0.913471
v 15.371 0 10.2777
vt 1 0.940056
vt 0.810869 1
vt 0.645259 0.884766
vt 0.498737 0.764614
vt 0.435462 0.702316
vt 0.372187 0.640019
vt 0.266454 0.511509
vt 0.182321 0.379687
vt 0.123306 0.251382
f 30/151/1 24/152/1 23/153/1 91/154/1 92/155/1 93/156/1 94/157/1 95/158/1 96/159/1 97/160/1 98/161/1 99/162/1 38/163/1 37/164/1 36/165/1 35/166/1 34/167/1 33/168/1 32/169/1 31/170/1 

usemtl Curbs_2m_2
vt 0.914911 1.125
vt 0.844018 1.125
vn -0.961535 0 0.274684
vt 0.773124 1.125
vt 0.773124 0
vt 0.844018 0
vt 0.914911 0
f 82/171/8 90/172/11 89/173/8 93/174/8 92/175/11 91/176/8 

vt 0.741516 0
vt 0.813766 0
vt 0.813766 1.125
vt 0.741516 1.125
f 94/177/10 93/178/8 89/179/8 88/180/10 

vt 0.699342 0
vn -0.869009 0 0.494795
vt 0.773299 0
vt 0.773299 1.125
vt 0.699342 1.125
f 95/181/12 94/182/10 88/183/10 87/184/12 

vt 0.647439 0
vn -0.822216 0 0.569176
vt 0.7234 0
vt 0.7234 1.125
vt 0.647439 1.125
f 96/185/13 95/186/12 87/187/12 86/188/13 

vt 0.586835 0
vn -0.772219 0 0.635356
vt 0.665039 0
vt 0.665039 1.125
vt 0.586835 1.125
f 97/189/14 96/190/13 86/191/13 85/192/14 

vt 0.518604 0
vn -0.720307 0 0.693655
vt 0.59923 0
vt 0.59923 1.125
vt 0.518604 1.125
f 98/193/15 97/194/14 85/195/14 84/196/15 

v 13.7678 0 8.7343
vt 0.443781 0
vt 0.505597 0
vn -0.693552 0 0.720406
vt 0.526951 0
vt 0.526951 1.125
vt 0.504742 1.125
v 13.7678 1.6875 8.7343
vt 0.443781 1.125
f 100/197/2 99/198/16 98/199/15 84/200/15 83/201/16 101/202/2 

vt -0.43236 -5.08692
vt -0.518052 -5.02183
vt -0.511427 -5.24676
vt -0.451416 -5.29234
v 11.3966 0 6.75604
vt -0.369813 -5.37363
v 8.82192 0 4.88518
vt -0.287723 -5.4745
v 6.05569 0 3.13028
vt -0.205521 -5.59448
v 3.11055 0 1.4994
vt -0.123585 -5.73304
v 0 0 -0
vt -0.0422912 -5.88954
vt -0.124662 -5.48758
vt -0.173863 -5.40437
vt -0.259914 -5.27877
vt -0.346196 -5.17275
f 39/203/1 38/204/1 99/205/1 100/206/1 102/207/1 103/208/1 104/209/1 105/210/1 106/211/1 43/212/1 42/213/1 41/214/1 40/215/1 

vt 0.363306 0
vt 0.449087 0
vt 0.449087 1.125
v 11.3966 1.6875 6.75604
vt 0.363306 1.125
f 102/216/4 100/217/2 101/218/2 107/219/4 

usemtl Curbs_num2
vt 3.54932 -0.95053
vt 3.5666 -1.00907
vt 3.85743 -1.0216
vt 3.8344 -0.943566
vt 3.78231 -0.857241
vt 3.70362 -0.769712
vt 3.59888 -0.681344
vt 3.52394 -0.630203
v 0 1.6875 -0
vt 3.05131 -0.530387
v 3.11055 1.6875 1.4994
vt 3.20027 -0.615915
v 6.05569 1.6875 3.13028
vt 3.32506 -0.701082
v 8.82192 1.6875 4.88518
vt 3.42512 -0.785498
vt 3.49999 -0.868774
f 101/220/7 83/221/7 70/222/7 71/223/7 72/224/7 73/225/7 74/226/7 75/227/7 108/228/7 109/229/7 110/230/7 111/231/7 107/232/7 

usemtl Curbs_2m_2
vt -0.154541 0
vn 0 0 -1
vt 0 1.125
vt -0.154541 1.125
f 43/233/17 106/61/17 108/234/17 75/235/17 

vn -0.434221 0 0.900807
vt 0.0959187 0
vn -0.459513 0 0.888171
vt 0.0959187 1.125
f 106/61/18 105/236/19 109/237/19 108/234/18 

vt 0.0957654 0
vt 0.189281 0
vn -0.510293 0 0.860001
vt 0.189281 1.125
vt 0.0957654 1.125
f 105/238/19 104/239/20 110/240/20 109/241/19 

vt 0.188621 0
vt 0.279619 0
vn -0.562048 0 0.827105
vt 0.279619 1.125
vt 0.188621 1.125
f 104/242/20 103/243/21 111/244/21 110/245/20 

vt 0.278012 0
vt 0.366417 0
vt 0.366417 1.125
vt 0.278012 1.125
f 103/246/21 102/247/4 107/248/4 111/249/21 

usemtl FrontColor
vt 5.56347 0
vn 0 0 1
vt 47.775 0
vt 47.775 1.6875
vt 5.56347 1.6875
f 43/250/22 29/251/22 45/252/22 75/253/22 

usemtl Curbs_2m_2
vt 1.05627 0
vt 1.13023 0
vt 1.13023 1.125
vt 1.05627 1.125
f 22/254/10 21/255/12 78/256/12 77/257/10 

vt 1.14882 0
vt 1.22478 0
vt 1.22478 1.125
vt 1.14882 1.125
f 21/258/12 20/259/13 79/260/13 78/261/12 

vt 1.23347 0
vt 1.31167 0
vt 1.31167 1.125
vt 1.23347 1.125
f 20/262/13 19/263/14 80/264/14 79/265/13 

vt 1.31137 0
vt 1.39199 0
vt 1.39199 1.125
vt 1.31137 1.125
f 19/266/14 18/267/15 81/268/15 80/269/14 

vt 1.38373 0
vt 1.4669 0
vt 1.4669 1.125
vt 1.38373 1.125
f 18/270/15 13/271/2 16/272/2 81/273/15 

vt 1.5163 0
vt 1.6047 0
vt 1.6047 1.125
vt 1.5163 1.125
f 1/274/4 12/275/21 49/276/21 14/277/4 

vt 1.57834 0
vt 1.66934 0
vt 1.66934 1.125
vt 1.57834 1.125
f 12/278/21 11/279/20 50/280/20 49/281/21 

vt 1.63849 0
vt 1.73201 0
vt 1.73201 1.125
vt 1.63849 1.125
f 11/282/20 10/283/19 51/284/19 50/285/20 

vt 1.69721 0
vt 1.79313 0
vt 1.79313 1.125
vt 1.69721 1.125
f 10/286/19 9/287/18 46/288/18 51/289/19 

