# Alias OBJ Model File
# Exported from SketchUp, (c) 2000-2012 Trimble Navigation Limited
# File units = meters

mtllib Median_End.mtl

g Mesh1 Model

usemtl FrontColor
v 0.65446 -2.11497e-016 1.71732
vt 25.7661 -67.611
vn 0 1 -3.46945e-016
v 0.25 0 0.25
vt 9.84252 -9.84252
v 0.25 7.13452e-016 1.75
vt 9.84252 -68.8976
f 1/1/1 2/2/1 3/3/1

v 0.25 4.65294e-016 -1.25
vt 9.84252 49.2126
f 2/2/1 1/1/1 4/4/1

usemtl BackColor
vn -0 -1 3.46945e-016
f 3/3/2 2/2/2 1/1/2

f 4/4/2 1/1/2 2/2/2

usemtl FrontColor
v 0.65446 8.2625e-016 -1.21732
vt 25.7661 47.9259
f 4/4/1 1/1/1 5/5/1

usemtl BackColor
f 5/5/2 1/1/2 4/4/2

usemtl FrontColor
v 1.03542 1.72018e-016 -1.07758
vt 40.7645 42.4244
f 5/5/1 1/1/1 6/6/1

usemtl BackColor
f 6/6/2 1/1/2 5/5/2

usemtl FrontColor
v 1.03542 -3.46856e-016 1.57758
vt 40.7645 -62.1095
f 6/6/1 1/1/1 7/7/1

usemtl BackColor
f 7/7/2 1/1/2 6/6/2

usemtl FrontColor
v 1.36508 -2.80587e-015 -0.840982
vt 53.7433 33.1095
f 6/6/1 7/7/1 8/8/1

usemtl BackColor
f 8/8/2 7/7/2 6/6/2

usemtl FrontColor
v 1.36508 -1.51996e-015 1.34098
vt 53.7433 -52.7946
f 8/8/1 7/7/1 9/9/1

usemtl BackColor
f 9/9/2 7/7/2 8/8/2

usemtl FrontColor
v 1.61939 -9.78528e-016 -0.524786
vt 63.7556 20.6608
f 8/8/1 9/9/1 10/10/1

usemtl BackColor
f 10/10/2 9/9/2 8/8/2

usemtl FrontColor
v 1.61939 -5.35794e-017 1.02479
vt 63.7556 -40.3459
f 10/10/1 9/9/1 11/11/1

usemtl BackColor
f 11/11/2 9/9/2 10/10/2

usemtl FrontColor
v 1.7798 1.26898e-016 -0.15206
vt 70.0709 5.98661
f 10/10/1 11/11/1 12/12/1

usemtl BackColor
f 12/12/2 11/11/2 10/10/2

usemtl FrontColor
v 1.7798 -5.66813e-016 0.65206
vt 70.0709 -25.6717
f 12/12/1 11/11/1 13/13/1

usemtl BackColor
f 13/13/2 11/11/2 12/12/2

usemtl FrontColor
v 1.8346 1.18439e-016 0.25
vt 72.2285 -9.84252
f 12/12/1 13/13/1 14/14/1

usemtl BackColor
f 14/14/2 13/13/2 12/12/2

