# This file uses centimeters as units for non-parametric coordinates.

mtllib newsbox.mtl
v 0.212161 0.004727 -0.283127
v 0.212161 0.004727 -0.271416
v 0.204720 -0.000106 -0.271416
v 0.204720 -0.000106 -0.283127
v -0.205936 -0.000106 -0.271416
v -0.205936 -0.000106 -0.283127
v -0.212735 0.004573 -0.271416
v -0.212735 0.004573 -0.283127
v 0.212161 0.004727 0.270120
v 0.204720 -0.000106 0.270120
v -0.205936 -0.000106 0.270120
v -0.212735 0.004573 0.270120
v 0.212161 0.004727 0.281377
v 0.204720 -0.000106 0.281377
v -0.205936 -0.000106 0.281377
v -0.212735 0.004573 0.281377
v 0.212476 0.873109 -0.283127
v 0.204720 0.878063 -0.283127
v 0.204720 0.878063 -0.271416
v 0.212476 0.873109 -0.271416
v -0.205936 0.878063 -0.283127
v -0.205936 0.878063 -0.271416
v -0.214152 0.871730 -0.283127
v -0.214152 0.871730 -0.271416
v 0.204720 0.878063 0.270120
v 0.212476 0.873109 0.270120
v 0.085675 1.207853 0.003241
v -0.104463 1.207853 0.003241
v -0.104463 1.207853 0.270064
v 0.085675 1.207853 0.270064
v -0.214152 0.871730 0.270120
v -0.205936 0.878063 0.270120
v 0.204720 0.878063 0.281377
v 0.212476 0.873109 0.281377
v -0.205936 0.878063 0.281377
v -0.214152 0.871730 0.281377
v 0.204720 0.011589 -0.283127
v 0.215241 0.011589 -0.283127
v -0.205936 0.011589 -0.283127
v -0.216278 0.011589 -0.283127
v 0.204720 0.865272 -0.283127
v 0.215241 0.865272 -0.283127
v -0.205936 0.865272 -0.283127
v -0.216278 0.865272 -0.283127
v -0.216278 0.011589 -0.271416
v -0.216278 0.011589 0.270120
v -0.216278 0.011589 0.281377
v -0.216278 0.865272 -0.271416
v -0.216278 0.865272 0.270120
v -0.216278 0.865272 0.281377
v -0.205936 0.011589 0.281377
v 0.204720 0.011589 0.281377
v 0.215241 0.011589 0.281377
v -0.205936 0.865272 0.281377
v 0.204720 0.865272 0.281377
v 0.215241 0.865272 0.281377
v 0.215241 0.011589 0.270120
v 0.215241 0.011589 -0.271416
v 0.215241 0.865272 0.270120
v 0.215241 0.865272 -0.271416
v -0.099279 0.878173 0.008425
v 0.080491 0.878173 0.008425
v 0.080491 0.878173 0.264880
v -0.099279 0.878173 0.264880
v -0.099279 1.185242 0.008425
v 0.080491 1.185242 0.008425
v -0.099279 1.185242 0.264880
v 0.080491 1.185242 0.264880
v -0.104463 1.195169 0.003241
v 0.085675 1.195169 0.003241
v -0.104463 1.195169 0.270064
v 0.085675 1.195169 0.270064
v -0.052159 0.829760 0.286021
v -0.052159 1.002168 0.286021
v -0.052159 1.002168 0.228040
v -0.052159 0.829760 0.228040
v 0.026117 0.829760 0.286021
v 0.026117 0.829760 0.228040
v 0.026117 1.002168 0.228040
v 0.026117 1.002168 0.286021
vt 0.476220 0.408530
vt 0.467970 0.408530
vt 0.467970 0.404360
vt 0.476220 0.404360
vt 0.467970 0.174110
vt 0.476220 0.174110
vt 0.467970 0.170290
vt 0.476220 0.170290
vt 0.086550 0.408530
vt 0.086550 0.404360
vt 0.086550 0.174100
vt 0.086550 0.170290
vt 0.078620 0.408530
vt 0.078620 0.404360
vt 0.078620 0.174100
vt 0.078620 0.170290
vt 0.078620 0.685810
vt 0.078620 0.681460
vt 0.086870 0.681470
vt 0.086870 0.685810
vt 0.078620 0.451210
vt 0.086870 0.451210
vt 0.078620 0.446600
vt 0.086870 0.446600
vt 0.468280 0.681470
vt 0.468280 0.685810
vt 0.220980 0.614720
vt 0.220980 0.508110
vt 0.459460 0.508110
vt 0.459460 0.614720
vt 0.468290 0.446600
vt 0.468290 0.451210
vt 0.476210 0.681470
vt 0.476210 0.685810
vt 0.476220 0.451210
vt 0.476220 0.446600
vt 0.047600 0.025610
vt 0.055670 0.021710
vt 0.055670 0.031150
vt 0.044260 0.031150
vt 0.500750 0.021710
vt 0.500750 0.031150
vt 0.508110 0.025490
vt 0.511960 0.031150
vt 0.055660 0.701060
vt 0.044260 0.701060
vt 0.500740 0.701060
vt 0.511950 0.701060
vt 0.055660 0.711380
vt 0.047250 0.707380
vt 0.500740 0.711390
vt 0.509640 0.706270
vt 0.025680 0.021540
vt 0.035920 0.021540
vt 0.035920 0.027250
vt 0.025680 0.027250
vt 0.509260 0.021540
vt 0.509260 0.027260
vt 0.519100 0.021550
vt 0.519100 0.027260
vt 0.035910 0.703120
vt 0.025670 0.703120
vt 0.509260 0.703130
vt 0.519100 0.703130
vt 0.035910 0.708380
vt 0.025670 0.708380
vt 0.509260 0.708380
vt 0.519100 0.708380
vt 0.518730 0.023240
vt 0.526100 0.019470
vt 0.526100 0.028910
vt 0.514890 0.028910
vt 0.965200 0.019470
vt 0.965200 0.028910
vt 0.973260 0.023370
vt 0.976600 0.028910
vt 0.526090 0.698820
vt 0.514880 0.698820
vt 0.965190 0.698820
vt 0.976590 0.698820
vt 0.526090 0.709140
vt 0.517180 0.704030
vt 0.965190 0.709150
vt 0.973590 0.705150
vt 0.519090 0.021740
vt 0.509250 0.021740
vt 0.509250 0.027330
vt 0.519090 0.027320
vt 0.035910 0.021740
vt 0.035910 0.027330
vt 0.025670 0.021740
vt 0.025670 0.027330
vt 0.509260 0.703190
vt 0.519100 0.703190
vt 0.035910 0.703200
vt 0.025680 0.703200
vt 0.509260 0.709580
vt 0.519100 0.709570
vt 0.035910 0.709580
vt 0.025680 0.709580
vt 0.224630 0.511010
vt 0.224630 0.611810
vt 0.455810 0.611810
vt 0.455810 0.511010
vt 0.163820 0.711470
vt 0.385140 0.711470
vt 0.385140 0.971120
vt 0.163820 0.971120
vt 0.362000 0.709050
vt 0.648890 0.709060
vt 0.648890 0.970840
vt 0.361990 0.970840
vt 0.641690 0.709230
vt 0.836520 0.709230
vt 0.836520 0.968880
vt 0.641680 0.968880
vt 0.635130 0.709120
vt 0.362000 0.709130
vt 0.362000 0.970920
vt 0.635430 0.970910
vt 0.390760 0.979130
vt 0.158200 0.979130
vt 0.653420 0.978930
vt 0.357460 0.978920
vt 0.842140 0.976890
vt 0.636060 0.976890
vt 0.357470 0.979000
vt 0.653430 0.978990
vt 0.390760 0.989370
vt 0.158200 0.989370
vt 0.653420 0.989250
vt 0.357460 0.989250
vt 0.842140 0.987130
vt 0.636060 0.987130
vt 0.357470 0.989320
vt 0.653430 0.989320
vt 0.432300 0.779650
vt 0.432300 0.922250
vt 0.476440 0.922250
vt 0.476440 0.779650
vt 0.377540 0.784420
vt 0.333410 0.784420
vt 0.333410 0.927020
vt 0.377540 0.927020
vt 0.241390 0.757820
vt 0.241390 0.785050
vt 0.318300 0.785050
vt 0.318300 0.757820
vt 0.241390 0.927650
vt 0.318300 0.927650
vt 0.241510 0.960210
vt 0.318180 0.960070
vt 0.695190 0.820910
vt 0.695190 0.678120
vt 0.775060 0.678180
vt 0.775060 0.820780
vn 0.544731 -0.838611 0.000000
vn 0.544731 -0.838611 0.000000
vn 0.544731 -0.838611 0.000000
vn 0.544731 -0.838611 0.000000
vn 0.000000 -1.000000 0.000000
vn 0.000000 -1.000000 0.000000
vn 0.000000 -1.000000 0.000000
vn 0.000000 -1.000000 0.000000
vn -0.566988 -0.823726 -0.000000
vn -0.566988 -0.823726 -0.000000
vn -0.566988 -0.823726 -0.000000
vn -0.566988 -0.823726 -0.000000
vn 0.544731 -0.838611 0.000000
vn 0.544731 -0.838611 0.000000
vn 0.544731 -0.838611 0.000000
vn 0.544731 -0.838611 0.000000
vn 0.000000 -1.000000 0.000000
vn 0.000000 -1.000000 0.000000
vn 0.000000 -1.000000 0.000000
vn 0.000000 -1.000000 0.000000
vn -0.566981 -0.823731 0.000000
vn -0.566981 -0.823731 0.000000
vn -0.566981 -0.823731 0.000000
vn -0.566981 -0.823731 0.000000
vn 0.544738 -0.838606 0.000000
vn 0.544738 -0.838606 0.000000
vn 0.544738 -0.838606 0.000000
vn 0.544738 -0.838606 0.000000
vn 0.000000 -1.000000 0.000000
vn 0.000000 -1.000000 0.000000
vn 0.000000 -1.000000 0.000000
vn 0.000000 -1.000000 0.000000
vn -0.566981 -0.823731 -0.000000
vn -0.566981 -0.823731 -0.000000
vn -0.566981 -0.823731 -0.000000
vn -0.566981 -0.823731 -0.000000
vn 0.538278 0.842767 0.000000
vn 0.538278 0.842767 0.000000
vn 0.538278 0.842767 0.000000
vn 0.538278 0.842767 0.000000
vn 0.000000 1.000000 0.000000
vn 0.000000 1.000000 0.000000
vn 0.000000 1.000000 0.000000
vn 0.000000 1.000000 0.000000
vn -0.610538 0.791987 0.000000
vn -0.610538 0.791987 0.000000
vn -0.610538 0.791987 0.000000
vn -0.610538 0.791987 0.000000
vn 0.538278 0.842767 0.000000
vn 0.538278 0.842767 0.000000
vn 0.538278 0.842767 0.000000
vn 0.538278 0.842767 0.000000
vn 0.000000 1.000000 0.000000
vn 0.000000 1.000000 0.000000
vn 0.000000 1.000000 0.000000
vn 0.000000 1.000000 0.000000
vn -0.610538 0.791987 0.000000
vn -0.610538 0.791987 0.000000
vn -0.610538 0.791987 0.000000
vn -0.610538 0.791987 0.000000
vn 0.538278 0.842767 0.000000
vn 0.538278 0.842767 0.000000
vn 0.538278 0.842767 0.000000
vn 0.538278 0.842767 0.000000
vn 0.000000 1.000000 0.000000
vn 0.000000 1.000000 0.000000
vn 0.000000 1.000000 0.000000
vn 0.000000 1.000000 0.000000
vn -0.610543 0.791983 0.000000
vn -0.610543 0.791983 0.000000
vn -0.610543 0.791983 0.000000
vn -0.610543 0.791983 0.000000
vn 0.000000 0.000000 -1.000000
vn 0.000000 0.000000 -1.000000
vn 0.000000 0.000000 -1.000000
vn 0.000000 0.000000 -1.000000
vn 0.000000 0.000000 -1.000000
vn 0.000000 0.000000 -1.000000
vn 0.000000 0.000000 -1.000000
vn 0.000000 0.000000 -1.000000
vn 0.000000 0.000000 -1.000000
vn 0.000000 0.000000 -1.000000
vn 0.000000 0.000000 -1.000000
vn 0.000000 0.000000 -1.000000
vn 0.000000 0.000000 -1.000000
vn 0.000000 0.000000 -1.000000
vn 0.000000 0.000000 -1.000000
vn 0.000000 0.000000 -1.000000
vn 0.000000 0.000000 -1.000000
vn 0.000000 0.000000 -1.000000
vn 0.000000 0.000000 -1.000000
vn 0.000000 0.000000 -1.000000
vn 0.000000 0.000000 -1.000000
vn 0.000000 0.000000 -1.000000
vn 0.000000 0.000000 -1.000000
vn 0.000000 0.000000 -1.000000
vn 0.000000 0.000010 -1.000000
vn 0.000000 0.000010 -1.000000
vn 0.000000 0.000010 -1.000000
vn 0.000000 0.000010 -1.000000
vn 0.000000 0.000000 -1.000000
vn 0.000000 0.000000 -1.000000
vn 0.000000 0.000000 -1.000000
vn 0.000000 0.000000 -1.000000
vn 0.000000 0.000010 -1.000000
vn 0.000000 0.000010 -1.000000
vn 0.000000 0.000010 -1.000000
vn 0.000000 0.000010 -1.000000
vn -0.892644 -0.450762 0.000000
vn -0.892644 -0.450762 0.000000
vn -0.892644 -0.450762 0.000000
vn -0.892644 -0.450762 0.000000
vn -0.892640 -0.450770 0.000000
vn -0.892640 -0.450770 0.000000
vn -0.892640 -0.450770 0.000000
vn -0.892640 -0.450770 0.000000
vn -0.892640 -0.450770 0.000000
vn -0.892640 -0.450770 0.000000
vn -0.892640 -0.450770 0.000000
vn -0.892640 -0.450770 0.000000
vn -1.000000 0.000000 0.000000
vn -1.000000 0.000000 0.000000
vn -1.000000 0.000000 0.000000
vn -1.000000 0.000000 0.000000
vn -1.000000 0.000000 0.000000
vn -1.000000 0.000000 0.000000
vn -1.000000 0.000000 0.000000
vn -1.000000 0.000000 0.000000
vn -1.000000 0.000000 0.000000
vn -1.000000 0.000000 0.000000
vn -1.000000 0.000000 0.000000
vn -1.000000 0.000000 0.000000
vn -0.949849 0.312710 0.000000
vn -0.949849 0.312710 0.000000
vn -0.949849 0.312710 0.000000
vn -0.949849 0.312710 0.000000
vn -0.949846 0.312719 0.000000
vn -0.949846 0.312719 0.000000
vn -0.949846 0.312719 0.000000
vn -0.949846 0.312719 0.000000
vn -0.949846 0.312719 0.000000
vn -0.949846 0.312719 0.000000
vn -0.949846 0.312719 0.000000
vn -0.949846 0.312719 0.000000
vn 0.000000 0.000000 1.000000
vn 0.000000 0.000000 1.000000
vn 0.000000 0.000000 1.000000
vn 0.000000 0.000000 1.000000
vn 0.000000 0.000000 1.000000
vn 0.000000 0.000000 1.000000
vn 0.000000 0.000000 1.000000
vn 0.000000 0.000000 1.000000
vn -0.000010 0.000000 1.000000
vn -0.000010 0.000000 1.000000
vn -0.000010 0.000000 1.000000
vn -0.000010 0.000000 1.000000
vn 0.000000 0.000000 1.000000
vn 0.000000 0.000000 1.000000
vn 0.000000 0.000000 1.000000
vn 0.000000 0.000000 1.000000
vn 0.000000 0.000000 1.000000
vn 0.000000 0.000000 1.000000
vn 0.000000 0.000000 1.000000
vn 0.000000 0.000000 1.000000
vn 0.000000 0.000000 1.000000
vn 0.000000 0.000000 1.000000
vn 0.000000 0.000000 1.000000
vn 0.000000 0.000000 1.000000
vn -0.000010 0.000000 1.000000
vn -0.000010 0.000000 1.000000
vn -0.000010 0.000000 1.000000
vn -0.000010 0.000000 1.000000
vn 0.000000 0.000000 1.000000
vn 0.000000 0.000000 1.000000
vn 0.000000 0.000000 1.000000
vn 0.000000 0.000000 1.000000
vn 0.000000 0.000000 1.000000
vn 0.000000 0.000000 1.000000
vn 0.000000 0.000000 1.000000
vn 0.000000 0.000000 1.000000
vn 0.912310 -0.409500 0.000000
vn 0.912310 -0.409500 0.000000
vn 0.912310 -0.409500 0.000000
vn 0.912310 -0.409500 0.000000
vn 0.912310 -0.409500 0.000000
vn 0.912310 -0.409500 0.000000
vn 0.912310 -0.409500 0.000000
vn 0.912310 -0.409500 0.000000
vn 0.912310 -0.409500 0.000000
vn 0.912310 -0.409500 0.000000
vn 0.912310 -0.409500 0.000000
vn 0.912310 -0.409500 0.000000
vn 1.000000 0.000000 0.000000
vn 1.000000 0.000000 0.000000
vn 1.000000 0.000000 0.000000
vn 1.000000 0.000000 0.000000
vn 1.000000 0.000000 0.000000
vn 1.000000 0.000000 0.000000
vn 1.000000 0.000000 0.000000
vn 1.000000 0.000000 0.000000
vn 1.000000 0.000000 0.000000
vn 1.000000 0.000000 0.000000
vn 1.000000 0.000000 0.000000
vn 1.000000 0.000000 0.000000
vn 0.943008 0.332769 0.000000
vn 0.943008 0.332769 0.000000
vn 0.943008 0.332769 0.000000
vn 0.943008 0.332769 0.000000
vn 0.943008 0.332769 0.000000
vn 0.943008 0.332769 0.000000
vn 0.943008 0.332769 0.000000
vn 0.943008 0.332769 0.000000
vn 0.943008 0.332769 0.000000
vn 0.943008 0.332769 0.000000
vn 0.943008 0.332769 0.000000
vn 0.943008 0.332769 0.000000
vn 0.000000 1.000000 -0.000390
vn 0.000000 1.000000 -0.000390
vn 0.000000 1.000000 -0.000390
vn 0.000000 1.000000 -0.000390
vn 0.000890 1.000000 0.000000
vn 0.000890 1.000000 0.000000
vn 0.000890 1.000000 0.000000
vn 0.000890 1.000000 0.000000
vn -0.001030 0.999999 0.000000
vn -0.001030 0.999999 0.000000
vn -0.001030 0.999999 0.000000
vn -0.001030 0.999999 0.000000
vn 0.000000 0.999779 0.021030
vn 0.000000 0.999779 0.021030
vn 0.000000 0.999779 0.021030
vn 0.000000 0.999779 0.021030
vn 0.000000 0.000000 -1.000000
vn 0.000000 0.000000 -1.000000
vn 0.000000 0.000000 -1.000000
vn 0.000000 0.000000 -1.000000
vn -1.000000 0.000000 0.000000
vn -1.000000 0.000000 0.000000
vn -1.000000 0.000000 0.000000
vn -1.000000 0.000000 0.000000
vn 0.000000 0.000000 1.000000
vn 0.000000 0.000000 1.000000
vn 0.000000 0.000000 1.000000
vn 0.000000 0.000000 1.000000
vn 1.000000 0.000000 0.000000
vn 1.000000 0.000000 0.000000
vn 1.000000 0.000000 0.000000
vn 1.000000 0.000000 0.000000
vn 0.000000 -0.462900 -0.886410
vn 0.000000 -0.462900 -0.886410
vn 0.000000 -0.462900 -0.886410
vn 0.000000 -0.462900 -0.886410
vn -0.886404 -0.462912 0.000000
vn -0.886404 -0.462912 0.000000
vn -0.886404 -0.462912 0.000000
vn -0.886404 -0.462912 0.000000
vn 0.000000 -0.462900 0.886410
vn 0.000000 -0.462900 0.886410
vn 0.000000 -0.462900 0.886410
vn 0.000000 -0.462900 0.886410
vn 0.886410 -0.462900 0.000000
vn 0.886410 -0.462900 0.000000
vn 0.886410 -0.462900 0.000000
vn 0.886410 -0.462900 0.000000
vn 0.000000 0.000000 -1.000000
vn 0.000000 0.000000 -1.000000
vn 0.000000 0.000000 -1.000000
vn 0.000000 0.000000 -1.000000
vn -1.000000 0.000000 0.000000
vn -1.000000 0.000000 0.000000
vn -1.000000 0.000000 0.000000
vn -1.000000 0.000000 0.000000
vn 0.000000 0.000000 1.000000
vn 0.000000 0.000000 1.000000
vn 0.000000 0.000000 1.000000
vn 0.000000 0.000000 1.000000
vn 1.000000 -0.000010 0.000000
vn 1.000000 -0.000010 0.000000
vn 1.000000 -0.000010 0.000000
vn 1.000000 -0.000010 0.000000
vn -1.000000 0.000000 0.000000
vn -1.000000 0.000000 0.000000
vn -1.000000 0.000000 0.000000
vn -1.000000 0.000000 0.000000
vn 1.000000 0.000000 0.000000
vn 1.000000 0.000000 0.000000
vn 1.000000 0.000000 0.000000
vn 1.000000 0.000000 0.000000
vn 0.000000 -1.000000 0.000000
vn 0.000000 -1.000000 0.000000
vn 0.000000 -1.000000 0.000000
vn 0.000000 -1.000000 0.000000
vn 0.000000 0.000000 -1.000000
vn 0.000000 0.000000 -1.000000
vn 0.000000 0.000000 -1.000000
vn 0.000000 0.000000 -1.000000
vn 0.000000 1.000000 0.000000
vn 0.000000 1.000000 0.000000
vn 0.000000 1.000000 0.000000
vn 0.000000 1.000000 0.000000
vn 0.000000 0.000000 1.000000
vn 0.000000 0.000000 1.000000
vn 0.000000 0.000000 1.000000
vn 0.000000 0.000000 1.000000
g news
usemtl initialShadingGroup
f 1/1/1 2/2/2 3/3/3 4/4/4
f 4/4/5 3/3/6 5/5/7 6/6/8
f 6/6/9 5/5/10 7/7/11 8/8/12
f 2/2/13 9/9/14 10/10/15 3/3/16
f 3/3/17 10/10/18 11/11/19 5/5/20
f 5/5/21 11/11/22 12/12/23 7/7/24
f 9/9/25 13/13/26 14/14/27 10/10/28
f 10/10/29 14/14/30 15/15/31 11/11/32
f 11/11/33 15/15/34 16/16/35 12/12/36
f 17/17/37 18/18/38 19/19/39 20/20/40
f 18/18/41 21/21/42 22/22/43 19/19/44
f 21/21/45 23/23/46 24/24/47 22/22/48
f 20/20/49 19/19/50 25/25/51 26/26/52
f 27/27/53 28/28/54 29/29/55 30/30/56
f 22/22/57 24/24/58 31/31/59 32/32/60
f 26/26/61 25/25/62 33/33/63 34/34/64
f 25/25/65 32/32/66 35/35/67 33/33/68
f 32/32/69 31/31/70 36/36/71 35/35/72
f 1/37/73 4/38/74 37/39/75 38/40/76
f 4/38/77 6/41/78 39/42/79 37/39/80
f 6/41/81 8/43/82 40/44/83 39/42/84
f 38/40/85 37/39/86 41/45/87 42/46/88
f 37/39/89 39/42/90 43/47/91 41/45/92
f 39/42/93 40/44/94 44/48/95 43/47/96
f 42/46/97 41/45/98 18/49/99 17/50/100
f 41/45/101 43/47/102 21/51/103 18/49/104
f 43/47/105 44/48/106 23/52/107 21/51/108
f 8/53/109 7/54/110 45/55/111 40/56/112
f 7/54/113 12/57/114 46/58/115 45/55/116
f 12/57/117 16/59/118 47/60/119 46/58/120
f 40/56/121 45/55/122 48/61/123 44/62/124
f 45/55/125 46/58/126 49/63/127 48/61/128
f 46/58/129 47/60/130 50/64/131 49/63/132
f 44/62/133 48/61/134 24/65/135 23/66/136
f 48/61/137 49/63/138 31/67/139 24/65/140
f 49/63/141 50/64/142 36/68/143 31/67/144
f 16/69/145 15/70/146 51/71/147 47/72/148
f 15/70/149 14/73/150 52/74/151 51/71/152
f 14/73/153 13/75/154 53/76/155 52/74/156
f 47/72/157 51/71/158 54/77/159 50/78/160
f 51/71/161 52/74/162 55/79/163 54/77/164
f 52/74/165 53/76/166 56/80/167 55/79/168
f 50/78/169 54/77/170 35/81/171 36/82/172
f 54/77/173 55/79/174 33/83/175 35/81/176
f 55/79/177 56/80/178 34/84/179 33/83/180
f 13/85/181 9/86/182 57/87/183 53/88/184
f 9/86/185 2/89/186 58/90/187 57/87/188
f 2/89/189 1/91/190 38/92/191 58/90/192
f 53/88/193 57/87/194 59/93/195 56/94/196
f 57/87/197 58/90/198 60/95/199 59/93/200
f 58/90/201 38/92/202 42/96/203 60/95/204
f 56/94/205 59/93/206 26/97/207 34/98/208
f 59/93/209 60/95/210 20/99/211 26/97/212
f 60/95/213 42/96/214 17/100/215 20/99/216
f 19/19/217 22/22/218 61/101/219 62/102/220
f 25/25/221 19/19/222 62/102/223 63/103/224
f 22/22/225 32/32/226 64/104/227 61/101/228
f 32/32/229 25/25/230 63/103/231 64/104/232
f 62/105/233 61/106/234 65/107/235 66/108/236
f 61/109/237 64/110/238 67/111/239 65/112/240
f 64/113/241 63/114/242 68/115/243 67/116/244
f 63/117/245 62/118/246 66/119/247 68/120/248
f 66/108/249 65/107/250 69/121/251 70/122/252
f 65/112/253 67/111/254 71/123/255 69/124/256
f 67/116/257 68/115/258 72/125/259 71/126/260
f 68/120/261 66/119/262 70/127/263 72/128/264
f 70/122/265 69/121/266 28/129/267 27/130/268
f 69/124/269 71/123/270 29/131/271 28/132/272
f 71/126/273 72/125/274 30/133/275 29/134/276
f 72/128/277 70/127/278 27/135/279 30/136/280
f 73/137/281 74/138/282 75/139/283 76/140/284
f 77/141/285 78/142/286 79/143/287 80/144/288
f 73/145/289 76/146/290 78/147/291 77/148/292
f 76/146/293 75/149/294 79/150/295 78/147/296
f 75/149/297 74/151/298 80/152/299 79/150/300
f 74/153/301 73/154/302 77/155/303 80/156/304
