# This file uses centimeters as units for non-parametric coordinates.

mtllib lamp.05.withsign.mtl
g default
v 68.540619 -18.553167 -61.334726
v -49.569732 -18.553167 -61.334726
v -78.108307 2554.478785 -41.424814
v 28.875092 2686.042505 -64.644296
v -49.569732 -18.553167 56.775626
v -78.108307 2555.644800 36.865714
v 68.540619 -18.553167 56.775626
v 28.774018 2685.498316 56.775626
v -312.798736 3127.124048 36.865714
v -312.798492 3127.124048 -41.425058
v -549.599518 3338.650171 36.865714
v -549.599518 3338.650171 -41.425058
v -872.894928 3514.766871 36.865714
v -872.894928 3514.766871 -41.425058
v -1260.446075 3600.278345 -2.279550
v -77.705475 2817.683863 36.865714
v -77.301666 2818.695337 -41.424814
v -272.751373 3168.496607 -2.279550
v -508.313385 3392.811304 -2.279550
v -853.476227 3587.606959 -2.279550
v -1262.178375 3670.935572 -2.279550
v -107.397613 4977.836207 32.390860
v -107.158356 4978.435816 -37.624032
v -37.262848 4977.790308 -39.586191
v -37.382721 4977.144800 32.390860
v -278.047272 5496.121363 32.390860
v -278.043365 5496.766871 -37.624277
v -212.677398 5521.367945 -3.597665
v -554.968170 5811.660425 32.390860
v -555.248688 5812.241480 -37.624277
v -507.372711 5863.093042 -3.597665
v -1067.986603 6064.843042 32.390860
v -1068.468170 6065.272730 -37.624277
v -1043.701446 6130.576441 -3.597665
v -1783.035797 6151.138453 -2.616708
v -1782.929596 6221.096949 -3.597665
v -2227.220367 6085.014429 87.239737
v -2227.220367 6085.014429 -115.737558
v -1774.925079 6144.676050 -14.249032
v -1774.945465 6232.870875 -14.249032
v -2328.287506 6267.804957 -115.737558
v -2328.287506 6267.804957 87.239737
v -2527.793609 4114.742212 4.600821
v -2527.793365 3435.702417 4.600821
v -1270.342560 4114.742212 4.600821
v -1270.342560 3435.702417 4.600821
v -1994.185089 4372.563990 342.403800
v -1994.184967 4202.638209 342.403800
v -1733.632232 4372.563990 342.403800
v -1733.632110 4202.638209 342.403800
v -2170.930572 4095.553248 1.713126
v -2170.930572 4044.575464 1.713126
v -1995.301666 4310.257349 342.402823
v -1995.301666 4259.279810 342.402823
v -2166.660553 4044.575464 1.713126
v -2166.660553 4095.553248 1.713126
v -1991.031524 4310.257349 342.402823
v -1991.031524 4259.279810 342.402823
v -1559.000030 4044.575464 1.713126
v -1734.629181 4310.257349 342.402823
v -1559.000030 4095.553248 1.713126
v -1734.629181 4259.279810 342.402823
v -1557.356598 4095.553248 1.713126
v -1732.985748 4310.257349 342.402823
v -1557.356598 4044.575464 1.713126
v -1732.985748 4259.279810 342.402823
v -299.743316 2240.349146 65.075675
v -299.743316 1912.958643 65.075675
v 263.051117 2240.349146 65.075919
v 263.051117 1912.958643 65.075919
v -299.743316 2240.349146 65.075919
v 263.050873 2240.349146 65.075919
v -299.743316 1912.958643 65.075919
v 263.050873 1912.958643 65.075919
v -211.571197 1747.467554 65.075675
v -211.571197 1353.239771 65.075675
v 220.379975 1747.467554 65.075919
v 220.379975 1353.239771 65.075919
v -1994.185089 4372.563990 336.489981
v -1733.632232 4372.563990 336.489981
v -1994.184967 4202.638209 336.489981
v -1733.632110 4202.638209 336.489981
v -1270.342560 4114.742212 -10.444345
v -1270.342560 3435.702417 -10.444345
v -2527.793365 4114.742212 -10.444345
v -2527.793365 3435.702417 -10.444345
v -211.571441 1747.467554 65.075919
v 220.379975 1747.467554 65.075919
v -211.571441 1353.239771 65.075919
v 220.379975 1353.239771 65.075919
vt 0.898460 0.014510
vt 0.871470 0.014220
vt 0.856820 0.411130
vt 0.881630 0.440100
vt 0.870200 0.011450
vt 0.897530 0.011450
vt 0.881160 0.340540
vt 0.867550 0.340390
vt 0.869300 0.011470
vt 0.899660 0.011500
vt 0.882130 0.434170
vt 0.859750 0.408610
vt 0.869970 0.010750
vt 0.896460 0.010750
vt 0.881840 0.392570
vt 0.860280 0.392490
vt 0.878830 0.413240
vt 0.865220 0.413240
vt 0.878830 0.440280
vt 0.865220 0.440280
vt 0.878830 0.462790
vt 0.865220 0.462790
vt 0.872020 0.473730
vt 0.863810 0.411170
vt 0.877720 0.411310
vt 0.870770 0.460740
vt 0.821080 0.475210
vt 0.813280 0.472840
vt 0.864510 0.432660
vt 0.775200 0.507800
vt 0.766630 0.504340
vt 0.727310 0.529560
vt 0.718630 0.526740
vt 0.671080 0.550210
vt 0.663560 0.546670
vt 0.821450 0.464890
vt 0.828240 0.468600
vt 0.861780 0.438210
vt 0.765870 0.504400
vt 0.772130 0.506820
vt 0.715190 0.528530
vt 0.723690 0.531330
vt 0.639800 0.552760
vt 0.647650 0.555680
vt 0.873620 0.649330
vt 0.861450 0.649400
vt 0.866000 0.373990
vt 0.879600 0.373860
vt 0.869900 0.716050
vt 0.859690 0.715960
vt 0.857650 0.783870
vt 0.866350 0.784740
vt 0.862680 0.786930
vt 0.856050 0.786930
vt 0.870590 0.715580
vt 0.858420 0.715660
vt 0.859410 0.792860
vt 0.832480 0.838240
vt 0.837260 0.839690
vt 0.850760 0.820400
vt 0.844230 0.820370
vt 0.868650 0.755920
vt 0.858420 0.756000
vt 0.768520 0.888350
vt 0.773090 0.890660
vt 0.810600 0.864720
vt 0.804620 0.863030
vt 0.863530 0.787600
vt 0.855900 0.787650
vt 0.702810 0.920440
vt 0.707710 0.922490
vt 0.760980 0.897220
vt 0.755800 0.894860
vt 0.859710 0.798630
vt 0.604640 0.948660
vt 0.608600 0.951100
vt 0.693590 0.927220
vt 0.687770 0.924730
vt 0.135150 0.234480
vt 0.217090 0.234480
vt 0.176120 0.199650
vt 0.393370 0.201200
vt 0.447940 0.269700
vt 0.338800 0.269700
vt 0.260460 0.971830
vt 0.143880 0.964060
vt 0.115050 0.984410
vt 0.259340 0.983280
vt 0.135150 0.283770
vt 0.217090 0.283770
vt 0.144160 0.964040
vt 0.260770 0.971860
vt 0.259510 0.983270
vt 0.115020 0.984370
vt 0.024270 0.654300
vt 0.024270 0.552350
vt 0.447750 0.654280
vt 0.447750 0.552350
vt 0.217170 0.689400
vt 0.217170 0.668800
vt 0.270980 0.689400
vt 0.270980 0.668800
vt 0.297700 0.680010
vt 0.296410 0.678870
vt 0.339960 0.672290
vt 0.338120 0.671160
vt 0.504970 0.360000
vt 0.507030 0.310550
vt 0.694750 0.361880
vt 0.697330 0.312440
vt 0.330200 0.492030
vt 0.423360 0.492030
vt 0.330200 0.462530
vt 0.423360 0.462530
vt 0.538500 0.283420
vt 0.541630 0.219610
vt 0.677460 0.285220
vt 0.677560 0.220680
vt 0.111150 0.207060
vt 0.238580 0.207060
vt 0.111150 0.279940
vt 0.238580 0.279940
vt 0.023620 0.547840
vt 0.023620 0.447350
vt 0.446780 0.547840
vt 0.446780 0.447350
vt 0.870160 0.215380
vt 0.894230 0.215380
vt 0.870160 0.196320
vt 0.894230 0.196320
vt 0.296410 0.678870
vt 0.297700 0.680010
vt 0.339960 0.672290
vt 0.339960 0.672290
vt 0.338120 0.671160
vt 0.296410 0.678870
vt 0.296410 0.678870
vt 0.339960 0.672290
vt 0.297700 0.680010
vt 0.339960 0.672290
vt 0.296410 0.678870
vt 0.338120 0.671160
vt 0.297700 0.680010
vt 0.339960 0.672290
vt 0.296410 0.678870
vt 0.338120 0.671160
vt 0.296410 0.678870
vt 0.339960 0.672290
vn -0.104130 0.001760 -0.994562
vn 0.000000 0.007740 -0.999970
vn -0.105590 0.001040 -0.994409
vn -0.105590 0.001040 -0.994409
vn -0.166310 0.001320 -0.986073
vn -0.104130 0.001760 -0.994562
vn -0.999939 -0.011090 0.000080
vn -0.999939 -0.011090 -0.000000
vn -0.990682 -0.136180 0.001970
vn -0.990682 -0.136180 0.001970
vn -0.965374 -0.260861 0.001970
vn -0.999939 -0.011090 0.000080
vn -0.095220 0.002760 0.995452
vn -0.000000 0.000000 1.000000
vn -0.138040 0.002790 0.990423
vn -0.138040 0.002790 0.990423
vn -0.189760 0.002030 0.981828
vn -0.095220 0.002760 0.995452
vn 0.999892 0.014680 0.000450
vn 0.999893 0.014660 0.000000
vn 0.999812 0.019400 0.000620
vn 0.999812 0.019400 0.000620
vn 0.999708 0.024140 0.001260
vn 0.999892 0.014680 0.000450
vn -0.858245 -0.513237 0.001930
vn -0.769997 -0.638048 -0.000000
vn -0.965374 -0.260861 0.001970
vn -0.965374 -0.260861 0.001970
vn -0.990682 -0.136180 0.001970
vn -0.858245 -0.513237 0.001930
vn -0.607154 -0.794585 -0.000000
vn -0.544179 -0.838969 -0.000000
vn -0.769997 -0.638048 -0.000000
vn -0.769997 -0.638048 -0.000000
vn -0.858245 -0.513237 0.001930
vn -0.607154 -0.794585 -0.000000
vn -0.394210 -0.919020 -0.000000
vn -0.350391 -0.936603 -0.000000
vn -0.544179 -0.838969 -0.000000
vn -0.544179 -0.838969 -0.000000
vn -0.607154 -0.794585 -0.000000
vn -0.394210 -0.919020 -0.000000
vn -0.350391 -0.936603 -0.000000
vn -0.394210 -0.919020 -0.000000
vn -0.215461 -0.976513 -0.000000
vn 0.873437 0.486818 0.010790
vn 0.873437 0.486818 0.010790
vn 0.873437 0.486818 0.010790
vn 0.473009 0.319159 0.821218
vn 0.427181 0.337951 0.838633
vn 0.551172 0.226351 0.803103
vn -0.189760 0.002030 0.981828
vn -0.139730 0.002010 0.990188
vn -0.196251 0.000300 0.980554
vn 0.323089 0.406479 0.854628
vn 0.268691 0.408421 0.872352
vn 0.427181 0.337951 0.838633
vn 0.427181 0.337951 0.838633
vn 0.473009 0.319159 0.821218
vn 0.323089 0.406479 0.854628
vn 0.188581 0.435482 0.880223
vn 0.074600 0.297389 0.951837
vn 0.268691 0.408421 0.872352
vn 0.268691 0.408421 0.872352
vn 0.323089 0.406479 0.854628
vn 0.188581 0.435482 0.880223
vn -0.004570 0.232400 0.972610
vn -0.101040 -0.002480 0.994879
vn 0.074600 0.297389 0.951837
vn 0.074600 0.297389 0.951837
vn 0.188581 0.435482 0.880223
vn -0.004570 0.232400 0.972610
vn 0.286551 0.265121 -0.920652
vn 0.390741 0.375921 -0.840241
vn 0.005880 0.090480 -0.995881
vn 0.005880 0.090480 -0.995881
vn -0.105590 0.001040 -0.994409
vn 0.286551 0.265121 -0.920652
vn 0.320921 0.408811 -0.854332
vn 0.273191 0.405981 -0.872093
vn 0.390741 0.375921 -0.840241
vn 0.390741 0.375921 -0.840241
vn 0.286551 0.265121 -0.920652
vn 0.320921 0.408811 -0.854332
vn 0.163430 0.443719 -0.881138
vn 0.084830 0.302930 -0.949230
vn 0.273191 0.405981 -0.872093
vn 0.273191 0.405981 -0.872093
vn 0.320921 0.408811 -0.854332
vn 0.163430 0.443719 -0.881138
vn 0.007550 0.242390 -0.970150
vn 0.000000 0.000000 -1.000000
vn 0.084830 0.302930 -0.949230
vn 0.084830 0.302930 -0.949230
vn 0.163430 0.443719 -0.881138
vn 0.007550 0.242390 -0.970150
vn -0.166310 0.001320 -0.986073
vn -0.105590 0.001040 -0.994409
vn 0.005880 0.090480 -0.995881
vn -0.138040 0.002790 0.990423
vn -0.139730 0.002010 0.990188
vn -0.189760 0.002030 0.981828
vn -0.993398 -0.114610 -0.004980
vn -0.976510 -0.215430 -0.004180
vn -0.999895 -0.013790 -0.004440
vn -0.999895 -0.013790 -0.004440
vn -0.999891 -0.013750 -0.005330
vn -0.993398 -0.114610 -0.004980
vn 0.992452 0.122610 0.002430
vn 0.985515 0.169559 0.003160
vn 0.999708 0.024140 0.001260
vn 0.999708 0.024140 0.001260
vn 0.999812 0.019400 0.000620
vn 0.992452 0.122610 0.002430
vn -0.090780 -0.000140 -0.995871
vn 0.116620 0.064460 -0.991083
vn -0.166310 0.001320 -0.986073
vn -0.166310 0.001320 -0.986073
vn 0.005880 0.090480 -0.995881
vn -0.090780 -0.000140 -0.995871
vn -0.059130 0.024640 0.997946
vn 0.148610 0.072180 0.986258
vn -0.139730 0.002010 0.990188
vn -0.139730 0.002010 0.990188
vn -0.138040 0.002790 0.990423
vn -0.059130 0.024640 0.997946
vn -0.899797 -0.436279 -0.005090
vn -0.832393 -0.554172 -0.003910
vn -0.976510 -0.215430 -0.004180
vn -0.976510 -0.215430 -0.004180
vn -0.993398 -0.114610 -0.004980
vn -0.899797 -0.436279 -0.005090
vn 0.985515 0.169559 0.003160
vn 0.992452 0.122610 0.002430
vn 0.951748 0.306849 0.004340
vn 0.245520 0.165720 -0.955121
vn 0.359672 0.260371 -0.896015
vn 0.116620 0.064460 -0.991083
vn 0.116620 0.064460 -0.991083
vn -0.090780 -0.000140 -0.995871
vn 0.245520 0.165720 -0.955121
vn 0.272711 0.178441 0.945404
vn 0.382040 0.253740 0.888629
vn 0.148610 0.072180 0.986258
vn 0.148610 0.072180 0.986258
vn -0.059130 0.024640 0.997946
vn 0.272711 0.178441 0.945404
vn -0.659649 -0.751559 -0.004840
vn -0.554731 -0.832022 -0.003590
vn -0.832393 -0.554172 -0.003910
vn -0.832393 -0.554172 -0.003910
vn -0.899797 -0.436279 -0.005090
vn -0.659649 -0.751559 -0.004840
vn 0.294670 0.334320 -0.895209
vn 0.244229 0.363929 -0.898837
vn 0.359672 0.260371 -0.896015
vn 0.359672 0.260371 -0.896015
vn 0.245520 0.165720 -0.955121
vn 0.294670 0.334320 -0.895209
vn 0.307142 0.347132 0.886095
vn 0.253719 0.380099 0.889467
vn 0.382040 0.253740 0.888629
vn 0.382040 0.253740 0.888629
vn 0.272711 0.178441 0.945404
vn 0.307142 0.347132 0.886095
vn -0.339070 -0.940750 -0.004520
vn -0.284948 -0.958535 -0.003920
vn -0.554731 -0.832022 -0.003590
vn -0.554731 -0.832022 -0.003590
vn -0.659649 -0.751559 -0.004840
vn -0.339070 -0.940750 -0.004520
vn 0.136791 0.421582 -0.896414
vn 0.070660 0.287300 -0.955231
vn 0.244229 0.363929 -0.898837
vn 0.244229 0.363929 -0.898837
vn 0.294670 0.334320 -0.895209
vn 0.136791 0.421582 -0.896414
vn 0.157209 0.433478 0.887346
vn 0.072840 0.304531 0.949713
vn 0.253719 0.380099 0.889467
vn 0.253719 0.380099 0.889467
vn 0.307142 0.347132 0.886095
vn 0.157209 0.433478 0.887346
vn -0.284948 -0.958535 -0.003920
vn -0.339070 -0.940750 -0.004520
vn -0.119560 -0.992813 -0.005270
vn 0.005080 0.229150 -0.973378
vn -0.001720 -0.014020 -0.999900
vn 0.070660 0.287300 -0.955231
vn 0.070660 0.287300 -0.955231
vn 0.136791 0.421582 -0.896414
vn 0.005080 0.229150 -0.973378
vn 0.004900 0.245689 0.969336
vn -0.047200 0.014080 0.998786
vn 0.072840 0.304531 0.949713
vn 0.072840 0.304531 0.949713
vn 0.157209 0.433478 0.887346
vn 0.004900 0.245689 0.969336
vn 0.130780 -0.991411 0.000000
vn 0.130780 -0.991411 0.000000
vn 0.130780 -0.991411 0.000000
vn 0.063010 0.998013 0.000000
vn 0.063010 0.998013 0.000000
vn 0.063010 0.998013 0.000000
vn 0.192221 0.056350 -0.979733
vn 0.203410 0.112470 -0.972612
vn 0.192221 0.056350 -0.979733
vn 0.192221 0.056350 -0.979733
vn 0.180401 0.000040 -0.983593
vn 0.192221 0.056350 -0.979733
vn -0.875140 -0.483870 -0.000000
vn -0.875140 -0.483870 -0.000000
vn -0.875140 -0.483870 -0.000000
vn -0.875140 -0.483870 -0.000000
vn -0.875140 -0.483870 -0.000000
vn -0.875140 -0.483870 -0.000000
vn 0.202619 0.051440 0.977906
vn 0.218940 0.000050 0.975738
vn 0.202619 0.051440 0.977906
vn 0.202619 0.051440 0.977906
vn 0.185721 0.102680 0.977223
vn 0.202619 0.051440 0.977906
vn -0.000000 0.000000 1.000000
vn -0.000000 0.000000 1.000000
vn -0.000000 0.000000 1.000000
vn -0.000000 0.000000 1.000000
vn -0.000000 0.000000 1.000000
vn -0.000000 0.000000 1.000000
vn -0.000000 0.000000 1.000000
vn -0.000000 0.000000 1.000000
vn -0.000000 0.000000 1.000000
vn -0.000000 0.000000 1.000000
vn -0.000000 0.000000 1.000000
vn -0.000000 0.000000 1.000000
vn -0.888843 0.000000 0.458212
vn -0.888843 0.000000 0.458212
vn -0.888843 0.000000 0.458212
vn -0.888843 0.000000 0.458212
vn -0.888843 0.000000 0.458212
vn -0.888843 0.000000 0.458212
vn 0.888843 0.000000 -0.458212
vn 0.888843 0.000000 -0.458212
vn 0.888843 0.000000 -0.458212
vn 0.888843 0.000000 -0.458212
vn 0.888843 0.000000 -0.458212
vn 0.888843 0.000000 -0.458212
vn -0.888843 0.000000 -0.458212
vn -0.888843 0.000000 -0.458212
vn -0.888843 0.000000 -0.458212
vn -0.888843 0.000000 -0.458212
vn -0.888843 0.000000 -0.458212
vn -0.888843 0.000000 -0.458212
vn 0.888843 0.000000 0.458212
vn 0.888843 0.000000 0.458212
vn 0.888843 0.000000 0.458212
vn 0.888843 0.000000 0.458212
vn 0.888843 0.000000 0.458212
vn 0.888843 0.000000 0.458212
vn -0.000000 0.000000 1.000000
vn -0.000000 0.000000 1.000000
vn -0.000000 0.000000 1.000000
vn -0.000000 0.000000 1.000000
vn -0.000000 0.000000 1.000000
vn -0.000000 0.000000 1.000000
vn 0.000000 0.000000 -1.000000
vn 0.000000 0.000000 -1.000000
vn 0.000000 0.000000 -1.000000
vn 0.000000 0.000000 -1.000000
vn 0.000000 0.000000 -1.000000
vn 0.000000 0.000000 -1.000000
vn -0.000000 0.000000 1.000000
vn -0.000000 0.000000 1.000000
vn -0.000000 0.000000 1.000000
vn -0.000000 0.000000 1.000000
vn -0.000000 0.000000 1.000000
vn -0.000000 0.000000 1.000000
vn 0.000000 0.000000 -1.000000
vn 0.000000 0.000000 -1.000000
vn 0.000000 0.000000 -1.000000
vn 0.000000 0.000000 -1.000000
vn 0.000000 0.000000 -1.000000
vn 0.000000 0.000000 -1.000000
vn 0.000000 0.000000 -1.000000
vn 0.000000 0.000000 -1.000000
vn 0.000000 0.000000 -1.000000
vn 0.000000 0.000000 -1.000000
vn 0.000000 0.000000 -1.000000
vn 0.000000 0.000000 -1.000000
vn 0.000000 0.000000 -1.000000
vn 0.000000 0.000000 -1.000000
vn 0.000000 0.000000 -1.000000
vn 0.000000 0.000000 -1.000000
vn 0.000000 0.000000 -1.000000
vn 0.000000 0.000000 -1.000000
s off
g lampanneauvertlowress01
usemtl lampwsign05
f 1/1/1 2/2/2 3/3/3
f 3/3/4 4/4/5 1/1/6
f 2/5/7 5/6/8 6/7/9
f 6/7/10 3/8/11 2/5/12
f 5/9/13 7/10/14 8/11/15
f 8/11/16 6/12/17 5/9/18
f 7/13/19 1/14/20 4/15/21
f 4/15/22 8/16/23 7/13/24
f 9/17/25 10/18/26 3/8/27
f 3/8/28 6/7/29 9/17/30
f 11/19/31 12/20/32 10/18/33
f 10/18/34 9/17/35 11/19/36
f 13/21/37 14/22/38 12/20/39
f 12/20/40 11/19/41 13/21/42
f 14/22/43 13/21/44 15/23/45
f 16/24/46 17/25/47 18/26/48
f 18/27/49 9/28/50 6/12/51
f 6/12/52 16/29/53 18/27/54
f 19/30/55 11/31/56 9/28/57
f 9/28/58 18/27/59 19/30/60
f 20/32/61 13/33/62 11/31/63
f 11/31/64 19/30/65 20/32/66
f 21/34/67 15/35/68 13/33/69
f 13/33/70 20/32/71 21/34/72
f 10/36/73 18/37/74 17/38/75
f 17/38/76 3/3/77 10/36/78
f 12/39/79 19/40/80 18/37/81
f 18/37/82 10/36/83 12/39/84
f 14/41/85 20/42/86 19/40/87
f 19/40/88 12/39/89 14/41/90
f 15/43/91 21/44/92 20/42/93
f 20/42/94 14/41/95 15/43/96
f 4/4/97 3/3/98 17/38/99
f 8/11/100 16/29/101 6/12/102
f 22/45/103 23/46/104 17/47/105
f 17/47/106 16/48/107 22/45/108
f 24/49/109 25/50/110 8/16/111
f 8/16/112 4/15/113 24/49/114
f 23/51/115 24/52/116 4/4/117
f 4/4/118 17/38/119 23/51/120
f 25/53/121 22/54/122 16/29/123
f 16/29/124 8/11/125 25/53/126
f 26/55/127 27/56/128 23/46/129
f 23/46/130 22/45/131 26/55/132
f 25/50/133 24/49/134 28/57/135
f 27/58/136 28/59/137 24/52/138
f 24/52/139 23/51/140 27/58/141
f 28/60/142 26/61/143 22/54/144
f 22/54/145 25/53/146 28/60/147
f 29/62/148 30/63/149 27/56/150
f 27/56/151 26/55/152 29/62/153
f 30/64/154 31/65/155 28/59/156
f 28/59/157 27/58/158 30/64/159
f 31/66/160 29/67/161 26/61/162
f 26/61/163 28/60/164 31/66/165
f 32/68/166 33/69/167 30/63/168
f 30/63/169 29/62/170 32/68/171
f 33/70/172 34/71/173 31/65/174
f 31/65/175 30/64/176 33/70/177
f 34/72/178 32/73/179 29/67/180
f 29/67/181 31/66/182 34/72/183
f 33/69/184 32/68/185 35/74/186
f 35/75/187 36/76/188 34/71/189
f 34/71/190 33/70/191 35/75/192
f 36/77/193 35/78/194 32/73/195
f 32/73/196 34/72/197 36/77/198
f 37/79/199 38/80/200 39/81/201
f 40/82/202 41/83/203 42/84/204
f 39/85/205 38/86/206 41/87/207
f 41/87/208 40/88/209 39/85/210
f 38/80/211 37/79/212 42/89/213
f 42/89/214 41/90/215 38/80/216
f 37/91/217 39/92/218 40/93/219
f 40/93/220 42/94/221 37/91/222
f 43/95/223 44/96/224 45/97/225
f 46/98/226 45/97/227 44/96/228
f 47/99/229 48/100/230 49/101/231
f 50/102/232 49/101/233 48/100/234
f 51/103/235 52/104/236 53/105/237
f 54/106/238 53/105/239 52/104/240
f 55/131/241 56/132/242 57/133/243
f 57/134/244 58/135/245 55/136/246
f 59/137/247 60/138/248 61/139/249
f 60/140/250 59/141/251 62/142/252
f 63/143/253 64/144/254 65/145/255
f 66/146/256 65/147/257 64/148/258
f 67/107/259 68/108/260 69/109/261
f 70/110/262 69/109/263 68/108/264
f 71/111/265 72/112/266 73/113/267
f 74/114/268 73/113/269 72/112/270
f 75/115/271 76/116/272 77/117/273
f 78/118/274 77/117/275 76/116/276
f 79/119/277 80/120/278 81/121/279
f 82/122/280 81/121/281 80/120/282
f 83/123/283 84/124/284 85/125/285
f 86/126/286 85/125/287 84/124/288
f 87/127/289 88/128/290 89/129/291
f 90/130/292 89/129/293 88/128/294
