# This file uses centimeters as units for non-parametric coordinates.

mtllib lamp.04.single.mtl
v 92.989166 294.127625 -94.981224
v -103.862396 294.127625 -94.981224
v -103.862396 294.127625 101.869179
v 92.989166 294.127625 101.869179
v -103.862396 -3.958603 -94.981224
v -103.862396 -3.958603 101.869179
v 92.989166 -3.958603 101.869179
v 92.989166 -3.958603 -94.981224
v 36.493073 297.176544 -25.096487
v -47.366302 297.176544 -25.096487
v -38.940521 2757.187988 -25.096487
v 37.207901 2695.826172 -25.096518
v -47.366302 297.176544 31.984446
v -38.940521 2757.187988 31.984446
v 36.493073 297.176544 31.984446
v 37.207901 2695.826172 31.984385
v -147.393646 2986.617188 31.984415
v -147.393646 2986.617188 -25.096548
v -272.995209 3117.580078 31.984415
v -272.995209 3117.580078 -25.096518
v -408.913177 3160.708496 31.984385
v -408.913177 3160.708496 -25.096518
v -610.073364 3170.933594 31.984385
v -610.073364 3170.933594 -25.096518
v -4.721786 2844.283447 3.443949
v -99.753021 3021.614746 3.443949
v -237.850677 3161.301758 3.443949
v -400.311615 3219.615234 3.443949
v -609.815491 3228.487305 3.443918
v -916.315491 3102.432129 -92.323509
v -934.608521 3249.562500 -92.323509
v -609.057739 3229.603760 -92.323448
v -609.057739 3167.297852 -92.323448
v -916.315491 3102.432129 104.201576
v -609.057739 3167.297852 104.201607
v -609.057739 3229.603760 104.201622
v -934.608521 3249.562500 104.201576
vt 0.522983 0.081698
vt 0.443313 0.081698
vt 0.443313 0.081698
vt 0.522983 0.081698
vt 0.443313 0.010341
vt 0.443313 0.010341
vt 0.522983 0.010341
vt 0.522983 0.010341
vt 0.500118 0.082428
vt 0.466179 0.082428
vt 0.470357 0.769779
vt 0.494165 0.752148
vt 0.466179 0.082428
vt 0.470357 0.769779
vt 0.500118 0.082428
vt 0.494165 0.752148
vt 0.422584 0.836718
vt 0.422584 0.836718
vt 0.357771 0.877219
vt 0.357771 0.877219
vt 0.287148 0.896483
vt 0.287148 0.896483
vt 0.216714 0.904042
vt 0.216714 0.904042
vt 0.471832 0.794804
vt 0.428937 0.844737
vt 0.365650 0.882002
vt 0.291327 0.901830
vt 0.216839 0.907505
vt 0.040664 0.901101
vt 0.031777 0.909491
vt 0.217207 0.907598
vt 0.217207 0.903740
vt 0.040664 0.901101
vt 0.217207 0.903740
vt 0.217207 0.907598
vt 0.031777 0.909491
vn 0.000000 1.000000 0.000000
vn 0.000000 1.000000 0.000000
vn 0.000000 1.000000 0.000000
vn 0.000000 1.000000 0.000000
vn 0.000000 1.000000 0.000000
vn 0.000000 1.000000 0.000000
vn -1.000000 0.000010 -0.000000
vn -1.000000 0.000010 -0.000000
vn -1.000000 0.000010 -0.000000
vn -1.000000 -0.000010 0.000000
vn -1.000000 -0.000010 0.000000
vn -1.000000 -0.000010 0.000000
vn 0.000000 0.000000 1.000000
vn 0.000000 0.000000 1.000000
vn 0.000000 0.000000 1.000000
vn 0.000000 0.000000 1.000000
vn 0.000000 0.000000 1.000000
vn 0.000000 0.000000 1.000000
vn 1.000000 0.000010 0.000000
vn 1.000000 0.000010 0.000000
vn 1.000000 0.000010 0.000000
vn 1.000000 -0.000010 0.000000
vn 1.000000 -0.000010 0.000000
vn 1.000000 -0.000010 0.000000
vn 0.000000 0.000000 -1.000000
vn 0.000000 0.000000 -1.000000
vn 0.000000 0.000000 -1.000000
vn 0.000000 0.000000 -1.000000
vn 0.000000 0.000000 -1.000000
vn 0.000000 0.000000 -1.000000
vn -0.999994 0.003430 -0.000000
vn -0.999994 0.003430 -0.000000
vn -0.999994 0.003430 -0.000000
vn -0.999994 0.003430 -0.000000
vn -0.999994 0.003430 -0.000000
vn -0.999994 0.003430 -0.000000
vn 0.000000 0.000000 1.000000
vn 0.000000 0.000000 1.000000
vn 0.000000 0.000000 1.000000
vn 0.000000 0.000000 1.000000
vn 0.000000 0.000000 1.000000
vn 0.000000 0.000000 1.000000
vn 1.000000 -0.000300 0.000000
vn 1.000000 -0.000300 0.000000
vn 1.000000 -0.000300 0.000000
vn 1.000000 -0.000300 0.000000
vn 1.000000 -0.000300 0.000000
vn 1.000000 -0.000300 0.000000
vn -0.904077 -0.427369 0.000000
vn -0.904077 -0.427369 0.000000
vn -0.904077 -0.427369 0.000000
vn -0.904081 -0.427361 0.000000
vn -0.904081 -0.427361 0.000000
vn -0.904081 -0.427361 0.000000
vn -0.721727 -0.692177 0.000000
vn -0.721727 -0.692177 0.000000
vn -0.721727 -0.692177 0.000000
vn -0.721727 -0.692177 0.000000
vn -0.721727 -0.692177 0.000000
vn -0.721727 -0.692177 0.000000
vn -0.302449 -0.953166 0.000000
vn -0.302449 -0.953166 0.000000
vn -0.302449 -0.953166 0.000000
vn -0.302449 -0.953166 0.000000
vn -0.302449 -0.953166 0.000000
vn -0.302449 -0.953166 0.000000
vn -0.050760 -0.998711 0.000000
vn -0.050760 -0.998711 0.000000
vn -0.050760 -0.998711 0.000000
vn -0.050760 -0.998711 0.000000
vn -0.050760 -0.998711 0.000000
vn -0.050760 -0.998711 0.000000
vn 0.191040 0.237080 0.952521
vn 0.191040 0.237080 0.952521
vn 0.191040 0.237080 0.952521
vn 0.399013 0.188621 0.897335
vn 0.399013 0.188621 0.897335
vn 0.399013 0.188621 0.897335
vn 0.327551 0.175541 0.928383
vn 0.327551 0.175541 0.928383
vn 0.327551 0.175541 0.928383
vn 0.329460 0.315970 0.889730
vn 0.329460 0.315970 0.889730
vn 0.329460 0.315970 0.889730
vn 0.311880 0.308330 0.898701
vn 0.311880 0.308330 0.898701
vn 0.311880 0.308330 0.898701
vn 0.132160 0.416491 0.899483
vn 0.132160 0.416491 0.899483
vn 0.132160 0.416491 0.899483
vn 0.160120 0.446089 0.880549
vn 0.160120 0.446089 0.880549
vn 0.160120 0.446089 0.880549
vn 0.022570 0.444081 0.895702
vn 0.022570 0.444081 0.895702
vn 0.022570 0.444081 0.895702
vn 0.018370 0.433781 0.900831
vn 0.018370 0.433781 0.900831
vn 0.018370 0.433781 0.900831
vn 0.191039 0.237059 -0.952527
vn 0.191039 0.237059 -0.952527
vn 0.191039 0.237059 -0.952527
vn 0.386359 0.207059 -0.898807
vn 0.386359 0.207059 -0.898807
vn 0.386359 0.207059 -0.898807
vn 0.349189 0.165070 -0.922398
vn 0.349189 0.165070 -0.922398
vn 0.349189 0.165070 -0.922398
vn 0.324151 0.320461 -0.890073
vn 0.324151 0.320461 -0.890073
vn 0.324151 0.320461 -0.890073
vn 0.315988 0.303039 -0.899066
vn 0.315988 0.303039 -0.899066
vn 0.315988 0.303039 -0.899066
vn 0.148441 0.413542 -0.898303
vn 0.148441 0.413542 -0.898303
vn 0.148441 0.413542 -0.898303
vn 0.144870 0.456560 -0.877819
vn 0.144870 0.456560 -0.877819
vn 0.144870 0.456560 -0.877819
vn 0.018810 0.444128 -0.895766
vn 0.018810 0.444128 -0.895766
vn 0.018810 0.444128 -0.895766
vn 0.022020 0.433320 -0.900971
vn 0.022020 0.433320 -0.900971
vn 0.022020 0.433320 -0.900971
vn 0.000000 0.000000 -1.000000
vn 0.000000 0.000000 -1.000000
vn 0.000000 0.000000 -1.000000
vn 0.000000 0.000000 -1.000000
vn 0.000000 0.000000 -1.000000
vn 0.000000 0.000000 -1.000000
vn 0.000000 0.000000 1.000000
vn 0.000000 0.000000 1.000000
vn 0.000000 0.000000 1.000000
vn 0.000000 0.000000 1.000000
vn 0.000000 0.000000 1.000000
vn 0.000000 0.000000 1.000000
vn 0.206561 -0.978434 0.000000
vn 0.206561 -0.978434 0.000000
vn 0.206561 -0.978434 0.000000
vn 0.206561 -0.978434 0.000000
vn 0.206561 -0.978434 0.000000
vn 0.206561 -0.978434 0.000000
vn 1.000000 0.000000 0.000000
vn 1.000000 0.000000 0.000000
vn 1.000000 0.000000 0.000000
vn 1.000000 0.000000 0.000000
vn 1.000000 0.000000 0.000000
vn 1.000000 0.000000 0.000000
vn 0.061190 0.998126 0.000000
vn 0.061190 0.998126 0.000000
vn 0.061190 0.998126 0.000000
vn 0.061190 0.998126 0.000000
vn 0.061190 0.998126 0.000000
vn 0.061190 0.998126 0.000000
vn -0.992360 -0.123380 0.000000
vn -0.992360 -0.123380 0.000000
vn -0.992360 -0.123380 0.000000
vn -0.992360 -0.123380 0.000000
vn -0.992360 -0.123380 0.000000
vn -0.992360 -0.123380 0.000000
vn 0.000000 0.000000 -1.000000
vn 0.000000 0.000000 -1.000000
vn 0.000000 0.000000 -1.000000
vn 0.000000 0.000000 -1.000000
vn 0.000000 0.000000 -1.000000
vn 0.000000 0.000000 -1.000000
g lamp02photo
usemtl lampwsign04
f 1/1/1 2/2/2 3/3/3
f 3/3/4 4/4/5 1/1/6
f 5/5/7 6/6/8 3/3/9
f 3/3/10 2/2/11 5/5/12
f 6/6/13 7/7/14 4/4/15
f 4/4/16 3/3/17 6/6/18
f 7/7/19 8/8/20 1/1/21
f 1/1/22 4/4/23 7/7/24
f 9/9/25 10/10/26 11/11/27
f 11/11/28 12/12/29 9/9/30
f 10/10/31 13/13/32 14/14/33
f 14/14/34 11/11/35 10/10/36
f 13/13/37 15/15/38 16/16/39
f 16/16/40 14/14/41 13/13/42
f 15/15/43 9/9/44 12/12/45
f 12/12/46 16/16/47 15/15/48
f 17/17/49 18/18/50 11/11/51
f 11/11/52 14/14/53 17/17/54
f 19/19/55 20/20/56 18/18/57
f 18/18/58 17/17/59 19/19/60
f 21/21/61 22/22/62 20/20/63
f 20/20/64 19/19/65 21/21/66
f 23/23/67 24/24/68 22/22/69
f 22/22/70 21/21/71 23/23/72
f 14/14/73 16/16/74 25/25/75
f 26/26/76 17/17/77 14/14/78
f 14/14/79 25/25/80 26/26/81
f 27/27/82 19/19/83 17/17/84
f 17/17/85 26/26/86 27/27/87
f 28/28/88 21/21/89 19/19/90
f 19/19/91 27/27/92 28/28/93
f 29/29/94 23/23/95 21/21/96
f 21/21/97 28/28/98 29/29/99
f 11/11/100 25/25/101 12/12/102
f 18/18/103 26/26/104 25/25/105
f 25/25/106 11/11/107 18/18/108
f 20/20/109 27/27/110 26/26/111
f 26/26/112 18/18/113 20/20/114
f 22/22/115 28/28/116 27/27/117
f 27/27/118 20/20/119 22/22/120
f 24/24/121 29/29/122 28/28/123
f 28/28/124 22/22/125 24/24/126
f 30/30/127 31/31/128 32/32/129
f 32/32/130 33/33/131 30/30/132
f 34/34/133 35/35/134 36/36/135
f 36/36/136 37/37/137 34/34/138
f 30/30/139 33/33/140 35/35/141
f 35/35/142 34/34/143 30/30/144
f 33/33/145 32/32/146 36/36/147
f 36/36/148 35/35/149 33/33/150
f 32/32/151 31/31/152 37/37/153
f 37/37/154 36/36/155 32/32/156
f 31/31/157 30/30/158 34/34/159
f 34/34/160 37/37/161 31/31/162
f 8/8/163 5/5/164 2/2/165
f 2/2/166 1/1/167 8/8/168
