# This file uses centimeters as units for non-parametric coordinates.

mtllib lightPole360.mtl
v -0.043763 0.000000 0.000000
v 0.043763 0.000000 0.000000
v 0.043763 3.278519 0.000000
v -0.043763 3.278519 0.000000
v 0.000000 0.000000 0.043763
v 0.000000 0.000000 -0.043763
v 0.000000 3.278519 -0.043763
v 0.000000 3.278519 0.043763
v -0.120208 3.060673 -0.120208
v -0.120208 3.060673 0.120208
v -0.120208 3.480673 0.120208
v -0.120208 3.480673 -0.120208
v 0.120208 3.060673 0.120208
v 0.120208 3.480673 0.120208
v 0.120208 3.060673 -0.120208
v 0.120208 3.480673 -0.120208
v 0.114412 3.387722 -0.437293
v -0.399657 3.387722 -0.270262
v -0.415944 3.439415 -0.280846
v 0.118257 3.439415 -0.454418
v -0.399657 3.387722 0.270262
v -0.415944 3.439415 0.280846
v 0.114412 3.387722 0.437293
v 0.118257 3.439415 0.454418
v 0.432124 3.387722 0.000000
v 0.448411 3.439415 0.000000
v 0.043072 3.565268 -0.119541
v 0.036472 3.565268 -0.117396
v 0.042375 3.565268 -0.117396
v -0.097456 3.565268 -0.073880
v -0.097456 3.565268 0.073880
v 0.004231 3.565268 0.000000
v 0.043072 3.565268 0.119541
v 0.129923 3.565268 0.000000
v 0.044630 3.565268 -0.117396
v 0.049079 3.506103 -0.146298
v -0.122904 3.506103 -0.090417
v -0.122904 3.506103 0.090417
v 0.049079 3.506103 0.146298
v 0.155371 3.506103 0.000000
vt 0.057075 0.086995
vt 0.259555 0.086995
vt 0.259555 0.852661
vt 0.057075 0.852661
vt 0.000809 0.052909
vt 0.305516 0.052909
vt 0.305516 0.851830
vt 0.000809 0.851830
vt 0.937403 0.129807
vt 0.374675 0.129807
vt 0.374675 0.870193
vt 0.937403 0.870193
vt 0.463052 0.076580
vt 0.995896 0.076580
vt 0.995896 0.829770
vt 0.463052 0.829770
vt 0.374675 0.129807
vt 0.937403 0.129807
vt 0.937403 0.870193
vt 0.374675 0.870193
vt 0.995896 0.076580
vt 0.463052 0.076580
vt 0.463052 0.829770
vt 0.995896 0.829770
vt 0.995790 0.041981
vt 0.337127 0.041981
vt 0.337127 0.828724
vt 0.995790 0.828724
vt 1.409111 0.863473
vt 1.787399 0.863473
vt 1.787399 0.904885
vt 1.409111 0.904885
vt -0.168240 0.863473
vt 0.190483 0.863473
vt 0.190483 0.904885
vt -0.168240 0.904885
vt 0.568771 0.863473
vt 0.568771 0.904885
vt 0.988941 0.863473
vt 0.988941 0.904885
vt 0.618034 0.687138
vt 0.589006 0.683781
vt 0.614969 0.683781
vt 0.403377 0.945588
vt 0.403377 0.907242
vt 0.489799 0.926415
vt 0.522810 0.895393
vt 0.596623 0.926415
vt 0.524134 0.956880
vt 0.522217 0.956880
vt 1.409111 0.958309
vt 1.787399 0.958309
vt 1.787399 1.005707
vt 1.424716 1.005707
vt 1.409111 1.005707
vt -0.168240 0.958309
vt 0.190483 0.958309
vt 0.190483 1.005707
vt -0.168240 1.005707
vt 0.568771 0.958309
vt 0.568771 1.005707
vt 0.988941 0.958309
vt 0.988941 1.005707
vt 1.403982 1.005707
vt 0.618316 0.943272
vt 0.356606 0.921440
vt 0.500169 0.897488
vt 0.584425 0.904516
vt 0.356606 0.850789
vt 0.500169 0.874742
vt 0.618316 0.828957
vt 0.584425 0.867713
vt 0.780061 0.886115
vt 0.636498 0.886115
vt 0.517200 0.956880
vt 0.624887 0.683781
vn 0.000000 0.000000 1.000000
vn 0.000000 0.000000 1.000000
vn 0.000000 0.000000 1.000000
vn 0.000000 0.000000 1.000000
vn 1.000000 0.000000 0.000000
vn 1.000000 0.000000 0.000000
vn 1.000000 0.000000 0.000000
vn 1.000000 0.000000 0.000000
vn -1.000000 0.000000 0.000000
vn -1.000000 0.000000 0.000000
vn -1.000000 0.000000 0.000000
vn -1.000000 0.000000 0.000000
vn 0.000000 0.000000 1.000000
vn 0.000000 0.000000 1.000000
vn 0.000000 0.000000 1.000000
vn 0.000000 0.000000 1.000000
vn 1.000000 0.000000 0.000000
vn 1.000000 0.000000 0.000000
vn 1.000000 0.000000 0.000000
vn 1.000000 0.000000 0.000000
vn 0.000000 0.000000 -1.000000
vn 0.000000 0.000000 -1.000000
vn 0.000000 0.000000 -1.000000
vn 0.000000 0.000000 -1.000000
vn 0.000000 -1.000000 0.000000
vn 0.000000 -1.000000 0.000000
vn 0.000000 -1.000000 0.000000
vn 0.000000 -1.000000 0.000000
vn -0.296622 -0.280371 -0.912912
vn -0.296622 -0.280371 -0.912912
vn -0.296622 -0.280371 -0.912912
vn -0.296622 -0.280371 -0.912912
vn -0.953779 -0.300509 0.000000
vn -0.953779 -0.300509 0.000000
vn -0.953779 -0.300509 0.000000
vn -0.953779 -0.300509 0.000000
vn -0.296622 -0.280371 0.912912
vn -0.296622 -0.280371 0.912912
vn -0.296622 -0.280371 0.912912
vn -0.296622 -0.280371 0.912912
vn 0.783948 -0.247000 0.569576
vn 0.783948 -0.247000 0.569576
vn 0.783948 -0.247000 0.569576
vn 0.783948 -0.247000 0.569576
vn 0.783947 -0.247000 -0.569577
vn 0.783947 -0.247000 -0.569577
vn 0.783947 -0.247000 -0.569577
vn 0.783947 -0.247000 -0.569577
vn 0.000000 1.000000 -0.000133
vn 0.000000 1.000000 -0.000036
vn 0.000000 1.000000 -0.000066
vn 0.000000 1.000000 0.000001
vn 0.000000 1.000000 0.000002
vn 0.000000 1.000000 0.000001
vn 0.000000 1.000000 0.000002
vn 0.000000 1.000000 0.000000
vn 0.000000 1.000000 -0.000096
vn -0.287042 0.370383 -0.883416
vn -0.287042 0.370383 -0.883416
vn -0.287042 0.370383 -0.883416
vn -0.287042 0.370383 -0.883416
vn -0.287042 0.370383 -0.883416
vn -0.918630 0.395120 0.000000
vn -0.918630 0.395120 0.000000
vn -0.918630 0.395120 0.000000
vn -0.918630 0.395120 0.000000
vn -0.287044 0.370382 0.883416
vn -0.287044 0.370382 0.883416
vn -0.287044 0.370382 0.883416
vn -0.287044 0.370382 0.883416
vn 0.764081 0.328640 0.555135
vn 0.764081 0.328640 0.555135
vn 0.764081 0.328640 0.555135
vn 0.764081 0.328640 0.555135
vn 0.764081 0.328642 -0.555136
vn 0.764081 0.328642 -0.555136
vn 0.764081 0.328642 -0.555136
vn 0.764081 0.328642 -0.555136
vn 0.764081 0.328642 -0.555136
vn 0.073535 0.978010 -0.195165
vn -0.149160 0.982171 -0.114421
vn -0.149160 0.982171 -0.114421
vn 0.073535 0.978010 -0.195165
vn -0.149160 0.982171 0.114422
vn -0.149160 0.982171 0.114422
vn 0.073535 0.978010 0.195165
vn 0.073535 0.978010 0.195165
vn 0.221900 0.975070 0.000000
vn 0.221900 0.975070 0.000000
g lightPole360
usemtl lambert895SG
f 1/1/1 2/2/2 3/3/3 4/4/4
f 5/5/5 6/6/6 7/7/7 8/8/8
f 9/9/9 10/10/10 11/11/11 12/12/12
f 10/13/13 13/14/14 14/15/15 11/16/16
f 13/17/17 15/18/18 16/19/19 14/20/20
f 15/21/21 9/22/22 12/23/23 16/24/24
f 13/25/25 10/26/26 9/27/27 15/28/28
f 17/29/29 18/30/30 19/31/31 20/32/32
f 18/33/33 21/34/34 22/35/35 19/36/36
f 21/34/37 23/37/38 24/38/39 22/35/40
f 23/37/41 25/39/42 26/40/43 24/38/44
f 25/39/45 17/29/46 20/32/47 26/40/48
f 27/41/49 28/42/50 29/43/51
f 30/44/52 31/45/53 32/46/54
f 31/45/53 33/47/55 32/46/54
f 33/47/55 34/48/56 32/46/54
f 34/48/56 35/49/57 29/50/51 32/46/54
f 36/51/58 37/52/59 30/53/60 28/54/61 27/55/62
f 37/56/63 38/57/64 31/58/65 30/59/66
f 38/57/67 39/60/68 33/61/69 31/58/70
f 39/60/71 40/62/72 34/63/73 33/61/74
f 40/62/75 36/51/76 27/55/77 35/64/78 34/63/79
f 20/65/80 19/66/81 37/67/82 36/68/83
f 19/66/81 22/69/84 38/70/85 37/67/82
f 22/69/84 24/71/86 39/72/87 38/70/85
f 24/71/86 26/73/88 40/74/89 39/72/87
f 26/73/88 20/65/80 36/68/83 40/74/89
f 29/50/51 28/75/50 30/44/52 32/46/54
f 29/43/51 35/76/57 27/41/49
