# This file uses centimeters as units for non-parametric coordinates.

mtllib lightPoleGlobe.mtl
v -0.043763 0.000000 0.000000
v 0.043763 0.000000 0.000000
v -0.043763 3.278519 0.000000
v 0.043763 3.278519 0.000000
v -0.000000 0.000000 0.043763
v 0.000000 0.000000 -0.043763
v -0.000000 3.278519 0.043763
v 0.000000 3.278519 -0.043763
v 0.067650 3.263183 -0.067650
v 0.000000 3.263183 -0.095671
v -0.067650 3.263183 -0.067650
v -0.095671 3.263183 0.000000
v -0.067650 3.263183 0.067650
v 0.000000 3.263183 0.095671
v 0.067650 3.263183 0.067650
v 0.095671 3.263183 0.000000
v 0.125000 3.317376 -0.125000
v 0.000000 3.317376 -0.176777
v -0.125000 3.317376 -0.125000
v -0.176777 3.317376 0.000000
v -0.125000 3.317376 0.125000
v 0.000000 3.317376 0.176777
v 0.125000 3.317376 0.125000
v 0.176777 3.317376 0.000000
v 0.163320 3.398482 -0.163320
v 0.000000 3.398482 -0.230970
v -0.163320 3.398482 -0.163320
v -0.230970 3.398482 0.000000
v -0.163320 3.398482 0.163320
v 0.000000 3.398482 0.230970
v 0.163320 3.398482 0.163320
v 0.230970 3.398482 0.000000
v 0.176777 3.494153 -0.176777
v 0.000000 3.494153 -0.250000
v -0.176777 3.494153 -0.176777
v -0.250000 3.494153 0.000000
v -0.176777 3.494153 0.176777
v 0.000000 3.494153 0.250000
v 0.176777 3.494153 0.176777
v 0.250000 3.494153 0.000000
v 0.163320 3.589824 -0.163320
v 0.000000 3.589824 -0.230970
v -0.163320 3.589824 -0.163320
v -0.230970 3.589824 0.000000
v -0.163320 3.589824 0.163320
v 0.000000 3.589824 0.230970
v 0.163320 3.589824 0.163320
v 0.230970 3.589824 0.000000
v 0.125000 3.670930 -0.125000
v 0.000000 3.670930 -0.176777
v -0.125000 3.670930 -0.125000
v -0.176777 3.670930 0.000000
v -0.125000 3.670930 0.125000
v 0.000000 3.670930 0.176777
v 0.125000 3.670930 0.125000
v 0.176777 3.670930 0.000000
v 0.067650 3.725123 -0.067650
v 0.000000 3.725123 -0.095671
v -0.067650 3.725123 -0.067650
v -0.095671 3.725123 0.000000
v -0.067650 3.725123 0.067650
v 0.000000 3.725123 0.095671
v 0.067650 3.725123 0.067650
v 0.095671 3.725123 0.000000
v 0.000000 3.244153 0.000000
v 0.000000 3.744153 0.000000
vt 0.000118 0.001992
vt 0.026708 0.001992
vt 0.026708 0.940441
vt 0.000118 0.940441
vt 0.032333 0.001992
vt 0.058924 0.001992
vt 0.058924 0.940441
vt 0.032333 0.940441
vt 1.279024 0.102697
vt 1.538688 0.102697
vt 1.538688 0.235131
vt 1.279024 0.235131
vt -0.538621 0.102697
vt -0.278958 0.102697
vt -0.278958 0.235131
vt -0.538621 0.235131
vt -0.019294 0.102697
vt -0.019294 0.235131
vt 0.240369 0.102697
vt 0.240369 0.235131
vt 0.500033 0.102697
vt 0.500033 0.235131
vt 0.759697 0.102697
vt 0.759697 0.235131
vt 1.019360 0.102697
vt 1.019360 0.235131
vt 1.538688 0.367566
vt 1.279024 0.367566
vt -0.278958 0.367566
vt -0.538621 0.367566
vt -0.019294 0.367566
vt 0.240369 0.367566
vt 0.500033 0.367566
vt 0.759697 0.367566
vt 1.019360 0.367566
vt 1.538688 0.500000
vt 1.279024 0.500000
vt -0.278958 0.500000
vt -0.538621 0.500000
vt -0.019294 0.500000
vt 0.240369 0.500000
vt 0.500033 0.500000
vt 0.759697 0.500000
vt 1.019360 0.500000
vt 1.538688 0.632434
vt 1.279024 0.632434
vt -0.278958 0.632434
vt -0.538621 0.632434
vt -0.019294 0.632434
vt 0.240369 0.632434
vt 0.500033 0.632434
vt 0.759697 0.632434
vt 1.019360 0.632434
vt 1.538688 0.764869
vt 1.279024 0.764869
vt -0.278958 0.764869
vt -0.538621 0.764869
vt -0.019294 0.764869
vt 0.240369 0.764869
vt 0.500033 0.764869
vt 0.759697 0.764869
vt 1.019360 0.764869
vt 1.538688 0.897303
vt 1.279024 0.897303
vt -0.278958 0.897303
vt -0.538621 0.897303
vt -0.019294 0.897303
vt 0.240369 0.897303
vt 0.500033 0.897303
vt 0.759697 0.897303
vt 1.019360 0.897303
vt 1.904726 -0.029737
vt -0.172583 -0.029737
vt 1.904726 1.029737
vt -0.172583 1.029737
vt 2.837006 0.897303
vn 0.000000 0.000000 1.000000
vn 0.000000 0.000000 1.000000
vn 0.000000 0.000000 1.000000
vn 0.000000 0.000000 1.000000
vn 1.000000 0.000000 0.000000
vn 1.000000 0.000000 0.000000
vn 1.000000 0.000000 0.000000
vn 1.000000 0.000000 0.000000
vn 0.269133 -0.924735 -0.269132
vn 0.000000 -0.924736 -0.380610
vn 0.000000 -0.709231 -0.704977
vn 0.498494 -0.709231 -0.498494
vn -0.269133 -0.924735 -0.269134
vn -0.498494 -0.709230 -0.498494
vn -0.380611 -0.924735 -0.000002
vn -0.704977 -0.709230 -0.000000
vn -0.269133 -0.924735 0.269132
vn -0.498494 -0.709231 0.498493
vn -0.000000 -0.924736 0.380610
vn -0.000000 -0.709231 0.704977
vn 0.269133 -0.924735 0.269133
vn 0.498494 -0.709230 0.498494
vn 0.380611 -0.924735 0.000001
vn 0.704977 -0.709230 -0.000000
vn 0.000000 -0.384551 -0.923104
vn 0.652733 -0.384551 -0.652733
vn -0.652733 -0.384551 -0.652733
vn -0.923104 -0.384551 0.000000
vn -0.652733 -0.384551 0.652733
vn -0.000000 -0.384551 0.923104
vn 0.652733 -0.384551 0.652733
vn 0.923104 -0.384551 -0.000000
vn -0.000000 0.000000 -1.000000
vn 0.707107 0.000000 -0.707107
vn -0.707107 0.000000 -0.707107
vn -1.000000 -0.000000 -0.000000
vn -0.707107 0.000000 0.707107
vn 0.000000 0.000000 1.000000
vn 0.707107 0.000000 0.707107
vn 1.000000 0.000000 -0.000000
vn -0.000000 0.384552 -0.923104
vn 0.652733 0.384551 -0.652733
vn -0.652733 0.384551 -0.652733
vn -0.923104 0.384551 -0.000000
vn -0.652733 0.384551 0.652733
vn 0.000000 0.384552 0.923104
vn 0.652733 0.384551 0.652732
vn 0.923104 0.384551 -0.000000
vn 0.000000 0.709231 -0.704976
vn 0.498494 0.709230 -0.498494
vn -0.498494 0.709231 -0.498493
vn -0.704977 0.709230 -0.000000
vn -0.498494 0.709231 0.498493
vn -0.000000 0.709231 0.704976
vn 0.498494 0.709231 0.498493
vn 0.704977 0.709230 -0.000001
vn 0.000000 0.924735 -0.380612
vn 0.269133 0.924735 -0.269133
vn -0.269133 0.924735 -0.269132
vn -0.380611 0.924735 -0.000000
vn -0.269133 0.924735 0.269131
vn -0.000000 0.924735 0.380612
vn 0.269133 0.924735 0.269132
vn 0.380611 0.924735 -0.000001
vn -0.000000 -1.000000 -0.000000
vn -0.000000 1.000000 -0.000000
s off
g pasted__lightPoleGlobe group
usemtl pasted__lambert896SG
f 1/1/1 2/2/2 4/3/3 3/4/4
f 5/5/5 6/6/6 8/7/7 7/8/8
s 1
f 9/9/9 10/10/10 18/11/11 17/12/12
f 10/13/10 11/14/13 19/15/14 18/16/11
f 11/14/13 12/17/15 20/18/16 19/15/14
f 12/17/15 13/19/17 21/20/18 20/18/16
f 13/19/17 14/21/19 22/22/20 21/20/18
f 14/21/19 15/23/21 23/24/22 22/22/20
f 15/23/21 16/25/23 24/26/24 23/24/22
f 16/25/23 9/9/9 17/12/12 24/26/24
f 17/12/12 18/11/11 26/27/25 25/28/26
f 18/16/11 19/15/14 27/29/27 26/30/25
f 19/15/14 20/18/16 28/31/28 27/29/27
f 20/18/16 21/20/18 29/32/29 28/31/28
f 21/20/18 22/22/20 30/33/30 29/32/29
f 22/22/20 23/24/22 31/34/31 30/33/30
f 23/24/22 24/26/24 32/35/32 31/34/31
f 24/26/24 17/12/12 25/28/26 32/35/32
f 25/28/26 26/27/25 34/36/33 33/37/34
f 26/30/25 27/29/27 35/38/35 34/39/33
f 27/29/27 28/31/28 36/40/36 35/38/35
f 28/31/28 29/32/29 37/41/37 36/40/36
f 29/32/29 30/33/30 38/42/38 37/41/37
f 30/33/30 31/34/31 39/43/39 38/42/38
f 31/34/31 32/35/32 40/44/40 39/43/39
f 32/35/32 25/28/26 33/37/34 40/44/40
f 33/37/34 34/36/33 42/45/41 41/46/42
f 34/39/33 35/38/35 43/47/43 42/48/41
f 35/38/35 36/40/36 44/49/44 43/47/43
f 36/40/36 37/41/37 45/50/45 44/49/44
f 37/41/37 38/42/38 46/51/46 45/50/45
f 38/42/38 39/43/39 47/52/47 46/51/46
f 39/43/39 40/44/40 48/53/48 47/52/47
f 40/44/40 33/37/34 41/46/42 48/53/48
f 41/46/42 42/45/41 50/54/49 49/55/50
f 42/48/41 43/47/43 51/56/51 50/57/49
f 43/47/43 44/49/44 52/58/52 51/56/51
f 44/49/44 45/50/45 53/59/53 52/58/52
f 45/50/45 46/51/46 54/60/54 53/59/53
f 46/51/46 47/52/47 55/61/55 54/60/54
f 47/52/47 48/53/48 56/62/56 55/61/55
f 48/53/48 41/46/42 49/55/50 56/62/56
f 49/55/50 50/54/49 58/63/57 57/64/58
f 50/57/49 51/56/51 59/65/59 58/66/57
f 51/56/51 52/58/52 60/67/60 59/65/59
f 52/58/52 53/59/53 61/68/61 60/67/60
f 53/59/53 54/60/54 62/69/62 61/68/61
f 54/60/54 55/61/55 63/70/63 62/69/62
f 55/61/55 56/62/56 64/71/64 63/70/63
f 56/62/56 49/55/50 57/64/58 64/71/64
f 10/10/10 9/9/9 65/72/65
f 11/14/13 10/13/10 65/73/65
f 12/17/15 11/14/13 65/73/65
f 13/19/17 12/17/15 65/73/65
f 14/21/19 13/19/17 65/73/65
f 15/23/21 14/21/19 65/73/65
f 16/25/23 15/23/21 65/72/65
f 9/9/9 16/25/23 65/72/65
f 57/64/58 58/63/57 66/74/66
f 58/66/57 59/65/59 66/75/66
f 59/65/59 60/67/60 66/75/66
f 60/67/60 61/68/61 66/75/66
f 61/68/61 62/69/62 66/75/66
f 62/69/62 63/70/63 66/75/66
f 63/76/63 64/71/64 66/74/66
f 64/71/64 57/64/58 66/74/66
