# This file uses centimeters as units for non-parametric coordinates.

mtllib lightPoleSplit.mtl
v -0.057522 0.000000 0.057522
v 0.057522 0.000000 0.057522
v -0.051815 5.073787 0.037547
v 0.051815 5.073787 0.037547
v -0.051815 5.073787 -0.037547
v 0.051815 5.073787 -0.037547
v -0.057522 0.000000 -0.057522
v 0.057522 0.000000 -0.057522
v -0.051815 5.008189 0.037547
v 0.051815 5.008189 0.037547
v -0.051815 5.008189 -0.037547
v 0.051815 5.008189 -0.037547
v 0.376550 5.039430 -0.029192
v 0.376550 5.039430 0.029192
v 0.376550 5.111417 -0.029192
v 0.376550 5.111417 0.029192
v -0.376550 5.039430 0.029192
v -0.376550 5.039430 -0.029192
v -0.376550 5.111417 0.029192
v -0.376550 5.111417 -0.029192
v 0.653649 5.039430 -0.029192
v 0.653649 5.039430 0.029192
v 0.653649 5.111417 -0.029192
v 0.653649 5.111417 0.029192
v -0.653649 5.039430 0.029192
v -0.653649 5.039430 -0.029192
v -0.653649 5.111417 0.029192
v -0.653649 5.111417 -0.029192
v 0.804394 5.029215 -0.026233
v 0.804394 5.029215 0.026233
v 0.804394 5.093908 -0.026233
v 0.804394 5.093908 0.026233
v -0.804394 5.029215 0.026233
v -0.804394 5.029215 -0.026233
v -0.804394 5.093908 0.026233
v -0.804394 5.093908 -0.026233
v 1.093330 4.968633 -0.029520
v 1.093330 4.968633 0.029520
v 1.093330 5.041431 -0.029520
v 1.093330 5.041431 0.029520
v -0.971583 4.996873 0.026233
v -1.093330 4.968633 -0.029520
v -0.971583 5.061565 0.026233
v -1.093330 5.041431 -0.029520
v 1.093330 4.968633 -0.029520
v 1.093330 4.968633 0.029520
v 1.093330 5.041431 -0.029520
v 1.093330 5.041431 0.029520
v -0.971583 4.996873 0.026233
v -1.093330 4.968633 -0.029520
v -0.971583 5.061565 0.026233
v -1.093330 5.041431 -0.029520
v 1.131498 4.968633 -0.029520
v 1.131498 4.968633 0.029520
v 1.131498 5.041431 -0.029520
v 1.131498 5.041431 0.029520
v -1.131498 4.968633 0.029520
v -1.131498 4.968633 -0.029520
v -1.131498 5.041431 0.029520
v -1.131498 5.041431 -0.029520
v 1.244309 4.936297 -0.072718
v 1.244309 4.936297 0.072718
v 1.244309 5.063336 -0.031844
v 1.244309 5.063336 0.031844
v -1.244309 4.936297 0.072718
v -1.244309 4.936297 -0.072718
v -1.244309 5.063336 0.031844
v -1.244309 5.063336 -0.031844
v 1.684488 4.936297 -0.072718
v 1.684488 4.936297 0.072718
v 1.684488 5.063336 -0.031844
v 1.684488 5.063336 0.031844
v -1.684488 4.936297 0.072718
v -1.684488 4.936297 -0.072718
v -1.684488 5.063336 0.031844
v -1.684488 5.063336 -0.031844
vt 0.449762 0.606554
vt 0.482677 0.606554
vt 0.482677 0.639098
vt 0.449762 0.639098
vt 0.447950 0.647755
vt 0.484490 0.647755
vt 0.484490 0.597898
vt 0.447950 0.597898
vt 0.966220 0.600844
vt 0.966220 0.644808
vt 0.471295 0.000000
vt 0.966220 0.632452
vt 0.966220 0.613200
vt 0.482677 0.606554
vt 0.482677 0.639098
vt -0.010221 0.965739
vt 0.010284 0.965739
vt 0.004523 0.990593
vt -0.004459 0.990593
vt 0.585819 0.635477
vt 0.585819 0.610175
vt 0.585819 0.610175
vt 0.585819 0.635477
vt 0.449762 0.639098
vt 0.449762 0.606554
vt 0.346621 0.610175
vt 0.346621 0.635477
vt 0.346621 0.635477
vt 0.346621 0.610175
vt 0.673830 0.635477
vt 0.673830 0.610175
vt 0.673830 0.610175
vt 0.673830 0.635477
vt 0.258609 0.610175
vt 0.258609 0.635477
vt 0.258609 0.635477
vt 0.258609 0.610175
vt 0.721709 0.634195
vt 0.721709 0.611457
vt 0.721709 0.611457
vt 0.721709 0.634195
vt 0.210730 0.611457
vt 0.210730 0.634195
vt 0.210730 0.634195
vt 0.210730 0.611457
vt 0.813481 0.635620
vt 0.813481 0.610033
vt 0.813481 0.610033
vt 0.813481 0.635620
vt 0.157628 0.611457
vt 0.118959 0.635620
vt 0.118959 0.635620
vt 0.157628 0.611457
vt 0.813481 0.635620
vt 0.813481 0.610033
vt 0.813481 0.610033
vt 0.813481 0.635620
vt 0.157628 0.611457
vt 0.118959 0.635620
vt 0.118959 0.635620
vt 0.157628 0.611457
vt 0.825603 0.635620
vt 0.825603 0.610033
vt 0.825603 0.610033
vt 0.825603 0.635620
vt 0.106836 0.610033
vt 0.106836 0.635620
vt 0.106836 0.635620
vt 0.106836 0.610033
vt 0.835563 0.644808
vt 0.835563 0.600844
vt 0.835563 0.613200
vt 0.835563 0.632452
vt 0.096877 0.600844
vt 0.096877 0.644808
vt 0.096877 0.632452
vt 0.096877 0.613200
vt 1.000224 0.539598
vt 1.000224 0.305133
vt 0.484345 0.987071
vt -0.033780 0.632452
vt 0.482621 0.000000
vt 0.517379 0.000000
vt 0.515655 0.987071
vt 0.515655 1.000000
vt 0.484345 1.000000
vt 0.484345 0.987071
vt 0.484345 1.000000
vt 0.515655 1.000000
vt 0.515655 0.987071
vt 0.517379 0.000000
vt 0.482621 0.000000
vt 0.528705 0.000000
vt 0.518737 1.000000
vt 0.481263 1.000000
vt 0.528705 0.000000
vt 0.471295 0.000000
vt 0.481263 1.000000
vt 0.518737 1.000000
vt 0.424784 0.489473
vt 0.424784 0.533544
vt 0.505122 0.558825
vt 0.505122 0.510462
vt 0.424784 0.533544
vt 0.424784 0.489473
vt 0.505122 0.510462
vt 0.505122 0.558825
vt 0.399146 0.489473
vt 0.399146 0.533544
vt 0.318808 0.558825
vt 0.318808 0.510462
vt 0.399146 0.533544
vt 0.399146 0.489473
vt 0.318808 0.510462
vt 0.318808 0.558825
vt 0.573675 0.558825
vt 0.573675 0.510462
vt 0.573675 0.510462
vt 0.573675 0.558825
vt 0.250254 0.558825
vt 0.250254 0.510462
vt 0.250254 0.510462
vt 0.250254 0.558825
vt 0.610969 0.547061
vt 0.610969 0.503600
vt 0.610969 0.503600
vt 0.610969 0.547061
vt 0.212961 0.547061
vt 0.212961 0.503600
vt 0.212961 0.503600
vt 0.212961 0.547061
vt 0.682450 0.511806
vt 0.682450 0.462898
vt 0.682450 0.462898
vt 0.682450 0.511806
vt 0.171599 0.525332
vt 0.171599 0.481871
vt 0.141479 0.462898
vt 0.141479 0.511806
vt 0.682450 0.511806
vt 0.682450 0.462898
vt 0.682450 0.462898
vt 0.682450 0.511806
vt 0.171599 0.525332
vt 0.171599 0.481871
vt 0.141479 0.462898
vt 0.141479 0.511806
vt 0.691893 0.511806
vt 0.691893 0.462898
vt 0.691893 0.462898
vt 0.691893 0.511806
vt 0.132036 0.511806
vt 0.132036 0.462898
vt 0.132036 0.462898
vt 0.132036 0.511806
vt 0.699651 0.526522
vt 0.699651 0.441175
vt 0.699651 0.441175
vt 0.699651 0.526522
vt 0.124279 0.526522
vt 0.124279 0.441175
vt 0.124279 0.441175
vt 0.124279 0.526522
vt 0.801420 0.526522
vt 0.801420 0.441175
vt 0.801420 0.441175
vt 0.801420 0.526522
vt 0.022509 0.526522
vt 0.022509 0.441175
vt 0.022509 0.441175
vt 0.022509 0.526522
vt -0.033780 0.613200
vt 0.813238 0.400892
vt 0.813238 0.599108
vt 0.987555 0.599108
vt 0.987555 0.400892
vt 0.829867 0.305133
vt 0.829867 0.539598
vn -0.449057 -0.396539 0.800690
vn -0.578329 -0.575392 0.578325
vn 0.578329 -0.575392 0.578325
vn 0.449057 -0.396539 0.800690
vn -0.031612 0.706334 0.707172
vn 0.031612 0.706334 0.707172
vn -0.031612 0.706334 -0.707172
vn 0.031612 0.706334 -0.707172
vn -0.449057 -0.396539 -0.800690
vn 0.449057 -0.396539 -0.800690
vn 0.578329 -0.575392 -0.578325
vn -0.578329 -0.575392 -0.578325
vn 0.647194 -0.448969 0.616090
vn 0.647194 -0.448969 -0.616090
vn 0.526129 0.687274 -0.500843
vn 0.526129 0.687274 0.500843
vn -0.647194 -0.448969 -0.616090
vn -0.647194 -0.448969 0.616090
vn -0.526129 0.687274 0.500843
vn -0.526129 0.687274 -0.500843
vn 0.047937 -0.998850 0.000000
vn 0.047937 -0.998850 0.000000
vn 0.012862 0.000000 -0.999917
vn 0.012862 0.000000 -0.999917
vn -0.057651 0.998337 0.000000
vn -0.057651 0.998337 0.000000
vn 0.012862 0.000000 0.999917
vn 0.012862 0.000000 0.999917
vn -0.047937 -0.998850 0.000000
vn -0.047937 -0.998850 0.000000
vn -0.012862 0.000000 0.999917
vn -0.012862 0.000000 0.999917
vn 0.057651 0.998337 0.000000
vn 0.057651 0.998337 0.000000
vn -0.012862 0.000000 -0.999917
vn -0.012862 0.000000 -0.999917
vn -0.033822 -0.999428 0.000000
vn -0.033822 -0.999428 0.000000
vn 0.009811 0.000000 -0.999952
vn 0.009811 0.000000 -0.999952
vn 0.057785 0.998329 0.000000
vn 0.057785 0.998329 0.000000
vn 0.009811 0.000000 0.999952
vn 0.009811 0.000000 0.999952
vn 0.033822 -0.999428 0.000000
vn 0.033822 -0.999428 0.000000
vn -0.009811 0.000000 0.999952
vn -0.009811 0.000000 0.999952
vn -0.057785 0.998329 0.000000
vn -0.057785 0.998329 0.000000
vn -0.009811 0.000000 -0.999952
vn -0.009811 0.000000 -0.999952
vn -0.136739 -0.990607 0.000000
vn -0.136739 -0.990607 0.000000
vn 0.004123 0.000000 -0.999992
vn 0.004123 0.000000 -0.999992
vn 0.147113 0.989120 0.000000
vn 0.147113 0.989120 0.000000
vn 0.004123 0.000000 0.999992
vn 0.004123 0.000000 0.999992
vn 0.133770 -0.990888 0.015718
vn 0.133770 -0.990888 0.015718
vn -0.009811 0.000000 0.999952
vn -0.009811 0.000000 0.999952
vn -0.149253 0.988732 0.011480
vn -0.149253 0.988732 0.011480
vn -0.004123 0.000000 -0.999992
vn -0.004123 0.000000 -0.999992
vn -0.205211 -0.978718 0.000000
vn -0.205211 -0.978718 0.000000
vn -0.011376 0.000000 -0.999935
vn -0.011376 0.000000 -0.999935
vn 0.178698 0.983904 0.000000
vn 0.178698 0.983904 0.000000
vn -0.011376 0.000000 0.999935
vn -0.011376 0.000000 0.999935
vn 0.199310 -0.979434 0.031363
vn 0.199310 -0.979434 0.031363
vn 0.000000 0.000000 1.000000
vn 0.000000 0.000000 1.000000
vn -0.182935 0.982857 0.022946
vn -0.182935 0.982857 0.022946
vn 0.011376 0.000000 -0.999935
vn 0.011376 0.000000 -0.999935
vn 0.000000 0.000000 0.000000
vn 0.000000 0.000000 0.000000
vn 0.000000 0.000000 0.000000
vn 0.000000 0.000000 0.000000
vn 0.000000 0.000000 0.000000
vn 0.000000 0.000000 0.000000
vn 0.000000 0.000000 0.000000
vn 0.000000 0.000000 0.000000
vn 0.000000 0.000000 0.000000
vn 0.000000 0.000000 0.000000
vn 0.000000 0.000000 0.000000
vn 0.000000 0.000000 0.000000
vn 0.000000 0.000000 0.000000
vn 0.000000 0.000000 0.000000
vn 0.000000 0.000000 0.000000
vn 0.000000 0.000000 0.000000
vn 0.000000 0.000000 0.000000
vn 0.000000 0.000000 0.000000
vn 0.000000 0.000000 0.000000
vn 0.000000 0.000000 0.000000
vn 0.000000 0.000000 0.000000
vn 0.000000 0.000000 0.000000
vn 0.000000 0.000000 0.000000
vn 0.000000 0.000000 0.000000
vn 0.000000 0.000000 0.000000
vn 0.000000 0.000000 0.000000
vn 0.000000 0.000000 0.000000
vn 0.000000 0.000000 0.000000
vn 0.000000 0.000000 0.000000
vn 0.000000 0.000000 0.000000
vn 0.000000 0.000000 0.000000
vn 0.000000 0.000000 0.000000
vn 0.000000 -1.000000 0.000000
vn 0.000000 -1.000000 0.000000
vn -0.171954 -0.658559 -0.732619
vn -0.171954 -0.658559 0.732619
vn 0.000000 0.000000 -1.000000
vn 0.000000 0.000000 -1.000000
vn -0.127103 0.736922 -0.663921
vn 0.000000 1.000000 0.000000
vn 0.000000 1.000000 0.000000
vn -0.127103 0.736922 0.663921
vn 0.000000 0.000000 1.000000
vn 0.000000 0.000000 1.000000
vn 0.142037 -0.985593 0.091823
vn 0.142037 -0.985593 0.091823
vn 0.225032 -0.631817 0.741733
vn 0.229020 -0.664941 -0.710917
vn 0.020552 0.000000 0.999789
vn 0.020552 0.000000 0.999789
vn 0.101564 0.749224 0.654483
vn -0.101986 0.992599 -0.065927
vn -0.101986 0.992599 -0.065927
vn 0.091745 0.727594 -0.679845
vn 0.000000 0.000000 -1.000000
vn 0.000000 0.000000 -1.000000
vn -0.188006 -0.595041 -0.781396
vn -0.188006 -0.595041 0.781396
vn -0.118933 0.786497 -0.606034
vn -0.118933 0.786497 0.606034
vn 0.188006 -0.595041 0.781396
vn 0.188006 -0.595041 -0.781396
vn 0.118933 0.786497 0.606034
vn 0.118933 0.786497 -0.606034
s 1
g pasted__lightPoleSplit group
usemtl pasted__lambert897SG
f 9/80/1 1/82/2 2/83/3 10/84/4 4/85/5 3/86/6
f 3/1/6 4/2/5 6/3/7 5/4/8
f 11/87/9 5/88/8 6/89/7 12/90/10 8/91/11 7/92/12
f 7/5/12 8/6/11 2/7/3 1/8/2
f 2/11/3 8/93/11 12/94/10 10/95/4
f 7/96/12 1/97/2 9/98/1 11/99/9
s 2
f 70/9/13 69/10/14 71/12/15 72/13/16
s 3
f 74/16/17 73/17/18 75/18/19 76/19/20
s 1
f 10/14/4 12/15/10 13/20/21 14/21/22
f 12/100/10 6/101/7 15/102/23 13/103/24
f 6/3/7 4/2/5 16/22/25 15/23/26
f 4/104/5 10/105/4 14/106/27 16/107/28
f 11/24/9 9/25/1 17/26/29 18/27/30
f 9/108/1 3/109/6 19/110/31 17/111/32
f 3/1/6 5/4/8 20/28/33 19/29/34
f 5/112/8 11/113/9 18/114/35 20/115/36
f 14/21/22 13/20/21 21/30/37 22/31/38
f 13/103/24 15/102/23 23/116/39 21/117/40
f 15/23/26 16/22/25 24/32/41 23/33/42
f 16/107/28 14/106/27 22/118/43 24/119/44
f 18/27/30 17/26/29 25/34/45 26/35/46
f 17/111/32 19/110/31 27/120/47 25/121/48
f 19/29/34 20/28/33 28/36/49 27/37/50
f 20/115/36 18/114/35 26/122/51 28/123/52
f 22/31/38 21/30/37 29/38/53 30/39/54
f 21/117/40 23/116/39 31/124/55 29/125/56
f 23/33/42 24/32/41 32/40/57 31/41/58
f 24/119/44 22/118/43 30/126/59 32/127/60
f 26/35/46 25/34/45 33/42/61 34/43/62
f 25/121/48 27/120/47 35/128/63 33/129/64
f 27/37/50 28/36/49 36/44/65 35/45/66
f 28/123/52 26/122/51 34/130/67 36/131/68
f 30/39/54 29/38/53 37/46/69 38/47/70
f 29/125/56 31/124/55 39/132/71 37/133/72
f 31/41/58 32/40/57 40/48/73 39/49/74
f 32/127/60 30/126/59 38/134/75 40/135/76
f 34/43/62 33/42/61 41/50/77 42/51/78
f 33/129/64 35/128/63 43/136/79 41/137/80
f 35/45/66 36/44/65 44/52/81 43/53/82
f 36/131/68 34/130/67 42/138/83 44/139/84
s off
f 38/47/85 37/46/86 45/54/87 46/55/88
f 37/133/89 39/132/90 47/140/91 45/141/92
f 39/49/93 40/48/94 48/56/95 47/57/96
f 40/135/97 38/134/98 46/142/99 48/143/100
f 42/51/101 41/50/102 49/58/103 50/59/104
f 41/137/105 43/136/106 51/144/107 49/145/108
f 43/53/109 44/52/110 52/60/111 51/61/112
f 44/139/113 42/138/114 50/146/115 52/147/116
s 2
f 46/55/117 45/54/118 53/62/119 54/63/120
f 45/141/121 47/140/122 55/148/123 53/149/119
f 47/57/124 48/56/125 56/64/126 55/65/123
f 48/143/127 46/142/128 54/150/120 56/151/126
s 3
f 50/59/129 49/58/130 57/66/131 58/67/132
f 49/145/133 51/144/134 59/152/135 57/153/131
f 51/61/136 52/60/137 60/68/138 59/69/135
f 52/147/139 50/146/140 58/154/132 60/155/138
s 2
f 54/63/120 53/62/119 61/70/141 62/71/142
f 53/149/119 55/148/123 63/156/143 61/157/141
f 55/65/123 56/64/126 64/72/144 63/73/143
f 56/151/126 54/150/120 62/158/142 64/159/144
s 3
f 58/67/132 57/66/131 65/74/145 66/75/146
f 57/153/131 59/152/135 67/160/147 65/161/145
f 59/69/135 60/68/138 68/76/148 67/77/147
f 60/155/138 58/154/132 66/162/146 68/163/148
s 2
f 62/173/142 61/174/141 69/175/14 70/176/13
f 61/157/141 63/156/143 71/164/15 69/165/14
f 63/73/143 64/72/144 72/13/16 71/12/15
f 64/159/144 62/158/142 70/166/13 72/167/16
s 3
f 66/78/146 65/79/145 73/177/18 74/178/17
f 65/161/145 67/160/147 75/168/19 73/169/18
f 67/77/147 68/76/148 76/81/20 75/172/19
f 68/163/148 66/162/146 74/170/17 76/171/20
