# Alias OBJ Model File
# OBJ Export
# File units = inches

mtllib Bike_Buffer_End.mtl

g Mesh1 Model

usemtl FrontColor
v 71.2186 0 -129.563
vt -71.2186 129.563
vn 0 -1 -0
v 66.0441 0 -109.959
vt -66.0441 109.959
v 66.0441 0 -129.563
vt -66.0441 129.563
f 1/1/1 2/2/1 3/3/1

v 66.0441 0 -102.709
vt -66.0441 102.709
f 2/2/1 1/1/1 4/4/1

v 66.0441 0 -21.1956
vt -66.0441 21.1956
f 4/4/1 1/1/1 5/5/1

v 67.1503 0 -15.261
vt -67.1503 15.261
f 5/5/1 1/1/1 6/6/1

v 71.2186 0 -21.1956
vt -71.2186 21.1956
f 6/6/1 1/1/1 7/7/1

v 62.2303 0 -16.6423
vt -62.2303 16.6423
f 6/6/1 8/8/1 5/5/1

v 62.104 0 -10.132
vt -62.104 10.132
f 9/9/1 8/8/1 6/6/1

v 57.7444 0 -12.7496
vt -57.7444 12.7496
f 9/9/1 10/10/1 8/8/1

v 56.2362 0 -5.96791
vt -56.2362 5.96791
f 11/11/1 10/10/1 9/9/1

v 52.6993 0 -9.61531
vt -52.6993 9.61531
f 11/11/1 12/12/1 10/10/1

v 49.7289 0 -2.89771
vt -49.7289 2.89771
f 13/13/1 12/12/1 11/11/1

v 47.2219 0 -7.31843
vt -47.2219 7.31843
f 13/13/1 14/14/1 12/12/1

v 42.784 0 -1.01665
vt -42.784 1.01665
f 15/15/1 14/14/1 13/13/1

v 41.4502 0 -5.91676
vt -41.4502 5.91676
f 15/15/1 16/16/1 14/14/1

v 35.6167 0 -0.383085
vt -35.6167 0.383085
f 17/17/1 16/16/1 15/15/1

v 35.5295 0 -5.44558
vt -35.5295 5.44558
f 17/17/1 18/18/1 16/16/1

v 29.6087 0 -5.91676
vt -29.6087 5.91676
f 17/17/1 19/19/1 18/18/1

v 28.4495 0 -1.01665
vt -28.4495 1.01665
f 20/20/1 19/19/1 17/17/1

v 23.837 0 -7.31843
vt -23.837 7.31843
f 20/20/1 21/21/1 19/19/1

v 21.5045 0 -2.89771
vt -21.5045 2.89771
f 22/22/1 21/21/1 20/20/1

v 18.3597 0 -9.61531
vt -18.3597 9.61531
f 22/22/1 23/23/1 21/21/1

v 14.9972 0 -5.96791
vt -14.9972 5.96791
f 24/24/1 23/23/1 22/22/1

v 13.3145 0 -12.7496
vt -13.3145 12.7496
f 24/24/1 25/25/1 23/23/1

v 9.12944 0 -10.132
vt -9.12944 10.132
f 26/26/1 25/25/1 24/24/1

v 8.82861 0 -16.6423
vt -8.82861 16.6423
f 26/26/1 27/27/1 25/25/1

v 5.01482 0 -21.1956
vt -5.01482 21.1956
f 26/26/1 28/28/1 27/27/1

v 4.08314 0 -15.261
vt -4.08314 15.261
f 29/29/1 28/28/1 26/26/1

v 5.01482 0 -129.563
vt -5.01482 129.563
f 29/29/1 30/30/1 28/28/1

v 0.0148248 0 -21.1956
vt -0.0148248 21.1956
f 31/31/1 30/30/1 29/29/1

v 0.0148248 0 -25.1878
vt -0.0148248 25.1878
f 32/32/1 30/30/1 31/31/1

v 0.0148248 0 -129.563
vt -0.0148248 129.563
f 30/30/1 32/32/1 33/33/1

v 5.01482 0 -50.8843
vt -5.01482 50.8843
f 28/28/1 30/30/1 34/34/1

v 5.01482 0 -43.6346
vt -5.01482 43.6346
f 28/28/1 34/34/1 35/35/1

f 2/2/1 35/35/1 34/34/1

f 35/35/1 2/2/1 4/4/1

