# Alias OBJ Model File
# OBJ Export
# File units = inches

mtllib Bus_Only.mtl

g Mesh1 BUS1 Group1 Model

usemtl FrontColor
v 16.9711 0.18012 -34.8182
vt -6.27615 57.9916
vn 0 -1 -0
v 22.8244 0.18012 -29.9195
vt -16.0251 49.8326
v 16.9711 0.18012 -0.527548
vt -6.27615 0.878661
f 1/1/1 2/2/1 3/3/1

v 30.3357 0.18012 -34.8182
vt -28.5356 57.9916
f 2/2/1 1/1/1 4/4/1

v 30.2352 0.18012 -29.9195
vt -28.3682 49.8326
f 2/2/1 4/4/1 5/5/1

v 32.1632 0.18012 -29.64
vt -31.5795 49.3672
f 5/5/1 4/4/1 6/6/1

v 33.4382 0.18012 -34.6423
vt -33.7029 57.6987
f 6/6/1 4/4/1 7/7/1

v 33.8275 0.18012 -28.8016
vt -34.3515 47.9707
f 6/6/1 7/7/1 8/8/1

v 35.9629 0.18012 -34.1148
vt -37.9079 56.8201
f 8/8/1 7/7/1 9/9/1

v 34.9768 0.18012 -27.3728
vt -36.2657 45.591
f 8/8/1 9/9/1 10/10/1

v 35.3599 0.18012 -25.3223
vt -36.9038 42.1757
f 10/10/1 9/9/1 11/11/1

v 37.8344 0.18012 -19.2712
vt -41.0251 32.0973
f 12/12/1 11/11/1 9/9/1

v 35.2343 0.18012 -18.3135
vt -36.6946 30.5021
f 13/13/1 11/11/1 12/12/1

v 35.0239 0.18012 -23.3754
vt -36.3441 38.9331
f 11/11/1 13/13/1 14/14/1

v 34.7947 0.18012 -14.1433
vt -35.9623 23.5565
f 15/15/1 14/14/1 13/13/1

v 34.0159 0.18012 -21.8053
vt -34.6653 36.318
f 15/15/1 16/16/1 14/14/1

v 33.0582 0.18012 -15.1796
vt -33.0701 25.2824
f 17/17/1 16/16/1 15/15/1

v 32.4302 0.18012 -20.7691
vt -32.0241 34.5921
f 17/17/1 18/18/1 16/16/1

v 30.8381 0.18012 -15.525
vt -29.3724 25.8577
f 19/19/1 18/18/1 17/17/1

v 30.3608 0.18012 -20.4236
vt -28.5774 34.0167
f 19/19/1 20/20/1 18/18/1

v 22.8244 0.18012 -15.525
vt -16.0251 25.8577
f 21/21/1 20/20/1 19/19/1

v 22.8244 0.18012 -20.4236
vt -16.0251 34.0167
f 20/20/1 21/21/1 22/22/1

v 22.8244 0.18012 -5.67742
vt -16.0251 9.45607
f 23/23/1 22/22/1 21/21/1

f 23/23/1 2/2/1 22/22/1

f 23/23/1 3/3/1 2/2/1

v 31.9686 0.18012 -0.527548
vt -31.2552 0.878661
f 3/3/1 23/23/1 24/24/1

v 30.813 0.18012 -5.67742
vt -29.3305 9.45607
f 24/24/1 23/23/1 25/25/1

v 33.0833 0.18012 -6.01028
vt -33.1119 10.0105
f 24/24/1 25/25/1 26/26/1

v 34.494 0.18012 -0.696332
vt -35.4616 1.15978
f 24/24/1 26/26/1 27/27/1

v 34.8198 0.18012 -7.00885
vt -36.0042 11.6736
f 27/27/1 26/26/1 28/28/1

v 36.6694 0.18012 -1.20268
vt -39.0847 2.00314
f 27/27/1 28/28/1 29/29/1

v 35.922 0.18012 -8.57266
vt -37.84 14.2782
f 29/29/1 28/28/1 30/30/1

v 36.2894 0.18012 -10.6012
vt -38.4519 17.6569
f 29/29/1 30/30/1 31/31/1

v 38.4122 0.18012 -17.2646
vt -41.9874 28.7552
f 31/31/1 32/32/1 29/29/1

v 35.9157 0.18012 -12.5669
vt -37.8295 20.931
f 33/33/1 32/32/1 31/31/1

f 33/33/1 13/13/1 32/32/1

f 15/15/1 13/13/1 33/33/1

v 38.4946 0.18012 -2.0466
vt -42.1247 3.40873
f 29/29/1 32/32/1 34/34/1

v 39.6714 0.18012 -16.4246
vt -44.0847 27.3562
f 34/34/1 32/32/1 35/35/1

v 39.9697 0.18012 -3.22809
vt -44.5816 5.37657
f 34/34/1 35/35/1 36/36/1

v 40.7108 0.18012 -15.3743
vt -45.8159 25.6067
f 36/36/1 35/35/1 37/37/1

v 41.1072 0.18012 -4.65765
vt -46.4762 7.75758
f 36/36/1 37/37/1 38/38/1

v 42.105 0.18012 -12.8496
vt -48.1381 21.4017
f 38/38/1 37/37/1 39/39/1

v 41.9197 0.18012 -6.24579
vt -47.8295 10.4027
f 38/38/1 39/39/1 40/40/1

v 42.4073 0.18012 -7.99251
vt -48.6415 13.312
f 40/40/1 39/39/1 41/41/1

v 42.5698 0.18012 -9.89781
vt -48.9121 16.4854
f 41/41/1 39/39/1 42/42/1

v 38.0479 0.18012 -33.0283
vt -41.3808 55.0105
f 12/12/1 9/9/1 43/43/1

v 39.8064 0.18012 -20.9889
vt -44.3096 34.9582
f 12/12/1 43/43/1 44/44/1

v 39.8315 0.18012 -31.1756
vt -44.3515 51.9247
f 44/44/1 43/43/1 45/45/1

v 41.0499 0.18012 -23.2718
vt -46.3808 38.7605
f 44/44/1 45/45/1 46/46/1

v 41.0562 0.18012 -28.7451
vt -46.3912 47.8766
f 46/46/1 45/45/1 47/47/1

v 41.4644 0.18012 -25.9252
vt -47.0711 43.1799
f 46/46/1 47/47/1 48/48/1

g Mesh2 BUS1 Group1 Model

v 71.7608 0.18012 -34.8182
vt -97.5314 57.9916
v 71.7608 0.18012 -12.7868
vt -97.5314 21.2971
v 71.5095 0.18012 -8.83015
vt -97.113 14.7071
v 70.7559 0.18012 -5.90351
vt -95.8577 9.83264
v 69.2832 0.18012 -3.65829
vt -93.4048 6.0931
v 66.8747 0.18012 -1.74593
vt -89.3933 2.90795
v 63.6811 0.18012 -0.436483
vt -84.0743 0.726987
v 59.8532 0.18012 -0
vt -77.6987 0
v 56.0317 0.18012 -0.37682
vt -71.3337 0.627615
v 52.9574 0.18012 -1.50728
vt -66.2134 2.51046
v 50.6369 0.18012 -3.29404
vt -62.3483 5.4864
v 49.0762 0.18012 -5.63974
vt -59.749 9.39331
v 48.1907 0.18012 -8.62604
vt -58.2741 14.3672
v 47.8955 0.18012 -12.3346
vt -57.7824 20.5439
v 47.8955 0.18012 -34.8182
vt -57.7824 57.9916
v 54.2009 0.18012 -34.8182
vt -68.2845 57.9916
v 54.2009 0.18012 -12.7868
vt -68.2845 21.2971
v 54.3195 0.18012 -10.7197
vt -68.482 17.8543
v 54.6751 0.18012 -9.04054
vt -69.0743 15.0575
v 55.2678 0.18012 -7.74915
vt -70.0615 12.9066
v 56.0976 0.18012 -6.84556
vt -71.4435 11.4017
v 58.1481 0.18012 -5.78105
vt -74.8588 9.62866
v 60.5064 0.18012 -5.42621
vt -78.7866 9.03766
v 63.1065 0.18012 -5.80617
vt -83.1172 9.6705
v 65.1287 0.18012 -6.94605
vt -86.4854 11.569
v 65.8871 0.18012 -7.88104
vt -87.7484 13.1263
v 66.4288 0.18012 -9.16615
vt -88.6506 15.2667
v 66.8621 0.18012 -12.7868
vt -89.3724 21.2971
v 66.8621 0.18012 -34.8182
vt -89.3724 57.9916
f 49/49/1 50/50/1 51/51/1 52/52/1 53/53/1 54/54/1 55/55/1 56/56/1 57/57/1 58/58/1 59/59/1 60/60/1 61/61/1 62/62/1 63/63/1 64/64/1 65/65/1 66/66/1 67/67/1 68/68/1 69/69/1 70/70/1 71/71/1 72/72/1 73/73/1 74/74/1 75/75/1 76/76/1 77/77/1 

g Mesh3 BUS1 Group1 Model

v 75.2275 0.18012 -8.79247
vt -103.305 14.6444
v 81.2315 0.18012 -10.0737
vt -113.305 16.7782
v 82.1547 0.18012 -7.84257
vt -114.843 13.0622
v 83.8441 0.18012 -6.24893
vt -117.657 10.4079
v 86.2997 0.18012 -5.29275
vt -121.747 8.81538
v 89.5215 0.18012 -4.97403
vt -127.113 8.28452
v 92.4325 0.18012 -5.3006
vt -131.961 8.82845
v 94.5835 0.18012 -6.28033
vt -135.544 10.4603
v 95.9118 0.18012 -7.74365
vt -137.756 12.8975
v 96.3546 0.18012 -9.52099
vt -138.494 15.8577
v 96.1536 0.18012 -10.8744
vt -138.159 18.1119
v 95.5507 0.18012 -12.121
vt -137.155 20.1883
v 94.2883 0.18012 -13.1856
vt -135.052 21.9613
v 92.109 0.18012 -13.9926
vt -131.423 23.3054
v 85.5524 0.18012 -15.7008
vt -120.502 26.1506
v 82.6257 0.18012 -16.6397
vt -115.628 27.7144
v 80.5784 0.18012 -17.698
vt -112.218 29.477
v 79.1307 0.18012 -19.0451
vt -109.806 31.7207
v 78.0034 0.18012 -20.8507
vt -107.929 34.728
v 77.278 0.18012 -22.9546
vt -106.721 38.2322
v 77.0362 0.18012 -25.1967
vt -106.318 41.9665
v 77.2498 0.18012 -27.3815
vt -106.674 45.6054
v 77.8904 0.18012 -29.3386
vt -107.741 48.8651
v 78.958 0.18012 -31.068
vt -109.519 51.7456
v 80.4527 0.18012 -32.5698
vt -112.008 54.2469
v 82.2803 0.18012 -33.7843
vt -115.052 56.2696
v 84.3466 0.18012 -34.6517
vt -118.494 57.7144
v 86.6514 0.18012 -35.1722
vt -122.333 58.5813
v 89.195 0.18012 -35.3457
vt -126.569 58.8703
v 93.3808 0.18012 -34.8621
vt -133.541 58.0649
v 97.0956 0.18012 -33.4114
vt -139.728 55.6485
v 98.6775 0.18012 -32.3437
vt -142.363 53.8703
v 99.9438 0.18012 -31.0751
vt -144.472 51.7573
v 100.894 0.18012 -29.6055
vt -146.055 49.3096
v 101.53 0.18012 -27.9349
vt -147.113 46.5272
v 95.6512 0.18012 -26.4779
vt -137.322 44.1004
v 94.7468 0.18012 -28.1814
vt -135.816 46.9378
v 93.3902 0.18012 -29.3982
vt -133.556 48.9644
v 91.5815 0.18012 -30.1283
vt -130.544 50.1804
v 89.3206 0.18012 -30.3717
vt -126.778 50.5858
v 86.7739 0.18012 -30.0702
vt -122.537 50.0837
v 84.9118 0.18012 -29.1659
vt -119.435 48.5774
v 83.7719 0.18012 -27.7968
vt -117.537 46.2971
v 83.3919 0.18012 -26.1011
vt -116.904 43.4728
v 83.6903 0.18012 -24.7414
vt -117.401 41.2082
v 84.5852 0.18012 -23.6015
vt -118.891 39.3096
v 86.0768 0.18012 -22.6814
vt -121.376 37.7772
v 88.165 0.18012 -21.9812
vt -124.854 36.6109
v 93.9931 0.18012 -20.5241
vt -134.561 34.1841
v 96.4252 0.18012 -19.7791
vt -138.611 32.9433
v 98.4208 0.18012 -18.8755
vt -141.935 31.4383
v 99.9799 0.18012 -17.8134
vt -144.532 29.6692
v 101.102 0.18012 -16.5926
vt -146.402 27.636
v 102.459 0.18012 -13.8576
vt -148.661 23.0805
v 102.911 0.18012 -10.8524
vt -149.414 18.0753
v 102.673 0.18012 -8.46197
vt -149.018 14.0939
v 101.96 0.18012 -6.34
vt -147.829 10.5596
v 100.77 0.18012 -4.48651
vt -145.849 7.47254
v 99.1053 0.18012 -2.90151
vt -143.075 4.83264
v 97.0619 0.18012 -1.6321
vt -139.672 2.71836
v 94.7374 0.18012 -0.725379
vt -135.8 1.20816
v 92.1318 0.18012 -0.181345
vt -131.461 0.30204
v 89.2452 0.18012 -0
vt -126.653 0
v 86.7747 0.18012 -0.133457
vt -122.538 0.22228
v 84.4627 0.18012 -0.533828
vt -118.687 0.889121
v 82.3094 0.18012 -1.20111
vt -115.101 2.00052
v 80.3146 0.18012 -2.13531
vt -111.778 3.55649
v 78.56 0.18012 -3.35213
vt -108.856 5.58316
v 77.1273 0.18012 -4.86726
vt -106.47 8.10669
v 76.0165 0.18012 -6.68071
vt -104.62 11.1271
f 78/78/1 79/79/1 80/80/1 81/81/1 82/82/1 83/83/1 84/84/1 85/85/1 86/86/1 87/87/1 88/88/1 89/89/1 90/90/1 91/91/1 92/92/1 93/93/1 94/94/1 95/95/1 96/96/1 97/97/1 98/98/1 99/99/1 100/100/1 101/101/1 102/102/1 103/103/1 104/104/1 105/105/1 106/106/1 107/107/1 108/108/1 109/109/1 110/110/1 111/111/1 112/112/1 113/113/1 114/114/1 115/115/1 116/116/1 117/117/1 118/118/1 119/119/1 120/120/1 121/121/1 122/122/1 123/123/1 124/124/1 125/125/1 126/126/1 127/127/1 128/128/1 129/129/1 130/130/1 131/131/1 132/132/1 133/133/1 134/134/1 135/135/1 136/136/1 137/137/1 138/138/1 139/139/1 140/140/1 141/141/1 142/142/1 143/143/1 144/144/1 145/145/1 146/146/1 147/147/1 

g Mesh4 ONLY1 Group1 Model

v 7.43459 0.18012 -122.134
vt -13.6376 54.1514
v 8.01238 0.18012 -110.203
vt -14.5999 34.2802
v 7.88834 0.18012 -107.206
vt -14.3933 29.2887
f 148/148/1 149/149/1 150/150/1

v 9.94201 0.18012 -123.708
vt -17.8138 56.773
f 149/149/1 148/148/1 151/151/1

v 8.38449 0.18012 -112.8
vt -15.2197 38.6062
f 149/149/1 151/151/1 152/152/1

v 9.00467 0.18012 -114.998
vt -16.2526 42.2666
f 152/152/1 151/151/1 153/153/1

v 9.87293 0.18012 -116.796
vt -17.6987 45.2615
f 153/153/1 151/151/1 154/154/1

v 10.9893 0.18012 -118.195
vt -19.5581 47.5909
f 154/154/1 151/151/1 155/155/1

v 12.7729 0.18012 -124.652
vt -22.5288 58.346
f 155/155/1 151/151/1 156/156/1

v 12.3537 0.18012 -119.194
vt -21.8305 49.2547
f 155/155/1 156/156/1 157/157/1

v 13.9661 0.18012 -119.793
vt -24.5162 50.253
f 157/157/1 156/156/1 158/158/1

v 15.9272 0.18012 -124.967
vt -27.7824 58.8703
f 158/158/1 156/156/1 159/159/1

v 15.8267 0.18012 -119.993
vt -27.6151 50.5858
f 158/158/1 159/159/1 160/160/1

v 17.7045 0.18012 -119.783
vt -30.7427 50.2367
f 160/160/1 159/159/1 161/161/1

v 19.0932 0.18012 -124.652
vt -33.0557 58.346
f 161/161/1 159/159/1 162/162/1

v 19.3186 0.18012 -119.155
vt -33.431 49.1893
f 161/161/1 162/162/1 163/163/1

v 21.9092 0.18012 -123.708
vt -37.7458 56.773
f 163/163/1 162/162/1 164/164/1

v 20.6688 0.18012 -118.107
vt -35.6799 47.4438
f 163/163/1 164/164/1 165/165/1

v 21.7553 0.18012 -116.639
vt -37.4895 45
f 165/165/1 164/164/1 166/166/1

v 22.5906 0.18012 -114.803
vt -38.8808 41.9417
f 166/166/1 164/164/1 167/167/1

v 24.375 0.18012 -122.134
vt -41.8528 54.1514
f 167/167/1 164/164/1 168/168/1

v 23.1872 0.18012 -112.648
vt -39.8745 38.3525
f 167/167/1 168/168/1 169/169/1

v 23.6645 0.18012 -107.382
vt -40.6695 29.5816
f 169/169/1 168/168/1 170/170/1

v 24.1599 0.18012 -92.3697
vt -41.4945 4.57767
f 170/170/1 168/168/1 171/171/1

v 26.34 0.18012 -94.5074
vt -45.1255 8.13808
f 171/171/1 168/168/1 172/172/1

v 26.4907 0.18012 -119.93
vt -45.3766 50.4812
f 172/172/1 168/168/1 173/173/1

v 28.104 0.18012 -97.1412
vt -48.0635 12.5248
f 172/172/1 173/173/1 174/174/1

v 28.1887 0.18012 -117.254
vt -48.2048 46.0238
f 174/174/1 173/173/1 175/175/1

v 29.3639 0.18012 -100.157
vt -50.1621 17.5471
f 174/174/1 175/175/1 176/176/1

v 29.4016 0.18012 -114.262
vt -50.2249 41.0408
f 176/176/1 175/175/1 177/177/1

v 30.1199 0.18012 -103.553
vt -51.4213 23.2048
f 176/176/1 177/177/1 178/178/1

v 30.1294 0.18012 -110.955
vt -51.437 35.5322
f 178/178/1 177/177/1 179/179/1

v 30.3719 0.18012 -107.332
vt -51.841 29.4979
f 178/178/1 179/179/1 180/180/1

v 23.5201 0.18012 -104.033
vt -40.4289 24.0037
f 171/171/1 181/181/1 170/170/1

v 23.0868 0.18012 -101.246
vt -39.7071 19.3619
f 171/171/1 182/182/1 181/181/1

v 22.3645 0.18012 -99.0214
vt -38.5042 15.6564
f 171/171/1 183/183/1 182/182/1

v 21.6517 0.18012 -90.8428
vt -37.3169 2.03452
f 184/184/1 183/183/1 171/171/1

v 21.3534 0.18012 -97.3587
vt -36.8201 12.887
f 184/184/1 185/185/1 183/183/1

v 20.1334 0.18012 -96.1497
vt -34.7882 10.8734
f 184/184/1 186/186/1 185/185/1

v 18.8153 0.18012 -89.9267
vt -32.5928 0.50863
f 187/187/1 186/186/1 184/184/1

v 18.7847 0.18012 -95.2861
vt -32.5418 9.43515
f 187/187/1 188/188/1 186/186/1

v 17.3073 0.18012 -94.768
vt -30.0811 8.57218
f 187/187/1 189/189/1 188/188/1

v 15.7011 0.18012 -94.5953
vt -27.4059 8.28452
f 187/187/1 190/190/1 189/189/1

v 15.6508 0.18012 -89.6213
vt -27.3222 0
f 191/191/1 190/190/1 187/187/1

v 13.9261 0.18012 -94.7955
vt -24.4495 8.61794
f 191/191/1 192/192/1 190/190/1

v 12.4235 0.18012 -89.9416
vt -21.9469 0.533473
f 193/193/1 192/192/1 191/191/1

v 12.3694 0.18012 -95.3961
vt -21.8567 9.6182
f 193/193/1 194/194/1 192/192/1

v 11.0309 0.18012 -96.397
vt -19.6274 11.2853
f 193/193/1 195/195/1 194/194/1

v 9.91061 0.18012 -97.7983
vt -17.7615 13.6192
f 193/193/1 196/196/1 195/195/1

v 9.57461 0.18012 -90.9025
vt -17.2019 2.13389
f 197/197/1 196/196/1 193/193/1

v 9.02587 0.18012 -99.5874
vt -16.2879 16.5991
f 197/197/1 198/198/1 196/196/1

v 8.39391 0.18012 -101.752
vt -15.2354 20.204
f 197/197/1 199/199/1 198/198/1

v 8.01473 0.18012 -104.291
vt -14.6038 24.4338
f 197/197/1 200/200/1 199/199/1

v 7.10409 0.18012 -92.504
vt -13.0871 4.80126
f 201/201/1 200/200/1 197/197/1

f 201/201/1 150/150/1 200/200/1

f 201/201/1 148/148/1 150/150/1

v 5.2506 0.18012 -119.93
vt -10 50.4812
f 201/201/1 202/202/1 148/148/1

v 5.01195 0.18012 -94.746
vt -9.60251 8.53556
f 203/203/1 202/202/1 201/201/1

v 3.48112 0.18012 -117.259
vt -7.05282 46.0316
f 203/203/1 204/204/1 202/202/1

v 3.34688 0.18012 -97.4591
vt -6.82924 13.0544
f 205/205/1 204/204/1 203/203/1

v 2.2172 0.18012 -114.281
vt -4.9477 41.0722
f 205/205/1 206/206/1 204/204/1

v 2.15754 0.18012 -100.474
vt -4.84833 18.0753
f 207/207/1 206/206/1 205/205/1

v 1.45885 0.18012 -110.997
vt -3.68462 35.6028
f 207/207/1 208/208/1 206/206/1

v 1.44393 0.18012 -103.79
vt -3.65978 23.5983
f 209/209/1 208/208/1 207/207/1

v 1.20607 0.18012 -107.407
vt -3.2636 29.6234
f 208/208/1 209/209/1 210/210/1

g Mesh5 ONLY1 Group1 Model

v 62.0248 0.18012 -90.1488
vt -104.561 0.878661
v 56.0208 0.18012 -90.1488
vt -94.5607 0.878661
v 43.008 0.18012 -112.055
vt -72.887 37.364
v 42.0282 0.18012 -113.688
vt -71.2552 40.0837
v 41.0988 0.18012 -115.27
vt -69.7071 42.7197
v 41.0988 0.18012 -90.1488
vt -69.7071 0.878661
v 36.1247 0.18012 -90.1488
vt -61.4226 0.878661
v 36.1247 0.18012 -124.439
vt -61.4226 57.9916
v 42.9577 0.18012 -124.439
vt -72.8033 57.9916
v 54.9657 0.18012 -104.242
vt -92.8033 24.3515
v 57.1513 0.18012 -100.549
vt -96.4435 18.2008
v 57.1513 0.18012 -124.439
vt -96.4435 57.9916
v 62.0248 0.18012 -124.439
vt -104.561 57.9916
f 211/211/1 212/212/1 213/213/1 214/214/1 215/215/1 216/216/1 217/217/1 218/218/1 219/219/1 220/220/1 221/221/1 222/222/1 223/223/1 

g Mesh6 ONLY1 Group1 Model

v 90.6632 0.18012 -90.1488
vt -152.259 0.878661
v 69.5612 0.18012 -90.1488
vt -117.113 0.878661
v 69.5612 0.18012 -124.439
vt -117.113 57.9916
v 76.0677 0.18012 -124.439
vt -127.95 57.9916
v 76.0677 0.18012 -95.7509
vt -127.95 10.2092
v 90.6632 0.18012 -95.7509
vt -152.259 10.2092
f 224/224/1 225/225/1 226/226/1 227/227/1 228/228/1 229/229/1 

g Mesh7 ONLY1 Group1 Model

v 109.002 0.18012 -90.1488
vt -182.803 0.878661
v 102.445 0.18012 -90.1488
vt -171.883 0.878661
v 102.445 0.18012 -104.619
vt -171.883 24.9791
v 90.7636 0.18012 -124.439
vt -152.427 57.9916
v 98.2498 0.18012 -124.439
vt -164.895 57.9916
v 106.389 0.18012 -110.296
vt -178.452 34.4351
v 114.177 0.18012 -124.439
vt -191.423 57.9916
v 120.105 0.18012 -124.439
vt -201.297 57.9916
v 109.002 0.18012 -104.619
vt -182.803 24.9791
f 230/230/1 231/231/1 232/232/1 233/233/1 234/234/1 235/235/1 236/236/1 237/237/1 238/238/1 

