# Alias OBJ Model File
# OBJ Export
# File units = inches

mtllib Bus_Stop.mtl

g Mesh1 BUS___STOP1 Model

usemtl Color_M00
v 19.1925 0.18 -220.444
vt -19.1925 220.444
vn 0 -1 -0
v 25.0418 0.18 -215.548
vt -25.0418 215.548
v 19.1925 0.18 -186.176
vt -19.1925 186.176
f 1/1/1 2/2/1 3/3/1

v 32.5481 0.18 -220.444
vt -32.5481 220.444
f 2/2/1 1/1/1 4/4/1

v 32.4477 0.18 -215.548
vt -32.4477 215.548
f 2/2/1 4/4/1 5/5/1

v 34.3745 0.18 -215.269
vt -34.3745 215.269
f 5/5/1 4/4/1 6/6/1

v 35.6485 0.18 -220.268
vt -35.6485 220.268
f 6/6/1 4/4/1 7/7/1

v 36.0377 0.18 -214.431
vt -36.0377 214.431
f 6/6/1 7/7/1 8/8/1

v 38.1715 0.18 -219.741
vt -38.1715 219.741
f 8/8/1 7/7/1 9/9/1

v 37.1862 0.18 -213.003
vt -37.1862 213.003
f 8/8/1 9/9/1 10/10/1

v 37.569 0.18 -210.954
vt -37.569 210.954
f 10/10/1 9/9/1 11/11/1

v 40.0418 0.18 -204.907
vt -40.0418 204.907
f 12/12/1 11/11/1 9/9/1

v 37.4435 0.18 -203.95
vt -37.4435 203.95
f 13/13/1 11/11/1 12/12/1

v 37.2333 0.18 -209.008
vt -37.2333 209.008
f 11/11/1 13/13/1 14/14/1

v 37.0042 0.18 -199.782
vt -37.0042 199.782
f 15/15/1 14/14/1 13/13/1

v 36.2259 0.18 -207.439
vt -36.2259 207.439
f 15/15/1 16/16/1 14/14/1

v 35.2688 0.18 -200.818
vt -35.2688 200.818
f 17/17/1 16/16/1 15/15/1

v 34.6412 0.18 -206.404
vt -34.6412 206.404
f 17/17/1 18/18/1 16/16/1

v 33.0502 0.18 -201.163
vt -33.0502 201.163
f 19/19/1 18/18/1 17/17/1

v 32.5732 0.18 -206.059
vt -32.5732 206.059
f 19/19/1 20/20/1 18/18/1

v 25.0418 0.18 -201.163
vt -25.0418 201.163
f 21/21/1 20/20/1 19/19/1

v 25.0418 0.18 -206.059
vt -25.0418 206.059
f 20/20/1 21/21/1 22/22/1

v 25.0418 0.18 -191.322
vt -25.0418 191.322
f 23/23/1 22/22/1 21/21/1

f 23/23/1 2/2/1 22/22/1

f 23/23/1 3/3/1 2/2/1

v 34.1799 0.18 -186.176
vt -34.1799 186.176
f 3/3/1 23/23/1 24/24/1

v 33.0251 0.18 -191.322
vt -33.0251 191.322
f 24/24/1 23/23/1 25/25/1

v 35.2939 0.18 -191.655
vt -35.2939 191.655
f 24/24/1 25/25/1 26/26/1

v 36.7037 0.18 -186.344
vt -36.7037 186.344
f 24/24/1 26/26/1 27/27/1

v 37.0293 0.18 -192.653
vt -37.0293 192.653
f 27/27/1 26/26/1 28/28/1

v 38.8776 0.18 -186.85
vt -38.8776 186.85
f 27/27/1 28/28/1 29/29/1

v 38.1308 0.18 -194.215
vt -38.1308 194.215
f 29/29/1 28/28/1 30/30/1

v 38.4979 0.18 -196.243
vt -38.4979 196.243
f 29/29/1 30/30/1 31/31/1

v 40.6192 0.18 -202.902
vt -40.6192 202.902
f 31/31/1 32/32/1 29/29/1

v 38.1245 0.18 -198.207
vt -38.1245 198.207
f 33/33/1 32/32/1 31/31/1

f 33/33/1 13/13/1 32/32/1

f 15/15/1 13/13/1 33/33/1

v 40.7016 0.18 -187.694
vt -40.7016 187.694
f 29/29/1 32/32/1 34/34/1

v 41.8776 0.18 -202.062
vt -41.8776 202.062
f 34/34/1 32/32/1 35/35/1

v 42.1757 0.18 -188.874
vt -42.1757 188.874
f 34/34/1 35/35/1 36/36/1

v 42.9163 0.18 -201.013
vt -42.9163 201.013
f 36/36/1 35/35/1 37/37/1

v 43.3125 0.18 -190.303
vt -43.3125 190.303
f 36/36/1 37/37/1 38/38/1

v 44.3096 0.18 -198.49
vt -44.3096 198.49
f 38/38/1 37/37/1 39/39/1

v 44.1245 0.18 -191.89
vt -44.1245 191.89
f 38/38/1 39/39/1 40/40/1

v 44.6117 0.18 -193.636
vt -44.6117 193.636
f 40/40/1 39/39/1 41/41/1

v 44.7741 0.18 -195.54
vt -44.7741 195.54
f 41/41/1 39/39/1 42/42/1

v 40.2552 0.18 -218.655
vt -40.2552 218.655
f 12/12/1 9/9/1 43/43/1

v 42.0126 0.18 -206.623
vt -42.0126 206.623
f 12/12/1 43/43/1 44/44/1

v 42.0377 0.18 -216.803
vt -42.0377 216.803
f 44/44/1 43/43/1 45/45/1

v 43.2552 0.18 -208.905
vt -43.2552 208.905
f 44/44/1 45/45/1 46/46/1

v 43.2615 0.18 -214.374
vt -43.2615 214.374
f 46/46/1 45/45/1 47/47/1

v 43.6695 0.18 -211.556
vt -43.6695 211.556
f 46/46/1 47/47/1 48/48/1

g Mesh2 BUS___STOP1 Model

v 73.9456 0.18 -220.444
vt -73.9456 220.444
v 73.9456 0.18 -198.427
vt -73.9456 198.427
v 73.6946 0.18 -194.473
vt -73.6946 194.473
v 72.9414 0.18 -191.548
vt -72.9414 191.548
v 71.4697 0.18 -189.304
vt -71.4697 189.304
v 69.0628 0.18 -187.393
vt -69.0628 187.393
v 65.8713 0.18 -186.085
vt -65.8713 186.085
v 62.046 0.18 -185.649
vt -62.046 185.649
v 58.227 0.18 -186.025
vt -58.227 186.025
v 55.1548 0.18 -187.155
vt -55.1548 187.155
v 52.8358 0.18 -188.94
vt -52.8358 188.94
v 51.2762 0.18 -191.285
vt -51.2762 191.285
v 50.3912 0.18 -194.269
vt -50.3912 194.269
v 50.0962 0.18 -197.975
vt -50.0962 197.975
v 50.0962 0.18 -220.444
vt -50.0962 220.444
v 56.3975 0.18 -220.444
vt -56.3975 220.444
v 56.3975 0.18 -198.427
vt -56.3975 198.427
v 56.516 0.18 -196.361
vt -56.516 196.361
v 56.8713 0.18 -194.683
vt -56.8713 194.683
v 57.4637 0.18 -193.393
vt -57.4637 193.393
v 58.2929 0.18 -192.49
vt -58.2929 192.49
v 60.3421 0.18 -191.426
vt -60.3421 191.426
v 62.6987 0.18 -191.071
vt -62.6987 191.071
v 65.2971 0.18 -191.451
vt -65.2971 191.451
v 67.318 0.18 -192.59
vt -67.318 192.59
v 68.0758 0.18 -193.524
vt -68.0758 193.524
v 68.6172 0.18 -194.809
vt -68.6172 194.809
v 69.0502 0.18 -198.427
vt -69.0502 198.427
v 69.0502 0.18 -220.444
vt -69.0502 220.444
f 49/49/1 50/50/1 51/51/1 52/52/1 53/53/1 54/54/1 55/55/1 56/56/1 57/57/1 58/58/1 59/59/1 60/60/1 61/61/1 62/62/1 63/63/1 64/64/1 65/65/1 66/66/1 67/67/1 68/68/1 69/69/1 70/70/1 71/71/1 72/72/1 73/73/1 74/74/1 75/75/1 76/76/1 77/77/1 

g Mesh3 BUS___STOP1 Model

v 77.41 0.18 -194.435
vt -77.41 194.435
v 83.41 0.18 -195.715
vt -83.41 195.715
v 84.3326 0.18 -193.486
vt -84.3326 193.486
v 86.0209 0.18 -191.893
vt -86.0209 191.893
v 88.4749 0.18 -190.938
vt -88.4749 190.938
v 91.6946 0.18 -190.619
vt -91.6946 190.619
v 94.6036 0.18 -190.946
vt -94.6036 190.946
v 96.7531 0.18 -191.925
vt -96.7531 191.925
v 98.0805 0.18 -193.387
vt -98.0805 193.387
v 98.523 0.18 -195.163
vt -98.523 195.163
v 98.3222 0.18 -196.516
vt -98.3222 196.516
v 97.7197 0.18 -197.762
vt -97.7197 197.762
v 96.4582 0.18 -198.825
vt -96.4582 198.825
v 94.2803 0.18 -199.632
vt -94.2803 199.632
v 87.728 0.18 -201.339
vt -87.728 201.339
v 84.8033 0.18 -202.277
vt -84.8033 202.277
v 82.7573 0.18 -203.335
vt -82.7573 203.335
v 81.3107 0.18 -204.681
vt -81.3107 204.681
v 80.1841 0.18 -206.485
vt -80.1841 206.485
v 79.4592 0.18 -208.588
vt -79.4592 208.588
v 79.2176 0.18 -210.828
vt -79.2176 210.828
v 79.431 0.18 -213.012
vt -79.431 213.012
v 80.0711 0.18 -214.968
vt -80.0711 214.968
v 81.1381 0.18 -216.696
vt -81.1381 216.696
v 82.6318 0.18 -218.197
vt -82.6318 218.197
v 84.4582 0.18 -219.41
vt -84.4582 219.41
v 86.523 0.18 -220.277
vt -86.523 220.277
v 88.8264 0.18 -220.797
vt -88.8264 220.797
v 91.3682 0.18 -220.971
vt -91.3682 220.971
v 95.5513 0.18 -220.487
vt -95.5513 220.487
v 99.2636 0.18 -219.038
vt -99.2636 219.038
v 100.844 0.18 -217.971
vt -100.844 217.971
v 102.11 0.18 -216.703
vt -102.11 216.703
v 103.06 0.18 -215.234
vt -103.06 215.234
v 103.695 0.18 -213.565
vt -103.695 213.565
v 97.8201 0.18 -212.109
vt -97.8201 212.109
v 96.9163 0.18 -213.811
vt -96.9163 213.811
v 95.5607 0.18 -215.027
vt -95.5607 215.027
v 93.7531 0.18 -215.757
vt -93.7531 215.757
v 91.4937 0.18 -216
vt -91.4937 216
v 88.9487 0.18 -215.699
vt -88.9487 215.699
v 87.0879 0.18 -214.795
vt -87.0879 214.795
v 85.9487 0.18 -213.427
vt -85.9487 213.427
v 85.569 0.18 -211.732
vt -85.569 211.732
v 85.8672 0.18 -210.373
vt -85.8672 210.373
v 86.7615 0.18 -209.234
vt -86.7615 209.234
v 88.2521 0.18 -208.315
vt -88.2521 208.315
v 90.3389 0.18 -207.615
vt -90.3389 207.615
v 96.1632 0.18 -206.159
vt -96.1632 206.159
v 98.5936 0.18 -205.414
vt -98.5936 205.414
v 100.588 0.18 -204.512
vt -100.588 204.512
v 102.146 0.18 -203.45
vt -102.146 203.45
v 103.268 0.18 -202.23
vt -103.268 202.23
v 104.623 0.18 -199.497
vt -104.623 199.497
v 105.075 0.18 -196.494
vt -105.075 196.494
v 104.838 0.18 -194.105
vt -104.838 194.105
v 104.124 0.18 -191.984
vt -104.124 191.984
v 102.936 0.18 -190.132
vt -102.936 190.132
v 101.272 0.18 -188.548
vt -101.272 188.548
v 99.2299 0.18 -187.28
vt -99.2299 187.28
v 96.9069 0.18 -186.373
vt -96.9069 186.373
v 94.3031 0.18 -185.83
vt -94.3031 185.83
v 91.4184 0.18 -185.649
vt -91.4184 185.649
v 88.9495 0.18 -185.782
vt -88.9495 185.782
v 86.6391 0.18 -186.182
vt -86.6391 186.182
v 84.4872 0.18 -186.849
vt -84.4872 186.849
v 82.4937 0.18 -187.782
vt -82.4937 187.782
v 80.7403 0.18 -188.998
vt -80.7403 188.998
v 79.3086 0.18 -190.513
vt -79.3086 190.513
v 78.1985 0.18 -192.325
vt -78.1985 192.325
f 78/78/1 79/79/1 80/80/1 81/81/1 82/82/1 83/83/1 84/84/1 85/85/1 86/86/1 87/87/1 88/88/1 89/89/1 90/90/1 91/91/1 92/92/1 93/93/1 94/94/1 95/95/1 96/96/1 97/97/1 98/98/1 99/99/1 100/100/1 101/101/1 102/102/1 103/103/1 104/104/1 105/105/1 106/106/1 107/107/1 108/108/1 109/109/1 110/110/1 111/111/1 112/112/1 113/113/1 114/114/1 115/115/1 116/116/1 117/117/1 118/118/1 119/119/1 120/120/1 121/121/1 122/122/1 123/123/1 124/124/1 125/125/1 126/126/1 127/127/1 128/128/1 129/129/1 130/130/1 131/131/1 132/132/1 133/133/1 134/134/1 135/135/1 136/136/1 137/137/1 138/138/1 139/139/1 140/140/1 141/141/1 142/142/1 143/143/1 144/144/1 145/145/1 146/146/1 147/147/1 

g Mesh4 BUS___STOP1 Model

v 0.175732 0.18 -8.78661
vt -0.175732 8.78661
v 6.17573 0.18 -10.0669
vt -6.17573 10.0669
v 7.09833 0.18 -7.83734
vt -7.09833 7.83734
v 8.78661 0.18 -6.24477
vt -8.78661 6.24477
v 11.2406 0.18 -5.28923
vt -11.2406 5.28923
v 14.4603 0.18 -4.97071
vt -14.4603 4.97071
v 17.3692 0.18 -5.29707
vt -17.3692 5.29707
v 19.5188 0.18 -6.27615
vt -19.5188 6.27615
v 20.8462 0.18 -7.73849
vt -20.8462 7.73849
v 21.2887 0.18 -9.51464
vt -21.2887 9.51464
v 21.0879 0.18 -10.8672
vt -21.0879 10.8672
v 20.4854 0.18 -12.113
vt -20.4854 12.113
v 19.2238 0.18 -13.1768
vt -19.2238 13.1768
v 17.046 0.18 -13.9833
vt -17.046 13.9833
v 10.4937 0.18 -15.6904
vt -10.4937 15.6904
v 7.56904 0.18 -16.6287
vt -7.56904 16.6287
v 5.52301 0.18 -17.6862
vt -5.52301 17.6862
v 4.07636 0.18 -19.0324
vt -4.07636 19.0324
v 2.94979 0.18 -20.8368
vt -2.94979 20.8368
v 2.2249 0.18 -22.9393
vt -2.2249 22.9393
v 1.98326 0.18 -25.1799
vt -1.98326 25.1799
v 2.19665 0.18 -27.3632
vt -2.19665 27.3632
v 2.83682 0.18 -29.319
vt -2.83682 29.319
v 3.90377 0.18 -31.0473
vt -3.90377 31.0473
v 5.39749 0.18 -32.5481
vt -5.39749 32.5481
v 7.22385 0.18 -33.7618
vt -7.22385 33.7618
v 9.2887 0.18 -34.6287
vt -9.2887 34.6287
v 11.5921 0.18 -35.1488
vt -11.5921 35.1488
v 14.1339 0.18 -35.3222
vt -14.1339 35.3222
v 18.3169 0.18 -34.8389
vt -18.3169 34.8389
v 22.0293 0.18 -33.3891
vt -22.0293 33.3891
v 23.6101 0.18 -32.3222
vt -23.6101 32.3222
v 24.8755 0.18 -31.0544
vt -24.8755 31.0544
v 25.8256 0.18 -29.5858
vt -25.8256 29.5858
v 26.4603 0.18 -27.9163
vt -26.4603 27.9163
v 20.5858 0.18 -26.4603
vt -20.5858 26.4603
v 19.682 0.18 -28.1627
vt -19.682 28.1627
v 18.3264 0.18 -29.3787
vt -18.3264 29.3787
v 16.5188 0.18 -30.1083
vt -16.5188 30.1083
v 14.2594 0.18 -30.3515
vt -14.2594 30.3515
v 11.7144 0.18 -30.0502
vt -11.7144 30.0502
v 9.85356 0.18 -29.1464
vt -9.85356 29.1464
v 8.71444 0.18 -27.7782
vt -8.71444 27.7782
v 8.33473 0.18 -26.0837
vt -8.33473 26.0837
v 8.63285 0.18 -24.7249
vt -8.63285 24.7249
v 9.5272 0.18 -23.5858
vt -9.5272 23.5858
v 11.0178 0.18 -22.6663
vt -11.0178 22.6663
v 13.1046 0.18 -21.9665
vt -13.1046 21.9665
v 18.9289 0.18 -20.5105
vt -18.9289 20.5105
v 21.3593 0.18 -19.766
vt -21.3593 19.766
v 23.3536 0.18 -18.863
vt -23.3536 18.863
v 24.9116 0.18 -17.8015
vt -24.9116 17.8015
v 26.0335 0.18 -16.5816
vt -26.0335 16.5816
v 27.3891 0.18 -13.8483
vt -27.3891 13.8483
v 27.841 0.18 -10.8452
vt -27.841 10.8452
v 27.6033 0.18 -8.45633
vt -27.6033 8.45633
v 26.8902 0.18 -6.33577
vt -26.8902 6.33577
v 25.7016 0.18 -4.48353
vt -25.7016 4.48353
v 24.0377 0.18 -2.89958
vt -24.0377 2.89958
v 21.9956 0.18 -1.63101
vt -21.9956 1.63101
v 19.6726 0.18 -0.724895
vt -19.6726 0.724895
v 17.0688 0.18 -0.181224
vt -17.0688 0.181224
v 14.1841 0.18 -0
vt -14.1841 0
v 11.7152 0.18 -0.133368
vt -11.7152 0.133368
v 9.40481 0.18 -0.533473
vt -9.40481 0.533473
v 7.25288 0.18 -1.20031
vt -7.25288 1.20031
v 5.25941 0.18 -2.13389
vt -5.25941 2.13389
v 3.50601 0.18 -3.3499
vt -3.50601 3.3499
v 2.07427 0.18 -4.86402
vt -2.07427 4.86402
v 0.964174 0.18 -6.67626
vt -0.964174 6.67626
f 148/148/1 149/149/1 150/150/1 151/151/1 152/152/1 153/153/1 154/154/1 155/155/1 156/156/1 157/157/1 158/158/1 159/159/1 160/160/1 161/161/1 162/162/1 163/163/1 164/164/1 165/165/1 166/166/1 167/167/1 168/168/1 169/169/1 170/170/1 171/171/1 172/172/1 173/173/1 174/174/1 175/175/1 176/176/1 177/177/1 178/178/1 179/179/1 180/180/1 181/181/1 182/182/1 183/183/1 184/184/1 185/185/1 186/186/1 187/187/1 188/188/1 189/189/1 190/190/1 191/191/1 192/192/1 193/193/1 194/194/1 195/195/1 196/196/1 197/197/1 198/198/1 199/199/1 200/200/1 201/201/1 202/202/1 203/203/1 204/204/1 205/205/1 206/206/1 207/207/1 208/208/1 209/209/1 210/210/1 211/211/1 212/212/1 213/213/1 214/214/1 215/215/1 216/216/1 217/217/1 

g Mesh5 BUS___STOP1 Model

v 45.113 0.18 -0.527197
vt -45.113 0.527197
v 38.4854 0.18 -0.527197
vt -38.4854 0.527197
v 38.4854 0.18 -29.4979
vt -38.4854 29.4979
v 29.3724 0.18 -29.4979
vt -29.3724 29.4979
v 29.3724 0.18 -34.795
vt -29.3724 34.795
v 54.2259 0.18 -34.795
vt -54.2259 34.795
v 54.2259 0.18 -29.4979
vt -54.2259 29.4979
v 45.113 0.18 -29.4979
vt -45.113 29.4979
f 218/218/1 219/219/1 220/220/1 221/221/1 222/222/1 223/223/1 224/224/1 225/225/1 

g Mesh6 BUS___STOP1 Model

v 62.4085 0.18 -32.4908
vt -62.4085 32.4908
v 62.9859 0.18 -20.5681
vt -62.9859 20.5681
v 62.8619 0.18 -17.5732
vt -62.8619 17.5732
f 226/226/1 227/227/1 228/228/1

v 64.9142 0.18 -34.0638
vt -64.9142 34.0638
f 227/227/1 226/226/1 229/229/1

v 63.3577 0.18 -23.1637
vt -63.3577 23.1637
f 227/227/1 229/229/1 230/230/1

v 63.9775 0.18 -25.36
vt -63.9775 25.36
f 230/230/1 229/229/1 231/231/1

v 64.8452 0.18 -27.1569
vt -64.8452 27.1569
f 231/231/1 229/229/1 232/232/1

v 65.9608 0.18 -28.5545
vt -65.9608 28.5545
f 232/232/1 229/229/1 233/233/1

v 67.7432 0.18 -35.0076
vt -67.7432 35.0076
f 233/233/1 229/229/1 234/234/1

v 67.3243 0.18 -29.5528
vt -67.3243 29.5528
f 233/233/1 234/234/1 235/235/1

v 68.9357 0.18 -30.1518
vt -68.9357 30.1518
f 235/235/1 234/234/1 236/236/1

v 70.8954 0.18 -35.3222
vt -70.8954 35.3222
f 236/236/1 234/234/1 237/237/1

v 70.795 0.18 -30.3515
vt -70.795 30.3515
f 236/236/1 237/237/1 238/238/1

v 72.6715 0.18 -30.142
vt -72.6715 30.142
f 238/238/1 237/237/1 239/239/1

v 74.0594 0.18 -35.0076
vt -74.0594 35.0076
f 239/239/1 237/237/1 240/240/1

v 74.2845 0.18 -29.5136
vt -74.2845 29.5136
f 239/239/1 240/240/1 241/241/1

v 76.8734 0.18 -34.0638
vt -76.8734 34.0638
f 241/241/1 240/240/1 242/242/1

v 75.6339 0.18 -28.4663
vt -75.6339 28.4663
f 241/241/1 242/242/1 243/243/1

v 76.7197 0.18 -27
vt -76.7197 27
f 243/243/1 242/242/1 244/244/1

v 77.5544 0.18 -25.165
vt -77.5544 25.165
f 244/244/1 242/242/1 245/245/1

v 79.3376 0.18 -32.4908
vt -79.3376 32.4908
f 245/245/1 242/242/1 246/246/1

v 78.1506 0.18 -23.0115
vt -78.1506 23.0115
f 245/245/1 246/246/1 247/247/1

v 78.6276 0.18 -17.749
vt -78.6276 17.749
f 247/247/1 246/246/1 248/248/1

v 79.1226 0.18 -2.7466
vt -79.1226 2.7466
f 248/248/1 246/246/1 249/249/1

v 81.3013 0.18 -4.88285
vt -81.3013 4.88285
f 249/249/1 246/246/1 250/250/1

v 81.4519 0.18 -30.2887
vt -81.4519 30.2887
f 250/250/1 246/246/1 251/251/1

v 83.0641 0.18 -7.51491
vt -83.0641 7.51491
f 250/250/1 251/251/1 252/252/1

v 83.1488 0.18 -27.6143
vt -83.1488 27.6143
f 252/252/1 251/251/1 253/253/1

v 84.3232 0.18 -10.5282
vt -84.3232 10.5282
f 252/252/1 253/253/1 254/254/1

v 84.3609 0.18 -24.6245
vt -84.3609 24.6245
f 254/254/1 253/253/1 255/255/1

v 85.0787 0.18 -13.9229
vt -85.0787 13.9229
f 254/254/1 255/255/1 256/256/1

v 85.0881 0.18 -21.3193
vt -85.0881 21.3193
f 256/256/1 255/255/1 257/257/1

v 85.3305 0.18 -17.6987
vt -85.3305 17.6987
f 256/256/1 257/257/1 258/258/1

v 78.4833 0.18 -14.4022
vt -78.4833 14.4022
f 249/249/1 259/259/1 248/248/1

v 78.0502 0.18 -11.6172
vt -78.0502 11.6172
f 249/249/1 260/260/1 259/259/1

v 77.3285 0.18 -9.39383
vt -77.3285 9.39383
f 249/249/1 261/261/1 260/260/1

v 76.6161 0.18 -1.22071
vt -76.6161 1.22071
f 262/262/1 261/261/1 249/249/1

v 76.318 0.18 -7.73222
vt -76.318 7.73222
f 262/262/1 263/263/1 261/261/1

v 75.0988 0.18 -6.52406
vt -75.0988 6.52406
f 262/262/1 264/264/1 263/263/1

v 73.7816 0.18 -0.305178
vt -73.7816 0.305178
f 265/265/1 264/264/1 262/262/1

v 73.751 0.18 -5.66109
vt -73.751 5.66109
f 265/265/1 266/266/1 264/264/1

v 72.2746 0.18 -5.14331
vt -72.2746 5.14331
f 265/265/1 267/267/1 266/266/1

v 70.6695 0.18 -4.97071
vt -70.6695 4.97071
f 265/265/1 268/268/1 267/267/1

v 70.6192 0.18 -0
vt -70.6192 0
f 269/269/1 268/268/1 265/265/1

v 68.8957 0.18 -5.17076
vt -68.8957 5.17076
f 269/269/1 270/270/1 268/268/1

v 67.3941 0.18 -0.320084
vt -67.3941 0.320084
f 271/271/1 270/270/1 269/269/1

v 67.34 0.18 -5.77092
vt -67.34 5.77092
f 271/271/1 272/272/1 270/270/1

v 66.0024 0.18 -6.77118
vt -66.0024 6.77118
f 271/271/1 273/273/1 272/272/1

v 64.8828 0.18 -8.17155
vt -64.8828 8.17155
f 271/271/1 274/274/1 273/273/1

v 64.5471 0.18 -1.28033
vt -64.5471 1.28033
f 275/275/1 274/274/1 271/271/1

v 63.9987 0.18 -9.95947
vt -63.9987 9.95947
f 275/275/1 276/276/1 274/274/1

v 63.3672 0.18 -12.1224
vt -63.3672 12.1224
f 275/275/1 277/277/1 276/276/1

v 62.9882 0.18 -14.6603
vt -62.9882 14.6603
f 275/275/1 278/278/1 277/277/1

v 62.0782 0.18 -2.88075
vt -62.0782 2.88075
f 279/279/1 278/278/1 275/275/1

f 279/279/1 228/228/1 278/278/1

f 279/279/1 226/226/1 228/228/1

v 60.2259 0.18 -30.2887
vt -60.2259 30.2887
f 279/279/1 280/280/1 226/226/1

v 59.9874 0.18 -5.12134
vt -59.9874 5.12134
f 281/281/1 280/280/1 279/279/1

v 58.4576 0.18 -27.619
vt -58.4576 27.619
f 281/281/1 282/282/1 280/280/1

v 58.3235 0.18 -7.83264
vt -58.3235 7.83264
f 283/283/1 282/282/1 281/281/1

v 57.1946 0.18 -24.6433
vt -57.1946 24.6433
f 283/283/1 284/284/1 282/282/1

v 57.1349 0.18 -10.8452
vt -57.1349 10.8452
f 285/285/1 284/284/1 283/283/1

v 56.4367 0.18 -21.3617
vt -56.4367 21.3617
f 285/285/1 286/286/1 284/284/1

v 56.4218 0.18 -14.159
vt -56.4218 14.159
f 287/287/1 286/286/1 285/285/1

v 56.1841 0.18 -17.7741
vt -56.1841 17.7741
f 286/286/1 287/287/1 288/288/1

g Mesh7 BUS___STOP1 Model

v 91.0795 0.18 -34.795
vt -91.0795 34.795
v 97.2552 0.18 -29.6736
vt -97.2552 29.6736
v 91.0795 0.18 -0.527197
vt -91.0795 0.527197
f 289/289/1 290/290/1 291/291/1

v 105.113 0.18 -34.795
vt -105.113 34.795
f 290/290/1 289/289/1 292/292/1

v 104.008 0.18 -29.6736
vt -104.008 29.6736
f 290/290/1 292/292/1 293/293/1

v 107.087 0.18 -29.2971
vt -107.087 29.2971
f 293/293/1 292/292/1 294/294/1

v 107.919 0.18 -34.6059
vt -107.919 34.6059
f 294/294/1 292/292/1 295/295/1

v 108.205 0.18 -28.8264
vt -108.205 28.8264
f 294/294/1 295/295/1 296/296/1

v 110.338 0.18 -34.0387
vt -110.338 34.0387
f 296/296/1 295/295/1 297/297/1

v 109.042 0.18 -28.1674
vt -109.042 28.1674
f 296/296/1 297/297/1 298/298/1

v 110.087 0.18 -26.5105
vt -110.087 26.5105
f 298/298/1 297/297/1 299/299/1

v 110.435 0.18 -24.5523
vt -110.435 24.5523
f 299/299/1 297/297/1 300/300/1

v 112.369 0.18 -33.0934
vt -112.369 33.0934
f 300/300/1 297/297/1 301/301/1

v 112.1 0.18 -15.7469
vt -112.1 15.7469
f 300/300/1 301/301/1 302/302/1

v 113.774 0.18 -17.0209
vt -113.774 17.0209
f 302/302/1 301/301/1 303/303/1

v 114.013 0.18 -31.7699
vt -114.013 31.7699
f 303/303/1 301/301/1 304/304/1

v 115.147 0.18 -18.5884
vt -115.147 18.5884
f 303/303/1 304/304/1 305/305/1

v 115.281 0.18 -30.1891
vt -115.281 30.1891
f 305/305/1 304/304/1 306/306/1

v 116.128 0.18 -20.3787
vt -116.128 20.3787
f 305/305/1 306/306/1 307/307/1

v 116.187 0.18 -28.4718
vt -116.187 28.4718
f 307/307/1 306/306/1 308/308/1

v 116.716 0.18 -22.3917
vt -116.716 22.3917
f 307/307/1 308/308/1 309/309/1

v 116.731 0.18 -26.6179
vt -116.731 26.6179
f 309/309/1 308/308/1 310/310/1

v 116.912 0.18 -24.6276
vt -116.912 24.6276
f 309/309/1 310/310/1 311/311/1

v 110.215 0.18 -14.8368
vt -110.215 14.8368
f 312/312/1 300/300/1 302/302/1

v 110.059 0.18 -22.4498
vt -110.059 22.4498
f 312/312/1 313/313/1 300/300/1

v 108.929 0.18 -20.8117
vt -108.929 20.8117
f 312/312/1 314/314/1 313/313/1

v 108.121 0.18 -14.2908
vt -108.121 14.2908
f 315/315/1 314/314/1 312/312/1

v 107.084 0.18 -19.7573
vt -107.084 19.7573
f 315/315/1 316/316/1 314/314/1

v 105.816 0.18 -14.1088
vt -105.816 14.1088
f 317/317/1 316/316/1 315/315/1

v 104.561 0.18 -19.4059
vt -104.561 19.4059
f 317/317/1 318/318/1 316/316/1

v 97.2552 0.18 -14.1088
vt -97.2552 14.1088
f 319/319/1 318/318/1 317/317/1

v 97.2552 0.18 -19.4059
vt -97.2552 19.4059
f 318/318/1 319/319/1 320/320/1

v 97.2552 0.18 -0.527197
vt -97.2552 0.527197
f 321/321/1 320/320/1 319/319/1

f 321/321/1 290/290/1 320/320/1

f 290/290/1 321/321/1 291/291/1

