# Alias OBJ Model File
# OBJ Export
# File units = inches

mtllib Carshare_Only.mtl

g Mesh1 CARSHARE_ONLY1 Model

usemtl Color_M00
v 20.9297 0.18 -74.2876
vt -22.9205 74.3096
vn 0 -1 -0
v 26.6536 0.18 -73.66
vt -28.6444 73.682
v 26.1978 0.18 -71.2005
vt -28.1885 71.2225
v 25.3827 0.18 -68.9685
vt -27.3734 68.9906
v 24.2082 0.18 -66.9641
vt -26.199 66.9861
v 22.6745 0.18 -65.1871
vt -24.6653 65.2092
v 20.827 0.18 -63.7319
vt -22.8177 63.7539
v 18.7111 0.18 -62.6924
vt -20.7019 62.7144
v 16.327 0.18 -62.0687
vt -18.3177 62.0907
v 13.6745 0.18 -61.8608
vt -15.6653 61.8828
v 11.4378 0.18 -62.0083
vt -13.4286 62.0303
v 9.4224 0.18 -62.4507
vt -11.4132 62.4728
v 7.62821 0.18 -63.1882
vt -9.61899 63.2103
v 6.05525 0.18 -64.2206
vt -8.04603 64.2427
v 3.46634 0.18 -67.001
vt -5.45711 67.023
v 1.54897 0.18 -70.6223
vt -3.53975 70.6444
v 0.362779 0.18 -74.8712
vt -2.35356 74.8933
v -0.0326181 0.18 -79.5344
vt -1.95816 79.5565
v 0.199599 0.18 -83.268
vt -2.19038 83.29
v 0.896252 0.18 -86.6359
vt -2.88703 86.6579
v 2.05734 0.18 -89.6382
vt -4.04812 89.6603
v 3.68286 0.18 -92.275
vt -5.67364 92.2971
v 5.71477 0.18 -94.4222
vt -7.70554 94.4443
v 8.095 0.18 -95.956
vt -10.0858 95.978
v 10.8236 0.18 -96.8762
vt -12.8143 96.8983
v 13.9004 0.18 -97.183
vt -15.8912 97.205
v 16.3419 0.18 -96.9868
vt -18.3326 97.0089
v 18.5699 0.18 -96.3984
vt -20.5607 96.4205
v 20.5845 0.18 -95.4178
vt -22.5753 95.4399
v 22.3858 0.18 -94.0449
vt -24.3766 94.0669
v 23.9234 0.18 -92.3064
vt -25.9142 92.3285
v 25.1473 0.18 -90.229
vt -27.1381 90.251
v 26.0573 0.18 -87.8127
vt -28.0481 87.8347
v 26.6536 0.18 -85.0574
vt -28.6444 85.0795
v 20.9297 0.18 -84.4549
vt -22.9205 84.477
v 19.9004 0.18 -87.8488
vt -21.8912 87.8708
v 18.3942 0.18 -90.2729
vt -20.3849 90.295
v 16.4109 0.18 -91.7274
vt -18.4017 91.7495
v 13.9506 0.18 -92.2123
vt -15.9414 92.2343
v 12.3149 0.18 -92.0106
vt -14.3057 92.0327
v 10.8722 0.18 -91.4058
vt -12.863 91.4278
v 9.62246 0.18 -90.3977
vt -11.6132 90.4197
v 8.56571 0.18 -88.9863
vt -10.5565 89.0084
v 7.72549 0.18 -87.1921
vt -9.71627 87.2142
v 7.12533 0.18 -85.0355
vt -9.11611 85.0575
v 6.76524 0.18 -82.5164
vt -8.75601 82.5384
v 6.64521 0.18 -79.6348
vt -8.63598 79.6569
v 6.77387 0.18 -76.7125
vt -8.76464 76.7346
v 7.15985 0.18 -74.1715
vt -9.15063 74.1935
v 7.80316 0.18 -72.0117
vt -9.79393 72.0337
v 8.70378 0.18 -70.2332
vt -10.6946 70.2552
v 9.81623 0.18 -68.8438
vt -11.807 68.8658
v 11.095 0.18 -67.8514
vt -13.0858 67.8734
v 12.5401 0.18 -67.2559
vt -14.5309 67.278
v 14.1515 0.18 -67.0574
vt -16.1423 67.0795
v 15.4569 0.18 -67.1908
vt -17.4477 67.2129
v 16.6619 0.18 -67.5909
vt -18.6527 67.613
v 17.7665 0.18 -68.2578
vt -19.7573 68.2798
v 18.7707 0.18 -69.1913
vt -20.7615 69.2134
v 20.2645 0.18 -71.5323
vt -22.2552 71.5544
f 1/1/1 2/2/1 3/3/1 4/4/1 5/5/1 6/6/1 7/7/1 8/8/1 9/9/1 10/10/1 11/11/1 12/12/1 13/13/1 14/14/1 15/15/1 16/16/1 17/17/1 18/18/1 19/19/1 20/20/1 21/21/1 22/22/1 23/23/1 24/24/1 25/25/1 26/26/1 27/27/1 28/28/1 29/29/1 30/30/1 31/31/1 32/32/1 33/33/1 34/34/1 35/35/1 36/36/1 37/37/1 38/38/1 39/39/1 40/40/1 41/41/1 42/42/1 43/43/1 44/44/1 45/45/1 46/46/1 47/47/1 48/48/1 49/49/1 50/50/1 51/51/1 52/52/1 53/53/1 54/54/1 55/55/1 56/56/1 57/57/1 58/58/1 59/59/1 60/60/1 

g Mesh2 CARSHARE_ONLY1 Model

v 39.3314 0.18 -96.6558
vt -41.3222 96.6778
v 33.231 0.18 -62.388
vt -35.2218 62.41
v 27.959 0.18 -62.388
vt -29.9498 62.41
f 61/61/1 62/62/1 63/63/1

v 35.9172 0.18 -70.547
vt -37.9079 70.569
f 62/62/1 61/61/1 64/64/1

v 37.4486 0.18 -75.4926
vt -39.4393 75.5146
f 64/64/1 61/61/1 65/65/1

v 42.4444 0.18 -90.7813
vt -44.4351 90.8033
f 65/65/1 61/61/1 66/66/1

v 46.9381 0.18 -96.6558
vt -48.9289 96.6778
f 66/66/1 61/61/1 67/67/1

v 47.4402 0.18 -75.4926
vt -49.431 75.5146
f 66/66/1 67/67/1 68/68/1

v 58.436 0.18 -62.388
vt -60.4268 62.41
f 68/68/1 67/67/1 69/69/1

v 49.0971 0.18 -70.547
vt -51.0879 70.569
f 68/68/1 69/69/1 70/70/1

v 51.8335 0.18 -62.388
vt -53.8243 62.41
f 70/70/1 69/69/1 71/71/1

f 70/70/1 65/65/1 68/68/1

f 65/65/1 70/70/1 64/64/1

g Mesh3 CARSHARE_ONLY1 Model

v 62.5532 0.18 -96.6558
vt -64.5439 96.6778
v 68.7289 0.18 -91.7353
vt -70.7197 91.7573
v 62.5532 0.18 -62.388
vt -64.5439 62.41
f 72/72/1 73/73/1 74/74/1

v 77.4151 0.18 -96.6558
vt -79.4059 96.6778
f 73/73/1 72/72/1 75/75/1

v 76.913 0.18 -91.7353
vt -78.9038 91.7573
f 73/73/1 75/75/1 76/76/1

v 79.4799 0.18 -91.3869
vt -81.4707 91.409
f 76/76/1 75/75/1 77/77/1

v 80.31 0.18 -96.4808
vt -82.3007 96.5029
f 77/77/1 75/75/1 78/78/1

v 81.4067 0.18 -90.342
vt -83.3975 90.364
f 77/77/1 78/78/1 79/79/1

v 82.7937 0.18 -95.956
vt -84.7845 95.978
f 79/79/1 78/78/1 80/80/1

v 82.6117 0.18 -88.7321
vt -84.6025 88.7542
f 79/79/1 80/80/1 81/81/1

v 83.0134 0.18 -86.6892
vt -85.0042 86.7113
f 81/81/1 80/80/1 82/82/1

v 84.8664 0.18 -95.0812
vt -86.8572 95.1033
f 82/82/1 80/80/1 83/83/1

v 83.2645 0.18 -77.5261
vt -85.2552 77.5481
f 82/82/1 83/83/1 84/84/1

v 85.9663 0.18 -79.0261
vt -87.9571 79.0481
f 84/84/1 83/83/1 85/85/1

v 86.5281 0.18 -93.8566
vt -88.5188 93.8787
f 85/85/1 83/83/1 86/86/1

v 87.8963 0.18 -81.0407
vt -89.887 81.0628
f 85/85/1 86/86/1 87/87/1

v 87.8021 0.18 -92.3543
vt -89.7929 92.3763
f 87/87/1 86/86/1 88/88/1

v 88.7122 0.18 -90.6464
vt -90.7029 90.6684
f 87/87/1 88/88/1 89/89/1

v 89.0542 0.18 -83.57
vt -91.045 83.5921
f 87/87/1 89/89/1 90/90/1

v 89.2582 0.18 -88.7329
vt -91.249 88.755
f 90/90/1 89/89/1 91/91/1

v 89.4402 0.18 -86.6139
vt -91.431 86.636
f 90/90/1 91/91/1 92/92/1

v 82.7373 0.18 -62.388
vt -84.728 62.41
f 93/93/1 82/82/1 84/84/1

v 82.6055 0.18 -84.4926
vt -84.5962 84.5146
f 93/93/1 94/94/1 82/82/1

v 81.3816 0.18 -82.8231
vt -83.3724 82.8452
f 93/93/1 95/95/1 94/94/1

v 79.323 0.18 -81.7687
vt -81.3138 81.7908
f 93/93/1 96/96/1 95/95/1

v 77.4151 0.18 -76.4717
vt -79.4059 76.4937
f 97/97/1 96/96/1 93/93/1

v 76.4109 0.18 -81.4173
vt -78.4017 81.4393
f 97/97/1 98/98/1 96/96/1

v 68.7289 0.18 -76.4717
vt -70.7197 76.4937
f 99/99/1 98/98/1 97/97/1

v 68.7289 0.18 -81.4173
vt -70.7197 81.4393
f 98/98/1 99/99/1 100/100/1

v 68.7289 0.18 -62.388
vt -70.7197 62.41
f 101/101/1 100/100/1 99/99/1

f 101/101/1 73/73/1 100/100/1

f 73/73/1 101/101/1 74/74/1

v 89.2645 0.18 -62.388
vt -91.2552 62.41
f 93/93/1 84/84/1 102/102/1

g Mesh4 CARSHARE_ONLY1 Model

v 92.0009 0.18 -70.6474
vt -93.9916 70.6695
v 98.0009 0.18 -71.9277
vt -99.9916 71.9498
v 98.9234 0.18 -69.6981
vt -100.914 69.7202
v 100.612 0.18 -68.1056
vt -102.603 68.1276
v 103.066 0.18 -67.15
vt -105.056 67.1721
v 106.285 0.18 -66.8315
vt -108.276 66.8536
v 109.194 0.18 -67.1579
vt -111.185 67.1799
v 111.344 0.18 -68.1369
vt -113.335 68.159
v 112.671 0.18 -69.5993
vt -114.662 69.6213
v 113.114 0.18 -71.3754
vt -115.105 71.3975
v 112.913 0.18 -72.7279
vt -114.904 72.75
v 112.31 0.18 -73.9738
vt -114.301 73.9958
v 111.049 0.18 -75.0376
vt -113.04 75.0596
v 108.871 0.18 -75.8441
vt -110.862 75.8661
v 102.319 0.18 -77.5512
vt -104.31 77.5732
v 99.3942 0.18 -78.4894
vt -101.385 78.5115
v 97.3481 0.18 -79.547
vt -99.3389 79.569
v 95.9015 0.18 -80.8932
vt -97.8923 80.9153
v 94.7749 0.18 -82.6976
vt -96.7657 82.7197
v 94.05 0.18 -84.8001
vt -96.0408 84.8222
v 93.8084 0.18 -87.0407
vt -95.7992 87.0628
v 94.0218 0.18 -89.224
vt -96.0126 89.2461
v 94.6619 0.18 -91.1798
vt -96.6527 91.2019
v 95.7289 0.18 -92.9081
vt -97.7197 92.9302
v 97.2226 0.18 -94.4089
vt -99.2134 94.431
v 99.049 0.18 -95.6226
vt -101.04 95.6446
v 101.114 0.18 -96.4894
vt -103.105 96.5115
v 103.417 0.18 -97.0096
vt -105.408 97.0316
v 105.959 0.18 -97.183
vt -107.95 97.205
v 110.142 0.18 -96.6997
vt -112.133 96.7218
v 113.854 0.18 -95.2499
vt -115.845 95.272
v 115.435 0.18 -94.183
vt -117.426 94.205
v 116.701 0.18 -92.9152
vt -118.691 92.9372
v 117.651 0.18 -91.4466
vt -119.641 91.4686
v 118.285 0.18 -89.7771
vt -120.276 89.7992
v 112.411 0.18 -88.321
vt -114.402 88.3431
v 111.507 0.18 -90.0234
vt -113.498 90.0455
v 110.151 0.18 -91.2394
vt -112.142 91.2615
v 108.344 0.18 -91.9691
vt -110.335 91.9911
v 106.085 0.18 -92.2123
vt -108.075 92.2343
v 103.54 0.18 -91.911
vt -105.53 91.9331
v 101.679 0.18 -91.0072
vt -103.669 91.0293
v 100.54 0.18 -89.639
vt -102.53 89.6611
v 100.16 0.18 -87.9445
vt -102.151 87.9665
v 100.458 0.18 -86.5857
vt -102.449 86.6077
v 101.352 0.18 -85.4466
vt -103.343 85.4686
v 102.843 0.18 -84.5271
vt -104.834 84.5492
v 104.93 0.18 -83.8273
vt -106.921 83.8494
v 110.754 0.18 -82.3712
vt -112.745 82.3933
v 113.184 0.18 -81.6267
vt -115.175 81.6488
v 115.179 0.18 -80.7238
vt -117.169 80.7458
v 116.737 0.18 -79.6623
vt -118.728 79.6844
v 117.859 0.18 -78.4424
vt -119.849 78.4644
v 119.214 0.18 -75.7091
vt -121.205 75.7312
v 119.666 0.18 -72.706
vt -121.657 72.728
v 119.428 0.18 -70.3171
vt -121.419 70.3392
v 118.715 0.18 -68.1966
vt -120.706 68.2186
v 117.527 0.18 -66.3443
vt -119.518 66.3664
v 115.863 0.18 -64.7604
vt -117.854 64.7824
v 113.821 0.18 -63.4918
vt -115.811 63.5139
v 111.498 0.18 -62.5857
vt -113.488 62.6077
v 108.894 0.18 -62.042
vt -110.885 62.0641
v 106.009 0.18 -61.8608
vt -108 61.8828
v 103.54 0.18 -61.9942
vt -105.531 62.0162
v 101.23 0.18 -62.3943
vt -103.221 62.4163
v 99.078 0.18 -63.0611
vt -101.069 63.0832
v 97.0845 0.18 -63.9947
vt -99.0753 64.0167
v 95.3311 0.18 -65.2107
vt -97.3219 65.2327
v 93.8994 0.18 -66.7248
vt -95.8902 66.7469
v 92.7893 0.18 -68.537
vt -94.7801 68.5591
f 103/103/1 104/104/1 105/105/1 106/106/1 107/107/1 108/108/1 109/109/1 110/110/1 111/111/1 112/112/1 113/113/1 114/114/1 115/115/1 116/116/1 117/117/1 118/118/1 119/119/1 120/120/1 121/121/1 122/122/1 123/123/1 124/124/1 125/125/1 126/126/1 127/127/1 128/128/1 129/129/1 130/130/1 131/131/1 132/132/1 133/133/1 134/134/1 135/135/1 136/136/1 137/137/1 138/138/1 139/139/1 140/140/1 141/141/1 142/142/1 143/143/1 144/144/1 145/145/1 146/146/1 147/147/1 148/148/1 149/149/1 150/150/1 151/151/1 152/152/1 153/153/1 154/154/1 155/155/1 156/156/1 157/157/1 158/158/1 159/159/1 160/160/1 161/161/1 162/162/1 163/163/1 164/164/1 165/165/1 166/166/1 167/167/1 168/168/1 169/169/1 170/170/1 171/171/1 172/172/1 

g Mesh5 CARSHARE_ONLY1 Model

v 150.394 0.18 -62.388
vt -152.385 62.41
v 144.218 0.18 -62.388
vt -146.209 62.41
v 144.218 0.18 -77.275
vt -146.209 77.2971
v 131.139 0.18 -77.275
vt -133.13 77.2971
v 131.139 0.18 -62.388
vt -133.13 62.41
v 124.963 0.18 -62.388
vt -126.954 62.41
v 124.963 0.18 -96.6558
vt -126.954 96.6778
v 131.139 0.18 -96.6558
vt -133.13 96.6778
v 131.139 0.18 -82.5721
vt -133.13 82.5941
v 144.218 0.18 -82.5721
vt -146.209 82.5941
v 144.218 0.18 -96.6558
vt -146.209 96.6778
v 150.394 0.18 -96.6558
vt -152.385 96.6778
f 173/173/1 174/174/1 175/175/1 176/176/1 177/177/1 178/178/1 179/179/1 180/180/1 181/181/1 182/182/1 183/183/1 184/184/1 

g Mesh6 CARSHARE_ONLY1 Model

v 165.708 0.18 -96.6558
vt -167.699 96.6778
v 159.608 0.18 -62.388
vt -161.598 62.41
v 154.336 0.18 -62.388
vt -156.326 62.41
f 185/185/1 186/186/1 187/187/1

v 162.294 0.18 -70.547
vt -164.285 70.569
f 186/186/1 185/185/1 188/188/1

v 163.825 0.18 -75.4926
vt -165.816 75.5146
f 188/188/1 185/185/1 189/189/1

v 168.821 0.18 -90.7813
vt -170.812 90.8033
f 189/189/1 185/185/1 190/190/1

v 173.315 0.18 -96.6558
vt -175.305 96.6778
f 190/190/1 185/185/1 191/191/1

v 173.817 0.18 -75.4926
vt -175.808 75.5146
f 190/190/1 191/191/1 192/192/1

v 184.813 0.18 -62.388
vt -186.803 62.41
f 192/192/1 191/191/1 193/193/1

v 175.474 0.18 -70.547
vt -177.464 70.569
f 192/192/1 193/193/1 194/194/1

v 178.21 0.18 -62.388
vt -180.201 62.41
f 194/194/1 193/193/1 195/195/1

f 194/194/1 189/189/1 192/192/1

f 189/189/1 194/194/1 188/188/1

g Mesh7 CARSHARE_ONLY1 Model

v 188.93 0.18 -96.6558
vt -190.921 96.6778
v 195.105 0.18 -91.7353
vt -197.096 91.7573
v 188.93 0.18 -62.388
vt -190.921 62.41
f 196/196/1 197/197/1 198/198/1

v 203.792 0.18 -96.6558
vt -205.782 96.6778
f 197/197/1 196/196/1 199/199/1

v 203.29 0.18 -91.7353
vt -205.28 91.7573
f 197/197/1 199/199/1 200/200/1

v 205.857 0.18 -91.3869
vt -207.847 91.409
f 200/200/1 199/199/1 201/201/1

v 206.687 0.18 -96.4808
vt -208.677 96.5029
f 201/201/1 199/199/1 202/202/1

v 207.783 0.18 -90.342
vt -209.774 90.364
f 201/201/1 202/202/1 203/203/1

v 209.17 0.18 -95.956
vt -211.161 95.978
f 203/203/1 202/202/1 204/204/1

v 208.988 0.18 -88.7321
vt -210.979 88.7542
f 203/203/1 204/204/1 205/205/1

v 209.39 0.18 -86.6892
vt -211.381 86.7113
f 205/205/1 204/204/1 206/206/1

v 211.243 0.18 -95.0812
vt -213.234 95.1033
f 206/206/1 204/204/1 207/207/1

v 209.641 0.18 -77.5261
vt -211.632 77.5481
f 206/206/1 207/207/1 208/208/1

v 212.343 0.18 -79.0261
vt -214.334 79.0481
f 208/208/1 207/207/1 209/209/1

v 212.905 0.18 -93.8566
vt -214.895 93.8787
f 209/209/1 207/207/1 210/210/1

v 214.273 0.18 -81.0407
vt -216.264 81.0628
f 209/209/1 210/210/1 211/211/1

v 214.179 0.18 -92.3543
vt -216.169 92.3763
f 211/211/1 210/210/1 212/212/1

v 215.089 0.18 -90.6464
vt -217.079 90.6684
f 211/211/1 212/212/1 213/213/1

v 215.431 0.18 -83.57
vt -217.422 83.5921
f 211/211/1 213/213/1 214/214/1

v 215.635 0.18 -88.7329
vt -217.626 88.755
f 214/214/1 213/213/1 215/215/1

v 215.817 0.18 -86.6139
vt -217.808 86.636
f 214/214/1 215/215/1 216/216/1

v 209.114 0.18 -62.388
vt -211.105 62.41
f 217/217/1 206/206/1 208/208/1

v 208.982 0.18 -84.4926
vt -210.973 84.5146
f 217/217/1 218/218/1 206/206/1

v 207.758 0.18 -82.8231
vt -209.749 82.8452
f 217/217/1 219/219/1 218/218/1

v 205.7 0.18 -81.7687
vt -207.69 81.7908
f 217/217/1 220/220/1 219/219/1

v 203.792 0.18 -76.4717
vt -205.782 76.4937
f 221/221/1 220/220/1 217/217/1

v 202.787 0.18 -81.4173
vt -204.778 81.4393
f 221/221/1 222/222/1 220/220/1

v 195.105 0.18 -76.4717
vt -197.096 76.4937
f 223/223/1 222/222/1 221/221/1

v 195.105 0.18 -81.4173
vt -197.096 81.4393
f 222/222/1 223/223/1 224/224/1

v 195.105 0.18 -62.388
vt -197.096 62.41
f 225/225/1 224/224/1 223/223/1

f 225/225/1 197/197/1 224/224/1

f 197/197/1 225/225/1 198/198/1

v 215.641 0.18 -62.388
vt -217.632 62.41
f 217/217/1 208/208/1 226/226/1

g Mesh8 CARSHARE_ONLY1 Model

v 244.235 0.18 -62.388
vt -246.226 62.41
v 221.967 0.18 -62.388
vt -223.958 62.41
v 221.967 0.18 -96.6558
vt -223.958 96.6778
v 244.009 0.18 -96.6558
vt -246 96.6778
v 244.009 0.18 -91.5595
vt -246 91.5816
v 228.143 0.18 -91.5595
vt -230.134 91.5816
v 228.143 0.18 -82.2708
vt -230.134 82.2929
v 240.896 0.18 -82.2708
vt -242.887 82.2929
v 240.896 0.18 -77.3001
vt -242.887 77.3222
v 228.143 0.18 -77.3001
vt -230.134 77.3222
v 228.143 0.18 -67.7102
vt -230.134 67.7322
v 244.235 0.18 -67.7102
vt -246.226 67.7322
f 227/227/1 228/228/1 229/229/1 230/230/1 231/231/1 232/232/1 233/233/1 234/234/1 235/235/1 236/236/1 237/237/1 238/238/1 

g Mesh9 CARSHARE_ONLY1 Model

v 68.9156 0.18 -32.4688
vt -70.9064 32.4908
v 69.493 0.18 -20.5461
vt -71.4838 20.5681
v 69.3691 0.18 -17.5512
vt -71.3598 17.5732
f 239/239/1 240/240/1 241/241/1

v 71.4214 0.18 -34.0418
vt -73.4121 34.0638
f 240/240/1 239/239/1 242/242/1

v 69.8649 0.18 -23.1416
vt -71.8556 23.1637
f 240/240/1 242/242/1 243/243/1

v 70.4846 0.18 -25.3379
vt -72.4754 25.36
f 243/243/1 242/242/1 244/244/1

v 71.3523 0.18 -27.1348
vt -73.3431 27.1569
f 244/244/1 242/242/1 245/245/1

v 72.4679 0.18 -28.5325
vt -74.4587 28.5545
f 245/245/1 242/242/1 246/246/1

v 74.2503 0.18 -34.9855
vt -76.2411 35.0076
f 246/246/1 242/242/1 247/247/1

v 73.8314 0.18 -29.5308
vt -75.8222 29.5528
f 246/246/1 247/247/1 248/248/1

v 75.4428 0.18 -30.1297
vt -77.4336 30.1518
f 248/248/1 247/247/1 249/249/1

v 77.4025 0.18 -35.3001
vt -79.3933 35.3222
f 249/249/1 247/247/1 250/250/1

v 77.3021 0.18 -30.3294
vt -79.2929 30.3515
f 249/249/1 250/250/1 251/251/1

v 79.1787 0.18 -30.1199
vt -81.1695 30.142
f 251/251/1 250/250/1 252/252/1

v 80.5665 0.18 -34.9855
vt -82.5573 35.0076
f 252/252/1 250/250/1 253/253/1

v 80.7916 0.18 -29.4915
vt -82.7824 29.5136
f 252/252/1 253/253/1 254/254/1

v 83.3806 0.18 -34.0418
vt -85.3713 34.0638
f 254/254/1 253/253/1 255/255/1

v 82.141 0.18 -28.4442
vt -84.1318 28.4663
f 254/254/1 255/255/1 256/256/1

v 83.2268 0.18 -26.9779
vt -85.2176 27
f 256/256/1 255/255/1 257/257/1

v 84.0615 0.18 -25.143
vt -86.0523 25.165
f 257/257/1 255/255/1 258/258/1

v 85.8447 0.18 -32.4688
vt -87.8355 32.4908
f 258/258/1 255/255/1 259/259/1

v 84.6578 0.18 -22.9894
vt -86.6485 23.0115
f 258/258/1 259/259/1 260/260/1

v 85.1347 0.18 -17.7269
vt -87.1255 17.749
f 260/260/1 259/259/1 261/261/1

v 85.6298 0.18 -2.72454
vt -87.6206 2.7466
f 261/261/1 259/259/1 262/262/1

v 87.8084 0.18 -4.86079
vt -89.7992 4.88285
f 262/262/1 259/259/1 263/263/1

v 87.959 0.18 -30.2666
vt -89.9498 30.2887
f 263/263/1 259/259/1 264/264/1

v 89.5712 0.18 -7.49285
vt -91.562 7.51491
f 263/263/1 264/264/1 265/265/1

v 89.6559 0.18 -27.5922
vt -91.6467 27.6143
f 265/265/1 264/264/1 266/266/1

v 90.8304 0.18 -10.5062
vt -92.8211 10.5282
f 265/265/1 266/266/1 267/267/1

v 90.868 0.18 -24.6024
vt -92.8588 24.6245
f 267/267/1 266/266/1 268/268/1

v 91.5858 0.18 -13.9008
vt -93.5766 13.9229
f 267/267/1 268/268/1 269/269/1

v 91.5953 0.18 -21.2972
vt -93.586 21.3193
f 269/269/1 268/268/1 270/270/1

v 91.8377 0.18 -17.6767
vt -93.8285 17.6987
f 269/269/1 270/270/1 271/271/1

v 84.9904 0.18 -14.3801
vt -86.9812 14.4022
f 262/262/1 272/272/1 261/261/1

v 84.5573 0.18 -11.5951
vt -86.5481 11.6172
f 262/262/1 273/273/1 272/272/1

v 83.8356 0.18 -9.37177
vt -85.8264 9.39383
f 262/262/1 274/274/1 273/273/1

v 83.1232 0.18 -1.19865
vt -85.114 1.22071
f 275/275/1 274/274/1 262/262/1

v 82.8251 0.18 -7.71016
vt -84.8159 7.73222
f 275/275/1 276/276/1 274/274/1

v 81.606 0.18 -6.502
vt -83.5968 6.52406
f 275/275/1 277/277/1 276/276/1

v 80.2888 0.18 -0.283121
vt -82.2796 0.305178
f 278/278/1 277/277/1 275/275/1

v 80.2582 0.18 -5.63903
vt -82.249 5.66109
f 278/278/1 279/279/1 277/277/1

v 78.7817 0.18 -5.12125
vt -80.7725 5.14331
f 278/278/1 280/280/1 279/279/1

v 77.1766 0.18 -4.94865
vt -79.1674 4.97071
f 278/278/1 281/281/1 280/280/1

v 77.1264 0.18 0.022057
vt -79.1172 0
f 282/282/1 281/281/1 278/278/1

v 75.4028 0.18 -5.14871
vt -77.3936 5.17076
f 282/282/1 283/283/1 281/281/1

v 73.9012 0.18 -0.298027
vt -75.892 0.320084
f 284/284/1 283/283/1 282/282/1

v 73.8471 0.18 -5.74886
vt -75.8379 5.77092
f 284/284/1 285/285/1 283/283/1

v 72.5095 0.18 -6.74912
vt -74.5003 6.77118
f 284/284/1 286/286/1 285/285/1

v 71.39 0.18 -8.14949
vt -73.3808 8.17155
f 284/284/1 287/287/1 286/286/1

v 71.0542 0.18 -1.25828
vt -73.045 1.28033
f 288/288/1 287/287/1 284/284/1

v 70.5058 0.18 -9.93741
vt -72.4966 9.95947
f 288/288/1 289/289/1 287/287/1

v 69.8743 0.18 -12.1003
vt -71.8651 12.1224
f 288/288/1 290/290/1 289/289/1

v 69.4954 0.18 -14.6382
vt -71.4861 14.6603
f 288/288/1 291/291/1 290/290/1

v 68.5853 0.18 -2.8587
vt -70.5761 2.88075
f 292/292/1 291/291/1 288/288/1

f 292/292/1 241/241/1 291/291/1

f 292/292/1 239/239/1 241/241/1

v 66.7331 0.18 -30.2666
vt -68.7238 30.2887
f 292/292/1 293/293/1 239/239/1

v 66.4946 0.18 -5.09928
vt -68.4854 5.12134
f 294/294/1 293/293/1 292/292/1

v 64.9648 0.18 -27.5969
vt -66.9555 27.619
f 294/294/1 295/295/1 293/293/1

v 64.8306 0.18 -7.81058
vt -66.8214 7.83264
f 296/296/1 295/295/1 294/294/1

v 63.7017 0.18 -24.6212
vt -65.6925 24.6433
f 296/296/1 297/297/1 295/295/1

v 63.6421 0.18 -10.8231
vt -65.6328 10.8452
f 298/298/1 297/297/1 296/296/1

v 62.9438 0.18 -21.3396
vt -64.9346 21.3617
f 298/298/1 299/299/1 297/297/1

v 62.9289 0.18 -14.1369
vt -64.9197 14.159
f 300/300/1 299/299/1 298/298/1

v 62.6912 0.18 -17.752
vt -64.682 17.7741
f 299/299/1 300/300/1 301/301/1

g Mesh10 CARSHARE_ONLY1 Model

v 123.469 0.18 -0.50514
vt -125.46 0.527197
v 117.469 0.18 -0.50514
vt -119.46 0.527197
v 104.465 0.18 -22.3964
vt -106.456 22.4184
v 103.486 0.18 -24.0282
vt -105.477 24.0502
v 102.557 0.18 -25.6097
vt -104.548 25.6318
v 102.557 0.18 -0.50514
vt -104.548 0.527197
v 97.5866 0.18 -0.50514
vt -99.5774 0.527197
v 97.5866 0.18 -34.7729
vt -99.5774 34.795
v 104.415 0.18 -34.7729
vt -106.406 34.795
v 116.415 0.18 -14.5888
vt -118.406 14.6109
v 118.599 0.18 -10.8984
vt -120.59 10.9205
v 118.599 0.18 -34.7729
vt -120.59 34.795
v 123.469 0.18 -34.7729
vt -125.46 34.795
f 302/302/1 303/303/1 304/304/1 305/305/1 306/306/1 307/307/1 308/308/1 309/309/1 310/310/1 311/311/1 312/312/1 313/313/1 314/314/1 

g Mesh11 CARSHARE_ONLY1 Model

v 152.089 0.18 -0.50514
vt -154.079 0.527197
v 131.001 0.18 -0.50514
vt -132.992 0.527197
v 131.001 0.18 -34.7729
vt -132.992 34.795
v 137.503 0.18 -34.7729
vt -139.494 34.795
v 137.503 0.18 -6.10347
vt -139.494 6.12552
v 152.089 0.18 -6.10347
vt -154.079 6.12552
f 315/315/1 316/316/1 317/317/1 318/318/1 319/319/1 320/320/1 

g Mesh12 CARSHARE_ONLY1 Model

v 170.415 0.18 -0.50514
vt -172.406 0.527197
v 163.863 0.18 -0.50514
vt -165.854 0.527197
v 163.863 0.18 -14.9654
vt -165.854 14.9874
v 152.189 0.18 -34.7729
vt -154.18 34.795
v 159.67 0.18 -34.7729
vt -161.661 34.795
v 167.804 0.18 -20.639
vt -169.795 20.6611
v 175.587 0.18 -34.7729
vt -177.577 34.795
v 181.511 0.18 -34.7729
vt -183.502 34.795
v 170.415 0.18 -14.9654
vt -172.406 14.9874
f 321/321/1 322/322/1 323/323/1 324/324/1 325/325/1 326/326/1 327/327/1 328/328/1 329/329/1 

