# Alias OBJ Model File
# File units = inches

mtllib Left-Through_Arrow.mtl

g Mesh1 Group1 Model

usemtl FrontColor
v 48.6472 -6.51064e-15 -31.3738
vt -24.9838 31.0546
vn 8.54297e-16 1 -1.5061e-17
v 48.6472 -6.51064e-15 -0.319153
vt -24.9838 1.77636e-15
v 59.6432 -1.57048e-14 -0.319153
vt -13.9878 -5.5793e-33
v 59.6432 -1.69256e-14 -68.8852
vt -13.9878 68.566
v 60.1797 -1.67482e-14 -68.8852
vt -13.4514 68.566
v 66.0222 -2.48965e-14 -68.8852
vt -7.60879 68.566
v 73.631 -2.8025e-14 -68.8852
vt 0 68.566
v 54.1452 -1.17186e-14 -99.2195
vt -19.4858 98.9004
v 34.8753 4.379e-15 -68.8852
vt -38.7557 68.566
v 48.0003 -6.59492e-15 -68.8852
vt -25.6307 68.566
v 48.6472 -6.51064e-15 -68.8852
vt -24.9838 68.566
v 48.6472 -6.51064e-15 -46.3906
vt -24.9838 46.0715
v 47.1485 -5.25749e-15 -46.8263
vt -26.4825 46.5072
v 45.2106 -3.63718e-15 -47.1395
vt -28.4204 46.8204
v 30.5231 8.64358e-15 -47.1395
vt -43.1079 46.8204
v 30.2528 8.89961e-15 -47.1395
vt -43.3782 46.8204
v 30.2528 8.8696e-15 -60.5909
vt -43.3782 60.2718
v -0.0815434 3.42333e-14 -41.1051
vt -73.7126 40.786
v 30.2528 8.8696e-15 -21.8352
vt -43.3782 21.516
v 30.2528 8.8696e-15 -34.9602
vt -43.3782 34.641
v 45.2106 -3.63718e-15 -34.9602
vt -28.4204 34.641
v 45.4781 -3.8608e-15 -34.9482
vt -28.1529 34.6291
v 45.7434 -4.08265e-15 -34.9126
vt -27.8876 34.5934
v 46.0045 -4.30095e-15 -34.8534
vt -27.6265 34.5342
v 46.2593 -4.51399e-15 -34.7712
vt -27.3717 34.452
v 46.5057 -4.72005e-15 -34.6666
vt -27.1253 34.3475
v 46.7419 -4.91752e-15 -34.5405
vt -26.8891 34.2214
v 46.9659 -5.10481e-15 -34.3939
vt -26.6651 34.0748
v 47.1759 -5.28044e-15 -34.228
vt -26.4551 33.9088
v 47.3704 -5.44302e-15 -34.044
vt -26.2606 33.7248
v 47.5477 -5.59126e-15 -33.8434
vt -26.0833 33.5242
v 47.7064 -5.72397e-15 -33.6278
vt -25.9246 33.3086
v 47.8453 -5.8401e-15 -33.3989
vt -25.7857 33.0798
v 47.9386 -5.91816e-15 -33.2237
vt -25.6924 32.9046
v 48.028 -5.99291e-15 -33.0465
vt -25.603 32.7273
v 48.1134 -6.0643e-15 -32.8672
vt -25.5176 32.5481
v 48.1947 -6.1323e-15 -32.6862
vt -25.4363 32.367
v 48.272 -6.19687e-15 -32.5033
vt -25.359 32.1841
v 48.3451 -6.25798e-15 -32.3187
vt -25.286 31.9995
v 48.414 -6.3156e-15 -32.1325
vt -25.217 31.8134
v 48.4787 -6.36971e-15 -31.9449
vt -25.1523 31.6257
v 48.5391 -6.42026e-15 -31.7558
vt -25.0919 31.4366
v 48.5953 -6.46725e-15 -31.5654
vt -25.0357 31.2462
f 1/1/1 2/2/1 3/3/1 4/4/1 5/5/1 6/6/1 7/7/1 8/8/1 9/9/1 10/10/1 11/11/1 12/12/1 13/13/1 14/14/1 15/15/1 16/16/1 17/17/1 18/18/1 19/19/1 20/20/1 21/21/1 22/22/1 23/23/1 24/24/1 25/25/1 26/26/1 27/27/1 28/28/1 29/29/1 30/30/1 31/31/1 32/32/1 33/33/1 34/34/1 35/35/1 36/36/1 37/37/1 38/38/1 39/39/1 40/40/1 41/41/1 42/42/1 43/43/1 

