# Alias OBJ Model File
# File units = inches

mtllib Stop_Symbol.mtl

g Mesh1 STOP1 Group1 Model

usemtl M_0128_White
v 6.17439 0.18 -10.0612
vt 6.17573 10.0669
vn 0 1 -0
v 0.174392 0.18 -8.78085
vt 0.175732 8.78661
v 0.962834 0.18 -6.67049
vt 0.964174 6.67626
v 2.07293 0.18 -4.85825
vt 2.07427 4.86402
v 3.50467 0.18 -3.34413
vt 3.50601 3.3499
v 5.25807 0.18 -2.12813
vt 5.25941 2.13389
v 7.25154 0.18 -1.19455
vt 7.25288 1.20031
v 9.40347 0.18 -0.527707
vt 9.40481 0.533473
v 11.7139 0.18 -0.127602
vt 11.7152 0.133368
v 14.1828 0.18 0.00576583
vt 14.1841 0
v 17.0674 0.18 -0.175458
vt 17.0688 0.181224
v 19.6713 0.18 -0.71913
vt 19.6726 0.724895
v 21.9942 0.18 -1.62525
vt 21.9956 1.63101
v 24.0363 0.18 -2.89382
vt 24.0377 2.89958
v 25.7003 0.18 -4.47776
vt 25.7016 4.48353
v 26.8888 0.18 -6.33001
vt 26.8902 6.33577
v 27.602 0.18 -8.45056
vt 27.6033 8.45633
v 27.8397 0.18 -10.8394
vt 27.841 10.8452
v 27.3878 0.18 -13.8426
vt 27.3891 13.8483
v 26.0321 0.18 -16.5758
vt 26.0335 16.5816
v 24.9103 0.18 -17.7958
vt 24.9116 17.8015
v 23.3522 0.18 -18.8572
vt 23.3536 18.863
v 21.358 0.18 -19.7602
vt 21.3593 19.766
v 18.9275 0.18 -20.5047
vt 18.9289 20.5105
v 13.1033 0.18 -21.9608
vt 13.1046 21.9665
v 11.0164 0.18 -22.6606
vt 11.0178 22.6663
v 9.52586 0.18 -23.58
vt 9.5272 23.5858
v 8.63151 0.18 -24.7191
vt 8.63285 24.7249
v 8.33339 0.18 -26.0779
vt 8.33473 26.0837
v 8.7131 0.18 -27.7725
vt 8.71444 27.7782
v 9.85222 0.18 -29.1407
vt 9.85356 29.1464
v 11.7131 0.18 -30.0444
vt 11.7144 30.0502
v 14.2581 0.18 -30.3457
vt 14.2594 30.3515
v 16.5175 0.18 -30.1025
vt 16.5188 30.1083
v 18.325 0.18 -29.3729
vt 18.3264 29.3787
v 19.6807 0.18 -28.1569
vt 19.682 28.1627
v 20.5844 0.18 -26.4545
vt 20.5858 26.4603
v 26.4589 0.18 -27.9106
vt 26.4603 27.9163
v 25.8242 0.18 -29.58
vt 25.8256 29.5858
v 24.8742 0.18 -31.0486
vt 24.8755 31.0544
v 23.6088 0.18 -32.3164
vt 23.6101 32.3222
v 22.0279 0.18 -33.3834
vt 22.0293 33.3891
v 18.3156 0.18 -34.8331
vt 18.3169 34.8389
v 14.1326 0.18 -35.3164
vt 14.1339 35.3222
v 11.5907 0.18 -35.143
vt 11.5921 35.1488
v 9.28736 0.18 -34.6229
vt 9.2887 34.6287
v 7.22251 0.18 -33.756
vt 7.22385 33.7618
v 5.39615 0.18 -32.5424
vt 5.39749 32.5481
v 3.90243 0.18 -31.0416
vt 3.90377 31.0473
v 2.83548 0.18 -29.3133
vt 2.83682 29.319
v 2.19531 0.18 -27.3575
vt 2.19665 27.3632
v 1.98192 0.18 -25.1742
vt 1.98326 25.1799
v 2.22356 0.18 -22.9336
vt 2.2249 22.9393
v 2.94845 0.18 -20.8311
vt 2.94979 20.8368
v 4.07502 0.18 -19.0267
vt 4.07636 19.0324
v 5.52167 0.18 -17.6804
vt 5.52301 17.6862
v 7.5677 0.18 -16.6229
vt 7.56904 16.6287
v 10.4924 0.18 -15.6846
vt 10.4937 15.6904
v 17.0447 0.18 -13.9775
vt 17.046 13.9833
v 19.2225 0.18 -13.171
vt 19.2238 13.1768
v 20.484 0.18 -12.1072
vt 20.4854 12.113
v 21.0865 0.18 -10.8614
vt 21.0879 10.8672
v 21.2874 0.18 -9.50888
vt 21.2887 9.51464
v 20.8449 0.18 -7.73273
vt 20.8462 7.73849
v 19.5175 0.18 -6.27038
vt 19.5188 6.27615
v 17.3679 0.18 -5.29131
vt 17.3692 5.29707
v 14.4589 0.18 -4.96495
vt 14.4603 4.97071
v 11.2392 0.18 -5.28346
vt 11.2406 5.28923
v 8.78527 0.18 -6.239
vt 8.78661 6.24477
v 7.09699 0.18 -7.83158
vt 7.09833 7.83734
f 1/1/1 2/2/1 3/3/1 4/4/1 5/5/1 6/6/1 7/7/1 8/8/1 9/9/1 10/10/1 11/11/1 12/12/1 13/13/1 14/14/1 15/15/1 16/16/1 17/17/1 18/18/1 19/19/1 20/20/1 21/21/1 22/22/1 23/23/1 24/24/1 25/25/1 26/26/1 27/27/1 28/28/1 29/29/1 30/30/1 31/31/1 32/32/1 33/33/1 34/34/1 35/35/1 36/36/1 37/37/1 38/38/1 39/39/1 40/40/1 41/41/1 42/42/1 43/43/1 44/44/1 45/45/1 46/46/1 47/47/1 48/48/1 49/49/1 50/50/1 51/51/1 52/52/1 53/53/1 54/54/1 55/55/1 56/56/1 57/57/1 58/58/1 59/59/1 60/60/1 61/61/1 62/62/1 63/63/1 64/64/1 65/65/1 66/66/1 67/67/1 68/68/1 69/69/1 70/70/1 

g Mesh2 STOP1 Group1 Model

v 38.484 0.18 -0.521431
vt 38.4854 0.527197
v 45.1116 0.18 -0.521431
vt 45.113 0.527197
v 45.1116 0.18 -29.4921
vt 45.113 29.4979
v 54.2246 0.18 -29.4921
vt 54.2259 29.4979
v 54.2246 0.18 -34.7892
vt 54.2259 34.795
v 29.371 0.18 -34.7892
vt 29.3724 34.795
v 29.371 0.18 -29.4921
vt 29.3724 29.4979
v 38.484 0.18 -29.4921
vt 38.4854 29.4979
f 71/71/1 72/72/1 73/73/1 74/74/1 75/75/1 76/76/1 77/77/1 78/78/1 

g Mesh3 STOP1 Group1 Model

v 56.4205 0.18 -14.1532
vt 56.4218 14.159
v 56.4354 0.18 -21.3559
vt 56.4367 21.3617
v 56.1828 0.18 -17.7683
vt 56.1841 17.7741
f 79/79/1 80/80/1 81/81/1

v 57.1336 0.18 -10.8394
vt 57.1349 10.8452
f 80/80/1 79/79/1 82/82/1

v 57.1932 0.18 -24.6375
vt 57.1946 24.6433
f 80/80/1 82/82/1 83/83/1

v 58.3221 0.18 -7.82687
vt 58.3235 7.83264
f 83/83/1 82/82/1 84/84/1

v 58.4563 0.18 -27.6132
vt 58.4576 27.619
f 83/83/1 84/84/1 85/85/1

v 59.9861 0.18 -5.11557
vt 59.9874 5.12134
f 85/85/1 84/84/1 86/86/1

v 60.2246 0.18 -30.2829
vt 60.2259 30.2887
f 85/85/1 86/86/1 87/87/1

v 62.0769 0.18 -2.87499
vt 62.0782 2.88075
f 87/87/1 86/86/1 88/88/1

v 62.4071 0.18 -32.4851
vt 62.4085 32.4908
f 87/87/1 88/88/1 89/89/1

v 62.8606 0.18 -17.5675
vt 62.8619 17.5732
f 89/89/1 88/88/1 90/90/1

v 62.9869 0.18 -14.6545
vt 62.9882 14.6603
f 90/90/1 88/88/1 91/91/1

v 64.5457 0.18 -1.27457
vt 64.5471 1.28033
f 91/91/1 88/88/1 92/92/1

v 63.3658 0.18 -12.1166
vt 63.3672 12.1224
f 91/91/1 92/92/1 93/93/1

v 63.9974 0.18 -9.9537
vt 63.9987 9.95947
f 93/93/1 92/92/1 94/94/1

v 64.8815 0.18 -8.16578
vt 64.8828 8.17155
f 94/94/1 92/92/1 95/95/1

v 67.3928 0.18 -0.314318
vt 67.3941 0.320084
f 95/95/1 92/92/1 96/96/1

v 66.001 0.18 -6.76542
vt 66.0024 6.77118
f 95/95/1 96/96/1 97/97/1

v 67.3386 0.18 -5.76515
vt 67.34 5.77092
f 97/97/1 96/96/1 98/98/1

v 68.8943 0.18 -5.165
vt 68.8957 5.17076
f 98/98/1 96/96/1 99/99/1

v 70.6179 0.18 0.00576583
vt 70.6192 0
f 99/99/1 96/96/1 100/100/1

v 70.6681 0.18 -4.96495
vt 70.6695 4.97071
f 99/99/1 100/100/1 101/101/1

v 73.7803 0.18 -0.299412
vt 73.7816 0.305178
f 101/101/1 100/100/1 102/102/1

v 72.2732 0.18 -5.13754
vt 72.2746 5.14331
f 101/101/1 102/102/1 103/103/1

v 73.7497 0.18 -5.65532
vt 73.751 5.66109
f 103/103/1 102/102/1 104/104/1

v 75.0975 0.18 -6.51829
vt 75.0988 6.52406
f 104/104/1 102/102/1 105/105/1

v 76.6148 0.18 -1.21495
vt 76.6161 1.22071
f 105/105/1 102/102/1 106/106/1

v 76.3167 0.18 -7.72645
vt 76.318 7.73222
f 105/105/1 106/106/1 107/107/1

v 77.3271 0.18 -9.38806
vt 77.3285 9.39383
f 107/107/1 106/106/1 108/108/1

v 79.1213 0.18 -2.74083
vt 79.1226 2.7466
f 108/108/1 106/106/1 109/109/1

v 78.0489 0.18 -11.6114
vt 78.0502 11.6172
f 108/108/1 109/109/1 110/110/1

v 78.4819 0.18 -14.3964
vt 78.4833 14.4022
f 110/110/1 109/109/1 111/111/1

v 78.6263 0.18 -17.7432
vt 78.6276 17.749
f 111/111/1 109/109/1 112/112/1

v 79.3363 0.18 -32.4851
vt 79.3376 32.4908
f 113/113/1 112/112/1 109/109/1

v 78.1493 0.18 -23.0057
vt 78.1506 23.0115
f 113/113/1 114/114/1 112/112/1

v 77.5531 0.18 -25.1592
vt 77.5544 25.165
f 113/113/1 115/115/1 114/114/1

v 76.8721 0.18 -34.058
vt 76.8734 34.0638
f 116/116/1 115/115/1 113/113/1

v 76.7183 0.18 -26.9942
vt 76.7197 27
f 116/116/1 117/117/1 115/115/1

v 75.6326 0.18 -28.4605
vt 75.6339 28.4663
f 116/116/1 118/118/1 117/117/1

v 74.2832 0.18 -29.5078
vt 74.2845 29.5136
f 116/116/1 119/119/1 118/118/1

v 74.058 0.18 -35.0018
vt 74.0594 35.0076
f 120/120/1 119/119/1 116/116/1

v 72.6702 0.18 -30.1362
vt 72.6715 30.142
f 120/120/1 121/121/1 119/119/1

v 70.8941 0.18 -35.3164
vt 70.8954 35.3222
f 122/122/1 121/121/1 120/120/1

v 70.7936 0.18 -30.3457
vt 70.795 30.3515
f 122/122/1 123/123/1 121/121/1

v 68.9343 0.18 -30.146
vt 68.9357 30.1518
f 122/122/1 124/124/1 123/123/1

v 67.7419 0.18 -35.0018
vt 67.7432 35.0076
f 125/125/1 124/124/1 122/122/1

v 67.3229 0.18 -29.5471
vt 67.3243 29.5528
f 125/125/1 126/126/1 124/124/1

v 65.9594 0.18 -28.5488
vt 65.9608 28.5545
f 125/125/1 127/127/1 126/126/1

v 64.9129 0.18 -34.058
vt 64.9142 34.0638
f 128/128/1 127/127/1 125/125/1

v 64.8438 0.18 -27.1511
vt 64.8452 27.1569
f 128/128/1 129/129/1 127/127/1

v 63.9762 0.18 -25.3542
vt 63.9775 25.36
f 128/128/1 130/130/1 129/129/1

v 63.3564 0.18 -23.1579
vt 63.3577 23.1637
f 128/128/1 131/131/1 130/130/1

v 62.9845 0.18 -20.5624
vt 62.9859 20.5681
f 128/128/1 132/132/1 131/131/1

f 89/89/1 132/132/1 128/128/1

f 132/132/1 89/89/1 90/90/1

v 81.2999 0.18 -4.87708
vt 81.3013 4.88285
f 113/113/1 109/109/1 133/133/1

v 81.4505 0.18 -30.2829
vt 81.4519 30.2887
f 113/113/1 133/133/1 134/134/1

v 83.0627 0.18 -7.50914
vt 83.0641 7.51491
f 134/134/1 133/133/1 135/135/1

v 83.1475 0.18 -27.6085
vt 83.1488 27.6143
f 134/134/1 135/135/1 136/136/1

v 84.3219 0.18 -10.5225
vt 84.3232 10.5282
f 136/136/1 135/135/1 137/137/1

v 84.3595 0.18 -24.6187
vt 84.3609 24.6245
f 136/136/1 137/137/1 138/138/1

v 85.0774 0.18 -13.9171
vt 85.0787 13.9229
f 138/138/1 137/137/1 139/139/1

v 85.0868 0.18 -21.3135
vt 85.0881 21.3193
f 138/138/1 139/139/1 140/140/1

v 85.3292 0.18 -17.693
vt 85.3305 17.6987
f 140/140/1 139/139/1 141/141/1

g Mesh4 STOP1 Group1 Model

v 105.815 0.18 -14.103
vt 105.816 14.1088
v 97.2539 0.18 -19.4001
vt 97.2552 19.4059
v 97.2539 0.18 -14.103
vt 97.2552 14.1088
f 142/142/1 143/143/1 144/144/1

v 104.559 0.18 -19.4001
vt 104.561 19.4059
f 143/143/1 142/142/1 145/145/1

v 107.082 0.18 -19.7516
vt 107.084 19.7573
f 145/145/1 142/142/1 146/146/1

v 108.119 0.18 -14.285
vt 108.121 14.2908
f 146/146/1 142/142/1 147/147/1

v 108.928 0.18 -20.8059
vt 108.929 20.8117
f 146/146/1 147/147/1 148/148/1

v 110.214 0.18 -14.8311
vt 110.215 14.8368
f 148/148/1 147/147/1 149/149/1

v 110.057 0.18 -22.444
vt 110.059 22.4498
f 148/148/1 149/149/1 150/150/1

v 110.434 0.18 -24.5465
vt 110.435 24.5523
f 150/150/1 149/149/1 151/151/1

v 112.099 0.18 -15.7411
vt 112.1 15.7469
f 151/151/1 149/149/1 152/152/1

v 112.368 0.18 -33.0876
vt 112.369 33.0934
f 153/153/1 151/151/1 152/152/1

v 110.337 0.18 -34.0329
vt 110.338 34.0387
f 154/154/1 151/151/1 153/153/1

v 110.085 0.18 -26.5047
vt 110.087 26.5105
f 154/154/1 155/155/1 151/151/1

v 109.041 0.18 -28.1616
vt 109.042 28.1674
f 154/154/1 156/156/1 155/155/1

v 108.203 0.18 -28.8206
vt 108.205 28.8264
f 154/154/1 157/157/1 156/156/1

v 107.918 0.18 -34.6001
vt 107.919 34.6059
f 158/158/1 157/157/1 154/154/1

v 107.085 0.18 -29.2913
vt 107.087 29.2971
f 158/158/1 159/159/1 157/157/1

v 105.112 0.18 -34.7892
vt 105.113 34.795
f 160/160/1 159/159/1 158/158/1

v 104.007 0.18 -29.6679
vt 104.008 29.6736
f 160/160/1 161/161/1 159/159/1

v 97.2539 0.18 -29.6679
vt 97.2552 29.6736
f 160/160/1 162/162/1 161/161/1

v 91.0782 0.18 -34.7892
vt 91.0795 34.795
f 163/163/1 162/162/1 160/160/1

v 97.2539 0.18 -0.521431
vt 97.2552 0.527197
f 163/163/1 164/164/1 162/162/1

v 91.0782 0.18 -0.521431
vt 91.0795 0.527197
f 164/164/1 163/163/1 165/165/1

f 162/162/1 164/164/1 144/144/1

f 162/162/1 144/144/1 143/143/1

v 113.773 0.18 -17.0152
vt 113.774 17.0209
f 153/153/1 152/152/1 166/166/1

v 114.011 0.18 -31.7641
vt 114.013 31.7699
f 153/153/1 166/166/1 167/167/1

v 115.146 0.18 -18.5826
vt 115.147 18.5884
f 167/167/1 166/166/1 168/168/1

v 115.28 0.18 -30.1833
vt 115.281 30.1891
f 167/167/1 168/168/1 169/169/1

v 116.126 0.18 -20.3729
vt 116.128 20.3787
f 169/169/1 168/168/1 170/170/1

v 116.186 0.18 -28.466
vt 116.187 28.4718
f 169/169/1 170/170/1 171/171/1

v 116.715 0.18 -22.386
vt 116.716 22.3917
f 171/171/1 170/170/1 172/172/1

v 116.73 0.18 -26.6122
vt 116.731 26.6179
f 171/171/1 172/172/1 173/173/1

v 116.911 0.18 -24.6218
vt 116.912 24.6276
f 173/173/1 172/172/1 174/174/1

