# Alias OBJ Model File
# File units = inches

mtllib Through_Arrow.mtl

g Mesh1 Model

usemtl FrontColor
v 24.8307 -1.57048e-14 -0.319153
vt -24.8307 0.319153
vn -8.74553e-16 -1 1.09735e-17
v 13.8347 -6.51064e-15 -0.319153
vt -13.8347 0.319153
v 13.8347 -6.51064e-15 -68.8852
vt -13.8347 68.8852
v 13.1878 -6.59492e-15 -68.8852
vt -13.1878 68.8852
v 0.0627894 4.379e-15 -68.8852
vt -0.0627894 68.8852
v 19.3327 -1.17186e-14 -99.2195
vt -19.3327 99.2195
v 38.8185 -2.8025e-14 -68.8852
vt -38.8185 68.8852
v 31.2097 -2.48965e-14 -68.8852
vt -31.2097 68.8852
v 25.3672 -1.67482e-14 -68.8852
vt -25.3672 68.8852
v 24.8307 -1.69256e-14 -68.8852
vt -24.8307 68.8852
f 1/1/1 2/2/1 3/3/1 4/4/1 5/5/1 6/6/1 7/7/1 8/8/1 9/9/1 10/10/1 

