# File units = inches

mtllib Bench.mtl

g Mesh1 Model

usemtl _1
v 0.700548 37.4375 72
vt 0.0058379 -1.5
vn -1.83739e-015 1 9.86865e-017
v 0.700548 37.4375 -0
vt 0.0058379 7.69703e-017
v -3.16659 37.4375 -0
vt -0.0263882 7.69703e-017
v -3.16659 37.4375 72
vt -0.0263882 -1.5
f 1/1/1 2/2/1 3/3/1 4/4/1 

vt -0.6 0.735358
vn 0.948743 0.316047 -7.02607e-017
v 7.00174 18.5219 72
vt -0.6 0.319993
v 7.00174 18.5219 -0
vt -4.32104e-018 0.319993
vt -4.32335e-019 0.735358
f 1/5/2 5/6/2 6/7/2 2/8/2 

vt 0.0058379 0.779948
vn -8.74219e-016 -1.93278e-016 1
vt -0.0263882 0.779948
v 3.17274 15.6537 72
vt 0.0264395 0.326118
v 7.28466 15.6537 72
vt 0.0607055 0.326118
v 7.97216 15.6537 72
vt 0.0664346 0.326118
vt 0.0583478 0.385873
f 1/9/3 4/10/3 7/11/3 8/12/3 9/13/3 5/14/3 

vt 0.6 0.294659
vn -0.960169 -0.279419 -0
vt 0.6 0.767315
vt 0 0.767315
v 3.17274 15.6537 -0
vt 0 0.294659
f 7/15/4 4/16/4 3/17/4 10/18/4 

v 29.0347 11.203 -0
vt -0.241955 0.233396
vn 0 0 -1
v 28.4111 11.0229 -0
vt -0.236759 0.229643
v 28.4111 12.5854 -0
vt -0.236759 0.262195
v 25.0093 12.5854 -0
vt -0.20841 0.262195
v 25.0093 11.2658 -0
vt -0.20841 0.234705
v 23.3061 11.3509 -0
vt -0.194217 0.236478
v 21.6018 11.4117 -0
vt -0.180015 0.237744
v 19.8969 11.4482 -0
vt -0.165808 0.238504
v 18.1916 11.4604 -0
vt -0.151597 0.238757
v 16.4864 11.4482 -0
vt -0.137386 0.238504
v 14.7815 11.4117 -0
vt -0.123179 0.237744
v 13.0772 11.3509 -0
vt -0.108977 0.236478
v 11.374 11.2658 -0
vt -0.0947836 0.234705
v 9.67223 11.1565 -0
vt -0.0806019 0.232427
v 7.97216 11.0229 -0
vt -0.0664346 0.229643
v 5.50341 11.0229 -0
vt -0.0458617 0.229643
v 5.50341 13.3383 -0
vt -0.0458617 0.27788
v 3.1037 13.3383 -0
vt -0.0258641 0.27788
vt -0.0264395 0.326118
vt 0.0263882 0.779948
vt -0.0058379 0.779948
vt -0.0583478 0.385873
v 7.97216 15.6537 -0
vt -0.0664346 0.326118
v 9.72334 15.8064 -0
vt -0.0810278 0.329299
v 11.4767 15.9313 -0
vt -0.0956393 0.331903
v 13.2319 16.0286 -0
vt -0.110265 0.333929
v 14.9883 16.0981 -0
vt -0.124903 0.335376
v 16.7456 16.1398 -0
vt -0.139547 0.336245
v 18.5034 16.1537 -0
vt -0.154195 0.336535
v 20.2612 16.1398 -0
vt -0.168843 0.336245
v 22.0185 16.0981 -0
vt -0.183488 0.335376
v 23.775 16.0286 -0
vt -0.198125 0.333929
v 25.5301 15.9313 -0
vt -0.212751 0.331903
v 27.2835 15.8064 -0
vt -0.227362 0.329299
v 29.0347 15.6537 -0
vt -0.241955 0.326118
f 11/19/5 12/20/5 13/21/5 14/22/5 15/23/5 16/24/5 17/25/5 18/26/5 19/27/5 20/28/5 21/29/5 22/30/5 23/31/5 24/32/5 25/33/5 26/34/5 27/35/5 28/36/5 10/37/5 3/38/5 2/39/5 6/40/5 29/41/5 30/42/5 31/43/5 32/44/5 33/45/5 34/46/5 35/47/5 36/48/5 37/49/5 38/50/5 39/51/5 40/52/5 41/53/5 

v 29.0347 11.203 72
vt -0.6 0.645905
vn 0.277588 -0.9607 -4.52435e-018
v 28.4111 11.0229 72
vt -0.6 0.632383
v 28.4111 11.0229 65.6131
vt -0.546776 0.632383
v 28.4111 11.0229 6
vt -0.05 0.632383
vt -3.85889e-018 0.632383
vt -3.94358e-018 0.645905
f 42/54/6 43/55/6 44/56/6 45/57/6 12/58/6 11/59/6 

vt 0.236759 0.229643
vn 0 0 1
vt 0.241955 0.233396
v 29.0347 15.6537 72
vt 0.241955 0.326118
v 27.2835 15.8064 72
vt 0.227362 0.329299
v 25.5301 15.9313 72
vt 0.212751 0.331903
v 23.775 16.0286 72
vt 0.198125 0.333929
v 22.0185 16.0981 72
vt 0.183488 0.335376
v 20.2612 16.1398 72
vt 0.168843 0.336245
v 18.5034 16.1537 72
vt 0.154195 0.336535
v 16.7456 16.1398 72
vt 0.139547 0.336245
v 14.9883 16.0981 72
vt 0.124903 0.335376
v 13.2319 16.0286 72
vt 0.110265 0.333929
v 11.4767 15.9313 72
vt 0.0956393 0.331903
v 9.72334 15.8064 72
vt 0.0810278 0.329299
v 3.1037 13.3383 72
vt 0.0258641 0.27788
v 5.50341 13.3383 72
vt 0.0458617 0.27788
v 5.50341 11.0229 72
vt 0.0458617 0.229643
v 7.97216 11.0229 72
vt 0.0664346 0.229643
v 9.67223 11.1565 72
vt 0.0806019 0.232427
v 11.374 11.2658 72
vt 0.0947836 0.234705
v 13.0772 11.3509 72
vt 0.108977 0.236478
v 14.7815 11.4117 72
vt 0.123179 0.237744
v 16.4864 11.4482 72
vt 0.137386 0.238504
v 18.1916 11.4604 72
vt 0.151597 0.238757
v 19.8969 11.4482 72
vt 0.165808 0.238504
v 21.6018 11.4117 72
vt 0.180015 0.237744
v 23.3061 11.3509 72
vt 0.194217 0.236478
v 25.0093 11.2658 72
vt 0.20841 0.234705
v 25.0093 12.5854 72
vt 0.20841 0.262195
v 28.4111 12.5854 72
vt 0.236759 0.262195
f 43/60/7 42/61/7 46/62/7 47/63/7 48/64/7 49/65/7 50/66/7 51/67/7 52/68/7 53/69/7 54/70/7 55/71/7 56/72/7 57/73/7 9/13/7 8/12/7 7/11/7 58/74/7 59/75/7 60/76/7 61/77/7 62/78/7 63/79/7 64/80/7 65/81/7 66/82/7 67/83/7 68/84/7 69/85/7 70/86/7 71/87/7 72/88/7 73/89/7 

vt -0.6 0.326118
vn 1 0 1.97373e-016
vt -0.6 0.233396
vt 4.77555e-017 0.233396
vt 4.77555e-017 0.326118
f 46/90/8 42/91/8 11/92/8 41/93/8 

vt 0.161136 6.66134e-016
vn 0.0789878 0.996876 2.8881e-017
vt 0.175784 6.66134e-016
vn 0.0868676 0.99622 3.3151e-017
vt 0.175784 1.5
vt 0.161136 1.5
f 47/94/9 46/95/10 41/96/10 40/97/9 

vt 0.146487 0
vn 0.063214 0.998 5.54155e-017
vt 0.161136 0
vt 0.146487 1.5
f 48/98/11 47/99/9 40/97/9 39/100/11 

vt 0.131838 1.11022e-015
vn 0.0474243 0.998875 1.1707e-016
vt 0.146487 1.11022e-015
vt 0.131838 1.5
f 49/101/12 48/102/11 39/100/11 38/103/12 

vt 0.11719 1.9984e-015
vn 0.0316228 0.9995 1.47956e-016
vt 0.131838 1.9984e-015
vt 0.11719 1.5
f 50/104/13 49/105/12 38/103/12 37/106/13 

vt 0.102541 3.77476e-015
vn 0.0158134 0.999875 1.48011e-016
vt 0.11719 4.21885e-015
vt 0.102541 1.5
f 51/107/14 50/108/13 37/106/13 36/109/14 

vt 0.0878922 8.88178e-015
vn -8.67389e-018 1 1.4803e-016
vt 0.102541 9.99201e-015
vt 0.0878922 1.5
f 52/110/15 51/111/14 36/109/14 35/112/15 

vt 0.0732435 -7.99361e-015
vn -0.0158134 0.999875 1.48011e-016
vt 0.0878922 -8.65974e-015
vt 0.0732435 1.5
f 53/113/16 52/114/15 35/112/15 34/115/16 

vt 0.0585948 -2.88658e-015
vn -0.0316228 0.9995 1.47956e-016
vt 0.0732435 -2.88658e-015
vt 0.0585948 1.5
f 54/116/17 53/117/16 34/115/16 33/118/17 

vt 0.0439461 -1.55431e-015
vn -0.0474243 0.998875 1.19458e-016
vt 0.0585948 -1.77636e-015
vt 0.0439461 1.5
f 55/119/18 54/120/17 33/118/17 32/121/18 

vt 0.0292974 -1.11022e-015
vn -0.063214 0.998 6.39441e-017
vt 0.0439461 -1.33227e-015
vt 0.0292974 1.5
f 56/122/19 55/123/18 32/121/18 31/124/19 

vt 0.0146487 -4.44089e-016
vn -0.0789878 0.996876 3.82358e-017
vt 0.0292974 -4.44089e-016
vt 0.0146487 1.5
f 57/125/20 56/126/19 31/124/19 30/127/20 

vt -4.30211e-016 -6.66134e-016
vn -0.0868676 0.99622 3.95805e-017
vt 0.0146487 -6.66134e-016
vt -1.52656e-016 1.5
f 9/128/21 57/129/20 30/127/20 29/130/21 

vt -0.6 0.318771
vn 0.947254 0.320484 -1.35937e-016
vt -0.6 0.255688
vt -9.53383e-018 0.255688
vt -8.37332e-018 0.318771
f 5/131/22 9/132/22 29/133/22 6/134/22 

vt 0 0.327943
vn -0.999556 0.0298039 -0
vt 0 0.279684
vt 0.6 0.279684
vt 0.6 0.327943
f 10/135/23 28/136/23 58/137/23 7/138/23 

usemtl ooMaterial2
v 3.03466 11.0229 72
vt 0.6 0.231425
v 3.03466 11.0229 -0
vt 0 0.231425
v 3.03466 11.0229 6
vt 0.05 0.231425
v 3.03466 11.0229 66
vt 0.55 0.231425
f 74/139/23 58/137/23 28/136/23 75/140/23 76/141/23 77/142/23 

v 3.03466 0 72
vt 0.0252888 0
vt 0.0252888 0.229643
v 0 0 72
vt 0 0
f 78/143/7 60/76/7 59/75/7 58/74/7 74/144/7 79/145/7 

v 3.03466 0 68
vt -0.566667 0.0138173
vn 0.975825 -0.218552 -0
v 5.50341 11.0229 66
vt -0.55 0.249149
vt -0.6 0.249149
vt -0.6 0.0138173
f 80/146/24 81/147/24 60/148/24 78/149/24 

vt -0.0458617 -0.0195202
vn 1.20314e-016 -0.178526 -0.983935
vt -0.0252888 -0.252912
v 0 0 68
vt -6.92912e-017 -0.252912
vt -0.0252888 -0.0195202
f 81/150/25 80/151/25 82/152/25 77/153/25 

vt 0 -1.41667
vn 0 -1 -0
vt -0.0252888 -1.41667
vt -0.0252888 -1.5
vt 0 -1.5
f 82/154/26 80/155/26 78/156/26 79/157/26 

vt 0.6 0.238187
vn -0.96413 0.265431 -0
vt 0.55 0.238187
vt 0.566667 0
vt 0.6 0
f 74/158/27 77/159/27 82/160/27 79/161/27 

vt -0.0252888 -0.125
v 5.50341 11.0229 6
vt -0.0458617 -0.125
vt -0.0458617 -1.375
vt -0.0252888 -1.375
f 76/162/26 83/163/26 81/164/26 77/165/26 

v 3.03466 0 4
vt 0.0252888 0.0148772
vn 1.20314e-016 -0.178526 0.983935
vt 0.0458617 0.248269
vt 0.0252888 0.248269
v 0 0 4
vt -4.07596e-018 0.0148772
f 84/166/28 83/167/28 76/168/28 85/169/28 

vt -0.05 0.249149
vt -0.0333333 0.0138173
v 3.03466 0 -0
vt 0 0.0138173
vt 0 0.249149
f 83/170/24 84/171/24 86/172/24 26/173/24 

vt -0.0252888 0
vt -0.0252888 -0.0833333
vt 0 -0.0833333
v 0 0 -0
f 86/174/26 84/175/26 85/176/26 87/145/26 

vt 0.0333333 0
vt 0.05 0.238187
vt 0 0.238187
f 87/145/27 85/177/27 76/178/27 75/179/27 

vt -0.0252888 0.229643
f 75/180/5 28/36/5 27/35/5 26/34/5 86/174/5 87/145/5 

usemtl _1
vt -0.0664346 -1.5
vt -0.0458617 -1.5
vt -0.0458617 0
vt -0.0664346 0
f 61/181/26 60/182/26 81/164/26 83/163/26 26/183/26 25/184/26 

vt -0.6 0.219098
vn 0.0712467 -0.997459 -0
vt -0.6 0.18357
vn 0.0783574 -0.996925 -0
vt 0 0.18357
vt 0 0.219098
f 62/185/29 61/186/30 25/187/30 24/188/29 

vt -0.6 0.251523
vn 0.0570147 -0.998373 -0
vt -0.6 0.215996
vt 0 0.215996
vt 0 0.251523
f 63/189/31 62/190/29 24/191/29 23/192/31 

vt -0.6 0.283902
vn 0.0427712 -0.999085 -0
vt -0.6 0.248374
vt 0 0.248374
vt 0 0.283902
f 64/193/32 63/194/31 23/195/31 22/196/32 

vt -0.6 0.316226
vn 0.028519 -0.999593 -0
vt -0.6 0.280698
vt 0 0.280698
vt 0 0.316226
f 65/197/33 64/198/32 22/199/32 21/200/33 

vt -0.6 0.348489
vn 0.0142609 -0.999898 -0
vt -0.6 0.312962
vt 0 0.312962
vt 0 0.348489
f 66/201/34 65/202/33 21/203/33 20/204/34 

vt -0.6 0.380685
vn 4.17385e-015 -1 -0
vt -0.6 0.345158
vt 0 0.345158
vt 0 0.380685
f 67/205/35 66/206/34 20/207/34 19/208/35 

vt 0.6 -0.412808
vn -0.0142609 -0.999898 -0
vt 0.6 -0.37728
vt 0 -0.37728
vt 0 -0.412808
f 68/209/36 67/210/35 19/211/35 18/212/36 

vt 0.6 -0.44485
vn -0.028519 -0.999593 -0
vt 0.6 -0.409323
vt 0 -0.409323
vt 0 -0.44485
f 69/213/37 68/214/36 18/215/36 17/216/37 

vt 0.6 -0.476805
vn -0.0427712 -0.999085 -0
vt 0.6 -0.441278
vt 0 -0.441278
vt 0 -0.476805
f 70/217/38 69/218/37 17/219/37 16/220/38 

vt 0.6 -0.508667
vn -0.0498942 -0.998755 -0
vt 0.6 -0.47314
vt 0 -0.47314
vt 0 -0.508667
v 25.0093 11.2658 6
vt 0.05 -0.508667
v 25.0093 11.2658 66
vt 0.55 -0.508667
f 71/221/39 70/222/38 16/223/38 15/224/39 88/225/39 89/226/39 

usemtl ooMaterial2
v 29.4175 0 -0
vt 0 -0.223324
vn -0.931245 -0.364393 -0
v 29.4175 0 4
vt 0.0333333 -0.223324
vt 0.05 0.0287096
vt 0 0.0287096
f 90/227/40 91/228/40 88/229/40 15/230/40 

v 32.8334 0 -0
vt -0.273612 0
v 32.8334 0 4
vt -0.273612 -0.0833333
vt -0.245146 -0.0833333
vt -0.245146 0
f 92/231/26 93/232/26 91/233/26 90/234/26 

vt -0.05 -0.0072597
vn 0.928095 0.372344 -0
vt -0.0333333 -0.254694
vt 0 -0.254694
vt 0 -0.0072597
f 45/235/41 93/236/41 92/237/41 12/238/41 

vt 0.236759 0.248269
vn 0 -0.178526 0.983935
vt 0.245146 0.0148772
vt 0.273612 0.0148772
f 45/239/42 91/240/42 93/241/42

vt 0.24556 0.0135331
vn -0.0128318 -0.179646 0.983648
vt 0.237391 0.246974
vt 0.209045 0.25212
f 91/242/43 45/243/43 88/244/43

vt 0.546776 -0.574033
vn -0.0712467 -0.997459 -1.47193e-017
vt 0.55 -0.50298
vt 0.05 -0.50298
vt 0.05 -0.574033
f 44/245/44 89/246/44 88/247/44 45/248/44 

v 32.8334 0 68
vt -0.196514 -0.386251
vn -0.12736 -0.258451 -0.957592
vt -0.13408 -0.143291
vt -0.162606 -0.148531
f 94/249/45 89/250/45 44/251/45

vt -0.20841 -0.00925094
vn 2.26759e-016 -0.174795 -0.984605
vt -0.273612 -0.247626
v 29.4175 0 68
vt -0.245146 -0.247626
f 89/252/46 94/253/46 95/254/46

vt -0.245146 -1.41667
vt -0.273612 -1.41667
v 32.8334 0 72
vt -0.273612 -1.5
v 29.4175 0 72
vt -0.245146 -1.5
f 95/255/26 94/256/26 96/257/26 97/258/26 

vt -0.566667 -0.254694
vt -0.546776 -0.0072597
vt -0.6 -0.0072597
vt -0.6 -0.254694
f 94/259/41 44/260/41 43/261/41 96/262/41 

vt 0.273612 0
vt 0.245146 0
f 96/263/7 43/60/7 73/89/7 72/88/7 71/87/7 97/264/7 

vt 0.6 0.0287096
vt 0.55 0.0287096
vt 0.566667 -0.223324
vt 0.6 -0.223324
f 71/265/40 89/266/40 95/267/40 97/268/40 

f 90/234/5 15/23/5 14/22/5 13/21/5 12/20/5 92/231/5 

