# Alias OBJ Model File
# Exported from SketchUp, (c) 2000-2012 Trimble Navigation Limited
# File units = meters

mtllib Bike_Rack2.mtl

g Mesh1 Model

usemtl FrontColor
v -0.397206 1.1684 0.187876
vt -15.638 -7.39671
vn 1.36365e-014 1 -2.26454e-014
v -0.329979 1.1684 0.171184
vt -12.9913 -6.73952
v -0.348594 1.1684 0.0962166
vt -13.7242 -3.78806
v -0.415821 1.1684 0.112909
vt -16.3709 -4.44525
f 1/1/1 2/2/1 3/3/1 4/4/1 

v 0.358145 2.06603 0.000320303
vt -13.6816 81.3399
vn -0.240985 -1.86503e-014 -0.970529
v 0.366641 2.06373 -0.00178908
vt -14.0262 81.2493
v 0.375702 2.05966 -0.00403916
vt -14.3938 81.0888
v 0.384047 2.05419 -0.00611118
vt -14.7323 80.8736
v 0.391476 2.04747 -0.00795577
vt -15.0337 80.6089
v 0.397812 2.03964 -0.00952894
vt -15.2907 80.301
v 0.402903 2.03091 -0.0107932
vt -15.4972 79.9571
v 0.406629 2.02147 -0.0117184
vt -15.6484 79.5856
v 0.408901 2.01156 -0.0122825
vt -15.7406 79.1952
v 0.409564 2.00274 -0.012447
vt -15.7674 78.848
v 0.409564 1.1684 -0.012447
vt -15.7674 46
v 0.342337 1.1684 0.0042456
vt -13.0403 46
v 0.342337 1.99677 0.0042456
vt -13.0403 78.6128
v 0.337129 1.99677 0.00553869
vt -12.8291 78.6128
v -0.28595 1.99677 0.160251
vt 12.4465 78.6128
v -0.32387 1.99677 0.169667
vt 13.9847 78.6128
v -0.325497 1.99668 0.170071
vt 14.0507 78.6093
v -0.326214 1.99656 0.170249
vt 14.0798 78.6046
v -0.326914 1.99636 0.170423
vt 14.1082 78.5968
v -0.32759 1.99608 0.170591
vt 14.1357 78.586
v -0.328234 1.99574 0.17075
vt 14.1618 78.5723
v -0.328838 1.99532 0.1709
vt 14.1863 78.5559
v -0.329395 1.99484 0.171039
vt 14.2088 78.537
v -0.329898 1.9943 0.171164
vt 14.2293 78.5157
v -0.329979 1.99419 0.171184
vt 14.2326 78.5115
vt 14.2326 46
vt 16.9597 46
v -0.397206 2.0073 0.187876
vt 16.9597 79.0275
v -0.393278 2.01883 0.186901
vt 16.8003 79.4817
v -0.389861 2.02622 0.186053
vt 16.6617 79.7726
v -0.385696 2.03319 0.185018
vt 16.4928 80.047
v -0.380831 2.03966 0.18381
vt 16.2954 80.3017
v -0.375322 2.04556 0.182442
vt 16.0719 80.5338
v -0.369232 2.05081 0.18093
vt 15.8249 80.7407
v -0.362631 2.05537 0.179291
vt 15.5571 80.9199
v -0.355594 2.05917 0.177544
vt 15.2717 81.0695
v -0.348204 2.06217 0.175709
vt 14.9719 81.1876
v -0.340544 2.06433 0.173807
vt 14.6611 81.273
v -0.332703 2.06565 0.17186
vt 14.3431 81.3246
v -0.325673 2.06603 0.170114
vt 14.0579 81.3399
v -0.28595 2.06603 0.160251
vt 12.4465 81.3399
v 0.337129 2.06603 0.00553869
vt -12.8291 81.3399
f 5/5/2 6/6/2 7/7/2 8/8/2 9/9/2 10/10/2 11/11/2 12/12/2 13/13/2 14/14/2 15/15/2 16/16/2 17/17/2 18/18/2 19/19/2 20/20/2 21/21/2 22/22/2 23/23/2 24/24/2 25/25/2 26/26/2 27/27/2 28/28/2 29/29/2 2/30/2 1/31/2 30/32/2 31/33/2 32/34/2 33/35/2 34/36/2 35/37/2 36/38/2 37/39/2 38/40/2 39/41/2 40/42/2 41/43/2 42/44/2 43/45/2 44/46/2 

vt 3.41018 7.45325
vn -0.124432 -0.991747 0.0308968
v 0.339531 2.06603 -0.0746468
vt 0.369097 7.45325
v 0.348026 2.06373 -0.0767562
vt 0.369097 7.09692
vn -0.318532 -0.944607 0.0790926
vt 3.41018 7.09692
f 5/47/3 45/48/3 46/49/4 6/50/4 

v 0.318515 2.06603 -0.0694284
vt -12.5399 2.7334
vn -1.8141e-014 -1 4.50445e-015
vt -13.3674 2.93885
vt -14.1002 -0.0126104
vt -13.2728 -0.218059
vt 11.2579 -6.3091
vt 12.8218 -6.69742
vn 0.0260192 -0.999641 -0.00646065
v -0.344287 2.06603 0.0951474
vt 13.5546 -3.74596
v -0.304565 2.06603 0.0852841
vt 11.9907 -3.35764
f 47/51/5 45/52/3 5/53/3 44/54/5 43/55/5 42/56/6 48/57/6 49/58/5 

vt 14.0262 81.2493
vn 0.240985 1.86849e-014 0.970529
vt 13.6816 81.3399
vt 12.8291 81.3399
vt -12.4465 81.3399
vt -14.0579 81.3399
v -0.351318 2.06565 0.0968931
vt -14.3431 81.3246
v -0.359159 2.06433 0.09884
vt -14.6611 81.273
v -0.366819 2.06217 0.100742
vt -14.9719 81.1876
v -0.374209 2.05917 0.102577
vt -15.2717 81.0695
v -0.381245 2.05537 0.104324
vt -15.5571 80.9199
v -0.387846 2.05081 0.105963
vt -15.8249 80.7407
v -0.393936 2.04556 0.107475
vt -16.0719 80.5338
v -0.399446 2.03966 0.108843
vt -16.2954 80.3017
v -0.404311 2.03319 0.110051
vt -16.4928 80.047
v -0.408476 2.02622 0.111086
vt -16.6617 79.7726
v -0.411893 2.01883 0.111934
vt -16.8003 79.4817
v -0.415821 2.0073 0.112909
vt -16.9597 79.0275
vt -16.9597 46
vt -14.2326 46
v -0.348594 1.99419 0.0962166
vt -14.2326 78.5115
v -0.348513 1.9943 0.0961966
vt -14.2293 78.5157
v -0.348009 1.99484 0.0960715
vt -14.2088 78.537
v -0.347452 1.99532 0.0959332
vt -14.1863 78.5559
v -0.346848 1.99574 0.0957833
vt -14.1618 78.5723
v -0.346205 1.99608 0.0956235
vt -14.1357 78.586
v -0.345529 1.99636 0.0954557
vt -14.1082 78.5968
v -0.344829 1.99656 0.0952817
vt -14.0798 78.6046
v -0.344111 1.99668 0.0951037
vt -14.0507 78.6093
v -0.342485 1.99677 0.0946997
vt -13.9847 78.6128
v -0.304565 1.99677 0.0852841
vt -12.4465 78.6128
v 0.318515 1.99677 -0.0694284
vt 12.8291 78.6128
v 0.323722 1.99677 -0.0707215
vt 13.0403 78.6128
v 0.323722 1.1684 -0.0707215
vt 13.0403 46
v 0.390949 1.1684 -0.0874141
vt 15.7674 46
v 0.390949 2.00274 -0.0874141
vt 15.7674 78.848
v 0.390287 2.01156 -0.0872496
vt 15.7406 79.1952
v 0.388015 2.02147 -0.0866855
vt 15.6484 79.5856
v 0.384289 2.03091 -0.0857603
vt 15.4972 79.9571
v 0.379197 2.03964 -0.084496
vt 15.2907 80.301
v 0.372861 2.04747 -0.0829229
vt 15.0337 80.6089
v 0.365433 2.05419 -0.0810783
vt 14.7323 80.8736
v 0.357088 2.05966 -0.0790062
vt 14.3938 81.0888
f 46/59/7 45/60/7 47/61/7 49/62/7 48/63/7 50/64/7 51/65/7 52/66/7 53/67/7 54/68/7 55/69/7 56/70/7 57/71/7 58/72/7 59/73/7 60/74/7 61/75/7 4/76/7 3/77/7 62/78/7 63/79/7 64/80/7 65/81/7 66/82/7 67/83/7 68/84/7 69/85/7 70/86/7 71/87/7 72/88/7 73/89/7 74/90/7 75/91/7 76/92/7 77/93/7 78/94/7 79/95/7 80/96/7 81/97/7 82/98/7 83/99/7 84/100/7 

vt -3.41018 -9.96351
vn 0.10389 -0.994254 -0.0257962
vt -0.369097 -9.96351
vt -0.369097 -9.6779
vt -3.41018 -9.6779
f 41/101/8 50/102/8 48/103/6 42/104/6 

vt -3.41018 -1.45334
vn 0.206586 -0.977083 -0.0512959
vt -0.369097 -1.45334
vt -0.369097 -1.13111
vt -3.41018 -1.13111
f 40/105/9 51/106/9 50/107/8 41/108/8 

vt -3.41018 7.07167
vn 0.306908 -0.948683 -0.0762062
vt -0.369097 7.07167
vt -0.369097 7.39391
vt -3.41018 7.39391
f 39/109/10 52/110/10 51/111/9 40/112/9 

vt -3.41018 15.5136
vn 0.403703 -0.909382 -0.100241
vt -0.369097 15.5136
vt -0.369097 15.8358
vt -3.41018 15.8358
f 38/113/11 53/114/11 52/115/10 39/116/10 

vt -3.41018 23.7753
vn 0.495859 -0.85963 -0.123123
vt -0.369097 23.7753
vt -0.369097 24.0976
vt -3.41018 24.0976
f 37/117/12 54/118/12 53/119/11 38/120/11 

vt -3.41018 31.762
vn 0.582317 -0.8 -0.144591
vt -0.369097 31.762
vt -0.369097 32.0843
vt -3.41018 32.0843
f 36/121/13 55/122/13 54/123/12 37/124/12 

vt -3.41018 39.3819
vn 0.662083 -0.731177 -0.164397
vt -0.369097 39.3819
vt -0.369097 39.7041
vt -3.41018 39.7041
f 35/125/14 56/126/14 55/127/13 36/128/13 

vt -3.41018 46.5473
vn 0.734241 -0.653951 -0.182314
vt -0.369097 46.5473
vt -0.369097 46.8696
vt -3.41018 46.8696
f 34/129/15 57/130/15 56/131/14 35/132/14 

vt -3.41018 53.176
vn 0.797961 -0.56921 -0.198136
vt -0.369097 53.176
vt -0.369097 53.4983
vt -3.41018 53.4983
f 33/133/16 58/134/16 57/135/15 34/136/15 

vt -3.41018 59.1918
vn 0.852511 -0.477928 -0.211681
vt -0.369097 59.1918
vt -0.369097 59.514
vt -3.41018 59.514
f 32/137/17 59/138/17 58/139/16 33/140/16 

vt -3.41018 64.5255
vn 0.897265 -0.381154 -0.222794
vt -0.369097 64.5255
vt -0.369097 64.8477
vt -3.41018 64.8477
f 31/141/18 60/142/18 59/143/17 32/144/17 

vt -3.41018 68.9568
vn 0.956749 -0.16791 -0.237564
vt -0.369097 68.9568
vt -0.369097 69.4381
vt -3.41018 69.4381
f 30/145/19 61/146/19 60/147/18 31/148/18 

vt -3.41018 46
vn 0.970529 -1.86874e-014 -0.240985
vt -0.369097 46
vt -0.369097 79.0275
vt -3.41018 79.0275
f 1/149/20 4/150/20 61/151/19 30/152/19 

vt 0.369097 46
vn -0.970529 1.86902e-014 0.240985
v -0.348594 1.9955 0.0962166
vt 0.369097 78.563
vt 0.369097 78.5115
f 3/153/21 85/154/21 62/155/21

v -0.342325 1.73302 0.121462
vt 1.39317 68.2291
f 86/156/21 85/154/21 3/153/21

v -0.336248 1.73302 0.145939
vt 2.38611 68.2291
f 87/157/21 85/154/21 86/156/21

vt 3.41018 78.5115
f 29/158/21 85/154/21 87/157/21

v -0.329979 1.9955 0.171184
vt 3.41018 78.563
f 85/154/21 29/158/21 88/159/21

v -0.336248 1.66375 0.145939
vt 2.38611 65.502
f 29/158/21 87/157/21 89/160/21

v 0.336069 1.73302 -0.0209993
vt -13.0403 68.2291
vn -0.240985 -1.86918e-014 -0.970529
v 0.336069 1.66375 -0.0209993
vt -13.0403 65.502
vt 14.2326 65.502
vt 14.2326 68.2291
f 90/161/22 91/162/22 89/163/22 87/164/22 

vt -2.38611 68.2291
vn 0.970529 -1.86908e-014 -0.240985
v 0.342337 2.00006 0.0042456
vt -3.41018 78.7426
vn 0.969804 0.0386277 -0.240805
vt -2.38611 65.502
f 90/165/23 92/166/24 91/167/23

v 0.323722 2.00006 -0.0707215
vt -0.369097 78.7426
f 92/166/24 90/165/23 93/168/24

v 0.329991 1.73302 -0.0454766
vt -1.39317 68.2291
f 93/168/24 90/165/23 94/169/23

vt -12.9918 1.79042
vn -1.35247e-014 -1 2.26176e-014
vt -13.231 0.826745
vt 13.2381 -5.74562
vt 13.4774 -4.78195
f 94/170/25 90/171/25 87/172/25 86/173/25 

v 0.329991 1.66375 -0.0454766
vt 13.0403 65.502
vn 0.240985 1.86918e-014 0.970529
vt 13.0403 68.2291
vt -14.2326 68.2291
v -0.342325 1.66375 0.121462
vt -14.2326 65.502
f 95/174/26 94/175/26 86/176/26 96/177/26 

vt -1.39317 65.502
f 95/178/23 75/150/23 94/169/23

f 91/167/23 75/150/23 95/178/23

f 91/167/23 16/149/23 75/150/23

vt -3.41018 78.6128
f 16/149/23 91/167/23 17/179/23

f 17/179/23 91/167/23 92/166/24

vt 13.4778 -0.167149
vt 16.1246 0.490041
vt 15.3917 3.4415
vt 12.745 2.78431
f 16/180/1 15/181/1 76/182/1 75/183/1 

vt 3.41018 78.848
vn -0.969804 -0.0386277 0.240805
vt 0.369097 78.848
vn -0.970529 1.86918e-014 0.240985
vt 3.41018 46
f 14/184/27 77/185/27 76/153/28 15/186/28 

vt 3.41018 77.7437
vn -0.958961 -0.153935 0.238113
vt 0.369097 77.7437
vt 0.369097 77.3955
vt 3.41018 77.3955
f 13/187/29 78/188/29 77/189/27 14/190/27 

vt 3.41018 73.8613
vn -0.924534 -0.3042 0.229565
vt 0.369097 73.8613
vt 0.369097 73.4602
vt 3.41018 73.4602
f 12/191/30 79/192/30 78/193/29 13/194/29 

vt 3.41018 68.223
vn -0.868067 -0.447214 0.215544
vt 0.369097 68.223
vt 0.369097 67.8219
vt 3.41018 67.8219
f 11/195/31 80/196/31 79/197/30 12/198/30 

vt 3.41018 60.9631
vn -0.790908 -0.579567 0.196385
vt 0.369097 60.9631
vt 0.369097 60.562
vt 3.41018 60.562
f 10/199/32 81/200/32 80/201/31 11/202/31 

vt 3.41018 52.2548
vn -0.694895 -0.698104 0.172545
vt 0.369097 52.2548
vt 0.369097 51.8537
vt 3.41018 51.8537
f 9/203/33 82/204/33 81/205/32 10/206/32 

vt 3.41018 42.3057
vn -0.582317 -0.8 0.144591
vt 0.369097 42.3057
vt 0.369097 41.9045
vt 3.41018 41.9045
f 8/207/34 83/208/34 82/209/33 9/210/33 

vt 3.41018 31.3528
vn -0.455858 -0.882826 0.113191
vt 0.369097 31.3528
vt 0.369097 30.9517
vt 3.41018 30.9517
f 7/211/35 84/212/35 83/213/34 8/214/34 

vt 3.41018 19.6573
vt 0.369097 19.6573
vt 0.369097 19.2562
vt 3.41018 19.2562
f 6/215/4 46/216/4 84/217/35 7/218/35 

vt 13.231 0.826745
vn 1.35247e-014 1 -2.26176e-014
vt 12.9918 1.79042
vt -13.4774 -4.78195
vt -13.2381 -5.74562
f 91/219/36 95/220/36 96/221/36 89/222/36 

vt 1.39317 65.502
f 3/153/21 89/160/21 96/223/21

f 2/186/21 89/160/21 3/153/21

f 89/160/21 2/186/21 29/158/21

f 3/153/21 96/223/21 86/156/21

vt -0.369097 78.6128
f 74/224/23 94/169/23 75/150/23

f 93/168/24 94/169/23 74/224/23

v 0.323662 2.00086 -0.0707065
vt -0.369097 77.5326
vn 0.967633 0.0771977 -0.240266
v 0.342277 2.00086 0.00426056
vt -3.41018 77.5326
vt -3.41018 77.5009
vt -0.369097 77.5009
f 97/225/37 98/226/37 92/227/24 93/228/24 

v -0.348958 1.99371 0.0963071
vt 0.369097 53.3224
vn -0.797961 0.56921 0.198136
v -0.330343 1.99371 0.171274
vt 3.41018 53.3224
vt 3.41018 53.3465
vn -0.767204 0.612461 0.190499
vt 3.41018 53.3519
vn -0.734241 0.653951 0.182314
vt 0.369097 53.3519
vt 0.369097 53.3465
f 99/229/38 100/230/38 29/231/39 28/232/40 63/233/40 62/234/39 

v -0.349339 1.99307 0.0964016
vt 0.369097 59.3382
vn -0.852511 0.477928 0.211681
v -0.330724 1.99307 0.171369
vt 3.41018 59.3382
vt 3.41018 59.3677
vt 0.369097 59.3677
f 101/235/41 102/236/41 100/237/38 99/238/38 

v -0.349651 1.99239 0.0964792
vt 0.369097 64.6719
vn -0.876148 0.430159 0.21755
v -0.331037 1.99239 0.171446
vt 3.41018 64.6719
vt 3.41018 64.7014
vt 0.369097 64.7014
f 103/239/42 104/240/42 102/241/41 101/242/41 

vt 0.369097 46.6937
vt 3.41018 46.6937
vt 3.41018 46.7232
vn -0.662083 0.731177 0.164397
vt 0.369097 46.7232
f 63/243/40 28/244/40 27/245/43 64/246/43 

vt 0.369097 39.5283
vt 3.41018 39.5283
vt 3.41018 39.5578
vn -0.582317 0.8 0.144591
vt 0.369097 39.5578
f 64/247/43 27/248/43 26/249/44 65/250/44 

vt 0.369097 31.9084
vt 3.41018 31.9084
vt 3.41018 31.9379
vn -0.495859 0.85963 0.123123
vt 0.369097 31.9379
f 65/251/44 26/252/44 25/253/45 66/254/45 

vt 0.369097 23.9217
vt 3.41018 23.9217
vt 3.41018 23.9512
vn -0.403703 0.909382 0.100241
vt 0.369097 23.9512
f 66/255/45 25/256/45 24/257/46 67/258/46 

vt 0.369097 15.66
vt 3.41018 15.66
vt 3.41018 15.6894
vn -0.306908 0.948683 0.0762062
vt 0.369097 15.6894
f 67/259/46 24/260/46 23/261/47 68/262/47 

vt 0.369097 7.21805
vt 3.41018 7.21805
vt 3.41018 7.24752
vn -0.206586 0.977083 0.0512959
vt 0.369097 7.24752
f 68/263/47 23/264/47 22/265/48 69/266/48 

vt 0.369097 -1.30696
vt 3.41018 -1.30696
vt 3.41018 -1.27749
vn -0.10389 0.994254 0.0257962
vt 0.369097 -1.27749
f 69/267/48 22/268/48 21/269/49 70/270/49 

vt 0.369097 -9.81712
vt 3.41018 -9.81712
vt 3.41018 -9.75103
vn -0.0260192 0.999641 0.00646065
vt 0.369097 -9.75103
f 70/271/49 21/272/49 20/273/50 71/274/50 

vn 1.47626e-014 1 -1.81102e-014
v 0.349455 1.99677 0.00247828
vt 13.7581 -0.09757
v 0.33084 1.99677 -0.0724888
vt 13.0252 2.85389
vt 12.5399 2.7334
vt -11.9907 -3.35764
vt -13.4836 -3.72833
vt -12.7508 -6.6798
vt -11.2579 -6.3091
vt 13.2728 -0.218059
f 17/180/51 105/275/51 106/276/51 74/183/51 73/277/51 72/278/51 71/279/50 20/280/50 19/281/51 18/282/51 

