

mtllib Bollard.mtl

g Mesh1 Model

usemtl Concrete_Aggregate_Smoke
v 0.183526 0 -0.0491756
vt -0.602119 0.161337
vn 0 -1 -0
v 0.19 0 -0
vt -0.62336 0
v 0.183526 0 0.0491756
vt -0.602119 -0.161337
v 0.164545 0 0.095
vt -0.539845 -0.31168
v 0.13435 0 0.13435
vt -0.440782 -0.440782
v 0.095 0 0.164545
vt -0.31168 -0.539845
v 0.0491756 0 0.183526
vt -0.161337 -0.602119
v -3.49024e-017 0 0.19
vt 1.14509e-016 -0.62336
v -0.0491756 0 0.183526
vt 0.161337 -0.602119
v -0.095 0 0.164545
vt 0.31168 -0.539845
v -0.13435 0 0.13435
vt 0.440782 -0.440782
v -0.164545 0 0.095
vt 0.539845 -0.31168
v -0.183526 0 0.0491756
vt 0.602119 -0.161337
v -0.19 0 -2.32683e-017
vt 0.62336 7.63395e-017
v -0.183526 0 -0.0491756
vt 0.602119 0.161337
v -0.164545 0 -0.095
vt 0.539845 0.31168
v -0.13435 0 -0.13435
vt 0.440782 0.440782
v -0.095 0 -0.164545
vt 0.31168 0.539845
v -0.0491756 0 -0.183526
vt 0.161337 0.602119
v 1.16341e-017 0 -0.19
vt -3.81698e-017 0.62336
v 0.0491756 0 -0.183526
vt -0.161337 0.602119
v 0.095 0 -0.164545
vt -0.31168 0.539845
v 0.13435 0 -0.13435
vt -0.440782 0.440782
v 0.164545 0 -0.095
vt -0.539845 0.31168
f 1/1/1 2/2/1 3/3/1 4/4/1 5/5/1 6/6/1 7/7/1 8/8/1 9/9/1 10/10/1 11/11/1 12/12/1 13/13/1 14/14/1 15/15/1 16/16/1 17/17/1 18/18/1 19/19/1 20/20/1 21/21/1 22/22/1 23/23/1 24/24/1 

vt 1.38778e-017 0
vn 1 0 2.51956e-016
vt 0.163195 0
vn 0.965926 0 -0.258819
v 0.183526 0.75 -0.0491756
vt 0.163195 2.46063
v 0.19 0.75 -0
vt 1.38778e-017 2.46063
f 2/25/2 1/26/3 25/27/3 26/28/2 

vt 0.32639 0
vn 0.866025 0 -0.5
v 0.164545 0.75 -0.095
vt 0.32639 2.46063
f 1/26/3 24/29/4 27/30/4 25/27/3 

vt 0.489585 0
vn 0.707107 0 -0.707107
v 0.13435 0.75 -0.13435
vt 0.489585 2.46063
f 24/29/4 23/31/5 28/32/5 27/30/4 

vt 0.652781 0
vn 0.5 0 -0.866025
v 0.095 0.75 -0.164545
vt 0.652781 2.46063
f 23/31/5 22/33/6 29/34/6 28/32/5 

vt 0.815976 0
vn 0.258819 0 -0.965926
v 0.0491756 0.75 -0.183526
vt 0.815976 2.46063
f 22/33/6 21/35/7 30/36/7 29/34/6 

vt 0.979171 0
vn 1.6797e-016 0 -1
v 1.16341e-017 0.75 -0.19
vt 0.979171 2.46063
f 21/35/7 20/37/8 31/38/8 30/36/7 

vt 1.14237 0
vn -0.258819 0 -0.965926
v -0.0491756 0.75 -0.183526
vt 1.14237 2.46063
f 20/37/8 19/39/9 32/40/9 31/38/8 

vt 1.30556 0
vn -0.5 0 -0.866025
v -0.095 0.75 -0.164545
vt 1.30556 2.46063
f 19/39/9 18/41/10 33/42/10 32/40/9 

vt 1.46876 0
vn -0.707107 0 -0.707107
v -0.13435 0.75 -0.13435
vt 1.46876 2.46063
f 18/41/10 17/43/11 34/44/11 33/42/10 

vt 1.63195 0
vn -0.866025 0 -0.5
v -0.164545 0.75 -0.095
vt 1.63195 2.46063
f 17/43/11 16/45/12 35/46/12 34/44/11 

vt 1.79515 0
vn -0.965926 0 -0.258819
v -0.183526 0.75 -0.0491756
vt 1.79515 2.46063
f 16/45/12 15/47/13 36/48/13 35/46/12 

vt 1.95834 0
vn -1 0 -3.35941e-016
v -0.19 0.75 -2.32683e-017
vt 1.95834 2.46063
f 15/47/13 14/49/14 37/50/14 36/48/13 

vt 2.12154 0
vn -0.965926 0 0.258819
v -0.183526 0.75 0.0491756
vt 2.12154 2.46063
f 14/49/14 13/51/15 38/52/15 37/50/14 

vt 2.28473 0
vn -0.866025 0 0.5
v -0.164545 0.75 0.095
vt 2.28473 2.46063
f 13/51/15 12/53/16 39/54/16 38/52/15 

vt 2.44793 0
vn -0.707107 0 0.707107
v -0.13435 0.75 0.13435
vt 2.44793 2.46063
f 12/53/16 11/55/17 40/56/17 39/54/16 

vt 2.61112 0
vn -0.5 0 0.866025
v -0.095 0.75 0.164545
vt 2.61112 2.46063
f 11/55/17 10/57/18 41/58/18 40/56/17 

vt 2.77432 0
vn -0.258819 0 0.965926
v -0.0491756 0.75 0.183526
vt 2.77432 2.46063
f 10/57/18 9/59/19 42/60/19 41/58/18 

vt 2.93751 0
vn -4.61919e-016 0 1
v -3.49024e-017 0.75 0.19
vt 2.93751 2.46063
f 9/59/19 8/61/20 43/62/20 42/60/19 

vt 3.10071 0
vn 0.258819 0 0.965926
v 0.0491756 0.75 0.183526
vt 3.10071 2.46063
f 8/61/20 7/63/21 44/64/21 43/62/20 

vt 3.2639 0
vn 0.5 0 0.866025
v 0.095 0.75 0.164545
vt 3.2639 2.46063
f 7/63/21 6/65/22 45/66/22 44/64/21 

vt 3.4271 0
vn 0.707107 0 0.707107
v 0.13435 0.75 0.13435
vt 3.4271 2.46063
f 6/65/22 5/67/23 46/68/23 45/66/22 

vt 3.59029 0
vn 0.866025 0 0.5
v 0.164545 0.75 0.095
vt 3.59029 2.46063
f 5/67/23 4/69/24 47/70/24 46/68/23 

vt 3.75349 0
vn 0.965926 0 0.258819
v 0.183526 0.75 0.0491756
vt 3.75349 2.46063
f 4/69/24 3/71/25 48/72/25 47/70/24 

vt 3.91668 0
vt 3.91668 2.46063
f 3/71/25 2/73/2 26/74/2 48/72/25 

vn 0 1 -0
vt 0.62336 0
f 25/15/26 48/13/26 26/75/26

f 27/16/26 48/13/26 25/15/26

f 27/16/26 47/12/26 48/13/26

v 0.15 0.75 -2.75546e-017
vt 0.492126 9.04021e-017
f 27/16/26 49/76/26 47/12/26

v 0.144889 0.75 -0.0388229
vt 0.475357 0.127372
f 27/16/26 50/77/26 49/76/26

f 28/17/26 50/77/26 27/16/26

v 0.129904 0.75 -0.075
vt 0.426194 0.246063
f 28/17/26 51/78/26 50/77/26

v 0.106066 0.75 -0.106066
vt 0.347986 0.347986
f 28/17/26 52/79/26 51/78/26

f 29/18/26 52/79/26 28/17/26

v 0.075 0.75 -0.129904
vt 0.246063 0.426194
f 29/18/26 53/80/26 52/79/26

f 30/19/26 53/80/26 29/18/26

v 0.0388229 0.75 -0.144889
vt 0.127372 0.475357
f 30/19/26 54/81/26 53/80/26

vt 3.81698e-017 0.62336
f 31/82/26 54/81/26 30/19/26

v -1.83697e-017 0.75 -0.15
vt -6.02681e-017 0.492126
f 31/82/26 55/83/26 54/81/26

v -0.0388229 0.75 -0.144889
vt -0.127372 0.475357
f 31/82/26 56/84/26 55/83/26

f 32/21/26 56/84/26 31/82/26

v -0.075 0.75 -0.129904
vt -0.246063 0.426194
f 32/21/26 57/85/26 56/84/26

f 33/22/26 57/85/26 32/21/26

v -0.106066 0.75 -0.106066
vt -0.347986 0.347986
f 33/22/26 58/86/26 57/85/26

v -0.129904 0.75 -0.075
vt -0.426194 0.246063
f 33/22/26 59/87/26 58/86/26

f 34/23/26 59/87/26 33/22/26

v -0.144889 0.75 -0.0388229
vt -0.475357 0.127372
f 34/23/26 60/88/26 59/87/26

v -0.15 0.75 9.18485e-018
vt -0.492126 -3.0134e-017
f 34/23/26 61/89/26 60/88/26

f 61/89/26 34/23/26 35/24/26

f 35/24/26 40/5/26 61/89/26

f 35/24/26 39/4/26 40/5/26

f 36/1/26 39/4/26 35/24/26

f 36/1/26 38/3/26 39/4/26

vt -0.62336 7.63395e-017
f 38/3/26 36/1/26 37/90/26

v -0.144889 0.75 0.0388229
vt -0.475357 -0.127372
f 61/89/26 40/5/26 62/91/26

v -0.129904 0.75 0.075
vt -0.426194 -0.246063
f 62/91/26 40/5/26 63/92/26

f 63/92/26 40/5/26 41/6/26

v -0.106066 0.75 0.106066
vt -0.347986 -0.347986
f 63/92/26 41/6/26 64/93/26

v -0.075 0.75 0.129904
vt -0.246063 -0.426194
f 64/93/26 41/6/26 65/94/26

f 65/94/26 41/6/26 42/7/26

v -0.0388229 0.75 0.144889
vt -0.127372 -0.475357
f 65/94/26 42/7/26 66/95/26

vt -1.14509e-016 -0.62336
f 66/95/26 42/7/26 43/96/26

v 0 0.75 0.15
vt 0 -0.492126
f 66/95/26 43/96/26 67/97/26

f 67/97/26 43/96/26 44/9/26

v 0.0388229 0.75 0.144889
vt 0.127372 -0.475357
f 67/97/26 44/9/26 68/98/26

v 0.075 0.75 0.129904
vt 0.246063 -0.426194
f 68/98/26 44/9/26 69/99/26

f 69/99/26 44/9/26 45/10/26

v 0.106066 0.75 0.106066
vt 0.347986 -0.347986
f 69/99/26 45/10/26 70/100/26

f 70/100/26 45/10/26 46/11/26

v 0.129904 0.75 0.075
vt 0.426194 -0.246063
f 70/100/26 46/11/26 71/101/26

v 0.144889 0.75 0.0388229
vt 0.475357 -0.127372
f 71/101/26 46/11/26 72/102/26

f 72/102/26 46/11/26 47/12/26

f 72/102/26 47/12/26 49/76/26

vt -0.0642353 2.46063
vt 0.0642353 2.46063
vn 1 0 -6.29889e-016
v 0.15 0.9 -2.75546e-017
vt 0.0642353 2.95276
v 0.144889 0.9 0.0388229
vt -0.0642353 2.95276
f 72/103/25 49/104/27 73/105/27 74/106/25 

v 0.144889 0.9 -0.0388229
f 49/103/27 50/104/3 75/105/3 73/106/27 

v 0.129904 0.9 -0.075
f 50/103/3 51/104/4 76/105/4 75/106/3 

v 0.106066 0.9 -0.106066
f 51/103/4 52/104/5 77/105/5 76/106/4 

v 0.075 0.9 -0.129904
f 52/103/5 53/104/6 78/105/6 77/106/5 

vn 0.258819 -8.89895e-032 -0.965926
v 0.0388229 0.9 -0.144889
f 53/103/6 54/104/28 79/105/28 78/106/6 

vn -4.47921e-016 7.95857e-019 -1
v -1.83697e-017 0.9 -0.15
f 54/103/28 55/104/29 80/105/29 79/106/28 

vn -0.258819 3.25337e-018 -0.965926
v -0.0388229 0.9 -0.144889
f 55/103/29 56/104/30 81/105/30 80/106/29 

vn -0.5 2.45752e-018 -0.866025
v -0.075 0.9 -0.129904
f 56/103/30 57/104/31 82/105/31 81/106/30 

vn -0.707107 -1.00178e-031 -0.707107
v -0.106066 0.9 -0.106066
f 57/103/31 58/104/32 83/105/32 82/106/31 

vn -0.866025 2.45752e-018 -0.5
v -0.129904 0.9 -0.075
f 58/103/32 59/104/33 84/105/33 83/106/32 

vn -0.965926 2.45752e-018 -0.258819
v -0.144889 0.9 -0.0388229
f 59/103/33 60/104/34 85/105/34 84/106/33 

vn -1 7.95857e-019 2.23961e-016
v -0.15 0.9 9.18485e-018
f 60/103/34 61/104/35 86/105/35 85/106/34 

vn -0.965926 7.95857e-019 0.258819
v -0.144889 0.9 0.0388229
f 61/103/35 62/104/36 87/105/36 86/106/35 

vn -0.866025 -9.46284e-032 0.5
v -0.129904 0.9 0.075
f 62/103/36 63/104/37 88/105/37 87/106/36 

vn -0.707107 -1.65632e-047 0.707107
v -0.106066 0.9 0.106066
f 63/103/37 64/104/38 89/105/38 88/106/37 

vn -0.5 1.96403e-031 0.866025
v -0.075 0.9 0.129904
f 64/103/38 65/104/39 90/105/39 89/106/38 

vn -0.258819 1.68625e-031 0.965926
v -0.0388229 0.9 0.144889
f 65/103/39 66/104/40 91/105/40 90/106/39 

vn 3.77934e-016 0 1
v 0 0.9 0.15
f 66/103/40 67/104/41 92/105/41 91/106/40 

v 0.0388229 0.9 0.144889
f 67/103/41 68/104/21 93/105/21 92/106/41 

v 0.075 0.9 0.129904
f 68/103/21 69/104/22 94/105/22 93/106/21 

v 0.106066 0.9 0.106066
f 69/103/22 70/104/23 95/105/23 94/106/22 

v 0.129904 0.9 0.075
f 70/103/23 71/104/24 96/105/24 95/106/23 

f 71/103/24 72/104/25 74/105/25 96/106/24 

v 0.13435 0.9 0.13435
f 97/5/1 96/92/1 74/91/1

f 97/5/1 95/93/1 96/92/1

v 0.095 0.9 0.164545
f 98/6/1 95/93/1 97/5/1

f 98/6/1 94/94/1 95/93/1

v 0.0491756 0.9 0.183526
f 99/7/1 94/94/1 98/6/1

f 99/7/1 93/95/1 94/94/1

v 5.63993e-018 0.9 0.19
vt -1.85037e-017 -0.62336
f 100/107/1 93/95/1 99/7/1

f 100/107/1 92/97/1 93/95/1

f 100/107/1 91/98/1 92/97/1

v -0.0491756 0.9 0.183526
f 101/9/1 91/98/1 100/107/1

f 101/9/1 90/99/1 91/98/1

v -0.095 0.9 0.164545
f 102/10/1 90/99/1 101/9/1

f 102/10/1 89/100/1 90/99/1

f 102/10/1 88/101/1 89/100/1

v -0.13435 0.9 0.13435
f 103/11/1 88/101/1 102/10/1

f 103/11/1 87/102/1 88/101/1

vt 0.492126 -3.0134e-017
f 103/11/1 86/108/1 87/102/1

v -0.164545 0.9 -0.095
f 103/11/1 104/16/1 86/108/1

v -0.164545 0.9 0.095
f 105/12/1 104/16/1 103/11/1

v -0.183526 0.9 -0.0491756
f 105/12/1 106/15/1 104/16/1

v -0.183526 0.9 0.0491756
f 107/13/1 106/15/1 105/12/1

v -0.19 0.9 -7.89591e-017
vt 0.62336 2.59052e-016
f 106/15/1 107/13/1 108/109/1

vt 3.2639 -4.44089e-016
vn -1 0 -4.75916e-016
vt 3.4271 -4.44089e-016
v -0.183526 1 0.0491756
vt 3.4271 0.328084
v -0.19 1 -7.89591e-017
vt 3.2639 0.328084
f 108/110/42 107/111/15 109/112/15 110/113/42 

v -0.164545 1 0.095
vt 3.59029 0.328084
f 107/67/15 105/69/16 111/114/16 109/112/15 

vt 3.59029 -4.44089e-016
vt 3.75349 -4.44089e-016
v -0.13435 1 0.13435
vt 3.75349 0.328084
f 105/115/16 103/116/17 112/117/17 111/114/16 

v -0.095 1 0.164545
vt 3.91668 0.328084
f 103/71/17 102/73/18 113/118/18 112/117/17 

vt -4.16334e-017 0
v -0.0491756 1 0.183526
vt 0.163195 0.328084
vt -4.16334e-017 0.328084
f 102/119/18 101/26/19 114/120/19 113/121/18 

vt 0.163195 -4.44089e-016
vt 0.32639 -4.44089e-016
vn -2.79951e-017 0 1
v 5.63993e-018 1 0.19
vt 0.32639 0.328084
f 101/122/19 100/123/43 115/124/43 114/120/19 

v 0.0491756 1 0.183526
vt 0.489585 0.328084
f 100/29/43 99/31/21 116/125/21 115/124/43 

v 0.095 1 0.164545
vt 0.652781 0.328084
f 99/31/21 98/33/22 117/126/22 116/125/21 

v 0.13435 1 0.13435
vt 0.815976 0.328084
f 98/33/22 97/35/23 118/127/23 117/126/22 

v 0.164545 0.9 0.095
v 0.164545 1 0.095
vt 0.979171 0.328084
f 97/35/23 119/37/24 120/128/24 118/127/23 

f 97/5/1 74/91/1 119/4/1

vt -0.492126 9.04021e-017
f 119/4/1 74/91/1 73/129/1

v 0.164545 0.9 -0.095
f 119/4/1 73/129/1 121/24/1

f 75/88/1 121/24/1 73/129/1

v 0.13435 0.9 -0.13435
f 75/88/1 122/23/1 121/24/1

f 76/87/1 122/23/1 75/88/1

f 77/86/1 122/23/1 76/87/1

v 0.095 0.9 -0.164545
f 77/86/1 123/22/1 122/23/1

f 78/85/1 123/22/1 77/86/1

v 0.0491756 0.9 -0.183526
f 78/85/1 124/21/1 123/22/1

f 79/84/1 124/21/1 78/85/1

vt 6.02681e-017 0.492126
f 80/130/1 124/21/1 79/84/1

v -3.94795e-017 0.9 -0.19
vt 1.29526e-016 0.62336
f 80/130/1 125/131/1 124/21/1

f 81/81/1 125/131/1 80/130/1

v -0.0491756 0.9 -0.183526
f 81/81/1 126/19/1 125/131/1

f 82/80/1 126/19/1 81/81/1

v -0.095 0.9 -0.164545
f 82/80/1 127/18/1 126/19/1

f 83/79/1 127/18/1 82/80/1

f 84/78/1 127/18/1 83/79/1

v -0.13435 0.9 -0.13435
f 84/78/1 128/17/1 127/18/1

f 85/77/1 128/17/1 84/78/1

f 86/108/1 128/17/1 85/77/1

f 128/17/1 86/108/1 104/16/1

v -0.164545 1 -0.095
vt 2.93751 0.328084
v -0.13435 1 -0.13435
vt 2.77432 0.328084
f 128/59/11 104/61/12 129/132/12 130/133/11 

vt 2.93751 -4.44089e-016
vt 3.10071 -4.44089e-016
v -0.183526 1 -0.0491756
vt 3.10071 0.328084
f 104/134/12 106/135/13 131/136/13 129/132/12 

f 106/135/13 108/110/42 110/113/42 131/136/13 

vt 1.85037e-017 -0.62336
v 0.183526 1 0.0491756
v 0.19 1 -1.12799e-017
vt 0.62336 3.70074e-017
v 0.183526 1 -0.0491756
v 0.164545 1 -0.095
v 0.13435 1 -0.13435
v 0.095 1 -0.164545
v 0.0491756 1 -0.183526
v -3.94795e-017 1 -0.19
vt -1.29526e-016 0.62336
v -0.0491756 1 -0.183526
v -0.095 1 -0.164545
vt -0.62336 2.59052e-016
f 112/5/26 113/6/26 114/7/26 115/137/26 116/9/26 117/10/26 118/11/26 120/12/26 132/13/26 133/138/26 134/15/26 135/16/26 136/17/26 137/18/26 138/19/26 139/139/26 140/21/26 141/22/26 130/23/26 129/24/26 131/1/26 110/140/26 109/3/26 111/4/26 

v 0.183526 0.9 0.0491756
vt 1.14237 0.328084
f 119/37/24 142/39/25 132/141/25 120/128/24 

v 0.183526 0.9 -0.0491756
f 119/4/1 143/1/1 142/3/1

f 119/4/1 121/24/1 143/1/1

vt 1.63195 0.328084
vt 1.46876 0.328084
f 143/43/3 121/45/4 135/142/4 134/143/3 

vt 1.63195 -4.44089e-016
vt 1.79515 -4.44089e-016
vt 1.79515 0.328084
f 121/144/4 122/145/5 136/146/5 135/142/4 

vt 1.95834 -4.44089e-016
vt 1.95834 0.328084
f 122/145/5 123/147/6 137/148/6 136/146/5 

vt 2.12154 0.328084
f 123/49/6 124/51/7 138/149/7 137/148/6 

vt 2.12154 4.44089e-016
vt 2.28473 4.44089e-016
vn 3.21943e-016 0 -1
vt 2.28473 0.328084
f 124/150/7 125/151/44 139/152/44 138/149/7 

vt 2.44793 0.328084
f 125/53/44 126/55/9 140/153/9 139/152/44 

vt 2.61112 0.328084
f 126/55/9 127/57/10 141/154/10 140/153/9 

f 127/57/10 128/59/11 130/133/11 141/154/10 

v 0.19 0.9 -1.12799e-017
vt 1.30556 4.44089e-016
vn 1 0 -3.77934e-016
vt 1.46876 4.44089e-016
vt 1.30556 0.328084
f 144/155/45 143/156/3 134/143/3 133/157/45 

vt -0.62336 3.70074e-017
f 142/3/1 143/1/1 144/158/1

vt 1.14237 -4.44089e-016
vt 1.30556 -4.44089e-016
f 142/159/25 144/160/45 133/157/45 132/141/25 

