# This file uses centimeters as units for non-parametric coordinates.

mtllib parkingMeter.mtl
v 0.000000 1.941988 0.000000
v 0.038022 1.939221 0.000000
v 0.085977 1.922621 0.000000
v 0.131166 1.878355 0.000000
v 0.149611 1.822099 0.000000
v 0.139466 1.759387 0.000000
v 0.099811 1.710509 0.000000
v 0.088744 1.561109 0.000000
v 0.061077 1.406175 0.000000
v 0.000000 1.400000 0.000000
v -0.061077 1.406175 0.000000
v -0.088744 1.561109 0.000000
v -0.099811 1.710509 0.000000
v -0.139466 1.759387 0.000000
v -0.149611 1.822099 0.000000
v -0.131166 1.878355 0.000000
v -0.085977 1.922621 0.000000
v -0.038022 1.939221 0.000000
v -0.034641 0.000000 0.000000
v 0.034641 0.000000 0.000000
v -0.009140 1.400261 0.000539
v 0.009140 1.400261 0.000540
v 0.000000 0.000000 0.034641
v 0.000000 0.000000 -0.034641
v 0.000000 1.400261 0.009680
v 0.000000 1.400261 -0.008601
vt 0.721344 0.996552
vt 0.786512 0.991482
vt 0.868709 0.961065
vt 0.946163 0.879954
vt 0.977776 0.776874
vt 0.960389 0.661966
vt 0.892419 0.572406
vt 0.873451 0.298654
vt 0.826030 0.014763
vt 0.721344 0.003448
vt 0.616658 0.014763
vt 0.569237 0.298654
vt 0.550269 0.572406
vt 0.482299 0.661966
vt 0.464911 0.776874
vt 0.496525 0.879954
vt 0.573979 0.961065
vt 0.656175 0.991482
vt 0.044958 -0.000000
vt 0.438689 -0.000000
vt 0.398188 1.000000
vt 0.085458 1.000000
vt 0.044958 -0.000000
vt 0.438689 -0.000000
vt 0.398188 1.000000
vt 0.085458 1.000000
vn 0.000000 0.000000 -1.000000
vn 0.000000 0.000000 -1.000000
vn 0.000000 0.000000 -1.000000
vn 0.000000 0.000000 -1.000000
vn 0.000000 0.000000 -1.000000
vn 0.000000 0.000000 -1.000000
vn 0.000000 0.000000 -1.000000
vn 0.000000 0.000000 -1.000000
vn 0.000000 0.000000 -1.000000
vn 0.000000 0.000000 -1.000000
vn 0.000000 0.000000 -1.000000
vn 0.000000 0.000000 -1.000000
vn 0.000000 0.000000 -1.000000
vn 0.000000 0.000000 -1.000000
vn 0.000000 0.000000 -1.000000
vn 0.000000 0.000000 -1.000000
vn 0.000000 0.000000 -1.000000
vn 0.000000 0.000000 -1.000000
vn -0.000000 -0.000385 1.000000
vn -0.000000 -0.000385 1.000000
vn -0.000000 -0.000385 1.000000
vn -0.000000 -0.000385 1.000000
vn 1.000000 0.000000 0.000000
vn 1.000000 0.000000 0.000000
vn 1.000000 0.000000 0.000000
vn 1.000000 0.000000 0.000000
s off
g pasted__parkingMeter_1 group
usemtl pasted__lambert900SG
f 1/1/1 2/2/2 3/3/3 4/4/4 5/5/5 6/6/6 7/7/7 8/8/8 9/9/9 10/10/10 11/11/11 12/12/12 13/13/13 14/14/14 15/15/15 16/16/16 17/17/17 18/18/18
f 19/19/19 20/20/20 22/21/21 21/22/22
f 23/23/23 24/24/24 26/25/25 25/26/26
