
mtllib Planter_Low_LOD.mtl

g Mesh1 Orchid1 Model

usemtl Orchids_Billboard
v 0.101393 0.74632 0.298745
vt 0 0
vn -3.9338e-033 -8.12401e-018 -0.0288331
v -0.216291 0.74632 0.298745
vt 1 0
v -0.216291 1.25773 0.298745
vt 1 1
v 0.101393 1.25773 0.298745
vt 0 1
f 1/1/1 2/2/1 3/3/1 4/4/1 

g Mesh2 Orchid1 Model

v -0.0430092 0.74632 0.453453
vn 0.0269125 -8.12401e-018 2.32226e-017
v -0.0430092 0.74632 0.113096
v -0.0430092 1.25773 0.113096
v -0.0430092 1.25773 0.453453
f 5/1/2 6/2/2 7/3/2 8/4/2 

g Mesh3 Orchid2 Model

v 0.313302 0.74632 0.12122
v -0.00438215 0.74632 0.12122
v -0.00438215 1.25773 0.12122
v 0.313302 1.25773 0.12122
f 9/1/1 10/2/1 11/3/1 12/4/1 

g Mesh4 Orchid2 Model

v 0.1689 0.74632 0.275927
v 0.1689 0.74632 -0.0644293
v 0.1689 1.25773 -0.0644293
v 0.1689 1.25773 0.275927
f 13/1/2 14/2/2 15/3/2 16/4/2 

g Mesh5 Orchid3 Model

v 0.588784 0.74632 0.219381
v 0.2711 0.74632 0.219381
v 0.2711 1.25773 0.219381
v 0.588784 1.25773 0.219381
f 17/1/1 18/2/1 19/3/1 20/4/1 

g Mesh6 Orchid3 Model

v 0.444382 0.74632 0.374089
v 0.444382 0.74632 0.0337323
v 0.444382 1.25773 0.0337323
v 0.444382 1.25773 0.374089
f 21/1/2 22/2/2 23/3/2 24/4/2 

g Mesh7 Orchid4 Model

v 0.694738 0.74632 0.41877
v 0.377054 0.74632 0.41877
v 0.377054 1.25773 0.41877
v 0.694738 1.25773 0.41877
f 25/1/1 26/2/1 27/3/1 28/4/1 

g Mesh8 Orchid4 Model

v 0.550336 0.74632 0.573477
v 0.550336 0.74632 0.233121
v 0.550336 1.25773 0.233121
v 0.550336 1.25773 0.573477
f 29/1/2 30/2/2 31/3/2 32/4/2 

g Mesh9 Orchid5 Model

v 0.461638 0.74632 0.161272
v 0.143954 0.74632 0.161272
v 0.143954 1.25773 0.161272
v 0.461638 1.25773 0.161272
f 33/1/1 34/2/1 35/3/1 36/4/1 

g Mesh10 Orchid5 Model

v 0.317236 0.74632 0.315979
v 0.317236 0.74632 -0.024377
v 0.317236 1.25773 -0.024377
v 0.317236 1.25773 0.315979
f 37/1/2 38/2/2 39/3/2 40/4/2 

g Mesh11 Orchid6 Model

v -0.0419215 0.74632 0.134111
v -0.359605 0.74632 0.134111
v -0.359605 1.25773 0.134111
v -0.0419215 1.25773 0.134111
f 41/1/1 42/2/1 43/3/1 44/4/1 

g Mesh12 Orchid6 Model

v -0.186323 0.74632 0.288818
v -0.186323 0.74632 -0.0515378
v -0.186323 1.25773 -0.0515378
v -0.186323 1.25773 0.288818
f 45/1/2 46/2/2 47/3/2 48/4/2 

g Mesh13 Orchid7 Model

v 0.168797 0.74632 0.174111
v -0.148887 0.74632 0.174111
v -0.148887 1.25773 0.174111
v 0.168797 1.25773 0.174111
f 49/1/1 50/2/1 51/3/1 52/4/1 

g Mesh14 Orchid7 Model

v 0.0243949 0.74632 0.328818
v 0.0243949 0.74632 -0.0115378
v 0.0243949 1.25773 -0.0115378
v 0.0243949 1.25773 0.328818
f 53/1/2 54/2/2 55/3/2 56/4/2 

g Mesh15 Orchid8 Model

v 0.207347 0.725004 0.399758
v -0.110337 0.725004 0.399758
v -0.110337 1.23642 0.399758
v 0.207347 1.23642 0.399758
f 57/1/1 58/2/1 59/3/1 60/4/1 

g Mesh16 Orchid8 Model

v 0.0629454 0.725004 0.554465
v 0.0629454 0.725004 0.214109
v 0.0629454 1.23642 0.214109
v 0.0629454 1.23642 0.554465
f 61/1/2 62/2/2 63/3/2 64/4/2 

g Mesh17 Orchid9 Model

v -0.0219215 0.74632 0.333034
v -0.339605 0.74632 0.333034
v -0.339605 1.25773 0.333034
v -0.0219215 1.25773 0.333034
f 65/1/1 66/2/1 67/3/1 68/4/1 

g Mesh18 Orchid9 Model

v -0.166323 0.74632 0.487741
v -0.166323 0.74632 0.147385
v -0.166323 1.25773 0.147385
v -0.166323 1.25773 0.487741
f 69/1/2 70/2/2 71/3/2 72/4/2 

g Mesh19 Orchid10 Model

v 0.472234 0.74632 0.412036
v 0.15455 0.74632 0.412036
v 0.15455 1.25773 0.412036
v 0.472234 1.25773 0.412036
f 73/1/1 74/2/1 75/3/1 76/4/1 

g Mesh20 Orchid10 Model

v 0.327832 0.74632 0.566744
v 0.327832 0.74632 0.226388
v 0.327832 1.25773 0.226388
v 0.327832 1.25773 0.566744
f 77/1/2 78/2/2 79/3/2 80/4/2 

g Mesh21 Orchid11 Model

v 0.827659 0.74632 0.191005
v 0.509976 0.74632 0.191005
v 0.509976 1.25773 0.191005
v 0.827659 1.25773 0.191005
f 81/1/1 82/2/1 83/3/1 84/4/1 

g Mesh22 Orchid11 Model

v 0.683258 0.74632 0.345713
v 0.683258 0.74632 0.0053566
v 0.683258 1.25773 0.0053566
v 0.683258 1.25773 0.345713
f 85/1/2 86/2/2 87/3/2 88/4/2 

g Mesh23 Orchid12 Model

v 0.883838 0.74632 0.43338
v 0.566154 0.74632 0.43338
v 0.566154 1.25773 0.43338
v 0.883838 1.25773 0.43338
f 89/1/1 90/2/1 91/3/1 92/4/1 

g Mesh24 Orchid12 Model

v 0.739436 0.74632 0.588087
v 0.739436 0.74632 0.247731
v 0.739436 1.25773 0.247731
v 0.739436 1.25773 0.588087
f 93/1/2 94/2/2 95/3/2 96/4/2 

g Mesh25 Orchid13 Model

v 0.313302 0.768889 0.374781
v -0.00438215 0.768889 0.374781
v -0.00438215 1.2803 0.374781
v 0.313302 1.2803 0.374781
f 97/1/1 98/2/1 99/3/1 100/4/1 

g Mesh26 Orchid13 Model

v 0.1689 0.768889 0.529488
v 0.1689 0.768889 0.189132
v 0.1689 1.2803 0.189132
v 0.1689 1.2803 0.529488
f 101/1/2 102/2/2 103/3/2 104/4/2 

g Mesh27 Orchid14 Model

v 0.697659 0.74632 0.141005
v 0.379976 0.74632 0.141005
v 0.379976 1.25773 0.141005
v 0.697659 1.25773 0.141005
f 105/1/1 106/2/1 107/3/1 108/4/1 

g Mesh28 Orchid14 Model

v 0.553258 0.74632 0.295713
v 0.553258 0.74632 -0.0446434
v 0.553258 1.25773 -0.0446434
v 0.553258 1.25773 0.295713
f 109/1/2 110/2/2 111/3/2 112/4/2 

g Mesh29 Model

usemtl _8
v -0.25 0 -0
vt 0.25 0
vn 0 -1 -0
v 0.75 0 -0
vt -0.75 0
v 0.75 0 0.5
vt -0.75 -0.5
v -0.25 0 0.5
vt 0.25 -0.5
f 113/5/3 114/6/3 115/7/3 116/8/3 

vt 0.25 1.74517e-020
vn -9.77295e-019 -0.071247 -0.997459
v -0.35 0.7 -0.05
vt 0.35 0.701783
v 0.86 0.7 -0.05
vt -0.86 0.701783
vt -0.75 -5.23551e-020
f 113/9/4 117/10/4 118/11/4 114/12/4 

v -0.35 0.7 0.555
vt 0.555 0.742462
vn -0.989949 -0.141421 5.27646e-018
vt -0.05 0.742462
vt -1.33251e-018 0.0353553
vt 0.5 0.0353553
f 119/13/5 117/14/5 113/15/5 116/16/5 

usemtl _2
vt -0.05 0.7
vn -1 0 -0
vt 0.555 0.7
v -0.35 0.77 0.555
vt 0.555 0.77
v -0.35 0.77 -0.05
vt -0.05 0.77
f 117/17/6 119/18/6 120/19/6 121/20/6 

vt -0.35 0.7
vn 0 0 1
v 0.86 0.7 0.555
vt 0.86 0.7
v 0.86 0.77 0.555
vt 0.86 0.77
vt -0.35 0.77
f 119/21/7 122/22/7 123/23/7 120/24/7 

usemtl _8
vt 0.75 0.039165
vn 1.4847e-018 -0.07833 0.996927
vt 0.86 0.741322
vt -0.35 0.741322
vt -0.25 0.039165
f 115/25/8 122/26/8 119/27/8 116/28/8 

vt -0.555 0.825019
vn 0.987877 -0.155238 4.49109e-018
vt -0.5 0.116428
vt 3.40965e-018 0.116428
vt 0.05 0.825019
f 122/29/9 115/30/9 114/31/9 118/32/9 

usemtl _2
vt -0.555 0.7
vn 1 0 -0
vt 0.05 0.7
v 0.86 0.77 -0.05
vt 0.05 0.77
vt -0.555 0.77
f 122/33/10 118/34/10 124/35/10 123/36/10 

vt -0.86 0.7
vn 0 0 -1
vt 0.35 0.7
vt 0.35 0.77
vt -0.86 0.77
f 118/37/11 117/38/11 121/39/11 124/40/11 

vt -0.35 0.05
vn 0 1 -0
v -0.27 0.77 0.03
vt -0.27 -0.03
vt 0.86 0.05
f 121/41/12 125/42/12 124/43/12

v -0.27 0.77 0.475
vt -0.27 -0.475
f 125/42/12 121/41/12 126/44/12

vt -0.35 -0.555
f 120/45/12 126/44/12 121/41/12

vt 0.86 -0.555
f 126/44/12 120/45/12 123/46/12

v 0.78 0.77 0.475
vt 0.78 -0.475
f 126/44/12 123/46/12 127/47/12

v 0.78 0.77 0.03
vt 0.78 -0.03
f 127/47/12 123/46/12 128/48/12

f 124/43/12 128/48/12 123/46/12

f 124/43/12 125/42/12 128/48/12

v 0.78 0.76 0.03
vt 0.78 0.76
vt 0.78 0.77
vt -0.27 0.77
v -0.27 0.76 0.03
vt -0.27 0.76
f 129/49/7 128/50/7 125/51/7 130/52/7 

vt 0.475 0.77
vt 0.03 0.77
vt 0.03 0.76
v 0.78 0.76 0.475
vt 0.475 0.76
f 127/53/6 128/54/6 129/55/6 131/56/6 

usemtl _6
v -0.27 0.76 0.475
f 130/42/12 132/44/12 131/47/12 129/48/12 

usemtl _2
vt -0.03 0.77
vt -0.475 0.77
vt -0.475 0.76
vt -0.03 0.76
f 125/57/10 126/58/10 132/59/10 130/60/10 

vt -0.78 0.76
vt 0.27 0.76
vt 0.27 0.77
vt -0.78 0.77
f 131/61/11 132/62/11 126/63/11 127/64/11 

