
# File units = inches

mtllib Speedhump.mtl

g Mesh1 Model

usemtl Concrete_Stamped_Ashlar
v 6.69142 1.81975 -0
vt 0.139405 0.0473893
vn 0 0 1
v 0 0 -0
vt 0 0
v 82.0625 0 -0
vt 1.70964 0
v 75.3711 1.81975 -0
vt 1.57023 0.0473893
v 68.5996 3.31445 -0
vt 1.42916 0.0863138
v 61.764 4.48062 -0
vt 1.28675 0.116683
v 54.88 5.31555 -0
vt 1.14333 0.138426
v 47.9637 5.81729 -0
vt 0.999243 0.151492
v 41.0313 5.98466 -0
vt 0.854818 0.155851
v 34.0988 5.81729 -0
vt 0.710392 0.151492
v 27.1825 5.31555 -0
vt 0.566303 0.138426
v 20.2985 4.48062 -0
vt 0.422886 0.116683
v 13.4629 3.31445 -0
vt 0.280476 0.0863138
f 1/1/1 2/2/1 3/3/1 4/4/1 5/5/1 6/6/1 7/7/1 8/8/1 9/9/1 10/10/1 11/11/1 12/12/1 13/13/1 

vt 0 -6.2321
vn -0.262421 0.964953 -0
vt 0.144482 -6.2321
vn -0.239054 0.971006 -0
v 6.69142 1.81975 -239.313
vt 0.144482 0
v 0 0 -239.313
f 2/14/2 1/15/3 14/16/3 15/2/2 

vt 0.288963 -6.2321
vn -0.191915 0.981412 -0
v 13.4629 3.31445 -239.313
vt 0.288963 1.77636e-015
vt 0.144482 1.77636e-015
f 1/15/3 13/17/4 16/18/4 14/19/3 

vt 0.433445 -6.2321
vn -0.144329 0.98953 -0
v 20.2985 4.48062 -239.313
vt 0.433445 -8.88178e-016
vt 0.288963 -8.88178e-016
f 13/17/4 12/20/5 17/21/5 16/22/4 

vt 0.577927 -6.2321
vn -0.0964067 0.995342 -0
v 27.1825 5.31555 -239.313
vt 0.577927 0
vt 0.433445 0
f 12/20/5 11/23/6 18/24/6 17/25/5 

vt 0.722409 -6.2321
vn -0.0482596 0.998835 -0
v 34.0988 5.81729 -239.313
vt 0.722409 8.88178e-016
vt 0.577927 8.88178e-016
f 11/23/6 10/26/7 19/27/7 18/28/6 

vt 0.86689 -6.2321
vn 0 1 -0
v 41.0313 5.98466 -239.313
vt 0.86689 0
vt 0.722409 0
f 10/26/7 9/29/8 20/30/8 19/31/7 

vt 1.01137 -6.2321
vn 0.0482596 0.998835 -0
v 47.9637 5.81729 -239.313
vt 1.01137 0
f 9/29/8 8/32/9 21/33/9 20/30/8 

vt 1.15585 -6.2321
vn 0.0964067 0.995342 -0
v 54.88 5.31555 -239.313
vt 1.15585 0
f 8/32/9 7/34/10 22/35/10 21/33/9 

vt 1.30034 -6.2321
vn 0.144329 0.98953 -0
v 61.764 4.48062 -239.313
vt 1.30034 8.88178e-016
vt 1.15585 8.88178e-016
f 7/34/10 6/36/11 23/37/11 22/38/10 

vt 1.44482 -6.2321
vn 0.191915 0.981412 -0
v 68.5996 3.31445 -239.313
vt 1.44482 0
vt 1.30034 0
f 6/36/11 5/39/12 24/40/12 23/41/11 

vt 1.5893 -6.2321
vn 0.239054 0.971006 -0
v 75.3711 1.81975 -239.313
vt 1.5893 0
f 5/39/12 4/42/13 25/43/13 24/40/12 

vt 1.73378 -6.2321
vn 0.262421 0.964953 -0
v 82.0625 0 -239.313
vt 1.73378 8.88178e-016
vt 1.5893 8.88178e-016
f 4/42/13 3/44/14 26/45/14 25/46/13 

vt 0 6.2321
vn 0 -1 -0
vt -1.70964 6.2321
vt -1.70964 0
f 15/47/15 26/48/15 3/49/15 2/2/15 

vn 0 0 -1
vt -0.139405 0.0473893
vt -0.280476 0.0863138
vt -0.422886 0.116683
vt -0.566303 0.138426
vt -0.710392 0.151492
vt -0.854818 0.155851
vt -0.999243 0.151492
vt -1.14333 0.138426
vt -1.28675 0.116683
vt -1.42916 0.0863138
vt -1.57023 0.0473893
f 15/2/16 14/50/16 16/51/16 17/52/16 18/53/16 19/54/16 20/55/16 21/56/16 22/57/16 23/58/16 24/59/16 25/60/16 26/49/16 

