# This file uses centimeters as units for non-parametric coordinates

mtllib trashBin_red.mtl
v -0.300000 0.000000 0.300000
v 0.300000 0.000000 0.300000
v -0.331806 1.200000 0.331806
v 0.331806 1.200000 0.331806
v -0.331806 1.200000 -0.331806
v 0.331806 1.200000 -0.331806
v -0.300000 0.000000 -0.300000
v 0.300000 0.000000 -0.300000
vt 0.000000 0.000000
vt 1.000000 0.000000
vt 1.000000 1.000000
vt 0.000000 1.000000
vt 0.000000 1.000000
vt 1.000000 1.000000
vt 1.000000 0.000000
vt 0.000000 0.000000
vt 0.000000 0.000000
vt 1.000000 0.000000
vt 1.000000 1.000000
vt 0.000000 1.000000
vt 1.000000 0.000000
vt 0.000000 0.000000
vt 0.000000 1.000000
vt 1.000000 1.000000
vn 0.000000 -0.026496 0.999649
vn 0.000000 -0.026496 0.999649
vn 0.000000 -0.026496 0.999649
vn 0.000000 -0.026496 0.999649
vn 0.000000 -0.026496 -0.999649
vn 0.000000 -0.026496 -0.999649
vn 0.000000 -0.026496 -0.999649
vn 0.000000 -0.026496 -0.999649
vn 0.999649 -0.026496 0.000000
vn 0.999649 -0.026496 0.000000
vn 0.999649 -0.026496 0.000000
vn 0.999649 -0.026496 0.000000
vn -0.999649 -0.026496 0.000000
vn -0.999649 -0.026496 0.000000
vn -0.999649 -0.026496 0.000000
vn -0.999649 -0.026496 0.000000
s off
g pasted__trashCan_1 group
usemtl test:lambert44SG
f 1/1/1 2/2/2 4/3/3 3/4/4
f 5/5/5 6/6/6 8/7/7 7/8/8
f 2/9/9 8/10/10 6/11/11 4/12/12
f 7/13/13 1/14/14 3/15/15 5/16/16
