# This file uses centimeters as units for non-parametric coordinates.

mtllib traffic_light.02.big_with_lamp_and_sign.mtl
g default
v 48.936905 -4.640003 -57.264044
v -67.564071 -4.640003 -57.264044
v -43.174423 3279.693677 -57.264044
v 40.164444 3279.693677 -57.264044
v -67.564071 -4.640003 38.679316
v -43.174423 3279.693677 38.679316
v 48.936905 -4.640003 38.679316
v 40.164444 3279.693677 38.679316
v -362.719345 3932.408765 38.679316
v -362.719345 3932.408765 -57.264044
v -828.265243 4386.787182 38.679316
v -828.265243 4386.787182 -57.264044
v -1475.973251 4589.599682 38.678339
v -1475.973251 4589.599682 -57.264044
v -310.394149 3968.520093 -9.292364
v -15.593368 3409.281079 -9.292364
v -786.344345 4445.849682 -9.292364
v -1462.654892 4646.228589 -9.292364
v -4319.016220 4665.498608 -9.292364
v -4303.108993 4615.376538 -9.292364
v -4388.519149 4556.433179 -9.292364
v -4342.433212 4556.933667 -9.292364
v -362.719345 3932.408765 -57.264044
v -207.344345 5213.177319 38.679316
v -207.344345 5213.177319 -57.264044
v -15.593368 4432.128979 -57.264044
v -15.593368 4432.128979 38.679316
v -781.072860 5840.101147 38.679316
v -781.072860 5840.101147 -57.264044
v 40.164444 4434.227124 -9.292364
v -164.270126 5238.870679 -9.292364
v -757.616806 5878.121655 -9.292364
v -1322.357040 6061.625561 -9.292364
v -1316.860946 6015.593823 -9.292364
v -4538.941024 3856.500073 0.013300
v -4201.339462 3856.500073 0.013300
v -4201.339462 4563.019604 0.013300
v -4538.941024 4563.019604 0.013300
v -124.893173 1661.650708 -130.801153
v -124.893173 2269.257641 -130.801153
v -127.164657 2269.257641 85.252558
v -127.164657 1661.650708 85.252558
v -233.347274 1661.650708 -131.941778
v -235.619735 1661.650708 84.111933
v -235.619735 2269.257641 84.111933
v -233.347274 2269.257641 -131.941778
v -119.813095 1661.650708 91.859980
v -119.813095 2269.257641 91.859980
v 96.251358 2269.257641 91.515253
v 96.251358 1661.650708 91.515253
v -119.640243 1661.650708 200.319941
v 96.424210 1661.650708 199.975214
v 96.424210 2269.257641 199.975214
v -119.640243 2269.257641 200.319941
v 96.620499 1760.544751 -66.057012
v 96.620499 2168.701001 -66.057012
v 292.429093 2168.701001 -66.057012
v 292.429093 1760.544751 -66.057012
v 96.620499 1760.544751 42.402949
v 292.429093 1760.544751 42.402949
v 292.429093 2168.701001 42.402949
v 96.620499 2168.701001 42.402949
v -1322.366806 5978.693432 -4.227911
v -1807.345321 5978.693432 -116.820684
v -1807.345321 6078.040600 -116.820684
v -1322.366806 6078.040600 -4.227911
v -1807.345321 5978.693432 108.365839
v -1807.345321 6078.040600 108.365839
v -3698.621688 4353.698315 0.013300
v -2693.227157 4353.698315 0.013300
v -2693.227157 4571.682690 0.013300
v -3698.621688 4571.682690 0.013300
v -4538.964462 4562.298901 -23.146856
v -4200.226181 4562.298901 -23.146856
v -4200.226181 3856.610181 -23.145879
v -4538.964462 3856.610181 -23.145879
v -3699.915634 4571.120679 -6.677129
v -2695.038681 4571.120679 -6.677129
v -2695.038681 4354.115307 -6.676153
v -3699.915634 4354.115307 -6.676153
v -4303.108993 4615.376538 -9.292364
v -4319.016220 4665.498608 -9.292364
v -1462.654892 4646.228589 -9.292364
v -4319.016220 4665.498608 -9.292364
v -4303.108993 4615.376538 -9.292364
v -4342.433212 4556.933667 -9.292364
vt 0.808560 0.025010
vt 0.790500 0.025400
vt 0.787580 0.520440
vt 0.799030 0.511940
vt 0.793480 0.032970
vt 0.805540 0.032970
vt 0.798730 0.490390
vt 0.789620 0.491660
vt 0.792650 0.026860
vt 0.808150 0.026770
vt 0.797340 0.522920
vt 0.786250 0.522980
vt 0.794030 0.032760
vt 0.806090 0.032760
vt 0.798930 0.490950
vt 0.790520 0.492280
vt 0.773850 0.579750
vt 0.769150 0.578570
vt 0.769950 0.590070
vt 0.767230 0.586590
vt 0.762290 0.605500
vt 0.757460 0.601080
vt 0.755400 0.614580
vt 0.751350 0.611910
vt 0.789750 0.540480
vt 0.696320 0.682380
vt 0.693830 0.679080
vt 0.608190 0.723740
vt 0.610350 0.719780
vt 0.039220 0.737570
vt 0.046070 0.734710
vt 0.035590 0.722070
vt 0.039790 0.722100
vt 0.751300 0.612070
vt 0.755760 0.614600
vt 0.790480 0.532570
vt 0.693970 0.679000
vt 0.696420 0.682340
vt 0.610430 0.719840
vt 0.608260 0.723660
vt 0.716960 0.663590
vt 0.711170 0.663590
vt 0.766260 0.589200
vt 0.768980 0.592690
vt 0.699700 0.677730
vt 0.694980 0.674320
vt 0.796620 0.687300
vt 0.788060 0.687060
vt 0.788600 0.760630
vt 0.785280 0.760340
vt 0.758440 0.836970
vt 0.755000 0.834330
vt 0.713040 0.890940
vt 0.712370 0.885790
vt 0.787910 0.687160
vt 0.796550 0.687300
vt 0.785320 0.760320
vt 0.788680 0.760530
vt 0.755020 0.834490
vt 0.758450 0.836910
vt 0.712270 0.885580
vt 0.713040 0.890930
vt 0.016030 0.611050
vt 0.066700 0.611050
vt 0.066710 0.719700
vt 0.016030 0.719700
vt 0.652410 0.352200
vt 0.652410 0.284590
vt 0.687800 0.284590
vt 0.687800 0.352200
vt 0.560390 0.273630
vt 0.597830 0.273630
vt 0.597830 0.365110
vt 0.560390 0.365110
vt 0.532820 0.364190
vt 0.532820 0.275990
vt 0.539500 0.275990
vt 0.539500 0.364190
vt 0.532480 0.363400
vt 0.532480 0.273200
vt 0.539290 0.273200
vt 0.539300 0.363400
vt 0.649530 0.353150
vt 0.649530 0.283240
vt 0.681950 0.283240
vt 0.681950 0.353150
vt 0.614480 0.284050
vt 0.649550 0.284050
vt 0.649550 0.353860
vt 0.614480 0.353860
vt 0.649870 0.352880
vt 0.649870 0.286220
vt 0.668680 0.286220
vt 0.668680 0.352880
vt 0.652680 0.353740
vt 0.652680 0.283430
vt 0.671450 0.283430
vt 0.671450 0.353740
vt 0.130250 0.091140
vt 0.130250 0.167640
vt 0.154900 0.167640
vt 0.154900 0.091140
vt 0.137980 0.160020
vt 0.103340 0.160020
vt 0.103340 0.174940
vt 0.137980 0.174940
vt 0.109950 0.170260
vt 0.109950 0.084400
vt 0.089100 0.084400
vt 0.089100 0.170260
vt 0.137770 0.678700
vt 0.315290 0.678700
vt 0.315290 0.713080
vt 0.137770 0.713080
vt 0.066190 0.607920
vt 0.016230 0.607920
vt 0.016230 0.500920
vt 0.066190 0.500920
vt 0.317080 0.737220
vt 0.141220 0.739930
vt 0.141220 0.783740
vt 0.317080 0.781030
vt 0.758900 0.605180
vt 0.045880 0.734490
vt 0.039080 0.737550
vt 0.039510 0.722130
vt 0.035580 0.722200
vt 0.769200 0.578390
vt 0.792690 0.508470
vt 0.676300 0.691360
vt 0.154010 0.173340
vt 0.090080 0.173330
vt 0.122050 0.084690
vt 0.224610 0.089390
vt 0.253620 0.161750
vt 0.195610 0.161750
vt 0.652410 0.352200
vt 0.652410 0.284590
vt 0.687800 0.284590
vt 0.687800 0.352200
vt 0.560390 0.273630
vt 0.597830 0.273630
vt 0.597830 0.365110
vt 0.560390 0.365110
vt 0.532820 0.364190
vt 0.532820 0.275990
vt 0.539500 0.275990
vt 0.539500 0.364190
vt 0.532480 0.363400
vt 0.532480 0.273200
vt 0.539290 0.273200
vt 0.539300 0.363400
vt 0.608260 0.723660
vt 0.045880 0.734490
vt 0.039080 0.737550
vt 0.039080 0.737550
vt 0.045880 0.734490
vt 0.039510 0.722130
vn 0.000000 0.000000 -1.000000
vn 0.000000 0.000000 -1.000000
vn 0.117470 0.147230 -0.982102
vn 0.000000 0.176350 -0.984328
vn -0.999972 0.007430 -0.000000
vn -0.999972 0.007430 -0.000000
vn -0.989424 -0.145049 -0.000000
vn -0.954660 -0.297700 -0.000000
vn -0.000000 0.000000 1.000000
vn -0.000000 0.000000 1.000000
vn -0.000000 0.117350 0.993091
vn 0.256060 0.220310 0.941221
vn 0.999996 0.002670 0.000000
vn 0.999996 0.002670 0.000000
vn 0.999998 0.001780 0.000000
vn 0.999999 0.001340 0.000000
vn -0.842518 -0.538669 -0.000000
vn -0.775086 -0.631856 -0.000000
vn -0.954660 -0.297700 -0.000000
vn -0.989424 -0.145049 -0.000000
vn -0.579372 -0.815063 -0.000000
vn -0.442828 -0.896607 -0.000000
vn -0.775086 -0.631856 -0.000000
vn -0.842518 -0.538669 -0.000000
vn -0.204209 -0.978927 -0.000000
vn -0.155650 -0.987812 -0.000000
vn -0.442828 -0.896607 -0.000000
vn -0.579372 -0.815063 -0.000000
vn 0.473160 0.310460 0.824460
vn 0.457108 0.366748 0.810276
vn 0.256060 0.220310 0.941221
vn 0.139850 0.166830 0.976017
vn 0.330649 0.463619 0.822027
vn 0.249760 0.523699 0.814469
vn 0.457108 0.366748 0.810276
vn 0.473160 0.310460 0.824460
vn 0.119750 0.603908 0.788007
vn 0.062800 0.441071 0.895272
vn 0.249760 0.523699 0.814469
vn 0.330649 0.463619 0.822027
vn -0.004460 0.225749 0.974175
vn -0.005670 -0.001800 0.999982
vn 0.062800 0.441071 0.895272
vn 0.119750 0.603908 0.788007
vn -0.000000 0.000000 1.000000
vn -0.000000 0.000000 1.000000
vn -0.005670 -0.001800 0.999982
vn -0.004460 0.225749 0.974175
vn 0.474530 0.315410 -0.821790
vn 0.453828 0.372238 -0.809616
vn 0.340561 0.293091 -0.893373
vn 0.117470 0.147230 -0.982102
vn 0.333370 0.462460 -0.821581
vn 0.251350 0.521720 -0.815250
vn 0.453828 0.372238 -0.809616
vn 0.474530 0.315410 -0.821790
vn 0.115450 0.604078 -0.788518
vn 0.087340 0.631863 -0.770144
vn 0.251350 0.521720 -0.815250
vn 0.333370 0.462460 -0.821581
vn -0.918725 -0.394898 -0.000000
vn -0.838697 -0.544598 -0.000000
vn -0.987120 -0.159980 -0.000000
vn -0.992764 -0.120081 -0.000000
vn -0.613379 -0.789789 -0.000000
vn -0.542242 -0.840223 -0.000000
vn -0.838697 -0.544598 -0.000000
vn -0.918725 -0.394898 -0.000000
vn 0.284890 0.066500 0.956251
vn 0.663072 0.099060 0.741972
vn 0.139850 0.166830 0.976017
vn -0.606658 0.033000 0.794278
vn 0.621593 0.272691 0.734344
vn 0.591570 0.388060 0.706720
vn 0.663072 0.099060 0.741972
vn 0.284890 0.066500 0.956251
vn 0.437291 0.570281 0.695382
vn 0.252989 0.441519 0.860847
vn 0.591570 0.388060 0.706720
vn 0.621593 0.272691 0.734344
vn 0.075320 0.383390 0.920510
vn -0.092770 -0.011080 0.995626
vn 0.252989 0.441519 0.860847
vn 0.437291 0.570281 0.695382
vn 0.257991 0.067130 -0.963812
vn 0.660441 0.121210 -0.741031
vn -0.030090 -0.001460 -0.999546
vn -0.695631 -0.033660 -0.717611
vn 0.621820 0.271240 -0.734690
vn 0.590181 0.389481 -0.707101
vn 0.660441 0.121210 -0.741031
vn 0.257991 0.067130 -0.963812
vn 0.421900 0.580240 -0.696650
vn 0.264761 0.450842 -0.852434
vn 0.590181 0.389481 -0.707101
vn 0.621820 0.271240 -0.734690
vn 0.097940 0.398440 -0.911950
vn 0.000000 0.000000 -1.000000
vn 0.264761 0.450842 -0.852434
vn 0.421900 0.580240 -0.696650
vn -0.000000 0.000000 1.000000
vn -0.000000 0.000000 1.000000
vn -0.000000 0.000000 1.000000
vn -0.000000 0.000000 1.000000
vn 0.999945 0.000000 0.010510
vn 0.999945 0.000000 0.010510
vn 0.999945 0.000000 0.010510
vn 0.999945 0.000000 0.010510
vn -0.999945 0.000000 -0.010520
vn -0.999945 0.000000 -0.010520
vn -0.999945 0.000000 -0.010520
vn -0.999945 0.000000 -0.010520
vn -0.010520 0.000000 0.999945
vn -0.010520 0.000000 0.999945
vn -0.010520 0.000000 0.999945
vn -0.010520 0.000000 0.999945
vn 0.010520 0.000000 -0.999945
vn 0.010520 0.000000 -0.999945
vn 0.010520 0.000000 -0.999945
vn 0.010520 0.000000 -0.999945
vn -0.001600 0.000000 -0.999999
vn -0.001600 0.000000 -0.999999
vn -0.001600 0.000000 -0.999999
vn -0.001600 0.000000 -0.999999
vn 0.001600 0.000000 0.999999
vn 0.001600 0.000000 0.999999
vn 0.001600 0.000000 0.999999
vn 0.001600 0.000000 0.999999
vn 0.999999 0.000000 -0.001590
vn 0.999999 0.000000 -0.001590
vn 0.999999 0.000000 -0.001590
vn 0.999999 0.000000 -0.001590
vn -0.999999 0.000000 0.001590
vn -0.999999 0.000000 0.001590
vn -0.999999 0.000000 0.001590
vn -0.999999 0.000000 0.001590
vn 0.000000 0.000000 -1.000000
vn 0.000000 0.000000 -1.000000
vn 0.000000 0.000000 -1.000000
vn 0.000000 0.000000 -1.000000
vn -0.000000 0.000000 1.000000
vn -0.000000 0.000000 1.000000
vn -0.000000 0.000000 1.000000
vn -0.000000 0.000000 1.000000
vn 1.000000 0.000000 0.000000
vn 1.000000 0.000000 0.000000
vn 1.000000 0.000000 0.000000
vn 1.000000 0.000000 0.000000
vn -1.000000 0.000000 -0.000000
vn -1.000000 0.000000 -0.000000
vn -1.000000 0.000000 -0.000000
vn -1.000000 0.000000 -0.000000
vn 0.226151 0.000000 -0.974092
vn 0.226151 0.000000 -0.974092
vn 0.226151 0.000000 -0.974092
vn 0.226151 0.000000 -0.974092
vn -1.000000 0.000000 -0.000000
vn -1.000000 0.000000 -0.000000
vn -1.000000 0.000000 -0.000000
vn -1.000000 0.000000 -0.000000
vn 0.226151 0.000000 0.974092
vn 0.226151 0.000000 0.974092
vn 0.226151 0.000000 0.974092
vn 0.226151 0.000000 0.974092
vn -0.000000 0.000000 1.000000
vn -0.000000 0.000000 1.000000
vn -0.000000 0.000000 1.000000
vn -0.000000 0.000000 1.000000
vn 0.000000 -0.000000 -1.000000
vn 0.000000 -0.000000 -1.000000
vn 0.000000 -0.000000 -1.000000
vn 0.000000 -0.000000 -1.000000
vn 0.000000 -0.000000 -1.000000
vn 0.000000 -0.000000 -1.000000
vn 0.000000 -0.000000 -1.000000
vn 0.000000 -0.000000 -1.000000
vn -0.155650 -0.987812 -0.000000
vn -0.204209 -0.978927 -0.000000
vn -0.009120 -0.999958 -0.000000
vn 0.256060 0.220310 0.941221
vn -0.000000 0.117350 0.993091
vn 0.139850 0.166830 0.976017
vn 0.000000 0.176350 -0.984328
vn 0.117470 0.147230 -0.982102
vn 0.340561 0.293091 -0.893373
vn 0.000000 0.000000 -1.000000
vn 0.000000 0.000000 -1.000000
vn 0.000000 0.000000 -1.000000
vn 0.087340 0.631863 -0.770144
vn 0.115450 0.604078 -0.788518
vn -0.007030 0.647318 -0.762188
vn 0.000000 0.000000 -1.000000
vn 0.000000 0.000000 -1.000000
vn 0.000000 0.000000 -1.000000
vn 0.000000 0.000000 -1.000000
vn 0.000000 0.000000 -1.000000
vn 0.000000 0.000000 -1.000000
vn 0.999999 0.001340 0.000000
vn 0.999998 0.001780 0.000000
vn 1.000000 0.000000 0.000000
vn -0.992764 -0.120081 -0.000000
vn -0.987120 -0.159980 -0.000000
vn -1.000000 0.000000 -0.000000
vn -0.542242 -0.840223 -0.000000
vn -0.613379 -0.789789 -0.000000
vn -0.311270 -0.950321 -0.000000
vn 0.000000 -1.000000 0.000000
vn 0.000000 -1.000000 0.000000
vn 0.000000 -1.000000 0.000000
vn 0.000000 1.000000 -0.000000
vn 0.000000 1.000000 -0.000000
vn 0.000000 1.000000 -0.000000
s off
g semaforolamplowress01
usemtl semaphorolamp
f 1/1/1 2/2/2 3/3/3 4/4/4
f 2/5/5 5/6/6 6/7/7 3/8/8
f 5/9/9 7/10/10 8/11/11 6/12/12
f 7/13/13 1/14/14 4/15/15 8/16/16
f 9/17/17 10/18/18 3/8/19 6/7/20
f 11/19/21 12/20/22 10/18/23 9/17/24
f 13/21/25 14/22/26 12/20/27 11/19/28
f 15/23/29 9/24/30 6/12/31 16/25/32
f 17/26/33 11/27/34 9/24/35 15/23/36
f 18/28/37 13/29/38 11/27/39 17/26/40
f 19/30/41 20/31/42 13/29/43 18/28/44
f 21/32/45 22/33/46 20/31/47 19/30/48
f 23/34/49 15/35/50 16/36/51 3/3/52
f 12/37/53 17/38/54 15/35/55 23/34/56
f 14/39/57 18/40/58 17/38/59 12/37/60
f 24/41/61 25/42/62 26/43/63 27/44/64
f 28/45/65 29/46/66 25/42/67 24/41/68
f 30/47/69 27/48/70 16/25/71 8/11/72
f 31/49/73 24/50/74 27/48/75 30/47/76
f 32/51/77 28/52/78 24/50/79 31/49/80
f 33/53/81 34/54/82 28/52/83 32/51/84
f 26/55/85 30/56/86 4/4/87 16/36/88
f 25/57/89 31/58/90 30/56/91 26/55/92
f 29/59/93 32/60/94 31/58/95 25/57/96
f 34/61/97 33/62/98 32/60/99 29/59/100
f 35/63/101 36/64/102 37/65/103 38/66/104
f 39/67/105 40/68/106 41/69/107 42/70/108
f 43/71/109 44/72/110 45/73/111 46/74/112
f 42/75/113 41/76/114 45/77/115 44/78/116
f 40/79/117 39/80/118 43/81/119 46/82/120
f 47/137/121 48/138/122 49/139/123 50/140/124
f 51/141/125 52/142/126 53/143/127 54/144/128
f 50/145/129 49/146/130 53/147/131 52/148/132
f 48/149/133 47/150/134 51/151/135 54/152/136
f 55/83/137 56/84/138 57/85/139 58/86/140
f 59/87/141 60/88/142 61/89/143 62/90/144
f 58/91/145 57/92/146 61/93/147 60/94/148
f 56/95/149 55/96/150 59/97/151 62/98/152
f 63/99/153 64/100/154 65/101/155 66/102/156
f 64/103/157 67/104/158 68/105/159 65/106/160
f 67/107/161 63/108/162 66/109/163 68/110/164
f 69/111/165 70/112/166 71/113/167 72/114/168
f 73/115/169 74/116/170 75/117/171 76/118/172
f 77/119/173 78/120/174 79/121/175 80/122/176
f 14/22/177 13/21/178 20/123/179
f 6/12/180 8/11/181 16/25/182
f 4/4/183 3/3/184 16/36/185
f 81/124/186 82/125/187 83/153/188
f 18/40/189 14/39/190 20/154/191
f 22/126/192 21/127/193 19/155/194
f 84/156/195 85/157/196 86/158/197
f 8/16/198 4/15/199 30/128/200
f 27/44/201 26/43/202 16/129/203
f 29/46/204 28/45/205 34/130/206
f 67/131/207 64/132/208 63/133/209
f 66/134/210 65/135/211 68/136/212
