# This file uses centimeters as units for non-parametric coordinates.

mtllib trafficSignal2Way.mtl
v -0.021999 0.000000 -0.023042
v -0.021999 0.000000 0.023042
v 0.043998 0.000000 0.000000
v -0.021999 2.525132 -0.023042
v -0.021999 2.525132 0.023042
v 0.043998 2.525132 0.000000
v -0.139373 2.397500 -0.032720
v -0.139373 2.927968 -0.032720
v 0.139373 2.397500 -0.032720
v 0.139373 2.927968 -0.032720
v -0.139373 2.397500 0.031973
v 0.139373 2.397500 0.031973
v 0.139373 2.927968 0.031973
v -0.139373 2.927968 0.031973
v 0.111828 2.871866 0.026999
v 0.042715 2.917479 0.026999
v -0.042715 2.917479 0.026999
v -0.111828 2.871866 0.026999
v -0.138228 2.798062 0.026999
v -0.111828 2.724259 0.026999
v 0.111828 2.724259 0.026999
v 0.138228 2.798062 0.026999
v 0.111828 2.871866 0.132236
v 0.042715 2.917479 0.170342
v -0.042715 2.917479 0.170342
v -0.111828 2.871866 0.132236
v -0.138228 2.798062 0.110707
v -0.111828 2.724259 0.110707
v 0.111828 2.724259 0.110707
v 0.138228 2.798062 0.110707
v 0.111828 2.615562 0.026999
v 0.042715 2.661175 0.026999
v -0.042715 2.661175 0.026999
v -0.111828 2.615562 0.026999
v -0.138228 2.541759 0.026999
v -0.111828 2.467956 0.026999
v 0.111828 2.467956 0.026999
v 0.138228 2.541759 0.026999
v 0.111828 2.615562 0.132236
v 0.042715 2.661175 0.170342
v -0.042715 2.661175 0.170342
v -0.111828 2.615562 0.132236
v -0.138228 2.541759 0.110707
v -0.111828 2.467956 0.110707
v 0.111828 2.467956 0.110707
v 0.138228 2.541759 0.110707
vt 0.292986 0.000000
vt 0.292986 0.000000
vt 0.292986 1.000000
vt 0.292986 1.000000
vt 0.387774 0.000000
vt 0.387774 1.000000
vt 0.503554 0.260819
vt 0.996210 0.260819
vt 0.996210 0.749244
vt 0.503554 0.749244
vt 0.274169 0.099716
vt 0.274169 0.900283
vt 0.395915 0.900283
vt 0.395915 0.099716
vt 0.304096 -0.552666
vt 0.310208 0.447315
vt 0.453313 0.446440
vt 0.447201 -0.553541
vt 0.360471 0.000000
vt 0.360471 1.000000
vt 0.186623 1.000000
vt 0.186623 0.000000
vt 0.310208 0.447315
vt 0.304096 -0.552666
vt 0.447201 -0.553541
vt 0.453313 0.446440
vt 0.360471 1.000000
vt 0.360471 0.000000
vt 0.186623 0.000000
vt 0.186623 1.000000
vt 0.385635 0.706054
vt 0.347247 0.706054
vt 0.347247 0.293946
vt 0.385635 0.403502
vt 0.299797 0.706054
vt 0.299797 0.293946
vt 0.261409 0.706054
vt 0.261409 0.403502
vt 0.246746 0.706054
vt 0.246746 0.465396
vt 0.261409 0.706054
vt 0.261409 0.465396
vt 0.385635 0.706054
vt 0.400298 0.706054
vt 0.400298 0.465396
vt 0.385635 0.465396
vt 0.385635 0.706054
vt 0.347247 0.706054
vt 0.347247 0.293946
vt 0.385635 0.403502
vt 0.299797 0.706054
vt 0.299797 0.293946
vt 0.261409 0.706054
vt 0.261409 0.403502
vt 0.246746 0.706054
vt 0.246746 0.465396
vt 0.261409 0.706054
vt 0.261409 0.465396
vt 0.385635 0.706054
vt 0.400298 0.706054
vt 0.400298 0.465396
vt 0.385635 0.465396
vn -1.000000 0.000000 -0.000000
vn -1.000000 0.000000 -0.000000
vn -1.000000 0.000000 -0.000000
vn -1.000000 0.000000 -0.000000
vn 0.329623 0.000000 0.944112
vn 0.329623 0.000000 0.944112
vn 0.329623 0.000000 0.944112
vn 0.329623 0.000000 0.944112
vn 0.329623 0.000000 -0.944112
vn 0.329623 0.000000 -0.944112
vn 0.329623 0.000000 -0.944112
vn 0.329623 0.000000 -0.944112
vn 0.000000 0.000000 1.000000
vn 0.000000 0.000000 1.000000
vn 0.000000 0.000000 1.000000
vn 0.000000 0.000000 1.000000
vn 0.000000 0.000000 -1.000000
vn 0.000000 0.000000 -1.000000
vn 0.000000 0.000000 -1.000000
vn 0.000000 0.000000 -1.000000
vn 0.000000 -1.000000 0.000000
vn 0.000000 -1.000000 0.000000
vn 0.000000 -1.000000 0.000000
vn 0.000000 -1.000000 0.000000
vn 1.000000 0.000000 0.000000
vn 1.000000 0.000000 0.000000
vn 1.000000 0.000000 0.000000
vn 1.000000 0.000000 0.000000
vn 0.000000 1.000000 0.000000
vn 0.000000 1.000000 0.000000
vn 0.000000 1.000000 0.000000
vn 0.000000 1.000000 0.000000
vn -1.000000 0.000000 0.000000
vn -1.000000 0.000000 0.000000
vn -1.000000 0.000000 0.000000
vn -1.000000 0.000000 0.000000
vn 0.786620 0.617437 0.000000
vn 0.287556 0.957764 0.000000
vn 0.287556 0.957764 0.000000
vn 0.786620 0.617437 0.000000
vn -0.287556 0.957764 0.000000
vn -0.287556 0.957764 0.000000
vn -0.786620 0.617437 0.000000
vn -0.786620 0.617437 0.000000
vn -1.000000 -0.000001 0.000000
vn -1.000000 -0.000001 0.000000
vn -0.941577 -0.336798 0.000000
vn -0.941577 -0.336798 0.000000
vn 0.941577 -0.336797 0.000000
vn 1.000000 -0.000001 0.000000
vn 1.000000 -0.000001 0.000000
vn 0.941577 -0.336797 0.000000
vn 0.786621 0.617436 0.000000
vn 0.287558 0.957763 0.000000
vn 0.287558 0.957763 0.000000
vn 0.786621 0.617436 0.000000
vn -0.287558 0.957763 0.000000
vn -0.287558 0.957763 0.000000
vn -0.786621 0.617436 0.000000
vn -0.786621 0.617436 0.000000
vn -1.000000 -0.000000 0.000000
vn -1.000000 -0.000000 0.000000
vn -0.941577 -0.336798 0.000000
vn -0.941577 -0.336798 0.000000
vn 0.941577 -0.336798 0.000000
vn 1.000000 0.000000 0.000000
vn 1.000000 0.000000 0.000000
vn 0.941577 -0.336798 0.000000
s off
g pasted__trafficSignal2Way group
usemtl pasted__lambert903SG
f 1/1/1 2/2/2 5/3/3 4/4/4
f 2/2/5 3/5/6 6/6/7 5/3/8
f 3/5/9 1/1/10 4/4/11 6/6/12
f 11/7/13 12/8/14 13/9/15 14/10/16
f 7/11/17 8/12/18 10/13/19 9/14/20
f 7/15/21 9/16/22 12/17/23 11/18/24
f 9/19/25 10/20/26 13/21/27 12/22/28
f 10/23/29 8/24/30 14/25/31 13/26/32
f 8/27/33 7/28/34 11/29/35 14/30/36
s 1
f 15/31/37 16/32/38 24/33/39 23/34/40
f 16/32/38 17/35/41 25/36/42 24/33/39
f 17/35/41 18/37/43 26/38/44 25/36/42
f 18/37/43 19/39/45 27/40/46 26/38/44
f 19/39/45 20/41/47 28/42/48 27/40/46
f 21/43/49 22/44/50 30/45/51 29/46/52
f 22/44/50 15/31/37 23/34/40 30/45/51
s 2
f 31/47/53 32/48/54 40/49/55 39/50/56
f 32/48/54 33/51/57 41/52/58 40/49/55
f 33/51/57 34/53/59 42/54/60 41/52/58
f 34/53/59 35/55/61 43/56/62 42/54/60
f 35/55/61 36/57/63 44/58/64 43/56/62
f 37/59/65 38/60/66 46/61/67 45/62/68
f 38/60/66 31/47/53 39/50/56 46/61/67
