# This file uses centimeters as units for non-parametric coordinates.

mtllib traffic_light.01.with_walking_signs.mtl
g default
v 79.195599 2263.271594 -80.837506
v -78.714557 2263.271594 -80.837506
v -78.714557 2263.271594 77.072772
v 79.195599 2263.271594 77.072772
v 33.295209 -0.786939 -34.937482
v -32.814166 -0.786939 -34.937482
v -22.114948 1660.671740 -24.237531
v 22.595990 1660.671740 -24.237531
v -32.814166 -0.786939 31.172626
v -22.114948 1660.671740 20.472674
v 33.295209 -0.786939 31.172626
v 22.595990 1660.671740 20.472674
v -78.714557 1736.671740 -80.837506
v 79.195599 1736.671740 -80.837506
v -78.714557 1736.671740 77.072772
v 79.195599 1736.671740 77.072772
v 69.101849 1959.681018 -65.099713
v 69.101849 1959.681018 63.688495
v 218.112591 1914.584826 63.688495
v 218.112591 1914.584826 -65.099591
v -43.420612 2245.376574 153.016376
v -24.924518 2241.701770 74.552264
v 24.368451 2241.701770 74.552264
v 42.864545 2245.376574 153.016376
v 68.838177 1934.046740 51.615253
v 68.838177 1934.046740 -53.026349
v 69.101849 2195.110949 -65.099713
v 69.101849 2195.110949 63.688495
v 218.112591 2150.014758 63.688495
v 218.112591 2150.014758 -65.099591
v 68.838177 2169.476672 51.615253
v 68.838177 2169.476672 -53.026349
v 24.368451 2256.236682 74.552264
v -24.924518 2256.236682 74.552264
v -43.420612 2061.636340 153.016376
v -24.924518 2057.961535 74.552264
v 24.368451 2057.961535 74.552264
v 42.864545 2061.636340 153.016376
v 24.368451 2072.496447 74.552264
v -24.924518 2072.496447 74.552264
v -43.420612 1874.117785 153.016376
v -24.924518 1870.442981 74.552264
v 24.368451 1870.442981 74.552264
v 42.864545 1874.117785 153.016376
v 24.368451 1884.977893 74.552264
v -24.924518 1884.977893 74.552264
v 69.101849 1783.848010 -65.099713
v 69.101849 1783.848010 63.688495
v 64.116498 2217.209582 74.552020
v -64.672565 2217.209582 74.552020
v 69.101849 2019.277942 -65.099713
v 69.101849 2019.277942 63.688495
v 64.116498 2033.469348 74.552020
v -64.672565 2033.469348 74.552020
v 64.116498 1845.950793 74.552020
v -64.672565 1845.950793 74.552020
vt 0.939320 0.869740
vt 0.844580 0.869740
vt 0.843440 0.941250
vt 0.939320 0.941250
vt 0.887530 0.189010
vt 0.845570 0.189010
vt 0.853960 0.740670
vt 0.882350 0.740670
vt 0.188420 0.025900
vt 0.130850 0.025900
vt 0.160920 0.752450
vt 0.186820 0.752450
vt 0.461100 0.118840
vt 0.419130 0.118840
vt 0.413760 0.745430
vt 0.442610 0.745430
vt 0.885030 0.180730
vt 0.828740 0.180730
vt 0.855340 0.739400
vt 0.881240 0.739400
vt 0.842270 0.774280
vt 0.942510 0.774280
vt 0.124040 0.778040
vt 0.215510 0.778040
vt 0.355820 0.772790
vt 0.428170 0.772880
vt 0.822560 0.776920
vt 0.914020 0.776920
vt 0.842270 0.970550
vt 0.939320 0.970550
vt 0.122370 0.963040
vt 0.213840 0.963040
vt 0.356400 0.973960
vt 0.428750 0.973890
vt 0.694990 0.778430
vt 0.603530 0.778430
vt 0.603530 0.955780
vt 0.694990 0.955780
vt 0.932730 0.787020
vt 0.932730 0.869240
vt 0.813390 0.869240
vt 0.813390 0.787020
vt 0.849860 0.871460
vt 0.849860 0.803400
vt 0.900100 0.803400
vt 0.900100 0.871460
vt 0.932730 0.956480
vt 0.813390 0.956480
vt 0.940610 0.803400
vt 0.809340 0.803400
vt 0.813390 0.869240
vt 0.813390 0.787020
vt 0.932730 0.787020
vt 0.932730 0.869240
vt 0.813390 0.869240
vt 0.813390 0.787020
vt 0.813390 0.869240
vt 0.813390 0.787020
vt 0.813390 0.787020
vt 0.813390 0.869240
vt 0.900100 0.871460
vt 0.849860 0.871460
vt 0.849860 0.871460
vt 0.849860 0.803400
vt 0.900100 0.803400
vt 0.900100 0.871460
vt 0.900100 0.871460
vt 0.849860 0.871460
vt 0.849860 0.871460
vt 0.900100 0.871460
vt 0.849860 0.871460
vt 0.849860 0.803400
vt 0.900100 0.803400
vt 0.900100 0.871460
vt 0.900100 0.871460
vt 0.849860 0.871460
vt 0.849860 0.871460
vt 0.900100 0.871460
vt 0.932730 0.956480
vt 0.932730 0.869240
vt 0.813390 0.956480
vt 0.932730 0.869240
vt 0.813390 0.869240
vt 0.932730 0.956480
vt 0.932730 0.956480
vt 0.813390 0.956480
vt 0.932730 0.869240
vt 0.813390 0.869240
vt 0.932730 0.869240
vt 0.932730 0.956480
vt 0.813390 0.956480
vt 0.813390 0.956480
vt 0.932730 0.869240
vt 0.813390 0.869240
vt 0.813390 0.869240
vt 0.940610 0.803400
vt 0.849860 0.871460
vt 0.900100 0.803400
vt 0.940610 0.803400
vt 0.900100 0.871460
vt 0.849860 0.871460
vt 0.809340 0.803400
vt 0.849860 0.803400
vt 0.900100 0.871460
vt 0.940610 0.803400
vt 0.940610 0.803400
vt 0.809340 0.803400
vt 0.849860 0.871460
vt 0.849860 0.871460
vt 0.900100 0.803400
vt 0.940610 0.803400
vt 0.900100 0.871460
vt 0.849860 0.871460
vt 0.809340 0.803400
vt 0.849860 0.803400
vt 0.900100 0.871460
vt 0.940610 0.803400
vt 0.940610 0.803400
vt 0.809340 0.803400
vt 0.849860 0.871460
vt 0.849860 0.871460
vn 0.000000 1.000000 -0.000000
vn 0.000000 1.000000 -0.000000
vn 0.000000 1.000000 -0.000000
vn 0.000000 1.000000 -0.000000
vn 0.000000 0.006440 -0.999979
vn 0.000000 0.006440 -0.999979
vn 0.000000 0.006440 -0.999979
vn 0.000000 0.006440 -0.999979
vn -0.999979 0.006440 -0.000000
vn -0.999979 0.006440 -0.000000
vn -0.999979 0.006440 -0.000000
vn -0.999979 0.006440 -0.000000
vn -0.000000 0.006440 0.999979
vn -0.000000 0.006440 0.999979
vn -0.000000 0.006440 0.999979
vn -0.000000 0.006440 0.999979
vn 0.999979 0.006440 0.000000
vn 0.999979 0.006440 0.000000
vn 0.999979 0.006440 0.000000
vn 0.999979 0.006440 0.000000
vn 0.000000 -0.597293 -0.802023
vn 0.000000 -0.597293 -0.802023
vn 0.000000 -0.597293 -0.802023
vn 0.000000 -0.597293 -0.802023
vn -0.802023 -0.597293 -0.000000
vn -0.802023 -0.597293 -0.000000
vn -0.802023 -0.597293 -0.000000
vn -0.802023 -0.597293 -0.000000
vn -0.000000 -0.597299 0.802019
vn -0.000000 -0.597299 0.802019
vn -0.000000 -0.597299 0.802019
vn -0.000000 -0.597299 0.802019
vn 0.802023 -0.597293 0.000000
vn 0.802023 -0.597293 0.000000
vn 0.802023 -0.597293 0.000000
vn 0.802023 -0.597293 0.000000
vn 0.000000 0.000000 -1.000000
vn 0.000000 0.000000 -1.000000
vn 0.000000 0.000000 -1.000000
vn 0.000000 0.000000 -1.000000
vn -1.000000 0.000000 -0.000000
vn -1.000000 0.000000 -0.000000
vn -1.000000 0.000000 -0.000000
vn -1.000000 0.000000 -0.000000
vn -0.000000 0.000000 1.000000
vn -0.000000 0.000000 1.000000
vn -0.000000 0.000000 1.000000
vn -0.000000 0.000000 1.000000
vn 1.000000 0.000000 0.000000
vn 1.000000 0.000000 0.000000
vn 1.000000 0.000000 0.000000
vn 1.000000 0.000000 0.000000
vn 0.289660 0.957130 0.000000
vn 0.289660 0.957130 0.000000
vn 0.289660 0.957130 0.000000
vn 0.289660 0.957130 0.000000
vn 0.178759 -0.979947 0.088030
vn 0.269381 -0.956923 0.108320
vn -0.178759 -0.979947 0.088030
vn -0.269381 -0.956923 0.108320
vn -0.129280 -0.991608 -0.000000
vn -0.129280 -0.991608 -0.000000
vn -0.129280 -0.991608 -0.000000
vn -0.129280 -0.991608 -0.000000
vn 0.289660 0.957130 0.000000
vn 0.289660 0.957130 0.000000
vn 0.289660 0.957130 0.000000
vn 0.289660 0.957130 0.000000
vn -0.129280 -0.991608 -0.000000
vn -0.129280 -0.991608 -0.000000
vn -0.129280 -0.991608 -0.000000
vn -0.129280 -0.991608 -0.000000
vn -0.000000 0.990557 0.137100
vn -0.000000 0.990557 0.137100
vn -0.000000 0.990557 0.137100
vn -0.000000 0.990557 0.137100
vn 0.178759 -0.979947 0.088030
vn 0.269381 -0.956923 0.108320
vn -0.178759 -0.979947 0.088030
vn -0.269381 -0.956923 0.108320
vn -0.000000 0.990557 0.137100
vn -0.000000 0.990557 0.137100
vn -0.000000 0.990557 0.137100
vn -0.000000 0.990557 0.137100
vn 0.178759 -0.979947 0.088030
vn 0.269381 -0.956923 0.108320
vn -0.178759 -0.979947 0.088030
vn -0.269381 -0.956923 0.108320
vn -0.000000 0.990557 0.137100
vn -0.000000 0.990557 0.137100
vn -0.000000 0.990557 0.137100
vn -0.000000 0.990557 0.137100
vn 0.000000 0.000000 -1.000000
vn 0.000000 0.000000 -1.000000
vn 0.000000 0.000000 -1.000000
vn -0.000000 0.000000 1.000000
vn -0.000000 0.000000 1.000000
vn -0.000000 0.000000 1.000000
vn -0.178759 -0.979947 0.088030
vn -0.517713 -0.840194 0.161391
vn -0.269381 -0.956923 0.108320
vn 0.178759 -0.979947 0.088030
vn 0.517713 -0.840194 0.161391
vn 0.269381 -0.956923 0.108320
vn 0.070020 -0.079810 0.994348
vn 0.070020 -0.079810 0.994348
vn 0.070020 -0.079810 0.994348
vn 0.070020 -0.079800 -0.994349
vn 0.070020 -0.079800 -0.994349
vn 0.070020 -0.079800 -0.994349
vn 0.000000 0.000000 -1.000000
vn 0.000000 0.000000 -1.000000
vn 0.000000 0.000000 -1.000000
vn -0.000000 0.000000 1.000000
vn -0.000000 0.000000 1.000000
vn -0.000000 0.000000 1.000000
vn 0.070020 -0.079810 0.994348
vn 0.070020 -0.079810 0.994348
vn 0.070020 -0.079810 0.994348
vn 0.070020 -0.079800 -0.994349
vn 0.070020 -0.079800 -0.994349
vn 0.070020 -0.079800 -0.994349
vn 0.699069 0.711979 -0.066240
vn 0.699069 0.711979 -0.066240
vn 0.699069 0.711979 -0.066240
vn -0.699069 0.711979 -0.066240
vn -0.699069 0.711979 -0.066240
vn -0.699069 0.711979 -0.066240
vn -0.178759 -0.979947 0.088030
vn -0.517713 -0.840194 0.161391
vn -0.269381 -0.956923 0.108320
vn 0.178759 -0.979947 0.088030
vn 0.517713 -0.840194 0.161391
vn 0.269381 -0.956923 0.108320
vn 0.699069 0.711979 -0.066240
vn 0.699069 0.711979 -0.066240
vn 0.699069 0.711979 -0.066240
vn -0.699069 0.711979 -0.066240
vn -0.699069 0.711979 -0.066240
vn -0.699069 0.711979 -0.066240
vn -0.178759 -0.979947 0.088030
vn -0.517713 -0.840194 0.161391
vn -0.269381 -0.956923 0.108320
vn 0.178759 -0.979947 0.088030
vn 0.517713 -0.840194 0.161391
vn 0.269381 -0.956923 0.108320
vn 0.699069 0.711979 -0.066240
vn 0.699069 0.711979 -0.066240
vn 0.699069 0.711979 -0.066240
vn -0.699069 0.711979 -0.066240
vn -0.699069 0.711979 -0.066240
vn -0.699069 0.711979 -0.066240
s off
g semaforolowress02
usemtl semaforo
f 1/1/1 2/2/2 3/3/3 4/4/4
f 5/5/5 6/6/6 7/7/7 8/8/8
f 6/9/9 9/10/10 10/11/11 7/12/12
f 9/13/13 11/14/14 12/15/15 10/16/16
f 11/17/17 5/18/18 8/19/19 12/20/20
f 8/8/21 7/7/22 13/21/23 14/22/24
f 7/12/25 10/11/26 15/23/27 13/24/28
f 10/16/29 12/15/30 16/25/31 15/26/32
f 12/20/33 8/19/34 14/27/35 16/28/36
f 14/22/37 13/21/38 2/29/39 1/30/40
f 13/24/41 15/23/42 3/31/43 2/32/44
f 15/26/45 16/25/46 4/33/47 3/34/48
f 16/35/49 14/36/50 1/37/51 4/38/52
f 17/39/53 18/40/54 19/41/55 20/42/56
f 21/43/57 22/44/58 23/45/59 24/46/60
f 25/51/61 26/52/62 20/42/63 19/41/64
f 27/53/65 28/54/66 29/55/67 30/56/68
f 31/57/69 32/58/70 30/59/71 29/60/72
f 33/61/73 34/62/74 21/43/75 24/46/76
f 35/63/77 36/64/78 37/65/79 38/66/80
f 39/67/81 40/68/82 35/69/83 38/70/84
f 41/71/85 42/72/86 43/73/87 44/74/88
f 45/75/89 46/76/90 41/77/91 44/78/92
f 47/47/93 17/79/94 20/48/95
f 48/80/96 19/41/97 18/40/98
f 23/45/99 49/49/100 24/46/101
f 21/43/102 50/50/103 22/44/104
f 47/47/105 20/48/106 26/81/107
f 48/82/108 25/83/109 19/41/110
f 51/84/111 27/85/112 30/86/113
f 52/87/114 29/88/115 28/89/116
f 51/90/117 30/91/118 32/92/119
f 52/93/120 31/94/121 29/95/122
f 24/46/123 49/49/124 33/96/125
f 50/50/126 21/43/127 34/97/128
f 37/98/129 53/99/130 38/100/131
f 35/101/132 54/102/133 36/103/134
f 38/104/135 53/105/136 39/106/137
f 54/107/138 35/108/139 40/109/140
f 43/110/141 55/111/142 44/112/143
f 41/113/144 56/114/145 42/115/146
f 44/116/147 55/117/148 45/118/149
f 56/119/150 41/120/151 46/121/152
