# This file uses centimeters as units for non-parametric coordinates.

mtllib trafficSignalOverhand.mtl
v -1.559003 4.136269 0.008334
v -1.534818 4.136269 0.008334
v -1.546910 4.136269 -0.008334
v -1.559003 4.592262 0.008334
v -1.534818 4.592262 0.008334
v -1.546910 4.592262 -0.008334
v -1.709580 3.362758 -0.032720
v -1.709580 4.147660 -0.032720
v -1.430834 3.362758 -0.032720
v -1.430834 4.147660 -0.032720
v -1.709580 3.362758 0.031973
v -1.430834 3.362758 0.031973
v -1.430834 4.147660 0.031973
v -1.709580 4.147660 0.031973
v -1.458378 3.837124 0.026999
v -1.527492 3.882737 0.026999
v -1.612922 3.882737 0.026999
v -1.682035 3.837124 0.026999
v -1.708434 3.763320 0.026999
v -1.682035 3.689517 0.026999
v -1.458378 3.689517 0.026999
v -1.431979 3.763320 0.026999
v -1.458378 3.837124 0.132235
v -1.527492 3.882737 0.170342
v -1.612922 3.882737 0.170342
v -1.682035 3.837124 0.132235
v -1.708434 3.763320 0.110707
v -1.682035 3.689517 0.110707
v -1.458378 3.689517 0.110707
v -1.431979 3.763320 0.110707
v -1.458378 3.586262 0.026999
v -1.527492 3.631875 0.026999
v -1.612922 3.631875 0.026999
v -1.682035 3.586262 0.026999
v -1.708434 3.512458 0.026999
v -1.682035 3.438655 0.026999
v -1.458378 3.438655 0.026999
v -1.431979 3.512458 0.026999
v -1.458378 3.586262 0.132235
v -1.527492 3.631875 0.170342
v -1.612922 3.631875 0.170342
v -1.682035 3.586262 0.132235
v -1.708434 3.512458 0.110707
v -1.682035 3.438655 0.110707
v -1.458378 3.438655 0.110707
v -1.431979 3.512458 0.110707
v -1.458378 4.090656 0.026999
v -1.527492 4.136269 0.026999
v -1.612922 4.136269 0.026999
v -1.682035 4.090656 0.026999
v -1.708434 4.016852 0.026999
v -1.682035 3.943049 0.026999
v -1.458378 3.943049 0.026999
v -1.431979 4.016852 0.026999
v -1.458378 4.090656 0.132235
v -1.527492 4.136269 0.170342
v -1.612922 4.136269 0.170342
v -1.682035 4.090656 0.132235
v -1.708434 4.016852 0.110707
v -1.682035 3.943049 0.110707
v -1.458378 3.943049 0.110707
v -1.431979 4.016852 0.110707
v 0.057522 0.000000 -0.057522
v -0.057522 0.000000 -0.057522
v 0.051815 4.700075 -0.037547
v -0.051815 4.642145 -0.037547
v 0.051815 4.700075 0.037547
v -0.051815 4.642145 0.037547
v 0.057522 0.000000 0.057522
v -0.057522 0.000000 0.057522
v -0.051815 4.576547 -0.037547
v -0.051815 4.576547 0.037547
v -0.281768 4.608056 0.016033
v -0.281768 4.608056 -0.016033
v -0.281768 4.647594 0.016033
v -0.281768 4.647594 -0.016033
v -1.253662 4.608056 0.016033
v -1.253662 4.608056 -0.016033
v -1.253662 4.647594 0.016033
v -1.253662 4.647594 -0.016033
v -1.444654 4.602446 0.014408
v -1.444654 4.602446 -0.014408
v -1.444654 4.637977 0.014408
v -1.444654 4.637977 -0.014408
v -1.592276 4.569172 0.016213
v -1.592276 4.569172 -0.016213
v -1.592276 4.609156 0.016213
v -1.592276 4.609156 -0.016213
v -0.051815 4.700075 -0.037547
v -0.051815 4.700075 0.037547
vt 0.292986 0.000000
vt 0.292986 0.000000
vt 0.292986 1.000000
vt 0.292986 1.000000
vt 0.387774 0.000000
vt 0.387774 1.000000
vt 0.487886 0.243949
vt 0.990549 0.243949
vt 0.990549 0.989177
vt 0.487886 0.989177
vt 0.274169 0.099716
vt 0.274169 0.900283
vt 0.395915 0.900283
vt 0.395915 0.099716
vt 0.304096 -0.552666
vt 0.310208 0.447315
vt 0.453313 0.446440
vt 0.447201 -0.553541
vt 0.360471 0.000000
vt 0.360471 1.000000
vt 0.186623 1.000000
vt 0.186623 0.000000
vt 0.310208 0.447315
vt 0.304096 -0.552666
vt 0.447201 -0.553541
vt 0.453313 0.446440
vt 0.360471 1.000000
vt 0.360471 0.000000
vt 0.186623 0.000000
vt 0.186623 1.000000
vt 0.385635 0.706054
vt 0.347247 0.706054
vt 0.347247 0.293946
vt 0.385635 0.403502
vt 0.299797 0.706054
vt 0.299797 0.293946
vt 0.261409 0.706054
vt 0.261409 0.403502
vt 0.246746 0.706054
vt 0.246746 0.465396
vt 0.261409 0.706054
vt 0.261409 0.465396
vt 0.385635 0.706054
vt 0.400298 0.706054
vt 0.400298 0.465396
vt 0.385635 0.465396
vt 0.385635 0.706054
vt 0.347247 0.706054
vt 0.347247 0.293946
vt 0.385635 0.403502
vt 0.299797 0.706054
vt 0.299797 0.293946
vt 0.261409 0.706054
vt 0.261409 0.403502
vt 0.246746 0.706054
vt 0.246746 0.465396
vt 0.261409 0.706054
vt 0.261409 0.465396
vt 0.385635 0.706054
vt 0.400298 0.706054
vt 0.400298 0.465396
vt 0.385635 0.465396
vt 0.385635 0.706054
vt 0.347247 0.706054
vt 0.347247 0.293946
vt 0.385635 0.403502
vt 0.299797 0.706054
vt 0.299797 0.293946
vt 0.261409 0.706054
vt 0.261409 0.403502
vt 0.246746 0.706054
vt 0.246746 0.465396
vt 0.261409 0.706054
vt 0.261409 0.465396
vt 0.385635 0.706054
vt 0.400298 0.706054
vt 0.400298 0.465396
vt 0.385635 0.465396
vt 0.251156 1.000000
vt 0.251156 0.936968
vt 0.319448 0.936968
vt 0.319448 1.000000
vt 0.095185 0.987675
vt 0.095185 0.973718
vt 0.087995 0.000000
vt 0.232952 0.000000
vt 0.225762 1.000000
vt 0.095185 1.000000
vt 0.447950 0.647755
vt 0.484490 0.647755
vt 0.484490 0.597898
vt 0.447950 0.597898
vt 0.341661 0.000000
vt 0.229393 0.000000
vt 0.248885 0.973718
vt 0.322169 0.973718
vt 0.229393 0.000000
vt 0.341661 0.000000
vt 0.322169 1.000000
vt 0.248885 1.000000
vt 0.251156 0.936968
vt 0.319448 0.936968
vt 0.299883 0.797102
vt 0.270722 0.797102
vt 0.344914 1.000000
vt 0.285347 1.000000
vt 0.280399 0.850725
vt 0.316302 0.850725
vt 0.319448 0.936968
vt 0.251156 0.936968
vt 0.270722 0.797102
vt 0.299883 0.797102
vt 0.285347 1.000000
vt 0.344914 1.000000
vt 0.316302 0.850725
vt 0.280399 0.850725
vt 0.299883 0.205958
vt 0.270722 0.205958
vt 0.280399 0.219814
vt 0.316302 0.219814
vt 0.270722 0.205958
vt 0.299883 0.205958
vt 0.316302 0.219814
vt 0.280399 0.219814
vt 0.298405 0.089789
vt 0.272199 0.089789
vt 0.289132 0.095830
vt 0.321396 0.095830
vt 0.272199 0.089789
vt 0.298405 0.089789
vt 0.321396 0.095830
vt 0.289132 0.095830
vt 0.300047 -0.000000
vt 0.270558 -0.000000
vt 0.315304 0.000000
vt 0.351611 0.000000
vt 0.270558 -0.000000
vt 0.300047 -0.000000
vt 0.351611 0.000000
vt 0.315304 0.000000
vt 0.095185 0.987675
vt 0.095185 1.000000
vt 0.225762 1.000000
vt 0.232952 0.000000
vt 0.087995 0.000000
vt 0.095185 0.973718
vt 0.482677 0.606554
vt 0.482677 0.639098
vt 0.482677 0.639098
vt 0.482677 0.606554
vn 0.000000 0.000000 1.000000
vn 0.000000 0.000000 1.000000
vn 0.000000 0.000000 1.000000
vn 0.000000 0.000000 1.000000
vn 0.809413 0.000000 -0.587239
vn 0.809413 0.000000 -0.587239
vn 0.809413 0.000000 -0.587239
vn 0.809413 0.000000 -0.587239
vn -0.809413 0.000000 -0.587239
vn -0.809413 0.000000 -0.587239
vn -0.809413 0.000000 -0.587239
vn -0.809413 0.000000 -0.587239
vn 0.000000 0.000000 1.000000
vn 0.000000 0.000000 1.000000
vn 0.000000 0.000000 1.000000
vn 0.000000 0.000000 1.000000
vn 0.000000 0.000000 -1.000000
vn 0.000000 0.000000 -1.000000
vn 0.000000 0.000000 -1.000000
vn 0.000000 0.000000 -1.000000
vn 0.000000 -1.000000 0.000000
vn 0.000000 -1.000000 0.000000
vn 0.000000 -1.000000 0.000000
vn 0.000000 -1.000000 0.000000
vn 1.000000 0.000000 0.000000
vn 1.000000 0.000000 0.000000
vn 1.000000 0.000000 0.000000
vn 1.000000 0.000000 0.000000
vn 0.000000 1.000000 0.000000
vn 0.000000 1.000000 0.000000
vn 0.000000 1.000000 0.000000
vn 0.000000 1.000000 0.000000
vn -1.000000 0.000000 0.000000
vn -1.000000 0.000000 0.000000
vn -1.000000 0.000000 0.000000
vn -1.000000 0.000000 0.000000
vn 0.786621 0.617437 0.000000
vn 0.287556 0.957764 0.000000
vn 0.287556 0.957764 0.000000
vn 0.786621 0.617437 0.000000
vn -0.287556 0.957764 0.000000
vn -0.287556 0.957764 0.000000
vn -0.786620 0.617437 0.000000
vn -0.786620 0.617437 0.000000
vn -1.000000 -0.000001 0.000000
vn -1.000000 -0.000001 0.000000
vn -0.941577 -0.336798 0.000000
vn -0.941577 -0.336798 0.000000
vn 0.941577 -0.336797 0.000000
vn 1.000000 -0.000001 0.000000
vn 1.000000 -0.000001 0.000000
vn 0.941577 -0.336797 0.000000
vn 0.786621 0.617436 0.000000
vn 0.287558 0.957763 0.000000
vn 0.287558 0.957763 0.000000
vn 0.786621 0.617436 0.000000
vn -0.287558 0.957763 0.000000
vn -0.287558 0.957763 0.000000
vn -0.786621 0.617436 0.000000
vn -0.786621 0.617436 0.000000
vn -1.000000 -0.000000 0.000000
vn -1.000000 -0.000000 0.000000
vn -0.941577 -0.336799 0.000000
vn -0.941577 -0.336799 0.000000
vn 0.941577 -0.336797 0.000000
vn 1.000000 0.000000 0.000000
vn 1.000000 0.000000 0.000000
vn 0.941577 -0.336797 0.000000
vn 0.786621 0.617437 0.000000
vn 0.287556 0.957764 0.000000
vn 0.287556 0.957764 0.000000
vn 0.786621 0.617437 0.000000
vn -0.287557 0.957763 0.000000
vn -0.287557 0.957763 0.000000
vn -0.786621 0.617436 0.000000
vn -0.786621 0.617436 0.000000
vn -1.000000 -0.000001 0.000000
vn -1.000000 -0.000001 0.000000
vn -0.941577 -0.336799 0.000000
vn -0.941577 -0.336799 0.000000
vn 0.941577 -0.336797 0.000000
vn 1.000000 -0.000000 0.000000
vn 1.000000 -0.000000 0.000000
vn 0.941577 -0.336797 0.000000
vn 0.000000 1.000000 0.000000
vn 0.000000 1.000000 0.000000
vn 0.000000 1.000000 0.000000
vn 0.000000 1.000000 0.000000
vn -0.432590 0.405189 0.805412
vn -0.484101 -0.387357 0.784603
vn -0.002402 0.004253 0.999988
vn -0.002402 0.004253 0.999988
vn -0.002402 0.004253 0.999988
vn -0.002402 0.004253 0.999988
vn 0.000000 -1.000000 0.000000
vn 0.000000 -1.000000 0.000000
vn 0.000000 -1.000000 0.000000
vn 0.000000 -1.000000 0.000000
vn -0.999999 0.001247 0.000000
vn -0.999999 0.001247 0.000000
vn -0.484101 -0.387357 -0.784603
vn 0.999999 0.001214 0.000000
vn 0.999999 0.001214 0.000000
vn 0.999999 0.001214 0.000000
vn 0.999999 0.001214 0.000000
vn -0.080942 -0.703918 0.705654
vn -0.080942 -0.703918 -0.705654
vn -0.024580 0.707612 0.706173
vn -0.432590 0.405189 -0.805412
vn -0.024580 0.707612 -0.706173
vn 0.007373 -0.707018 0.707157
vn 0.007373 -0.707018 -0.707157
vn -0.020790 0.706737 0.707171
vn -0.020790 0.706737 -0.707171
vn 0.089635 -0.699854 0.708639
vn 0.089635 -0.699854 -0.708639
vn -0.084330 0.701095 0.708064
vn -0.084330 0.701095 -0.708064
vn -0.481707 -0.611960 0.627266
vn -0.481707 -0.611960 -0.627266
vn -0.643977 0.535906 0.545984
vn -0.643977 0.535906 -0.545984
vn -0.002402 0.004253 -0.999988
vn -0.002402 0.004253 -0.999988
vn -0.002402 0.004253 -0.999988
vn -0.002402 0.004253 -0.999988
vn -1.000000 0.000000 0.000000
vn -1.000000 0.000000 0.000000
s off
g pasted__trafficSignalOverhand group
usemtl pasted__lambert905SG
f 1/1/1 2/2/2 5/3/3 4/4/4
f 2/2/5 3/5/6 6/6/7 5/3/8
f 3/5/9 1/1/10 4/4/11 6/6/12
f 11/7/13 12/8/14 13/9/15 14/10/16
f 7/11/17 8/12/18 10/13/19 9/14/20
f 7/15/21 9/16/22 12/17/23 11/18/24
f 9/19/25 10/20/26 13/21/27 12/22/28
f 10/23/29 8/24/30 14/25/31 13/26/32
f 8/27/33 7/28/34 11/29/35 14/30/36
s 1
f 15/31/37 16/32/38 24/33/39 23/34/40
f 16/32/38 17/35/41 25/36/42 24/33/39
f 17/35/41 18/37/43 26/38/44 25/36/42
f 18/37/43 19/39/45 27/40/46 26/38/44
f 19/39/45 20/41/47 28/42/48 27/40/46
f 21/43/49 22/44/50 30/45/51 29/46/52
f 22/44/50 15/31/37 23/34/40 30/45/51
s 2
f 31/47/53 32/48/54 40/49/55 39/50/56
f 32/48/54 33/51/57 41/52/58 40/49/55
f 33/51/57 34/53/59 42/54/60 41/52/58
f 34/53/59 35/55/61 43/56/62 42/54/60
f 35/55/61 36/57/63 44/58/64 43/56/62
f 37/59/65 38/60/66 46/61/67 45/62/68
f 38/60/66 31/47/53 39/50/56 46/61/67
s 3
f 47/63/69 48/64/70 56/65/71 55/66/72
f 48/64/70 49/67/73 57/68/74 56/65/71
f 49/67/73 50/69/75 58/70/76 57/68/74
f 50/69/75 51/71/77 59/72/78 58/70/76
f 51/71/77 52/73/79 60/74/80 59/72/78
f 53/75/81 54/76/82 62/77/83 61/78/84
f 54/76/82 47/63/69 55/66/72 62/77/83
s off
f 65/79/85 89/80/86 90/81/87 67/82/88
s 4
f 68/83/89 72/84/90 70/85/91 69/86/92 67/87/93 90/88/94
s off
f 69/89/95 70/90/96 64/91/97 63/92/98
s 4
f 64/93/99 70/94/100 72/95/90 71/96/101
s off
f 69/97/102 63/98/103 65/99/104 67/100/105
s 4
f 71/101/101 72/102/90 73/103/106 74/104/107
f 72/105/90 68/106/89 75/107/108 73/108/106
f 68/109/89 66/110/109 76/111/110 75/112/108
f 66/113/109 71/114/101 74/115/107 76/116/110
f 74/104/107 73/103/106 77/117/111 78/118/112
f 73/108/106 75/107/108 79/119/113 77/120/111
f 75/112/108 76/111/110 80/121/114 79/122/113
f 76/116/110 74/115/107 78/123/112 80/124/114
f 78/118/112 77/117/111 81/125/115 82/126/116
f 77/120/111 79/119/113 83/127/117 81/128/115
f 79/122/113 80/121/114 84/129/118 83/130/117
f 80/124/114 78/123/112 82/131/116 84/132/118
f 82/126/116 81/125/115 85/133/119 86/134/120
f 81/128/115 83/127/117 87/135/121 85/136/119
f 83/130/117 84/129/118 88/137/122 87/138/121
f 84/132/118 82/131/116 86/139/120 88/140/122
f 86/134/120 85/133/119 87/138/121 88/137/122
f 66/141/109 89/142/123 65/143/124 63/144/125 64/145/126 71/146/101
f 66/147/109 68/148/89 90/149/127 89/150/128
